<svg id="visual" viewBox="0 0 900 600" width="900" height="600" xmlns="http://www.w3.org/2000/svg" xmlns:xlink="http://www.w3.org/1999/xlink" version="1.1"><rect x="0" y="0" width="900" height="600" fill="#fff"></rect><defs><linearGradient id="grad1_0" x1="33.3%" y1="100%" x2="100%" y2="0%"><stop offset="20%" stop-color="#abc99c" stop-opacity="1"></stop><stop offset="80%" stop-color="#abc99c" stop-opacity="1"></stop></linearGradient></defs><defs><linearGradient id="grad1_1" x1="33.3%" y1="100%" x2="100%" y2="0%"><stop offset="20%" stop-color="#abc99c" stop-opacity="1"></stop><stop offset="80%" stop-color="#c7dbbc" stop-opacity="1"></stop></linearGradient></defs><defs><linearGradient id="grad1_2" x1="33.3%" y1="100%" x2="100%" y2="0%"><stop offset="20%" stop-color="#e3eddd" stop-opacity="1"></stop><stop offset="80%" stop-color="#c7dbbc" stop-opacity="1"></stop></linearGradient></defs><defs><linearGradient id="grad1_3" x1="33.3%" y1="100%" x2="100%" y2="0%"><stop offset="20%" stop-color="#e3eddd" stop-opacity="1"></stop><stop offset="80%" stop-color="#ffffff" stop-opacity="1"></stop></linearGradient></defs><defs><linearGradient id="grad2_0" x1="0%" y1="100%" x2="66.7%" y2="0%"><stop offset="20%" stop-color="#abc99c" stop-opacity="1"></stop><stop offset="80%" stop-color="#abc99c" stop-opacity="1"></stop></linearGradient></defs><defs><linearGradient id="grad2_1" x1="0%" y1="100%" x2="66.7%" y2="0%"><stop offset="20%" stop-color="#c7dbbc" stop-opacity="1"></stop><stop offset="80%" stop-color="#abc99c" stop-opacity="1"></stop></linearGradient></defs><defs><linearGradient id="grad2_2" x1="0%" y1="100%" x2="66.7%" y2="0%"><stop offset="20%" stop-color="#c7dbbc" stop-opacity="1"></stop><stop offset="80%" stop-color="#e3eddd" stop-opacity="1"></stop></linearGradient></defs><defs><linearGradient id="grad2_3" x1="0%" y1="100%" x2="66.7%" y2="0%"><stop offset="20%" stop-color="#ffffff" stop-opacity="1"></stop><stop offset="80%" stop-color="#e3eddd" stop-opacity="1"></stop></linearGradient></defs><g transform="translate(900, 600)"><path d="M-378.6 0C-372.7 -73.1 -366.7 -146.2 -327.9 -189.3C-289 -232.4 -217.1 -245.4 -157 -271.9C-96.9 -298.5 -48.4 -338.5 0 -378.6L0 0Z" fill="#f1f6ee"></path><path d="M-283.9 0C-279.5 -54.8 -275.1 -109.7 -245.9 -142C-216.7 -174.3 -162.9 -184 -117.8 -203.9C-72.6 -223.9 -36.3 -253.9 0 -283.9L0 0Z" fill="#d5e4cd"></path><path d="M-189.3 0C-186.3 -36.6 -183.4 -73.1 -163.9 -94.6C-144.5 -116.2 -108.6 -122.7 -78.5 -136C-48.4 -149.2 -24.2 -169.3 0 -189.3L0 0Z" fill="#b9d2ac"></path><path d="M-94.6 0C-93.2 -18.3 -91.7 -36.6 -82 -47.3C-72.2 -58.1 -54.3 -61.3 -39.3 -68C-24.2 -74.6 -12.1 -84.6 0 -94.6L0 0Z" fill="#abc99c"></path></g><g transform="translate(0, 0)"><path d="M378.6 0C372.6 73 366.6 146 327.9 189.3C289.1 232.6 217.6 246.2 157.5 272.8C97.4 299.4 48.7 339 0 378.6L0 0Z" fill="#f1f6ee"></path><path d="M283.9 0C279.4 54.7 275 109.5 245.9 142C216.8 174.4 163.2 184.6 118.1 204.6C73 224.5 36.5 254.2 0 283.9L0 0Z" fill="#d5e4cd"></path><path d="M189.3 0C186.3 36.5 183.3 73 163.9 94.6C144.6 116.3 108.8 123.1 78.8 136.4C48.7 149.7 24.3 169.5 0 189.3L0 0Z" fill="#b9d2ac"></path><path d="M94.6 0C93.1 18.2 91.7 36.5 82 47.3C72.3 58.1 54.4 61.5 39.4 68.2C24.3 74.8 12.2 84.7 0 94.6L0 0Z" fill="#abc99c"></path></g></svg>