<?xml version="1.0" encoding="UTF-8"?>
<!-- Generator: Adobe Illustrator 25.2.1, SVG Export Plug-In . SVG Version: 6.00 Build 0)  -->
<svg xmlns="http://www.w3.org/2000/svg" xmlns:xlink="http://www.w3.org/1999/xlink" version="1.1" id="Capa_1" x="0px" y="0px" viewBox="0 0 512 512" style="enable-background:new 0 0 512 512;" xml:space="preserve" width="512" height="512">
<g>
	<path style="fill:#FFFFFF;" d="M255.987,512C114.835,512,0,397.165,0,256.013c0-41.632,9.989-82.132,29.083-118.579   c-10.53-2.177-18.469-11.524-18.469-22.69v-12.269c0-12.775,10.394-23.169,23.169-23.169h37.019   c22.759-23.881,49.424-42.855,79.35-56.453C183.447,7.69,219.059,0,255.987,0c3.929,0,7.24,0.072,10.42,0.224   c66.077,2.609,127.905,30.379,173.968,78.188C486.564,126.35,512,189.424,512,256.013c0,36.794-7.652,72.32-22.746,105.592   c-16.004,35.31-40.319,67.071-70.31,91.845C373.267,491.206,315.394,512,255.987,512z"/>
	<g>
		<g>
			<path style="fill:#8F8FEF;" d="M497.869,256.013c0,35.371-7.646,68.965-21.366,99.213l-66.082,86.316     c-41.575,34.367-94.94,55.012-153.119,55.012c-132.859,0-240.541-107.708-240.541-240.541     c0-97.385,57.87-181.281,141.097-219.098l109.124-21.264C395.36,20.723,497.869,126.397,497.869,256.013z"/>
		</g>
		<g>
			<circle style="fill:#FF899A;" cx="70.863" cy="283.168" r="32.206"/>
			<path style="fill:#FFD2A7;" d="M273.314,41.961c0,31.947-25.897,57.818-57.844,57.818c-31.947,0-57.844-25.871-57.844-57.818     c0-1.699,0.077-3.372,0.232-5.046c30.299-13.798,63.971-21.47,99.445-21.47c3.244,0,6.462,0.052,9.679,0.206     C271.048,23.555,273.314,32.487,273.314,41.961z"/>
			<path style="fill:#FF899A;" d="M476.502,355.226c-15.24,33.62-37.971,63.096-66.082,86.316     c-23.478-7.363-40.493-29.296-40.493-55.193c0-31.921,25.897-57.818,57.844-57.818     C448.236,328.53,466.231,339.188,476.502,355.226z"/>
		</g>
		<g>
			<g>
				<rect x="94.244" y="126.301" style="fill:#FFA766;" width="332.262" height="267.502"/>
			</g>
			<g>
				<rect x="119.736" y="244.326" style="fill:#401A49;" width="175.744" height="136.228"/>
			</g>
			<g>
				<rect x="332.909" y="126.301" style="fill:#F05D6A;" width="93.597" height="267.502"/>
			</g>
			<g>
				<rect x="92.698" y="142.692" style="fill:#401A49;" width="334.589" height="1.529"/>
			</g>
			<g>
				<rect x="92.698" y="138.012" style="fill:#401A49;" width="334.589" height="1.528"/>
			</g>
			<g>
				<rect x="113.887" y="164.29" style="fill:#FFF5EE;" width="204.601" height="43.604"/>
			</g>
			<g>
				<path style="fill:#401A49;" d="M309.863,205.725H122.382c-0.219,0-0.396-0.177-0.396-0.396c0-1.527-1.242-2.769-2.769-2.769      c-0.219,0-0.396-0.177-0.396-0.396v-32.146c0-0.219,0.177-0.396,0.396-0.396c1.527,0,2.769-1.242,2.769-2.769      c0-0.219,0.177-0.396,0.396-0.396h187.482c0.219,0,0.396,0.177,0.396,0.396c0,1.527,1.242,2.769,2.769,2.769      c0.219,0,0.396,0.177,0.396,0.396v32.146c0,0.219-0.177,0.396-0.396,0.396c-1.527,0-2.769,1.242-2.769,2.769      C310.26,205.548,310.082,205.725,309.863,205.725z M122.755,204.934H309.49c0.182-1.648,1.495-2.96,3.142-3.143v-31.399      c-1.648-0.182-2.96-1.495-3.142-3.143H122.755c-0.182,1.648-1.494,2.96-3.142,3.143v31.399      C121.261,201.973,122.573,203.286,122.755,204.934z"/>
			</g>
			<g>
				<path style="fill:#FFF5EE;" d="M79.44,266.164l37.696-37.956h197.062l-30.157,37.956      C284.041,266.164,78.92,266.164,79.44,266.164z"/>
			</g>
			<g>
				<polygon style="fill:#F05D6A;" points="284.041,266.164 313.938,243.806 314.198,228.208     "/>
			</g>
			<g>
				<path style="fill:#FFF5EE;" d="M295.09,349.752H118.826c-0.219,0-0.396-0.177-0.396-0.396c0-0.219,0.177-0.396,0.396-0.396      H295.09c0.219,0,0.396,0.177,0.396,0.396C295.486,349.575,295.309,349.752,295.09,349.752z"/>
			</g>
			<g>
				<path style="fill:#FFF5EE;" d="M131.175,381.469c-0.219,0-0.396-0.177-0.396-0.396v-31.456c0-0.219,0.177-0.396,0.396-0.396      c0.219,0,0.396,0.177,0.396,0.396v31.456C131.571,381.292,131.394,381.469,131.175,381.469z"/>
				<path style="fill:#FFF5EE;" d="M144.717,381.469c-0.219,0-0.396-0.177-0.396-0.396v-31.456c0-0.219,0.177-0.396,0.396-0.396      c0.219,0,0.396,0.177,0.396,0.396v31.456C145.113,381.292,144.936,381.469,144.717,381.469z"/>
				<path style="fill:#FFF5EE;" d="M158.261,381.469c-0.219,0-0.396-0.177-0.396-0.396v-31.456c0-0.219,0.177-0.396,0.396-0.396      c0.219,0,0.396,0.177,0.396,0.396v31.456C158.656,381.292,158.479,381.469,158.261,381.469z"/>
				<path style="fill:#FFF5EE;" d="M171.802,381.469c-0.219,0-0.396-0.177-0.396-0.396v-31.456c0-0.219,0.177-0.396,0.396-0.396      c0.219,0,0.396,0.177,0.396,0.396v31.456C172.198,381.292,172.021,381.469,171.802,381.469z"/>
				<path style="fill:#FFF5EE;" d="M185.344,381.469c-0.219,0-0.396-0.177-0.396-0.396v-31.456c0-0.219,0.177-0.396,0.396-0.396      c0.219,0,0.396,0.177,0.396,0.396v31.456C185.74,381.292,185.563,381.469,185.344,381.469z"/>
				<path style="fill:#FFF5EE;" d="M198.888,381.469c-0.219,0-0.396-0.177-0.396-0.396v-31.456c0-0.219,0.177-0.396,0.396-0.396      c0.219,0,0.396,0.177,0.396,0.396v31.456C199.283,381.292,199.106,381.469,198.888,381.469z"/>
				<path style="fill:#FFF5EE;" d="M212.429,381.469c-0.219,0-0.396-0.177-0.396-0.396v-31.456c0-0.219,0.177-0.396,0.396-0.396      c0.219,0,0.396,0.177,0.396,0.396v31.456C212.825,381.292,212.648,381.469,212.429,381.469z"/>
				<path style="fill:#FFF5EE;" d="M225.971,381.469c-0.219,0-0.396-0.177-0.396-0.396v-31.456c0-0.219,0.177-0.396,0.396-0.396      c0.219,0,0.396,0.177,0.396,0.396v31.456C226.367,381.292,226.19,381.469,225.971,381.469z"/>
				<path style="fill:#FFF5EE;" d="M239.515,381.469c-0.219,0-0.396-0.177-0.396-0.396v-31.456c0-0.219,0.177-0.396,0.396-0.396      c0.219,0,0.396,0.177,0.396,0.396v31.456C239.91,381.292,239.733,381.469,239.515,381.469z"/>
				<path style="fill:#FFF5EE;" d="M253.056,381.469c-0.219,0-0.396-0.177-0.396-0.396v-31.456c0-0.219,0.177-0.396,0.396-0.396      c0.219,0,0.396,0.177,0.396,0.396v31.456C253.452,381.292,253.275,381.469,253.056,381.469z"/>
				<path style="fill:#FFF5EE;" d="M266.6,381.469c-0.219,0-0.396-0.177-0.396-0.396v-31.456c0-0.219,0.177-0.396,0.396-0.396      c0.219,0,0.396,0.177,0.396,0.396v31.456C266.995,381.292,266.818,381.469,266.6,381.469z"/>
				<path style="fill:#FFF5EE;" d="M280.142,381.469c-0.219,0-0.396-0.177-0.396-0.396v-31.456c0-0.219,0.177-0.396,0.396-0.396      c0.219,0,0.396,0.177,0.396,0.396v31.456C280.537,381.292,280.36,381.469,280.142,381.469z"/>
			</g>
			<g>
				<path style="fill:#401A49;" d="M409.35,383.673h-53.555v-83.471c0-5.876,4.764-10.64,10.64-10.64h32.275      c5.876,0,10.64,4.764,10.64,10.64V383.673z"/>
			</g>
			<g>
				<g>
					<path style="fill:#401A49;" d="M182.454,188.08c0.74,0,1.345,0.445,1.345,1.184c0,0.432-0.136,0.851-0.099,1.309       c0.123,1.11,1.838,1.899,3.589,1.899c1.765,0,3.726-0.518,3.726-2.874c0-1.554-1.702-2.712-3.022-3.404       c-2.788-1.456-6.291-2.33-6.291-6.536c0-3.134,2.887-4.515,5.848-4.515c2.627,0,5.093,0.839,5.352,3.355       c0.074,0.925-0.666,1.419-1.356,1.419c-1.048,0-1.419-0.717-1.48-1.309c-0.48-0.789-1.664-0.998-2.664-0.998       c-1.369,0-2.898,0.567-2.898,2.035c0,1.738,1.813,2.627,3.244,3.366c2.602,1.345,6.056,3.047,6.056,6.686       c0,3.885-3.442,5.229-6.538,5.229c-2.64,0-6.561-1.282-6.463-4.798C180.888,188.796,181.27,188.08,182.454,188.08z"/>
				</g>
				<g>
					<path style="fill:#401A49;" d="M198.38,191.078c0-0.814-0.013-1.591-0.161-13.148c0-0.456-0.185-0.912-0.185-1.443       c0-0.851,0.382-1.345,1.863-1.345c0.752,0,1.122,0.691,1.122,1.32c0,0.728-0.074,1.468-0.074,2.43v2.726       c1.702,0.049,3.232,0.111,4.933,0.111c1.172,0,2.343-0.123,3.638-0.161c0.013-0.641,0.013-1.43,0.013-3.638       c0-0.469-0.148-0.95-0.148-1.443c0-0.851,0.384-1.345,1.876-1.345c0.802,0,1.085,0.827,1.085,1.32       c0,1.245-0.111,2.491-0.136,3.873c0,2.257,0.013,4.502,0.013,7.376c0,3.318,0.173,4.441,0.284,5.094       c0.049,0.272,0.087,0.531,0.087,0.826c0,0.74-0.309,1.283-1.468,1.283c-1.307,0-1.678-0.445-1.678-1.283       c0-0.851,0.186-1.677,0.186-2.565c0-2.158-0.112-4.293-0.124-6.82c-2.343-0.038-6.339,0.062-8.535,0.111       c0.061,5.292,0.197,6.956,0.296,7.894c0.049,0.444,0.074,0.802,0.074,1.394c0,0.74-0.284,1.271-1.456,1.271       c-1.307,0-1.591-0.432-1.591-1.271C198.293,192.816,198.38,192.015,198.38,191.078z"/>
				</g>
				<g>
					<path style="fill:#401A49;" d="M225.503,175.142c5.513,0,8.51,4.034,8.51,9.88c0,5.551-3.355,9.892-8.609,9.892       c-5.241,0-8.609-4.342-8.609-9.892C216.794,179.176,220.26,175.142,225.503,175.142z M225.441,192.398       c3.885,0,5.747-3.675,5.747-7.376c0-3.934-1.812-7.338-5.747-7.338c-3.713,0-5.835,2.935-5.835,7.338       C219.606,188.722,221.728,192.398,225.441,192.398z"/>
				</g>
				<g>
					<path style="fill:#401A49;" d="M238.451,191.904l-0.049-14.184c-0.098-0.235-0.185-0.703-0.185-1.061       c0-0.666,0.456-1.356,1.32-1.356c0.715,0,1.443,0.111,2.22,0.111c0.63,0,1.246-0.111,1.948-0.111       c4.651,0,8.203,2.627,8.203,7.277c0,6.623-5.328,7.869-10.016,7.869c-0.321,0.012-0.431,0.012-0.715,0       c0,1.148,0.012,1.234,0.012,1.629c0,0.531,0.16,1.036,0.16,1.628c0,0.876-0.9,1.209-1.479,1.209       c-0.802,0-1.542-0.507-1.542-1.381C238.328,193.002,238.44,192.483,238.451,191.904z M242.905,187.846       c5.488,0,6.141-2.799,6.141-5.365c0-4.121-3.786-4.589-5.587-4.589c-0.752,0-1.504,0.038-2.368,0.05       c0.074,6.438,0.087,8.041,0.099,9.83C241.856,187.81,242.646,187.846,242.905,187.846z"/>
				</g>
			</g>
		</g>
		<path style="fill:#401A49;" d="M441.561,396.191H75.464c-0.71,0-1.287-0.578-1.287-1.288s0.576-1.288,1.287-1.288h366.096    c0.71,0,1.287,0.577,1.287,1.288S442.271,396.191,441.561,396.191z"/>
		<g>
			<path style="fill:#FFF5EE;" d="M136.206,94.752H35.097c-4.265,0-7.723,3.458-7.723,7.723v12.269c0,4.265,3.458,7.723,7.723,7.723     h84.801l11.433,11.174l-3.328-11.174h8.203c4.265,0,7.723-3.458,7.723-7.723v-12.269     C143.929,98.21,140.472,94.752,136.206,94.752z"/>
			<g>
				<g>
					<path style="fill:#401A49;" d="M59.694,115.242v1.789h-0.935v-1.769c-2.187-0.1-3.818-1.114-4.435-2.824l0.915-0.517       c0.457,1.393,1.671,2.227,3.52,2.326v-5.905c-2.028-0.715-3.778-1.452-3.778-3.818c0-2.069,1.67-3.46,3.778-3.599v-1.79h0.935       v1.79c1.571,0.178,2.903,1.014,3.52,2.505l-0.895,0.498c-0.458-1.134-1.352-1.81-2.625-1.969v5.648       c2.028,0.716,3.858,1.51,3.858,3.878C63.552,113.57,61.961,115.022,59.694,115.242z M58.759,107.268v-5.33       c-1.631,0.139-2.724,1.193-2.724,2.585C56.035,106.094,57.188,106.691,58.759,107.268z M62.478,111.483       c0-1.591-1.154-2.247-2.784-2.824v5.548C61.484,114.009,62.478,112.914,62.478,111.483z"/>
				</g>
				<g>
					<path style="fill:#401A49;" d="M84.341,115.242v1.789h-0.935v-1.769c-2.187-0.1-3.818-1.114-4.434-2.824l0.915-0.517       c0.457,1.393,1.671,2.227,3.52,2.326v-5.905c-2.029-0.715-3.778-1.452-3.778-3.818c0-2.069,1.67-3.46,3.778-3.599v-1.79h0.935       v1.79c1.571,0.178,2.903,1.014,3.52,2.505l-0.895,0.498c-0.457-1.134-1.352-1.81-2.625-1.969v5.648       c2.028,0.716,3.858,1.51,3.858,3.878C88.199,113.57,86.608,115.022,84.341,115.242z M83.407,107.268v-5.33       c-1.631,0.139-2.724,1.193-2.724,2.585C80.682,106.094,81.836,106.691,83.407,107.268z M87.126,111.483       c0-1.591-1.154-2.247-2.784-2.824v5.548C86.131,114.009,87.126,112.914,87.126,111.483z"/>
				</g>
				<g>
					<path style="fill:#401A49;" d="M106.031,115.242v1.789h-0.935v-1.769c-2.187-0.1-3.818-1.114-4.435-2.824l0.915-0.517       c0.458,1.393,1.671,2.227,3.52,2.326v-5.905c-2.028-0.715-3.778-1.452-3.778-3.818c0-2.069,1.67-3.46,3.778-3.599v-1.79h0.935       v1.79c1.571,0.178,2.903,1.014,3.52,2.505l-0.895,0.498c-0.457-1.134-1.352-1.81-2.625-1.969v5.648       c2.028,0.716,3.858,1.51,3.858,3.878C109.889,113.57,108.298,115.022,106.031,115.242z M105.096,107.268v-5.33       c-1.631,0.139-2.724,1.193-2.724,2.585C102.372,106.094,103.526,106.691,105.096,107.268z M108.815,111.483       c0-1.591-1.154-2.247-2.784-2.824v5.548C107.82,114.009,108.815,112.914,108.815,111.483z"/>
				</g>
			</g>
		</g>
		<g>
			<path style="fill:#FFF5EE;" d="M428.439,107.239H295.658c0.953-5.097,3.475-9.911,7.234-13.464     c6.101-5.792,15.291-8.109,23.4-5.921c4.402,1.21,8.392,3.578,12.099,6.281c0.798-10.4,6.41-19.513,15.265-24.996     c8.881-5.483,19.822-7.105,30.119-5.56c12.871,1.931,24.945,8.778,33.234,18.818C422.879,89.502,426.818,98.151,428.439,107.239z     "/>
			<g>
				<path style="fill:#401A49;" d="M383.721,79.635c0,1.936-1.569,3.506-3.505,3.506c-1.936,0-3.505-1.569-3.505-3.506      c0-1.936,1.569-3.505,3.505-3.505C382.152,76.13,383.721,77.699,383.721,79.635z"/>
				<path style="fill:#401A49;" d="M292.142,184.798c0,1.936-1.569,3.505-3.505,3.505c-1.936,0-3.505-1.569-3.505-3.505      c0-1.936,1.569-3.506,3.505-3.506C290.573,181.292,292.142,182.861,292.142,184.798z"/>
				<path style="fill:#401A49;" d="M379.778,185.879h-90.264c-0.355,0-0.644-0.289-0.644-0.644c0-0.355,0.289-0.644,0.644-0.644      h89.62V80.511c0-0.355,0.289-0.644,0.644-0.644c0.355,0,0.644,0.289,0.644,0.644v104.724      C380.422,185.59,380.133,185.879,379.778,185.879z"/>
			</g>
		</g>
		<g>
			<g>
				<g>
					
						<ellipse transform="matrix(0.9818 -0.1899 0.1899 0.9818 -78.718 44.3747)" style="fill:#FFA766;" cx="192.177" cy="432.918" rx="23.333" ry="23.333"/>
				</g>
				<g>
					<path style="fill:#FFF5EE;" d="M192.176,454.558c-11.933,0-21.64-9.707-21.64-21.64c0-11.933,9.707-21.64,21.64-21.64       c11.932,0,21.641,9.708,21.641,21.64C213.817,444.851,204.109,454.558,192.176,454.558z M192.176,411.639       c-11.733,0-21.28,9.545-21.28,21.279c0,11.734,9.546,21.279,21.28,21.279c11.734,0,21.28-9.546,21.28-21.279       C213.456,421.184,203.91,411.639,192.176,411.639z"/>
				</g>
				<g>
					<path style="fill:#FFFFFF;" d="M193.79,441.852v2.29h-1.196v-2.264c-2.799-0.128-4.887-1.426-5.676-3.614l1.171-0.662       c0.586,1.783,2.138,2.851,4.505,2.978v-7.559c-2.596-0.916-4.836-1.859-4.836-4.887c0-2.648,2.138-4.429,4.836-4.607v-2.291       h1.196v2.291c2.011,0.228,3.716,1.298,4.505,3.206l-1.145,0.637c-0.585-1.451-1.731-2.317-3.36-2.52v7.229       c2.596,0.916,4.938,1.933,4.938,4.963C198.728,439.713,196.692,441.572,193.79,441.852z M192.594,431.646v-6.822       c-2.087,0.177-3.487,1.528-3.487,3.309C189.107,430.144,190.583,430.907,192.594,431.646z M197.354,437.041       c0-2.036-1.477-2.876-3.564-3.614v7.1C196.081,440.274,197.354,438.873,197.354,437.041z"/>
				</g>
			</g>
			<g>
				<g>
					
						<ellipse transform="matrix(0.9818 -0.1899 0.1899 0.9818 -77.5724 56.3298)" style="fill:#FFA766;" cx="255.128" cy="432.918" rx="23.333" ry="23.333"/>
				</g>
				<g>
					<path style="fill:#FFF5EE;" d="M255.128,454.558c-11.933,0-21.64-9.707-21.64-21.64c0-11.933,9.707-21.64,21.64-21.64       c11.932,0,21.641,9.708,21.641,21.64C276.769,444.851,267.06,454.558,255.128,454.558z M255.128,411.639       c-11.733,0-21.28,9.545-21.28,21.279c0,11.734,9.546,21.279,21.28,21.279c11.734,0,21.28-9.546,21.28-21.279       C276.408,421.184,266.862,411.639,255.128,411.639z"/>
				</g>
				<g>
					<path style="fill:#FFFFFF;" d="M256.742,441.852v2.29h-1.196v-2.264c-2.799-0.128-4.887-1.426-5.676-3.614l1.171-0.662       c0.586,1.783,2.139,2.851,4.505,2.978v-7.559c-2.596-0.916-4.836-1.859-4.836-4.887c0-2.648,2.138-4.429,4.836-4.607v-2.291       h1.196v2.291c2.011,0.228,3.716,1.298,4.505,3.206l-1.145,0.637c-0.585-1.451-1.731-2.317-3.36-2.52v7.229       c2.596,0.916,4.938,1.933,4.938,4.963C261.68,439.713,259.643,441.572,256.742,441.852z M255.546,431.646v-6.822       c-2.087,0.177-3.487,1.528-3.487,3.309C252.059,430.144,253.535,430.907,255.546,431.646z M260.306,437.041       c0-2.036-1.477-2.876-3.564-3.614v7.1C259.033,440.274,260.306,438.873,260.306,437.041z"/>
				</g>
			</g>
			<g>
				<g>
					
						<ellipse transform="matrix(0.939 -0.344 0.344 0.939 -129.5017 135.8262)" style="fill:#FFA766;" cx="318.08" cy="432.918" rx="23.333" ry="23.333"/>
				</g>
				<g>
					<path style="fill:#FFF5EE;" d="M318.08,454.558c-11.933,0-21.64-9.707-21.64-21.64c0-11.933,9.707-21.64,21.64-21.64       c11.932,0,21.641,9.708,21.641,21.64C339.72,444.851,330.012,454.558,318.08,454.558z M318.08,411.639       c-11.733,0-21.28,9.545-21.28,21.279c0,11.734,9.546,21.279,21.28,21.279c11.734,0,21.28-9.546,21.28-21.279       C339.359,421.184,329.813,411.639,318.08,411.639z"/>
				</g>
				<g>
					<path style="fill:#FFFFFF;" d="M319.694,441.852v2.29h-1.196v-2.264c-2.799-0.128-4.887-1.426-5.676-3.614l1.171-0.662       c0.586,1.783,2.138,2.851,4.505,2.978v-7.559c-2.596-0.916-4.836-1.859-4.836-4.887c0-2.648,2.138-4.429,4.836-4.607v-2.291       h1.196v2.291c2.011,0.228,3.716,1.298,4.505,3.206l-1.145,0.637c-0.585-1.451-1.731-2.317-3.36-2.52v7.229       c2.596,0.916,4.938,1.933,4.938,4.963C324.631,439.713,322.595,441.572,319.694,441.852z M318.497,431.646v-6.822       c-2.087,0.177-3.487,1.528-3.487,3.309C315.01,430.144,316.487,430.907,318.497,431.646z M323.257,437.041       c0-2.036-1.477-2.876-3.564-3.614v7.1C321.984,440.274,323.257,438.873,323.257,437.041z"/>
				</g>
			</g>
		</g>
		<g>
			<g>
				<g>
					<path style="fill:#FFF5EE;" d="M365.482,223.795h101.109c4.265,0,7.723,3.457,7.723,7.723v12.269       c0,4.265-3.458,7.723-7.723,7.723H381.79l-11.433,11.174l3.328-11.174h-8.203c-4.265,0-7.723-3.458-7.723-7.723v-12.269       C357.759,227.253,361.217,223.795,365.482,223.795z"/>
				</g>
				<path style="fill:#401A49;" d="M456.349,232.217h-80.844c-0.355,0-0.644-0.289-0.644-0.644s0.289-0.644,0.644-0.644h80.844      c0.355,0,0.644,0.289,0.644,0.644S456.704,232.217,456.349,232.217z"/>
				<path style="fill:#401A49;" d="M456.349,236.379h-80.844c-0.355,0-0.644-0.289-0.644-0.644c0-0.355,0.289-0.644,0.644-0.644      h80.844c0.355,0,0.644,0.289,0.644,0.644C456.993,236.09,456.704,236.379,456.349,236.379z"/>
				<path style="fill:#401A49;" d="M456.349,236.379h-80.844c-0.355,0-0.644-0.289-0.644-0.644c0-0.355,0.289-0.644,0.644-0.644      h80.844c0.355,0,0.644,0.289,0.644,0.644C456.993,236.09,456.704,236.379,456.349,236.379z"/>
				<path style="fill:#401A49;" d="M456.349,240.542h-80.844c-0.355,0-0.644-0.289-0.644-0.644c0-0.355,0.289-0.644,0.644-0.644      h80.844c0.355,0,0.644,0.289,0.644,0.644C456.993,240.253,456.704,240.542,456.349,240.542z"/>
				<path style="fill:#401A49;" d="M456.349,240.542h-80.844c-0.355,0-0.644-0.289-0.644-0.644c0-0.355,0.289-0.644,0.644-0.644      h80.844c0.355,0,0.644,0.289,0.644,0.644C456.993,240.253,456.704,240.542,456.349,240.542z"/>
				<path style="fill:#401A49;" d="M456.349,244.704h-80.844c-0.355,0-0.644-0.289-0.644-0.644c0-0.355,0.289-0.644,0.644-0.644      h80.844c0.355,0,0.644,0.289,0.644,0.644C456.993,244.415,456.704,244.704,456.349,244.704z"/>
			</g>
			<g>
				<path style="fill:#FFFFFF;" d="M119.337,341.19H49.173c-0.162,0-0.294-0.13-0.294-0.293v-44.693      c0-0.162,0.132-0.294,0.294-0.294h70.164c0.162,0,0.294,0.131,0.294,0.294v44.693C119.63,341.06,119.499,341.19,119.337,341.19z       M49.467,340.605h69.576v-44.107H49.467V340.605z"/>
				<g>
					<rect x="54.432" y="294.561" style="fill:#FFD0C4;" width="67.041" height="43.16"/>
					<path style="fill:#FFFFFF;" d="M89.048,318.346c-0.058,0-0.116-0.015-0.165-0.049l-34.617-23.492       c-0.134-0.091-0.169-0.274-0.079-0.408c0.093-0.134,0.276-0.166,0.408-0.079l34.447,23.376l32.257-23.37       c0.132-0.093,0.317-0.068,0.409,0.065c0.096,0.132,0.066,0.315-0.065,0.409L89.22,318.292       C89.168,318.328,89.108,318.346,89.048,318.346z"/>
					<path style="fill:#FFFFFF;" d="M54.431,338.014c-0.084,0-0.166-0.034-0.225-0.103c-0.104-0.125-0.088-0.31,0.036-0.413       l28.372-23.883c0.124-0.103,0.309-0.088,0.414,0.036c0.104,0.124,0.088,0.31-0.036,0.414l-28.372,23.88       C54.565,337.992,54.498,338.014,54.431,338.014z"/>
					<path style="fill:#FFFFFF;" d="M121.472,338.014c-0.07,0-0.141-0.025-0.198-0.076l-26.372-24.017       c-0.119-0.109-0.128-0.295-0.02-0.415c0.111-0.118,0.295-0.127,0.415-0.02l26.372,24.019c0.119,0.108,0.128,0.295,0.02,0.413       C121.631,337.983,121.552,338.014,121.472,338.014z"/>
				</g>
			</g>
			<g>
				<path style="fill:#FFFFFF;" d="M64.948,212.936c-0.075,0-0.15-0.029-0.208-0.086l-19.519-19.519      c-0.114-0.114-0.114-0.301,0-0.415l19.519-19.52c0.111-0.111,0.305-0.111,0.415,0l19.52,19.52      c0.055,0.055,0.086,0.13,0.086,0.208c0,0.077-0.031,0.152-0.086,0.208l-19.52,19.519      C65.098,212.907,65.023,212.936,64.948,212.936z M45.844,193.123l19.104,19.104l19.105-19.104l-19.105-19.105L45.844,193.123z"/>
				<path style="fill:#FFFFFF;" d="M436.632,208.205c-0.077,0-0.152-0.031-0.208-0.086l-15.239-15.238l-14.91,14.91      c-0.116,0.113-0.3,0.113-0.415,0c-0.114-0.114-0.114-0.301,0-0.415l15.117-15.117c0.116-0.113,0.3-0.113,0.415,0l15.218,15.218      l28.385-34.258c0.102-0.124,0.29-0.143,0.413-0.039c0.125,0.103,0.143,0.289,0.039,0.413l-28.59,34.506      c-0.053,0.064-0.13,0.102-0.213,0.106C436.64,208.205,436.637,208.205,436.632,208.205z"/>
				<path style="fill:#FFFFFF;" d="M459.636,313.696c-7.229,0-13.111-5.881-13.111-13.109c0-7.229,5.881-13.111,13.111-13.111      c7.228,0,13.109,5.881,13.109,13.111C472.745,307.814,466.864,313.696,459.636,313.696z M459.636,288.063      c-6.905,0-12.523,5.618-12.523,12.523c0,6.905,5.618,12.522,12.523,12.522c6.905,0,12.522-5.617,12.522-12.522      C472.158,293.681,466.541,288.063,459.636,288.063z"/>
				<path style="fill:#FFFFFF;" d="M112.271,430.687c-0.077,0-0.152-0.03-0.208-0.086c-0.085-0.084-0.128-0.273-0.08-0.383      c0.027-0.061,0.055-0.128,0.214-0.194l16.281-19.534c0.055-0.069,0.138-0.106,0.225-0.106c0.06-0.007,0.176,0.042,0.232,0.113      l15.117,19.718c0.07,0.091,0.081,0.211,0.028,0.312c-0.05,0.101-0.166,0.184-0.269,0.16c-11.719-0.351-29.371-0.681-31.25-0.184      l-0.066,0.079C112.439,430.648,112.343,430.677,112.271,430.687z M119.983,429.662c2.116,0,4.799,0.022,8.201,0.076      c6.496,0.106,13.03,0.288,15.028,0.344l-14.519-18.937l-15.587,18.703C114.122,429.741,116.096,429.662,119.983,429.662z"/>
			</g>
		</g>
	</g>
</g>















</svg>
