<?xml version="1.0" encoding="UTF-8"?>
<!-- Generator: Adobe Illustrator 21.0.0, SVG Export Plug-In . SVG Version: 6.00 Build 0)  -->
<svg xmlns="http://www.w3.org/2000/svg" xmlns:xlink="http://www.w3.org/1999/xlink" version="1.1" id="Capa_1" x="0px" y="0px" viewBox="0 0 512 512" style="enable-background:new 0 0 512 512;" xml:space="preserve" width="512" height="512">
<style type="text/css">
	.st0{fill:#FFFFFF;}
	.st1{fill:#FFD2A7;}
	.st2{fill:#8F8FEF;}
	.st3{fill:#FFF5EE;}
	.st4{fill:#F05D6A;}
	.st5{fill:#FFA766;}
	.st6{fill:#401A49;}
	.st7{fill:#FFD0C4;}
	.st8{fill:#FF899A;}
</style>
<g>
	<path class="st0" d="M265.215,502.142c-14.435,0-28.94-1.269-43.122-3.771c-0.408-0.063-0.814-0.138-1.221-0.222   c-3.681-0.669-7.377-1.421-10.993-2.236c-0.305-0.068-0.604-0.145-0.904-0.232c-45.442-10.611-86.809-33.951-119.641-67.506   c-1.559-1.586-3.116-3.203-4.619-4.868c-14.89-16.018-27.659-34.091-37.809-53.552c-8.044-15.395-14.426-31.609-19.025-48.328   l-5.286-0.046c-6.052-0.034-11.771-2.448-16.052-6.802c-4.286-4.356-6.606-10.12-6.541-16.231l0.669-66.592   c0.114-13.021,10.406-23.719,23.246-24.507c3.95-19.693,10.263-38.679,18.868-56.762c-9.565-3.038-16.543-12.33-16.543-23.289   V112.13c0-13.42,10.464-24.336,23.323-24.336h35.967c16.483-17.588,35.363-32.619,56.208-44.736   c7.145-4.163,14.464-7.946,21.74-11.236c28.314-12.903,58.606-20.2,90-21.675c4.1-0.194,7.94-0.289,11.735-0.289   c3.701,0,6.976,0.07,10.012,0.215c7.331,0.303,14.607,0.916,21.568,1.82c0.469,0.012,0.943,0.046,1.419,0.104l0.464,0.06   c0.638,0.079,1.267,0.198,1.883,0.357c8.291,1.193,16.509,2.805,24.476,4.803c0.085,0.008,0.169,0.018,0.254,0.028   c1.088,0.133,1.951,0.349,2.579,0.523c0.841,0.206,1.651,0.484,2.422,0.825c27.374,7.477,53.088,19.613,76.49,36.104   c0.375,0.217,0.74,0.452,1.093,0.702c2.719,1.934,5.545,4.055,8.559,6.424c0,0,48.089-0.783,48.169-0.783   c14.246,0,25.95,11.59,26.095,25.836l0.718,71.982c1.093,2.521,2.069,4.878,2.961,7.15c5.202,13.173,9.258,26.934,12.069,40.941   c0.679,1.296,1.17,2.698,1.443,4.162c2.729,14.621,4.112,29.728,4.112,44.901c0,28.573-4.858,56.556-14.44,83.171   c-16.385,41.066-41.063,78.666-75.668,106.669C377.979,482.148,322.334,502.142,265.215,502.142z"/>
	<g>
		<g>
			<path class="st1" d="M496.518,256.855c0,27.425-4.777,53.736-13.564,78.141c-13.955,39.038-38.589,73.89-70.517,100.244     c-39.974,33.043-91.284,52.894-147.222,52.894c-13.91,0-27.548-1.237-40.79-3.589c-0.223-0.025-0.446-0.074-0.669-0.124     c-3.564-0.644-7.104-1.361-10.618-2.153c-0.173-0.049-0.346-0.099-0.545-0.149c-43.563-10.123-82.398-32.573-112.644-63.488     c-1.436-1.46-2.846-2.921-4.208-4.431c-14.034-15.098-26.063-32.053-35.667-50.468c-9.158-17.524-16.138-36.385-20.569-56.211     c-3.638-16.311-5.569-33.266-5.569-50.667c0-2.574,0.049-5.173,0.148-7.722c0.272-8.836,1.04-17.524,2.302-26.063     c4.529-30.915,15.173-59.849,30.667-85.541c3.341-5.544,6.93-10.94,10.692-16.163c1.758-2.426,3.564-4.827,5.421-7.178     c2.871-3.663,5.841-7.227,8.91-10.693c16.386-18.464,35.667-34.281,57.127-46.756c6.584-3.837,13.391-7.376,20.395-10.544     c25.964-11.831,54.528-18.96,84.576-20.371c3.663-0.173,7.326-0.272,11.039-0.272c3.119,0,6.212,0.049,9.307,0.198     c7.178,0.297,14.257,0.891,21.262,1.832c0.198,0.025,0.371,0.05,0.569,0.074c9.01,1.213,17.871,2.945,26.509,5.173     c0.198,0.025,0.421,0.099,0.619,0.149c27.598,7.153,53.092,19.281,75.69,35.37h0.099c11.039,7.846,21.361,16.658,30.816,26.286     c0.322,0.297,0.619,0.619,0.916,0.94c4.134,4.233,8.094,8.639,11.881,13.168c0.421,0.495,0.842,1.015,1.238,1.51     c6.931,8.415,13.242,17.351,18.91,26.707c0.445,0.668,0.841,1.361,1.237,2.03c3.119,5.247,6.015,10.618,8.713,16.113     c0.223,0.421,0.421,0.817,0.594,1.237c2.525,5.198,4.851,10.519,6.98,15.94c5.346,13.539,9.43,27.722,12.103,42.399     C495.206,228.341,496.518,242.449,496.518,256.855z"/>
		</g>
		<g>
			<g>
				<g>
					<path class="st2" d="M497.15,256.855c0,27.425-4.777,53.736-13.564,78.141c-9.802,5.124-20.965,7.995-32.796,7.995       c-39.305,0-71.185-31.88-71.185-71.185c0-8.465,1.485-16.583,4.208-24.108c0.049-0.198,0.124-0.371,0.198-0.545       c7.376-20.073,23.563-35.89,43.885-42.771c0.173-0.074,0.346-0.149,0.52-0.173c7.03-2.352,14.554-3.613,22.375-3.613       c15.94,0,30.642,5.222,42.498,14.083C495.838,228.341,497.15,242.449,497.15,256.855z"/>
				</g>
				<g>
					<path class="st0" d="M428.415,204.208c-5.693-8.094-15.123-13.366-25.741-13.366c-17.4,0-31.583,14.158-31.583,31.558       c0,10.346,5,19.529,12.722,25.296c5.272,3.936,11.806,6.262,18.861,6.262c17.4,0,31.558-14.158,31.558-31.558       C434.232,215.619,432.078,209.332,428.415,204.208z M402.674,253.39c-6.98,0-13.465-2.327-18.663-6.237       c-7.5-5.668-12.351-14.653-12.351-24.752c0-17.103,13.91-31.014,31.014-31.014c10.371,0,19.578,5.124,25.222,12.995       c3.613,5.074,5.767,11.287,5.767,18.019C433.662,239.504,419.752,253.39,402.674,253.39z"/>
				</g>
				<g>
					<g>
						<path class="st3" d="M350.319,212.814c-2.559,0-4.634-2.075-4.634-4.635c0-2.559,2.075-4.634,4.634-4.634        c2.56,0,4.634,2.075,4.634,4.634C354.953,210.739,352.878,212.814,350.319,212.814z"/>
					</g>
					<g>
						<path class="st3" d="M350.319,227.981c-2.559,0-4.634-2.075-4.634-4.635c0-2.559,2.075-4.634,4.634-4.634        c2.56,0,4.634,2.075,4.634,4.634C354.953,225.906,352.878,227.981,350.319,227.981z"/>
					</g>
					<g>
						<path class="st3" d="M350.319,227.981c-2.559,0-4.634-2.075-4.634-4.635c0-2.559,2.075-4.634,4.634-4.634        c2.56,0,4.634,2.075,4.634,4.634C354.953,225.906,352.878,227.981,350.319,227.981z"/>
					</g>
					<g>
						<path class="st3" d="M350.319,243.148c-2.559,0-4.634-2.075-4.634-4.634s2.075-4.634,4.634-4.634        c2.56,0,4.634,2.075,4.634,4.634S352.878,243.148,350.319,243.148z"/>
					</g>
				</g>
			</g>
			<g>
				<path class="st0" d="M90.061,199.827h0.025c0.099,0,0.198-0.05,0.247-0.149c0.05-0.098,0.026-0.222-0.024-0.296l-14.554-18.96      c-0.049-0.074-0.124-0.124-0.198-0.124h-0.025c-0.074,0-0.149,0.049-0.198,0.099l-15.618,18.727c0,0-0.148,0.193-0.045,0.382      c0.064,0.118,0.341,0.114,0.341,0.114L90.061,199.827z M60.534,199.011l14.999-17.97l13.96,18.193L60.534,199.011z"/>
			</g>
			<g>
				<path class="st0" d="M323.493,32.829l-33.217,37.919l6.708-43.092c-0.198-0.025-0.371-0.049-0.569-0.074l-6.831,44.058      c-0.025,0.124,0.049,0.247,0.149,0.297c0.049,0.025,0.099,0.025,0.124,0.025c0.074,0,0.173-0.025,0.223-0.099l34.033-38.884      C323.914,32.928,323.691,32.854,323.493,32.829z"/>
			</g>
			<g>
				<path class="st0" d="M255.006,449.744l-34.133-14.529c-0.074-0.025-0.173-0.025-0.247,0c-0.074,0.049-0.124,0.124-0.148,0.223      l-7.253,46.681c0.198,0.049,0.372,0.099,0.545,0.149l7.227-46.385l33.439,14.232l-30.048,34.306      c0.223,0.049,0.445,0.099,0.668,0.124l30.048-34.355c0.049-0.074,0.074-0.148,0.074-0.247      C255.154,449.867,255.08,449.793,255.006,449.744z"/>
			</g>
			<g>
				<g>
					<path class="st3" d="M302.922,447.901c0,2.56-2.075,4.634-4.634,4.634c-2.56,0-4.634-2.075-4.634-4.634       s2.075-4.634,4.634-4.634S302.922,445.341,302.922,447.901z"/>
				</g>
				<g>
					<path class="st3" d="M318.089,447.901c0,2.56-2.075,4.634-4.634,4.634c-2.56,0-4.634-2.075-4.634-4.634       s2.075-4.634,4.634-4.634C316.014,443.267,318.089,445.341,318.089,447.901z"/>
				</g>
				<g>
					<path class="st3" d="M318.089,447.901c0,2.56-2.075,4.634-4.634,4.634c-2.56,0-4.634-2.075-4.634-4.634       s2.075-4.634,4.634-4.634C316.014,443.267,318.089,445.341,318.089,447.901z"/>
				</g>
				<g>
					<path class="st3" d="M333.256,447.901c0,2.56-2.075,4.634-4.634,4.634c-2.56,0-4.634-2.075-4.634-4.634       s2.075-4.634,4.634-4.634S333.256,445.341,333.256,447.901z"/>
				</g>
			</g>
		</g>
		<g>
			<path class="st4" d="M266.898,62.407c0,7.252-1.312,14.208-3.713,20.618c-1.46,3.911-3.316,7.623-5.519,11.064     c-4.406,6.906-10.173,12.821-16.98,17.351c-0.099,0.074-0.198,0.149-0.322,0.223c-3.539,2.352-7.351,4.307-11.386,5.842     c-1.213,0.47-2.475,0.916-3.737,1.312c-3.342,1.015-6.807,1.757-10.371,2.153c-0.619,0.099-1.238,0.148-1.856,0.198     c-1.683,0.149-3.391,0.223-5.099,0.223c-20.915,0-39.281-10.891-49.751-27.301c-2.203-3.44-4.059-7.153-5.519-11.064     c-2.401-6.411-3.713-13.366-3.713-20.618c0-1.906,0.099-3.787,0.272-5.668c6.584-3.837,13.391-7.376,20.395-10.544     c25.964-11.831,54.528-18.96,84.576-20.371C262.146,35.873,266.898,48.595,266.898,62.407z"/>
		</g>
		<g>
			<path class="st5" d="M100.914,307.596v0.47c-0.198,26.063-17.277,48.068-40.84,55.666c-9.158-17.524-16.138-36.385-20.569-56.211     l-16.781-0.149c-4.381-0.025-7.92-3.614-7.871-8.02l0.446-44.379c5.767-2.945,12.103-4.95,18.786-5.841     c2.574-0.346,5.198-0.52,7.846-0.52c2.054,0,4.084,0.099,6.089,0.297c8.019,0.842,15.569,3.267,22.301,6.98     c0.446,0.248,0.891,0.495,1.337,0.767c0.272,0.148,0.52,0.297,0.792,0.445c10.222,6.188,18.39,15.396,23.316,26.385     c0.099,0.198,0.198,0.421,0.272,0.619C99.182,291.309,100.914,299.254,100.914,307.596z"/>
		</g>
		<g>
			<g>
				<path class="st6" d="M331.605,413.775H112.038c-1.028,0-1.862-0.834-1.862-1.862V84.893c0-1.028,0.834-1.862,1.862-1.862      h219.567c1.028,0,1.862,0.834,1.862,1.862v327.02C333.467,412.942,332.633,413.775,331.605,413.775z"/>
			</g>
			<g>
				<rect x="120.566" y="83.221" class="st3" width="0.561" height="329.792"/>
			</g>
			<g>
				<rect x="140.279" y="94.082" class="st2" width="180.614" height="296.26"/>
			</g>
			<g>
				<polygon class="st5" points="232.872,123.843 240.68,111.107 240.364,126.043 253.819,119.551 245.478,131.945 260.307,133.757       246.589,139.674 258.084,149.216 243.345,146.777 247.857,161.019 236.776,150.999 232.872,165.419 228.967,150.999       217.887,161.019 222.398,146.777 207.659,149.216 219.154,139.674 205.437,133.757 220.266,131.945 211.924,119.551       225.379,126.043 225.063,111.107     "/>
			</g>
			<g>
				<path class="st3" d="M287.023,312.037h-110.97c-1.028,0-1.862-0.834-1.862-1.862v-30.951c0-1.028,0.834-1.862,1.862-1.862      h110.97c1.028,0,1.862,0.834,1.862,1.862v30.951C288.885,311.204,288.051,312.037,287.023,312.037z"/>
			</g>
			<g>
				<g>
					<g>
						<rect x="186.039" y="173.778" class="st7" width="90.704" height="81.675"/>
					</g>
					<g>
						<rect x="182.551" y="172.153" class="st6" width="96.449" height="1.607"/>
					</g>
					<g>
						<rect x="186.039" y="179.117" class="st6" width="90.757" height="0.404"/>
					</g>
					<g>
						<rect x="186.039" y="181.58" class="st6" width="90.757" height="0.403"/>
					</g>
					<g>
						<rect x="200.815" y="185.68" class="st3" width="58.485" height="14.57"/>
					</g>
					<g>
						<rect x="196.3" y="206.308" class="st6" width="69.567" height="46.78"/>
					</g>
				</g>
				<g>
					<path class="st6" d="M288.886,256.447H175.333c-0.445,0-0.805-0.36-0.805-0.804c0-0.444,0.36-0.804,0.805-0.804h113.552       c0.445,0,0.805,0.36,0.805,0.804C289.691,256.087,289.331,256.447,288.886,256.447z"/>
				</g>
			</g>
			<g>
				<g>
					<g>
						<path class="st6" d="M206.43,291.16c-1.238-0.644-2.822-1.411-2.822-2.921c0-1.287,1.337-1.782,2.525-1.782        c0.866,0,1.881,0.198,2.302,0.866c0.074,0.52,0.396,1.139,1.287,1.139c0.619,0,1.262-0.421,1.188-1.238        c-0.223-2.178-2.376-2.921-4.653-2.921c-2.574,0-5.074,1.213-5.074,3.935c0,3.663,3.045,4.431,5.47,5.693        c1.139,0.594,2.624,1.609,2.624,2.945c0,2.055-1.708,2.5-3.242,2.5c-1.535,0-3.02-0.668-3.119-1.633        c-0.05-0.396,0.074-0.767,0.074-1.139c0-0.643-0.52-1.039-1.164-1.039c-1.04,0-1.361,0.619-1.436,1.782        c-0.099,3.069,3.317,4.183,5.619,4.183c2.698,0,5.693-1.188,5.693-4.554C211.702,293.809,208.683,292.324,206.43,291.16z"/>
					</g>
				</g>
				<g>
					<g>
						<path class="st6" d="M227.964,299.675c-0.099-0.569-0.247-1.535-0.247-4.431c0-2.5-0.025-4.455-0.025-6.41        c0.025-1.213,0.124-2.277,0.124-3.366c0-0.421-0.247-1.163-0.94-1.163c-1.312,0-1.633,0.446-1.633,1.188        c0,0.421,0.124,0.841,0.124,1.238v3.168c-1.139,0.049-2.153,0.148-3.168,0.148c-1.485,0-2.822-0.049-4.282-0.099v-2.376        c0-0.841,0.049-1.485,0.049-2.104c0-0.545-0.322-1.163-0.965-1.163c-1.287,0-1.633,0.446-1.633,1.188        c0,0.446,0.173,0.841,0.173,1.238c0.124,10.049,0.149,10.742,0.149,11.435c0,0.817-0.099,1.51-0.099,2.252        c0,0.718,0.247,1.089,1.386,1.089c1.04,0,1.287-0.445,1.287-1.089c0-0.52-0.025-0.841-0.074-1.213        c-0.099-0.817-0.198-2.277-0.272-6.881c1.931-0.049,5.396-0.124,7.425-0.099c0.025,2.203,0.124,4.059,0.124,5.94        c0,0.767-0.173,1.485-0.173,2.227c0,0.743,0.322,1.114,1.46,1.114c1.015,0,1.287-0.47,1.287-1.114        C228.038,300.145,227.989,299.923,227.964,299.675z"/>
					</g>
				</g>
				<g>
					<g>
						<path class="st6" d="M239.251,284.304c-4.554,0-7.574,3.515-7.574,8.613c0,4.827,2.945,8.589,7.5,8.589        c4.579,0,7.475-3.762,7.475-8.589C246.651,287.819,244.052,284.304,239.251,284.304z M239.201,299.328        c-3.218,0-5.074-3.193-5.074-6.411c0-3.836,1.856-6.386,5.074-6.386c3.44,0,5,2.945,5,6.386        C244.201,296.135,242.592,299.328,239.201,299.328z"/>
					</g>
				</g>
				<g>
					<g>
						<path class="st6" d="M255.092,284.453c-0.619,0-1.139,0.099-1.683,0.099c-0.693,0-1.312-0.099-1.931-0.099        c-0.767,0-1.163,0.594-1.163,1.188c0,0.297,0.074,0.718,0.173,0.916l0.025,12.326c0,0.52-0.099,0.965-0.099,1.436        c0,0.743,0.644,1.188,1.337,1.188c0.52,0,1.287-0.297,1.287-1.039c0-0.52-0.124-0.965-0.124-1.436        c0-0.322-0.025-0.396-0.025-1.411c0.247,0.025,0.346,0.025,0.619,0c4.084,0,8.713-1.089,8.713-6.831        C262.22,286.73,259.126,284.453,255.092,284.453z M254.399,295.368c-0.223,0-0.916-0.025-1.485-0.075        c-0.025-1.559-0.025-2.945-0.099-8.539c0.743-0.025,1.411-0.05,2.054-0.05c1.584,0,4.876,0.421,4.876,3.985        C259.745,292.918,259.176,295.368,254.399,295.368z"/>
					</g>
				</g>
			</g>
			<g>
				<polygon class="st3" points="239.235,332.785 241.133,349.932 244.373,345.224 249.303,352.254 252.553,349.531       248.024,342.926 253.707,341.502     "/>
			</g>
			<g>
				<path class="st3" d="M206.876,394.721v13.143h57.72v-13.143H206.876z M264.027,407.295H207.42V395.29h56.607V407.295z"/>
			</g>
		</g>
		<g>
			<g>
				<path class="st5" d="M475.776,267.572v85.096c-5.495,12.054-11.98,23.563-19.38,34.38c-0.149,0.248-0.322,0.47-0.495,0.693      c-0.47,0.742-0.99,1.485-1.534,2.203c-0.198,0.322-0.446,0.668-0.693,0.99c-1.039,1.485-2.129,2.97-3.242,4.431      c-0.173,0.272-0.396,0.569-0.619,0.841c-0.025,0.049-0.05,0.074-0.074,0.099c-2.846,3.787-5.817,7.475-8.91,11.064      c-0.198,0.247-0.396,0.47-0.619,0.718c-2.747,3.168-5.569,6.262-8.465,9.282H291.749V267.572H475.776z"/>
			</g>
			<g>
				<path class="st6" d="M476.544,297.2l-0.767-0.124l-89.65-14.554l89.65-14.604h0.049c0.173-0.025,0.322-0.198,0.297-0.396      c-0.049-0.198-0.223-0.322-0.421-0.272l-1.98,0.322l-89.774,14.603l-4.307-0.693l-46.187-7.475l-12.574-2.055l-27.078-4.381      l-1.98-0.322c-0.198-0.05-0.371,0.074-0.421,0.272c-0.025,0.198,0.099,0.371,0.297,0.396h0.049l29.133,4.728l12.574,2.054      l46.285,7.5l2.03,0.322l-1.955,0.322l-46.36,7.549l-12.574,2.055l-29.133,4.752h-0.049c-0.173,0.025-0.297,0.173-0.297,0.372      c0.025,0.173,0.173,0.322,0.346,0.322h184.721c0.198,0,0.346-0.149,0.346-0.322C476.841,297.373,476.717,297.224,476.544,297.2z       M296.08,297.2l24.801-4.034l12.574-2.055l46.484-7.574l4.01-0.644l88.189,14.306H296.08V297.2z"/>
			</g>
			<g>
				<path class="st6" d="M450.084,387.048h-17.821c-0.198,0-0.346,0.149-0.346,0.346v20.346c0,0.173,0.148,0.346,0.346,0.346h7.945      c0.223-0.247,0.421-0.47,0.619-0.718h-8.218V387.74h17.128v8.564c0.025-0.025,0.05-0.049,0.074-0.099      c0.223-0.272,0.446-0.569,0.619-0.841v-7.97C450.431,387.196,450.282,387.048,450.084,387.048z"/>
			</g>
			<g>
				<path class="st6" d="M454.02,387.048c-0.198,0-0.347,0.149-0.347,0.346v3.54c0.247-0.322,0.495-0.668,0.693-0.99v-2.203h1.534      c0.173-0.223,0.346-0.446,0.495-0.693L454.02,387.048L454.02,387.048z"/>
			</g>
			<rect x="353.03" y="306.29" class="st6" width="62.214" height="9.823"/>
		</g>
		<g>
			<g>
				<path class="st3" d="M160.476,103.486H49.565c-4.679,0-8.472,4.247-8.472,9.486v15.07c0,5.239,3.793,9.486,8.472,9.486h93.023      l12.542,13.724l-3.651-13.724h8.998c4.679,0,8.472-4.247,8.472-9.486v-15.07C168.948,107.733,165.155,103.486,160.476,103.486z"/>
			</g>
			<g>
				<g>
					<polygon class="st5" points="60.294,111.844 62.778,116.877 68.333,117.684 64.314,121.602 65.262,127.134 60.294,124.522        55.326,127.134 56.275,121.602 52.256,117.684 57.81,116.877      "/>
				</g>
				<g>
					<polygon class="st5" points="82.003,111.844 84.487,116.877 90.042,117.684 86.022,121.602 86.971,127.134 82.003,124.522        77.035,127.134 77.984,121.602 73.965,117.684 79.519,116.877      "/>
				</g>
				<g>
					<polygon class="st5" points="103.712,111.844 106.196,116.877 111.75,117.684 107.731,121.602 108.68,127.134 103.712,124.522        98.744,127.134 99.692,121.602 95.673,117.684 101.228,116.877      "/>
				</g>
				<g>
					<polygon class="st5" points="125.42,111.844 127.904,116.877 133.459,117.684 129.44,121.602 130.388,127.134 125.42,124.522        120.452,127.134 121.401,121.602 117.382,117.684 122.936,116.877      "/>
				</g>
				<g>
					<polygon class="st5" points="147.129,111.844 149.613,116.877 155.167,117.684 151.148,121.602 152.097,127.134        147.129,124.522 142.161,127.134 143.11,121.602 139.09,117.684 144.645,116.877      "/>
				</g>
			</g>
		</g>
		<g>
			<path class="st8" d="M313.357,418.631H99.949c-1.436-1.46-2.846-2.921-4.208-4.431c3.985-4.752,8.935-8.713,14.43-11.609     c3.292-1.757,6.782-3.119,10.395-4.034c0.198-0.05,0.371-0.099,0.569-0.124c1.089-0.272,2.178-0.52,3.267-0.693     c13.737-2.277,28.39,1.832,38.909,10.94c3.094-7.104,7.871-13.341,13.712-18.341c10.693-9.208,24.999-14.381,39.132-13.638     c12.054,0.619,23.663,5.693,32.722,13.638c1.609,1.361,3.094,2.822,4.505,4.381c0.198,0.198,0.371,0.371,0.52,0.57     c3.267,3.614,6.015,7.648,8.168,12.004c0.099,0.198,0.198,0.371,0.272,0.569c0.916,1.906,1.733,3.886,2.376,5.916     c0.099,0.223,0.173,0.47,0.248,0.693c0.272-0.247,0.544-0.47,0.841-0.693c7.054-5.643,16.881-7.351,25.94-6.262     c0.569,0.074,1.114,0.148,1.683,0.247c5.198,0.817,10.173,2.945,14.455,6.015c1.51,1.089,2.945,2.277,4.258,3.589     C312.565,417.789,312.961,418.21,313.357,418.631z"/>
		</g>
		<g>
			<path class="st6" d="M449.812,396.206c-0.025,0.049-0.05,0.074-0.074,0.099c-2.846,3.787-5.817,7.475-8.91,11.064     c-0.198,0.247-0.396,0.47-0.619,0.718c-2.747,3.168-5.569,6.262-8.465,9.282c-0.619,0.644-1.237,1.263-1.881,1.881h-50.196     c0.545-0.643,1.089-1.262,1.683-1.881c3.564-3.787,7.821-6.881,12.697-8.663c8.267-2.995,18.366-1.634,24.554,4.629     c2.846-5.718,7.648-10.247,13.316-13.217c0.223-0.148,0.446-0.247,0.693-0.371c5.272-2.649,11.287-3.936,17.128-3.539h0.074     V396.206z"/>
		</g>
		<g>
			<g>
				<path class="st3" d="M475.846,87.867c-0.062-6.239-5.191-11.234-11.43-11.133l-108.858,1.777c-4.911,0.08-8.85,4.084-8.85,8.996      v56.618l-27.566,17.229l27.566-0.606v3.589c0,5,4.077,9.041,9.077,8.997l111.897-0.989c4.973-0.044,8.967-4.114,8.917-9.087      L475.846,87.867z"/>
			</g>
			<g>
				<g>
					<path class="st6" d="M465.744,157.884h-95.17c-0.31,0-0.562-0.251-0.562-0.562v-51.676c0-0.311,0.253-0.562,0.562-0.562       c0.31,0,0.562,0.251,0.562,0.562v51.114h94.607c0.31,0,0.562,0.252,0.562,0.562       C466.307,157.632,466.054,157.884,465.744,157.884z"/>
				</g>
				<g>
					<path class="st6" d="M401.149,157.669c-0.31,0-0.562-0.251-0.562-0.562v-35.611H383.41v35.264c0,0.311-0.253,0.562-0.562,0.562       c-0.31,0-0.562-0.252-0.562-0.562v-35.826c0-0.311,0.253-0.562,0.562-0.562h18.302c0.31,0,0.562,0.252,0.562,0.562v36.174       C401.711,157.417,401.459,157.669,401.149,157.669z"/>
				</g>
				<g>
					<path class="st6" d="M425.696,157.669c-0.31,0-0.562-0.251-0.562-0.562v-43.578h-17.177v43.154       c0,0.311-0.253,0.562-0.562,0.562c-0.31,0-0.562-0.252-0.562-0.562v-43.716c0-0.311,0.253-0.562,0.562-0.562h18.302       c0.31,0,0.562,0.252,0.562,0.562v44.14C426.258,157.417,426.006,157.669,425.696,157.669z"/>
				</g>
				<g>
					<path class="st6" d="M450.458,157.669c-0.31,0-0.562-0.251-0.562-0.562v-49.822h-17.177v49.338       c0,0.311-0.253,0.562-0.562,0.562s-0.562-0.251-0.562-0.562v-49.9c0-0.311,0.253-0.562,0.562-0.562h18.302       c0.31,0,0.562,0.252,0.562,0.562v50.384C451.02,157.417,450.768,157.669,450.458,157.669z"/>
				</g>
				<g>
					<path class="st6" d="M387.589,112.273c-0.281,0-0.525-0.21-0.558-0.497c-0.037-0.308,0.182-0.588,0.492-0.624       c16.428-1.949,32.371-7.856,46.1-17.081c0.257-0.175,0.606-0.106,0.78,0.153c0.173,0.258,0.105,0.607-0.151,0.781       c-13.878,9.323-29.99,15.294-46.597,17.263C387.633,112.272,387.611,112.273,387.589,112.273z"/>
				</g>
				<g>
					<path class="st6" d="M433.16,99.174c-0.064,0-0.13-0.011-0.191-0.034c-0.292-0.105-0.444-0.429-0.338-0.72l1.465-4.025       l-4.411-0.246c-0.31-0.018-0.547-0.282-0.531-0.592c0.017-0.311,0.285-0.556,0.593-0.531l5.166,0.288       c0.178,0.01,0.34,0.103,0.439,0.252c0.097,0.148,0.119,0.335,0.059,0.502l-1.722,4.737       C433.606,99.033,433.391,99.174,433.16,99.174z"/>
				</g>
			</g>
		</g>
		<g>
			<g>
				<g>
					<path class="st3" d="M153.982,297.67l-13.712-0.297l-10.643-0.247v3.193c0,4.406-3.589,7.97-8.019,7.945h-1.04l-10.395-0.099       l-9.257-0.099l-61.409-0.544l-16.781-0.149c-4.381-0.025-7.92-3.614-7.871-8.02l0.446-44.379l0.223-22.227       c0.05-5.52,4.579-9.95,10.099-9.851l10.767,0.173l73.784,1.213l10.395,0.173l0.569,0.025h0.668       c4.356,0.049,7.822,3.589,7.822,7.945v50.023l10.643,6.658L153.982,297.67z"/>
				</g>
			</g>
			<g>
				<g>
					<path class="st6" d="M103.068,261.162c-1.039-7.599-4.95-14.331-11.064-18.984c-7.401-5.643-17.153-7.351-26.039-4.529       c-0.149,0.05-0.247,0.223-0.198,0.396l5.891,18.613l2.525,7.995l-27.746-3.193c-0.149,0-0.322,0.099-0.347,0.272       c-1.139,10,3.119,19.999,11.113,26.113c5.049,3.861,11.089,5.891,17.351,5.891c1.287,0,2.599-0.099,3.886-0.272       c6.856-0.941,13.044-4.232,17.598-9.356c0.495-0.545,0.965-1.114,1.411-1.708C102.078,276.309,104.083,268.76,103.068,261.162z        M96.954,282.027c-0.371,0.495-0.767,0.99-1.188,1.461c-4.48,5.124-10.594,8.415-17.4,9.356       c-7.45,1.015-14.801-0.94-20.767-5.495c-7.772-5.916-11.93-15.544-10.915-25.247l27.895,3.218c0.099,0,0.223-0.025,0.272-0.124       c0.074-0.074,0.099-0.173,0.074-0.272l-2.475-7.822l-5.99-18.96c2.673-0.817,5.421-1.213,8.143-1.213       c6.089,0,12.079,1.98,17.029,5.742c5.965,4.554,9.802,11.138,10.816,18.588C103.439,268.686,101.484,276.062,96.954,282.027z"/>
				</g>
			</g>
			<g>
				<path class="st6" d="M64.122,236.213l8.555,27.197l-28.436-3.393c0.585-4.928,2.476-9.769,5.731-13.991      C53.71,241.178,58.688,237.87,64.122,236.213z"/>
			</g>
		</g>
	</g>
</g>
</svg>
