<?xml version="1.0" encoding="UTF-8"?>
<!-- Generator: Adobe Illustrator 25.2.1, SVG Export Plug-In . SVG Version: 6.00 Build 0)  -->
<svg xmlns="http://www.w3.org/2000/svg" xmlns:xlink="http://www.w3.org/1999/xlink" version="1.1" id="Capa_1" x="0px" y="0px" viewBox="0 0 512 512" style="enable-background:new 0 0 512 512;" xml:space="preserve" width="512" height="512">
<g>
	<path style="fill:#FFFFFF;" d="M256.012,511.999c-26.824,0-53.227-4.127-78.48-12.268C127.597,483.66,84.37,453.06,52.405,411.177   l-4.047-3.149c-3.355-2.607-5.352-6.449-5.691-10.506c-6.178-9.288-11.745-18.964-16.604-28.86   c-0.082-0.167-0.349-0.748-0.349-0.748c-4.062-8.289-7.732-17.02-10.911-25.96c-0.145-0.38-0.276-0.75-0.395-1.128   C4.848,313.675,0,285.132,0,255.989c0-53.079,16.031-103.795,46.414-147V60.277c-3.587-2.714-5.907-7.02-5.907-11.866v-8.228   c0-8.214,6.659-14.873,14.873-14.873h89.545C179.718,8.512,217.072,0.001,256.012,0.001c6.02,0,11.629,0.191,17.134,0.586   c0.47,0.015,0.947,0.046,1.399,0.082c13.735,0.959,27.679,3.113,41.288,6.391c0.516,0.102,1.026,0.228,1.532,0.378   c17.088,4.188,33.798,10.194,49.726,17.872h23.086c8.214,0,14.873,6.659,14.873,14.873v7.667c1.402,1.004,2.784,2.016,4.144,3.035   c42.273,31.607,73.357,74.696,89.881,124.602c1.046,3.156,2.038,6.371,2.975,9.627c2.302,0.968,4.355,2.512,5.938,4.527   c2.82,3.592,3.835,8.279,2.753,12.714l-2.472,10.126c2.476,14.427,3.73,29.048,3.73,43.51c0,56.536-18.02,110.002-52.147,154.839   l-1.431,5.865c-0.757,3.103-2.496,5.882-4.955,7.921l-8.649,7.172c-1.615,1.341-3.483,2.314-5.475,2.874   c-33.391,34.277-75.313,58.376-121.603,69.84C297.641,509.477,276.871,511.999,256.012,511.999z"/>
	<g>
		<path style="fill:#FF899A;" d="M498.392,255.988c0,113.133-77.884,208.047-182.961,234.075l-132.072-4.487    c-62.615-20.153-114.075-65.193-142.681-123.47c-0.099-0.223-0.198-0.421-0.297-0.645c-3.917-7.982-7.362-16.211-10.362-24.664    c-0.074-0.198-0.149-0.372-0.198-0.57c-8.874-25.086-13.683-52.105-13.683-80.239c0-133.162,107.952-241.114,241.139-241.114    c5.528,0,10.981,0.174,16.41,0.57c0.297,0,0.62,0.025,0.917,0.049c13.485,0.942,26.647,3.024,39.413,6.123    c0.199,0.025,0.397,0.074,0.595,0.149c31.952,7.759,61.401,21.913,86.932,41.024l84.676,117.372    C494.129,204.007,498.392,229.489,498.392,255.988z"/>
		<path style="fill:#8F8FEF;" d="M486.221,180.161c-13.857,20.202-37.108,33.439-63.458,33.439    c-42.462,0-76.893-34.431-76.893-76.893c0-35.125,23.524-64.722,55.674-73.918C440.636,92.014,470.555,132.84,486.221,180.161z"/>
		
			<ellipse transform="matrix(0.1602 -0.9871 0.9871 0.1602 -234.9947 326.2959)" style="fill:#F05D6A;" cx="74.26" cy="301.25" rx="48.205" ry="48.205"/>
		<path style="fill:#8F8FEF;" d="M331.32,442.073c0,17.996-5.9,34.604-15.889,47.99c-18.616,4.611-38.099,7.065-58.153,7.065    c-25.78,0-50.617-4.04-73.918-11.551c-8.105-12.543-12.791-27.465-12.791-43.503c0-44.395,35.992-80.388,80.363-80.388    C295.328,361.685,331.32,397.677,331.32,442.073z"/>
		<g>
			<g>
				<path style="fill:#401A49;" d="M180.691,66.118c-0.152,0-0.305-0.056-0.426-0.169c-0.249-0.235-0.259-0.627-0.024-0.876      l43.036-45.568c0.121-0.129,0.303-0.194,0.475-0.194c0.179,0.007,0.346,0.091,0.457,0.23l35.442,43.88      c0.215,0.266,0.174,0.657-0.092,0.871c-0.271,0.215-0.658,0.173-0.871-0.092L223.69,20.872l-42.549,45.052      C181.02,66.052,180.856,66.118,180.691,66.118z"/>
				<rect x="62.552" y="45.035" style="fill:#FFF5EE;" width="324.883" height="243.873"/>
				<rect x="56.645" y="40.183" style="fill:#401A49;" width="334.798" height="8.227"/>
			</g>
			<path style="fill:#401A49;" d="M366.76,262.946H86.39c-0.341,0-0.62-0.277-0.62-0.62V66.764c0-0.343,0.278-0.62,0.62-0.62     c0.341,0,0.62,0.277,0.62,0.62v194.943h279.75c0.341,0,0.62,0.277,0.62,0.62S367.101,262.946,366.76,262.946z"/>
			<g>
				<g>
					<rect x="100.841" y="123.724" style="fill:#FFA766;" width="17.721" height="132.907"/>
					<path style="fill:#401A49;" d="M118.561,256.617H100.21c-0.341,0-0.62-0.277-0.62-0.62V73.726c0-0.343,0.278-0.62,0.62-0.62       h18.351c0.341,0,0.62,0.277,0.62,0.62v182.271C119.181,256.34,118.902,256.617,118.561,256.617z M100.829,255.378h17.112       V74.346h-17.112V255.378z"/>
				</g>
				<g>
					<rect x="132.064" y="163.596" style="fill:#8F8FEF;" width="17.721" height="93.035"/>
					<path style="fill:#401A49;" d="M149.786,256.617h-18.354c-0.341,0-0.62-0.277-0.62-0.62V73.726c0-0.343,0.278-0.62,0.62-0.62       h18.354c0.341,0,0.62,0.277,0.62,0.62v182.271C150.406,256.34,150.127,256.617,149.786,256.617z M132.052,255.378h17.114       V74.346h-17.114V255.378z"/>
				</g>
				<g>
					<rect x="161.599" y="101.995" style="fill:#FFA766;" width="17.721" height="154.636"/>
					<path style="fill:#401A49;" d="M179.319,256.617h-18.354c-0.341,0-0.62-0.277-0.62-0.62V73.726c0-0.343,0.278-0.62,0.62-0.62       h18.354c0.341,0,0.62,0.277,0.62,0.62v182.271C179.938,256.34,179.66,256.617,179.319,256.617z M161.585,255.378h17.115V74.346       h-17.115V255.378z"/>
				</g>
				<g>
					<rect x="191.133" y="114.653" style="fill:#8F8FEF;" width="17.721" height="141.978"/>
					<path style="fill:#401A49;" d="M208.854,256.617H190.5c-0.341,0-0.62-0.277-0.62-0.62V73.726c0-0.343,0.278-0.62,0.62-0.62       h18.354c0.341,0,0.62,0.277,0.62,0.62v182.271C209.474,256.34,209.195,256.617,208.854,256.617z M191.12,255.378h17.115V74.346       H191.12V255.378z"/>
				</g>
				<g>
					<rect x="220.668" y="123.724" style="fill:#FFA766;" width="17.721" height="132.907"/>
					<path style="fill:#401A49;" d="M238.389,256.617h-18.354c-0.341,0-0.62-0.277-0.62-0.62V73.726c0-0.343,0.278-0.62,0.62-0.62       h18.354c0.341,0,0.62,0.277,0.62,0.62v182.271C239.009,256.34,238.73,256.617,238.389,256.617z M220.655,255.378h17.114V74.346       h-17.114V255.378z"/>
				</g>
				<g>
					<rect x="250.203" y="107.48" style="fill:#8F8FEF;" width="17.721" height="149.151"/>
					<path style="fill:#401A49;" d="M267.924,256.617H249.57c-0.341,0-0.62-0.277-0.62-0.62V73.726c0-0.343,0.278-0.62,0.62-0.62       h18.354c0.341,0,0.62,0.277,0.62,0.62v182.271C268.544,256.34,268.266,256.617,267.924,256.617z M250.19,255.378h17.115V74.346       H250.19V255.378z"/>
				</g>
				<g>
					<rect x="279.738" y="123.724" style="fill:#FFA766;" width="17.721" height="132.907"/>
					<path style="fill:#401A49;" d="M297.459,256.617h-18.354c-0.341,0-0.62-0.277-0.62-0.62V73.726c0-0.343,0.278-0.62,0.62-0.62       h18.354c0.341,0,0.62,0.277,0.62,0.62v182.271C298.079,256.34,297.801,256.617,297.459,256.617z M279.725,255.378h17.115       V74.346h-17.115V255.378z"/>
				</g>
				<g>
					<rect x="309.273" y="143.344" style="fill:#8F8FEF;" width="17.721" height="113.287"/>
					<path style="fill:#401A49;" d="M326.995,256.617h-18.354c-0.341,0-0.62-0.277-0.62-0.62V73.726c0-0.343,0.278-0.62,0.62-0.62       h18.354c0.341,0,0.62,0.277,0.62,0.62v182.271C327.614,256.34,327.336,256.617,326.995,256.617z M309.26,255.378h17.115V74.346       H309.26V255.378z"/>
				</g>
			</g>
			<rect x="335.96" y="81.743" style="fill:#401A49;" width="38.817" height="3.797"/>
			<rect x="335.96" y="91.869" style="fill:#401A49;" width="38.817" height="3.797"/>
			<rect x="335.96" y="91.869" style="fill:#401A49;" width="38.817" height="3.797"/>
			<rect x="335.96" y="101.995" style="fill:#401A49;" width="38.817" height="3.798"/>
			<rect x="335.96" y="101.995" style="fill:#401A49;" width="38.817" height="3.798"/>
			<rect x="335.96" y="112.121" style="fill:#401A49;" width="38.817" height="3.798"/>
		</g>
		<g>
			<g>
				<polygon style="fill:#8F8FEF;" points="139.764,415.697 58.754,396.288 167.611,396.288     "/>
				<path style="fill:#401A49;" d="M139.764,415.697l58.226-216.87h299.567l-52.319,214.338      C445.238,413.166,139.764,416.541,139.764,415.697z"/>
				
					<ellipse transform="matrix(0.0553 -0.9985 0.9985 0.0553 9.7465 626.5131)" style="fill:#FFF5EE;" cx="335.96" cy="308.106" rx="25.738" ry="25.737"/>
			</g>
			<polygon style="fill:#401A49;" points="58.754,396.288 70.146,405.149 138.498,423.503 436.589,420.338 445.238,413.166      139.764,415.697    "/>
		</g>
		<g>
			<g>
				<g>
					<path style="fill:#FFF5EE;" d="M85.944,376.88h129.159c6.6,0,12-5.4,12-12v-42.454c0-6.6-5.4-12-12-12H85.944       c-6.6,0-12,5.4-12,12v42.454C73.944,371.48,79.344,376.88,85.944,376.88z"/>
					<polygon style="fill:#FFF5EE;" points="183.433,372.449 179.003,397.132 161.915,371.184      "/>
				</g>
				<g>
					<circle style="fill:#401A49;" cx="178.37" cy="344.603" r="6.329"/>
					<circle style="fill:#401A49;" cx="149.257" cy="344.603" r="6.329"/>
					<path style="fill:#401A49;" d="M113.815,344.603c0,3.495,2.834,6.329,6.329,6.329c3.495,0,6.329-2.833,6.329-6.329       c0-3.495-2.834-6.329-6.329-6.329C116.649,338.274,113.815,341.107,113.815,344.603z"/>
				</g>
			</g>
			<g>
				
					<ellipse transform="matrix(0.2298 -0.9732 0.9732 0.2298 80.6631 631.2173)" style="fill:#8F8FEF;" cx="439.121" cy="264.648" rx="45.568" ry="45.568"/>
				<g>
					<path style="fill:#FFA766;" d="M464.002,262.194v22.903h-45.824v-22.903c0-12.657,10.265-22.922,22.922-22.922       c6.329,0,12.04,2.566,16.188,6.715C461.436,250.135,464.002,255.865,464.002,262.194z"/>
					<path style="fill:#401A49;" d="M418.177,284.17c0.193,0,0.405-0.019,0.675,0l-0.675,0.019l-0.617,0.039       C417.56,284.209,417.772,284.19,418.177,284.17z"/>
					<path style="fill:#401A49;" d="M464.002,281.952v2.991c-6.058-0.135-38.261-0.868-45.149-0.772L464.002,281.952z"/>
					<path style="fill:#FFA766;" d="M467.447,287.801h-54.682c-0.952,0-1.724-0.772-1.724-1.724l0,0       c0-0.952,0.772-1.724,1.724-1.724h54.682c0.952,0,1.724,0.772,1.724,1.724l0,0       C469.171,287.029,468.399,287.801,467.447,287.801z"/>
					<path style="fill:#FFA766;" d="M446.756,290.264c0,2.993-2.426,5.419-5.419,5.419c-2.993,0-5.419-2.426-5.419-5.419       c0-2.993,2.426-5.419,5.419-5.419C444.33,284.845,446.756,287.271,446.756,290.264z"/>
					<path style="fill:#FFA766;" d="M443.185,242.11h-4.803v-6.219c0-1.326,1.075-2.401,2.401-2.401l0,0       c1.326,0,2.401,1.075,2.401,2.401V242.11z"/>
				</g>
				<g>
					<path style="fill:#FFF5EE;" d="M473.358,248.966c0,5.623-4.558,10.181-10.181,10.181c-5.623,0-10.181-4.558-10.181-10.181       c0-5.623,4.558-10.181,10.181-10.181C468.8,238.785,473.358,243.343,473.358,248.966z"/>
					<g>
						<path style="fill:#401A49;" d="M464.246,243.949c0.655,0,1.233,0.077,1.684,0.319c0.237,0.132,0.347,0.286,0.347,0.567        c0,0.386-0.308,0.567-0.594,0.567c-0.336,0-0.441-0.126-0.579-0.198c-0.126-0.066-0.38-0.1-0.947-0.1        c-1.222,0-2.114,1.079-2.395,2.661c0.627-0.645,1.669-0.953,2.318-0.953c1.911,0,3.105,1.091,3.105,3.143        c0,1.394-1.007,3.233-3.243,3.233c-2.581,0-3.529-2.005-3.529-4.036C460.413,246.273,461.768,243.949,464.246,243.949z         M463.904,252.074c0.892,0,2.065-0.627,2.065-2.124c0-1.504-0.952-2.071-1.889-2.071c-0.826,0-1.981,0.43-2.367,1.404v0.496        C461.713,250.94,462.5,252.074,463.904,252.074z"/>
					</g>
				</g>
			</g>
		</g>
		<g>
			<g>
				<g>
					<g>
						
							<ellipse transform="matrix(0.1602 -0.9871 0.9871 0.1602 -283.468 578.9824)" style="fill:#FFD2A7;" cx="198.522" cy="456.08" rx="21.819" ry="21.819"/>
					</g>
					<g>
						<path style="fill:#FFF5EE;" d="M198.522,476.316c-11.159,0-20.236-9.078-20.236-20.236c0-11.158,9.078-20.236,20.236-20.236        c11.158,0,20.237,9.078,20.237,20.236C218.758,467.238,209.68,476.316,198.522,476.316z M198.522,436.181        c-10.972,0-19.899,8.926-19.899,19.899c0,10.973,8.927,19.899,19.899,19.899c10.972,0,19.899-8.926,19.899-19.899        C218.421,445.107,209.494,436.181,198.522,436.181z"/>
					</g>
					<g>
						<path style="fill:#FFFFFF;" d="M200.031,464.434v2.141h-1.119v-2.117c-2.617-0.12-4.57-1.334-5.308-3.38l1.095-0.619        c0.548,1.667,2,2.666,4.213,2.784v-7.068c-2.428-0.856-4.522-1.738-4.522-4.57c0-2.476,1.999-4.142,4.522-4.308v-2.143h1.119        v2.143c1.88,0.213,3.475,1.214,4.213,2.998l-1.071,0.596c-0.547-1.357-1.619-2.166-3.142-2.356v6.76        c2.428,0.856,4.617,1.808,4.617,4.641C204.648,462.434,202.744,464.172,200.031,464.434z M198.912,454.89v-6.379        c-1.951,0.166-3.261,1.428-3.261,3.094C195.652,453.485,197.032,454.199,198.912,454.89z M203.363,459.935        c0-1.904-1.381-2.69-3.332-3.38v6.64C202.173,462.958,203.363,461.648,203.363,459.935z"/>
					</g>
				</g>
				<g>
					<g>
						
							<ellipse transform="matrix(0.1602 -0.9871 0.9871 0.1602 -239.6212 630.5181)" style="fill:#FFD2A7;" cx="250.732" cy="456.08" rx="21.819" ry="21.819"/>
					</g>
					<g>
						<path style="fill:#FFF5EE;" d="M250.732,476.316c-11.158,0-20.236-9.078-20.236-20.236c0-11.158,9.078-20.236,20.236-20.236        c11.158,0,20.236,9.078,20.236,20.236C270.968,467.238,261.89,476.316,250.732,476.316z M250.732,436.181        c-10.972,0-19.899,8.926-19.899,19.899c0,10.973,8.927,19.899,19.899,19.899c10.972,0,19.899-8.926,19.899-19.899        C270.631,445.107,261.704,436.181,250.732,436.181z"/>
					</g>
					<g>
						<path style="fill:#FFFFFF;" d="M252.241,464.434v2.141h-1.119v-2.117c-2.618-0.12-4.57-1.334-5.308-3.38l1.095-0.619        c0.548,1.667,2,2.666,4.213,2.784v-7.068c-2.428-0.856-4.522-1.738-4.522-4.57c0-2.476,1.999-4.142,4.522-4.308v-2.143h1.119        v2.143c1.88,0.213,3.475,1.214,4.213,2.998l-1.071,0.596c-0.548-1.357-1.619-2.166-3.142-2.356v6.76        c2.428,0.856,4.617,1.808,4.617,4.641C256.858,462.434,254.954,464.172,252.241,464.434z M251.122,454.89v-6.379        c-1.952,0.166-3.261,1.428-3.261,3.094C247.862,453.485,249.242,454.199,251.122,454.89z M255.574,459.935        c0-1.904-1.381-2.69-3.333-3.38v6.64C254.383,462.958,255.574,461.648,255.574,459.935z"/>
					</g>
				</g>
				<g>
					<g>
						<path style="fill:#FFD2A7;" d="M326.319,456.079c0,12.05-9.769,21.819-21.819,21.819c-12.051,0-21.819-9.769-21.819-21.819        c0-12.05,9.769-21.819,21.819-21.819C316.55,434.26,326.319,444.029,326.319,456.079z"/>
					</g>
					<g>
						<path style="fill:#FFF5EE;" d="M304.5,476.316c-11.158,0-20.236-9.078-20.236-20.236c0-11.158,9.078-20.236,20.236-20.236        c11.158,0,20.237,9.078,20.237,20.236C324.737,467.238,315.658,476.316,304.5,476.316z M304.5,436.181        c-10.972,0-19.899,8.926-19.899,19.899c0,10.973,8.927,19.899,19.899,19.899c10.973,0,19.899-8.926,19.899-19.899        C324.399,445.107,315.473,436.181,304.5,436.181z"/>
					</g>
					<g>
						<path style="fill:#FFFFFF;" d="M306.009,464.434v2.141h-1.119v-2.117c-2.617-0.12-4.57-1.334-5.308-3.38l1.095-0.619        c0.548,1.667,2,2.666,4.213,2.784v-7.068c-2.428-0.856-4.522-1.738-4.522-4.57c0-2.476,1.999-4.142,4.522-4.308v-2.143h1.119        v2.143c1.88,0.213,3.475,1.214,4.213,2.998l-1.071,0.596c-0.547-1.357-1.619-2.166-3.142-2.356v6.76        c2.428,0.856,4.617,1.808,4.617,4.641C310.627,462.434,308.723,464.172,306.009,464.434z M304.891,454.89v-6.379        c-1.952,0.166-3.261,1.428-3.261,3.094C301.63,453.485,303.01,454.199,304.891,454.89z M309.342,459.935        c0-1.904-1.381-2.69-3.332-3.38v6.64C308.151,462.958,309.342,461.648,309.342,459.935z"/>
					</g>
				</g>
			</g>
			<g>
				<path style="fill:#FFF5EE;" d="M387.014,455.344H338.28c-0.341,0-0.62-0.278-0.62-0.62c0-0.341,0.278-0.62,0.62-0.62h48.114      v-88.618c0-0.341,0.278-0.62,0.62-0.62c0.341,0,0.62,0.278,0.62,0.62v89.237C387.634,455.065,387.355,455.344,387.014,455.344z"/>
				<path style="fill:#FFF5EE;" d="M389.455,362.867c1.523,1.523,1.523,3.994,0,5.517s-3.994,1.523-5.517,0      c-1.523-1.523-1.523-3.994,0-5.517C385.461,361.343,387.931,361.343,389.455,362.867z"/>
				<path style="fill:#FFF5EE;" d="M339.668,451.26c1.523,1.524,1.523,3.994,0,5.517s-3.994,1.523-5.517,0      c-1.523-1.523-1.523-3.994,0-5.517C335.674,449.737,338.144,449.737,339.668,451.26z"/>
			</g>
		</g>
		<g>
			<path style="fill:#FFFFFF;" d="M428.488,181.09c-0.077,0-0.15-0.03-0.203-0.085l-15.008-15.008l-14.687,14.685     c-0.111,0.111-0.295,0.111-0.407,0c-0.114-0.113-0.114-0.296,0-0.409l14.89-14.89c0.107-0.109,0.3-0.109,0.407,0l14.989,14.989     l27.957-33.742c0.107-0.124,0.286-0.139,0.407-0.039c0.123,0.102,0.14,0.284,0.039,0.407l-28.16,33.987     c-0.053,0.063-0.128,0.101-0.208,0.104C428.498,181.09,428.493,181.09,428.488,181.09z"/>
			<path style="fill:#FFFFFF;" d="M455.155,153.02c-0.024,0-0.048-0.004-0.073-0.01c-0.155-0.04-0.247-0.197-0.208-0.352     l1.506-5.833l-5.713,3.619c-0.135,0.082-0.312,0.044-0.399-0.09c-0.085-0.136-0.046-0.313,0.09-0.399l6.33-4.009     c0.102-0.063,0.227-0.057,0.324,0.011c0.097,0.07,0.14,0.191,0.111,0.306l-1.687,6.539     C455.402,152.933,455.283,153.02,455.155,153.02z"/>
		</g>
		<path style="fill:#FFFFFF;" d="M158.997,457.089c-7.119,0-12.912-5.793-12.912-12.912s5.793-12.912,12.912-12.912    c7.119,0,12.91,5.793,12.91,12.912S166.116,457.089,158.997,457.089z M158.997,431.841c-6.802,0-12.336,5.534-12.336,12.336    c0,6.802,5.534,12.336,12.336,12.336c6.8,0,12.334-5.534,12.334-12.336C171.33,437.375,165.797,431.841,158.997,431.841z"/>
		<path style="fill:#FFFFFF;" d="M417.425,134.317c-7.119,0-12.912-5.793-12.912-12.913s5.793-12.913,12.912-12.913    c7.119,0,12.912,5.793,12.912,12.913S424.545,134.317,417.425,134.317z M417.425,109.069c-6.802,0-12.336,5.534-12.336,12.335    c0,6.801,5.534,12.335,12.336,12.335c6.802,0,12.336-5.534,12.336-12.335C429.761,114.602,424.228,109.069,417.425,109.069z"/>
		<g>
			<path style="fill:#FFFFFF;" d="M34.308,220.516c-7.114,0-12.914,5.801-12.914,12.915c0,7.114,5.8,12.914,12.914,12.914     c7.139,0,12.915-5.8,12.915-12.914C47.223,226.317,41.447,220.516,34.308,220.516z M34.308,245.75     c-6.792,0-12.32-5.528-12.32-12.319c0-6.817,5.528-12.345,12.32-12.345c6.817,0,12.345,5.528,12.345,12.345     C46.653,240.223,41.125,245.75,34.308,245.75z"/>
			<path style="fill:#FFFFFF;" d="M65.046,312.678c-0.347-0.248-0.768-0.57-27.911,18.418c-2.479,1.735-4.933,3.445-7.313,5.131     c0.05,0.198,0.124,0.372,0.198,0.57c15.84-11.155,31.333-21.863,34.356-23.424c-1.859,4.016-14.526,29.275-23.995,48.089     c0.099,0.223,0.198,0.422,0.297,0.645c10.139-20.103,24.069-47.841,24.466-49.055C65.194,312.927,65.145,312.753,65.046,312.678z     "/>
			<path style="fill:#FFFFFF;" d="M314.613,21.765c-0.198-0.074-0.396-0.124-0.595-0.149l0.248,4.214     c-24.02,3.173-59.392,7.585-64.548,7.585h-0.099c2.305-1.76,13.014-9.395,24.986-17.922c-0.297-0.024-0.62-0.049-0.917-0.049     c-12.939,9.172-24.292,17.302-24.912,17.897c-0.074,0.075-0.124,0.273-0.074,0.372c0.05,0.124,0.124,0.248,1.14,0.248     c2.281,0,9.395-0.62,32.15-3.421c16.162-2.008,32.448-4.14,32.621-4.164c0.149-0.025,0.248-0.149,0.248-0.298L314.613,21.765z"/>
		</g>
	</g>
</g>















</svg>
