<?xml version="1.0" encoding="UTF-8"?>
<!-- Generator: Adobe Illustrator 25.2.1, SVG Export Plug-In . SVG Version: 6.00 Build 0)  -->
<svg xmlns="http://www.w3.org/2000/svg" xmlns:xlink="http://www.w3.org/1999/xlink" version="1.1" id="Capa_1" x="0px" y="0px" viewBox="0 0 511.985 511.985" style="enable-background:new 0 0 511.985 511.985;" xml:space="preserve" width="512" height="512">
<g>
	<path style="fill:#FFFFFF;" d="M200.414,511.985c-8.903,0-16.876-5.641-19.84-14.038l-1.51-4.279   c-2.643-0.848-5.314-1.755-7.996-2.718c-0.683-0.213-1.202-0.418-1.505-0.537c-5.266-1.904-10.74-4.123-16.126-6.54   c0,0-1.071-0.449-1.248-0.532c-3.524-1.616-6.401-2.993-9.055-4.333c-6.427-3.214-13.01-6.882-19.517-10.881   c-0.562-0.326-1.094-0.673-1.605-1.043c-11.654-7.239-22.923-15.679-33.503-25.101c-0.465-0.388-0.917-0.794-1.38-1.223   c-0.259-0.216-0.524-0.449-0.789-0.694c-0.241-0.218-0.478-0.439-0.709-0.668c-10.298-9.383-19.838-19.676-28.361-30.598   c-0.306-0.357-0.606-0.735-0.904-1.138c-8.443-10.891-15.985-22.422-22.414-34.274c-0.062-0.111-0.303-0.56-0.365-0.673   c-2.512-4.665-4.945-9.548-7.231-14.513c-0.825-1.793-1.626-3.599-2.412-5.42C5.728,335.119-1.339,309.122,5.427,284.668   c-1.331-10.349-2.004-21.047-2.004-31.856c0-2.158,0.026-4.315,0.08-6.473c0.005-0.583,0.026-1.184,0.054-1.79   c0.003-0.439,0.015-0.876,0.041-1.307c0.424-11.765,1.698-23.614,3.784-35.224c0.097-0.596,0.252-1.395,0.413-2.173   c1.02-5.474,2.199-10.806,3.504-15.856c0.059-0.247,0.29-1.161,0.329-1.31c1.785-6.761,3.663-12.895,5.728-18.728   c0.17-0.573,0.37-1.151,0.604-1.744c0.329-0.958,0.665-1.893,1.022-2.828c5.256-14.29,11.934-28.314,19.781-41.505   c1.318-2.229,2.585-4.335,3.987-6.501c8.304-13.077,17.875-25.458,28.461-36.812c0.301-0.339,0.637-0.706,1.04-1.1   c9.745-10.347,20.38-19.894,31.615-28.384c0.151-0.121,0.699-0.542,0.819-0.629c8.705-6.507,17.701-12.396,26.745-17.508   C191.045-1.31,264.612-9.28,330.412,11.046c15.204,4.644,30.105,10.816,44.289,18.351c42.307,22.527,77.638,56.747,101.455,98.562   c31.067,54.111,40.651,120.483,26.606,181.289c0.003-0.01,0.028-0.152,0.051-0.303c-0.281,1.493-0.766,3.385-1.179,5.014   c-4.842,19.445-11.975,38.232-21.199,55.853c-0.208,0.447-0.439,0.884-0.686,1.31c-0.013,0.02-0.247,0.473-0.247,0.473   c-5.127,9.635-10.932,18.995-17.315,27.924l2.173,5.895c1.975,5.358,1.675,11.372-0.83,16.504   c-2.502,5.132-7.056,9.075-12.492,10.817l-26.023,8.338c-1.839,1.657-3.763,3.331-5.818,5.063   c-0.408,0.385-0.886,0.801-1.441,1.228c-9.491,7.906-19.661,15.171-30.236,21.603c-0.193,0.118-0.391,0.231-0.591,0.341   l-0.863,0.524l-2.789,1.641c-0.473,0.308-0.961,0.599-1.469,0.871c-12.111,6.94-24.929,12.928-38.098,17.798   c-0.054,0.018-0.108,0.038-0.162,0.057c-0.3,0.116-0.647,0.241-1.038,0.367c-13.159,4.783-26.714,8.459-40.305,10.932   c-22.286,4.206-46.572,5.253-69.087,3.121c-7.62-1.968-16.614,4.881-23.894,5.597l-2.391,0.766   C204.753,511.649,202.593,511.985,200.414,511.985z"/>
	<g>
		<path style="fill:#FFD2A7;" d="M494.693,252.812c-0.752,182.934-193.196,288.031-343.046,212.109L42.094,351.607    C3.853,266.552,17.332,160.436,84.839,90.601C166,1.683,309.309-8.892,402.921,65.534l91.193,170.655    C494.41,241.129,494.725,247.853,494.693,252.812z"/>
		<g>
			<path style="fill:#8F8FEF;" d="M494.114,236.189c-5.287,7.312-11.495,13.914-18.412,19.648     c-5.892,4.893-12.31,9.154-19.149,12.705c-6.023,3.156-12.415,5.734-19.043,7.68c-2.025,0.605-4.077,1.157-6.155,1.631     c-7.076,1.631-14.414,2.578-21.937,2.736c-0.789,0.026-1.604,0.026-2.393,0.026c-1.394,0-2.788-0.026-4.156-0.079     c-6.181-0.237-12.205-1-18.07-2.236c-1.105-0.21-2.183-0.473-3.262-0.736c-28.539-6.918-52.606-25.225-67.126-49.845     c-9.495-16.019-14.94-34.72-14.94-54.684c0-2.288,0.079-4.55,0.21-6.786c0.105-1.578,0.237-3.13,0.395-4.682     c2.052-19.228,9.153-36.956,19.99-51.817c4.13-5.708,8.838-10.969,13.993-15.729c18.228-16.86,42.322-27.487,68.862-28.486     c1.999,1.552,3.946,3.13,5.892,4.734c0.631,0.526,1.263,1.052,1.868,1.552h0.026c0.21,0.158,0.395,0.316,0.579,0.5     c10.495,8.917,20.201,18.78,29.039,29.407c0.132,0.158,0.29,0.368,0.447,0.526c0.552,0.71,1.105,1.368,1.604,2.052     c0.658,0.763,1.262,1.552,1.894,2.341c7.076,8.996,13.467,18.544,19.201,28.486c0.132,0.237,0.237,0.447,0.368,0.631     c6.523,11.468,12.1,23.568,16.676,36.114c0.079,0.21,0.184,0.447,0.237,0.684c2.525,6.97,4.708,14.098,6.549,21.358     c1.552,5.945,2.84,12.021,3.893,18.149c0.053,0.263,0.131,0.526,0.131,0.789c0.105,0.526,0.211,1.105,0.263,1.683     c0.184,0.947,0.368,1.92,0.5,2.894C493.009,223.642,493.719,229.85,494.114,236.189z"/>
			<g>
				
					<ellipse transform="matrix(0.926 -0.3775 0.3775 0.926 -17.6566 158.4381)" style="fill:#FFF5EE;" cx="395.324" cy="124.258" rx="44.687" ry="44.687"/>
				<path style="fill:#8F8FEF;" d="M395.324,169.503c-24.95,0-45.247-20.296-45.247-45.245s20.298-45.245,45.247-45.245      c24.948,0,45.246,20.296,45.246,45.245S420.272,169.503,395.324,169.503z M395.324,80.129      c-24.333,0-44.129,19.798-44.129,44.129c0,24.332,19.796,44.129,44.129,44.129c24.333,0,44.128-19.798,44.128-44.129      C439.452,99.926,419.657,80.129,395.324,80.129z"/>
				<path style="fill:#8F8FEF;" d="M421.11,125.853H394.34c-0.308,0-0.559-0.248-0.559-0.558v-19.603      c0-0.31,0.251-0.558,0.559-0.558c0.308,0,0.559,0.248,0.559,0.558v19.045h26.211c0.308,0,0.559,0.248,0.559,0.558      C421.669,125.605,421.419,125.853,421.11,125.853z"/>
			</g>
			<g>
				<path style="fill:#401A49;" d="M445.117,191.156c-0.095,1.516-0.838,2.981-2.158,3.95c-2.364,1.734-5.686,1.224-7.421-1.14      c-1.734-2.364-1.224-5.686,1.14-7.421c2.364-1.734,5.686-1.224,7.421,1.14C444.864,188.728,445.193,189.958,445.117,191.156      L445.117,191.156z"/>
				<path style="fill:#401A49;" d="M426.767,206.082c-1.75,0-3.476-0.801-4.587-2.317c-1.853-2.524-1.305-6.087,1.22-7.94      c1.224-0.897,2.722-1.263,4.223-1.035c1.499,0.231,2.819,1.032,3.717,2.256c0.785,1.072,1.172,2.389,1.09,3.711v0.003      c-0.107,1.686-0.949,3.227-2.31,4.227C429.109,205.726,427.933,206.082,426.767,206.082z M426.75,195.466      c-1.042,0-2.053,0.329-2.91,0.958c-2.196,1.61-2.671,4.706-1.06,6.903c1.609,2.192,4.706,2.669,6.901,1.059      c1.183-0.87,1.916-2.209,2.008-3.674l0,0c0.072-1.15-0.264-2.295-0.947-3.229c-0.779-1.062-1.927-1.76-3.23-1.959      C427.256,195.486,427.002,195.466,426.75,195.466z"/>
				<path style="fill:#401A49;" d="M413.714,215.666c-0.29,0-0.582-0.022-0.875-0.066c-1.499-0.231-2.819-1.032-3.717-2.256      c-1.853-2.524-1.305-6.087,1.22-7.94c2.523-1.848,6.086-1.305,7.94,1.221c0.785,1.072,1.172,2.391,1.089,3.713      c-0.106,1.686-0.947,3.227-2.309,4.227C416.077,215.288,414.914,215.666,413.714,215.666z M413.696,205.048      c-1.014,0-2.036,0.312-2.913,0.956c-2.196,1.61-2.671,4.706-1.06,6.903c0.779,1.062,1.927,1.76,3.23,1.959      c1.305,0.206,2.607-0.118,3.67-0.899c1.185-0.87,1.916-2.209,2.007-3.674v-0.003c0.074-1.148-0.263-2.293-0.946-3.227      C416.717,205.746,415.216,205.048,413.696,205.048z"/>
			</g>
		</g>
		<path style="fill:#FF899A;" d="M198.545,390.194c0,32.879-19.149,61.313-46.899,74.727c-6.365-3.183-12.547-6.655-18.57-10.363    c-0.237-0.132-0.447-0.263-0.684-0.474c-11.442-7.049-22.174-15.124-32.195-24.067c-0.421-0.342-0.815-0.71-1.236-1.105    c-0.184-0.158-0.395-0.316-0.579-0.5c-0.184-0.158-0.342-0.315-0.5-0.5c-0.026,0-0.026,0-0.026,0    c-9.837-8.943-18.886-18.701-27.04-29.196c-0.158-0.158-0.316-0.368-0.447-0.553c-7.865-10.126-14.966-20.911-21.148-32.3    c-0.079-0.184-0.184-0.395-0.342-0.631c-2.394-4.445-4.656-8.996-6.786-13.625c13.888-26.409,41.585-44.4,73.491-44.4    c20.201,0,38.745,7.233,53.133,19.254C186.946,341.691,198.545,364.575,198.545,390.194z"/>
		<g>
			<path style="fill:#401A49;" d="M65.114,119.284l131.74,373.409c0.947,2.684,3.856,4.128,6.566,3.259l244.204-78.248     c2.852-0.914,4.367-4.021,3.33-6.83L312.257,34.911c-0.988-2.677-3.93-4.079-6.631-3.159L68.379,112.554     C65.607,113.498,64.139,116.523,65.114,119.284z"/>
			<path style="fill:#FFFFFF;" d="M209.522,494.468c-0.407,0-0.786-0.251-0.93-0.656L73.159,111.017     c-0.182-0.514,0.087-1.076,0.601-1.258c0.514-0.184,1.076,0.086,1.259,0.6l135.433,382.795c0.182,0.514-0.087,1.076-0.601,1.258     C209.742,494.451,209.631,494.468,209.522,494.468z"/>
			<polygon style="fill:#FFE5D2;" points="422.175,388.484 221.376,457.661 190.023,368.283 101.171,115.168 297.945,49.357      354.891,204.809    "/>
			<path style="fill:#FFFFFF;" d="M314.679,450.934c-1.325,0-2.637-0.327-3.841-0.973c-1.968-1.057-3.384-2.824-3.988-4.974     c-1.173-4.173,1.124-8.532,5.232-9.921h0.001l50.087-16.93c4.122-1.401,8.595,0.686,10.186,4.731l0.283,0.715     c0.833,2.116,0.757,4.414-0.215,6.468c-0.973,2.057-2.701,3.573-4.867,4.274l-50.37,16.214     C316.362,450.803,315.518,450.934,314.679,450.934z M312.504,436.309c-3.445,1.167-5.373,4.822-4.389,8.323     c0.507,1.801,1.694,3.283,3.345,4.168c1.649,0.887,3.538,1.059,5.324,0.484l50.37-16.215c1.816-0.585,3.266-1.858,4.081-3.583     c0.816-1.723,0.88-3.649,0.181-5.424l-0.283-0.715c-1.334-3.391-5.087-5.139-8.542-3.966l-50.087,16.927H312.504z"/>
			<polygon style="fill:#FFA766;" points="422.175,388.484 221.376,457.661 190.023,368.283 204.595,315.966 258.99,340.139      271.089,198.444 341.608,246.131 354.891,204.809    "/>
			<g>
				<path style="fill:#401A49;" d="M271.985,201.221c-0.393,0-0.764-0.236-0.918-0.624l-19.258-48.808      c-0.199-0.506,0.049-1.079,0.555-1.278c0.507-0.202,1.08,0.047,1.28,0.555l19.258,48.808c0.199,0.506-0.049,1.079-0.555,1.278      C272.228,201.199,272.106,201.221,271.985,201.221z"/>
				<polygon style="fill:#F05D6A;" points="253.846,150.813 265.263,180.81 304.438,164.245 287.649,153.947 291.902,134.024           "/>
			</g>
			<polygon style="fill:#FFF5EE;" points="371.364,335.773 340.964,310.376 328.21,348.502 342.009,344.432 347.532,363.158      363.088,358.569 357.565,339.843    "/>
			<g>
				<path style="fill:#401A49;" d="M146.702,134.764c-1.999-5.182-7.497-7.575-12.81-5.524c-5.366,2.052-7.759,7.654-5.813,12.704      c1.947,5.05,7.497,7.602,12.862,5.524C146.254,145.443,148.648,139.814,146.702,134.764z M138.495,141.313      c-1.657,0.658-3.341-0.184-3.972-1.841c-0.658-1.657,0.026-3.419,1.71-4.051c1.71-0.657,3.393,0.184,4.024,1.841      C140.862,138.815,140.205,140.656,138.495,141.313z M155.434,127.346l-13.94,36.193l4.366,0.71l13.888-36.219L155.434,127.346z       M173.846,148.099c-1.946-5.024-7.496-7.575-12.809-5.523c-5.366,2.052-7.759,7.654-5.813,12.704      c1.946,5.05,7.47,7.602,12.836,5.524C173.373,158.779,175.793,153.15,173.846,148.099z M165.64,154.649      c-1.657,0.658-3.34-0.184-3.972-1.841c-0.658-1.657,0.026-3.419,1.71-4.051c1.71-0.658,3.393,0.158,4.024,1.841      C168.007,152.15,167.35,153.991,165.64,154.649z"/>
			</g>
		</g>
		<g>
			<g>
				
					<ellipse transform="matrix(0.0057 -1 1 0.0057 142.1872 726.3569)" style="fill:#FFF5EE;" cx="436.34" cy="291.68" rx="53.23" ry="53.231"/>
				<polygon style="fill:#FFF5EE;" points="413.048,328.324 406.882,362.915 436.461,335.435     "/>
			</g>
			<path style="fill:#401A49;" d="M442.511,319.908c-0.087,0-0.173-0.02-0.253-0.064c-0.117-0.042-0.22-0.111-0.3-0.202     c-0.281-0.182-0.823-0.492-1.569-0.924c-26.221-15.18-36.587-28.799-30.808-40.482c1.499-3.03,3.703-4.905,6.552-5.569     c6.478-1.519,14.663,3.726,18.467,6.542c1.944-3.094,8.165-12.083,15.363-13.116c2.974-0.428,5.753,0.533,8.269,2.861l0,0     c9.906,9.159,5.281,25.6-13.747,48.865c-0.589,0.723-1.016,1.241-1.221,1.524c-0.048,0.162-0.139,0.312-0.27,0.401     C442.845,319.839,442.676,319.908,442.511,319.908z M418.612,273.823c-0.737,0-1.459,0.074-2.155,0.236     c-2.412,0.563-4.294,2.182-5.596,4.812c-3.702,7.486-1.46,20.26,30.243,38.61c0.504,0.292,0.919,0.533,1.234,0.72     c0.243-0.31,0.587-0.73,1.041-1.285c18.463-22.574,23.133-38.356,13.882-46.908l0,0c-2.184-2.02-4.572-2.851-7.095-2.499     c-7.198,1.035-13.554,11.105-14.756,13.113c-0.104,0.174-0.279,0.297-0.479,0.337c-0.203,0.03-0.407-0.012-0.569-0.135     C431.435,278.58,424.52,273.823,418.612,273.823z"/>
		</g>
		<g>
			<g>
				
					<ellipse transform="matrix(0.9924 -0.1233 0.1233 0.9924 -36.8028 11.3936)" style="fill:#FFF5EE;" cx="73.668" cy="303.095" rx="53.595" ry="53.595"/>
				<polygon style="fill:#FFF5EE;" points="116.717,295.477 151.281,303.013 114.35,320     "/>
			</g>
			<g>
				<path style="fill:#401A49;" d="M74.138,332.018c-0.236,0-0.462-0.128-0.583-0.344l-16.796-30.07      c-0.124-0.221-0.111-0.496,0.034-0.705c0.036-0.052,3.53-5.173,1.773-9.862c-0.34-0.904-0.805-2.008-1.32-3.229      c-2.52-5.981-5.972-14.175-2.591-16.942c3.797-3.109,16.361,11.248,19.762,15.276c3.299-2.305,14.465-9.83,17.459-8.272      c2.217,1.165,2.768,4.519,3.212,7.218c0.157,0.958,0.374,2.268,0.595,2.519c0.22,0.248,0.837,0.646,1.49,1.069      c1.933,1.248,4.854,3.133,5.789,6.077c0.596,1.88,0.704,4.19,0.809,6.424c0.107,2.278,0.208,4.428,0.832,5.399      c1.196,1.865,4.834,7.537,1.736,11.553c-2.752,3.563-28.998,12.809-31.982,13.85C74.285,332.006,74.212,332.018,74.138,332.018z       M58.121,301.307l16.325,29.227c8.371-2.944,28.757-10.53,30.837-13.221c2.524-3.271-0.732-8.348-1.803-10.014      c-0.817-1.275-0.922-3.492-1.041-6.058c-0.101-2.15-0.205-4.372-0.75-6.085c-0.789-2.487-3.468-4.215-5.239-5.36      c-0.796-0.514-1.424-0.919-1.766-1.305c-0.455-0.514-0.634-1.497-0.912-3.187c-0.375-2.278-0.888-5.397-2.515-6.252      c-1.798-0.936-10.772,4.423-16.571,8.532c-0.284,0.204-0.675,0.152-0.898-0.116c-6.291-7.535-16.127-17.35-18.287-15.571      c-2.61,2.138,0.887,10.435,2.976,15.394c0.522,1.239,0.994,2.359,1.338,3.278C61.557,295.215,58.947,299.978,58.121,301.307z"/>
				<polygon style="fill:#401A49;" points="57.343,301.28 43.154,308.873 59.287,339.013 74.138,331.351     "/>
			</g>
		</g>
		<g>
			<path style="fill:#F05D6A;" d="M179.712,49.884c0,11.468-8.759,20.753-19.596,20.753c-10.811,0-19.596-9.285-19.596-20.753     c0-1.131,0.079-2.236,0.263-3.314c0.105-0.053,0.21-0.132,0.316-0.184c2.367-1.368,4.761-2.657,7.181-3.919     c0.184-0.105,0.395-0.21,0.631-0.342c6.287-3.235,12.731-6.207,19.333-8.89c0.737-0.315,1.499-0.605,2.262-0.92     c0.763,0.5,1.473,1.052,2.157,1.657c0.447,0.368,0.842,0.763,1.21,1.184c0.263,0.237,0.473,0.473,0.684,0.736     c0.237,0.263,0.447,0.526,0.631,0.789c2.341,2.946,3.893,6.576,4.34,10.6c0.053,0.316,0.079,0.658,0.105,0.973     c0.026,0.316,0.053,0.631,0.053,0.973C179.712,49.436,179.712,49.673,179.712,49.884z"/>
			<path style="fill:#401A49;" d="M228.057,48.568l-16.176-28.355c-0.5,0.079-0.973,0.184-1.473,0.289     c-0.158,0.026-0.342,0.079-0.5,0.105l15.624,27.461l-46.004-0.789l-11.679-0.184l7.339-10.416l5.734-8.18     c-1.052,0.342-2.078,0.71-3.104,1.078l-3.945,5.576l-8.654,12.31c-0.211,0.289-0.237,0.684-0.079,1     c0.184,0.315,0.5,0.526,0.842,0.526l13.704,0.237l47.503,0.789c0.027,0,0.027,0,0.027,0c0.342,0,0.658-0.184,0.841-0.473     C228.215,49.252,228.215,48.884,228.057,48.568z"/>
		</g>
		<g>
			<path style="fill:#401A49;" d="M141.084,424.073c-1.453-0.442-2.708-1.502-3.347-3.01c-1.143-2.7,0.119-5.815,2.819-6.958     c2.7-1.143,5.815,0.119,6.958,2.819c1.143,2.7-0.119,5.815-2.819,6.958C143.504,424.386,142.232,424.422,141.084,424.073     L141.084,424.073z"/>
			<path style="fill:#401A49;" d="M136.311,409.759c-0.555,0-1.112-0.081-1.65-0.243l0,0c-1.617-0.494-2.922-1.666-3.581-3.222     c-0.592-1.396-0.603-2.939-0.034-4.347c0.57-1.406,1.653-2.507,3.05-3.096c2.887-1.221,6.226,0.133,7.446,3.015     c0.592,1.396,0.603,2.939,0.034,4.347c-0.57,1.406-1.653,2.507-3.05,3.096C137.822,409.609,137.068,409.759,136.311,409.759z      M134.877,408.803c1.105,0.334,2.298,0.273,3.359-0.177c1.214-0.514,2.157-1.47,2.652-2.693c0.495-1.221,0.484-2.563-0.029-3.777     c-1.063-2.507-3.969-3.686-6.473-2.622c-1.214,0.514-2.156,1.47-2.652,2.693c-0.495,1.221-0.484,2.563,0.029,3.777     C132.336,407.355,133.47,408.375,134.877,408.803L134.877,408.803z"/>
			<path style="fill:#401A49;" d="M129.993,394.847c-0.554,0-1.11-0.081-1.646-0.243l0,0c-1.617-0.494-2.922-1.666-3.581-3.222     c-1.221-2.885,0.132-6.225,3.015-7.446c2.891-1.216,6.226,0.133,7.446,3.015c1.22,2.883-0.133,6.222-3.015,7.446     C131.506,394.697,130.75,394.847,129.993,394.847z M128.563,393.891c1.1,0.337,2.294,0.268,3.359-0.177     c2.507-1.064,3.683-3.966,2.622-6.473c-1.062-2.507-3.965-3.684-6.473-2.622c-2.507,1.062-3.683,3.966-2.622,6.473     C126.022,392.443,127.156,393.463,128.563,393.891L128.563,393.891z"/>
		</g>
		<path style="fill:#401A49;" d="M54.693,130.345c-0.184,0.263-0.342,0.499-0.473,0.763c-0.132,0.237-0.289,0.473-0.421,0.71    c16.176,30.748,10.495,69.651-15.387,94.244l-13.73-17.176c-0.131,0.631-0.263,1.289-0.368,1.92l13.441,16.808    c0.131,0.158,0.315,0.263,0.526,0.289c0.184,0,0.421-0.053,0.552-0.211C65.951,202.468,71.817,162.014,54.693,130.345z"/>
	</g>
</g>















</svg>
