<?xml version="1.0" encoding="UTF-8"?>
<!-- Generator: Adobe Illustrator 25.2.1, SVG Export Plug-In . SVG Version: 6.00 Build 0)  -->
<svg xmlns="http://www.w3.org/2000/svg" xmlns:xlink="http://www.w3.org/1999/xlink" version="1.1" id="Capa_1" x="0px" y="0px" viewBox="0 0 512.185 512.185" style="enable-background:new 0 0 512.185 512.185;" xml:space="preserve" width="512" height="512">
<g>
	<path style="fill:#FFFFFF;" d="M249.01,506.329C53.42,506.119-65.923,288.418,38.932,123.406   c8.165-12.851,17.595-25.049,28.037-36.269C119.671,29.686,199.922,0.029,277.347,9.122c23.423,5.093,53.549-18.792,64.722,16.215   c8.508,3.401,16.811,7.24,24.786,11.519l-0.253-0.117c14.874,7.889,28.839,17.285,41.982,28.198   c0.407,0.331,0.858,0.701,1.315,1.085c0.553,0.415,1.083,0.858,1.592,1.325c3.473,2.962,6.963,6.129,10.436,9.47   c1.73-0.417,3.473-0.774,5.222-1.068c4.331-0.73,8.773-1.1,13.203-1.1c23.428,0,45.167,10.249,58.155,27.415   c16.396,21.677,18.225,54.164,4.549,80.841c-2.965,5.79-6.691,11.134-11.006,15.822c1.163,4.817,2.211,9.873,3.11,15.029   c6.004,34.239,4.761,69.239-3.473,102.979c-4.851,19.61-11.987,38.377-21.269,56.025c-0.003,0.003-0.006,0.01-0.006,0.01   c-0.209,0.421-0.418,0.81-0.627,1.191c-0.019,0.04-0.06,0.118-0.06,0.118c-6.564,12.348-14.262,24.253-22.875,35.385   C400.551,470.003,325.434,507.033,249.01,506.329z"/>
	<g>
		<path style="fill:#FFD2A7;" d="M484.885,256.941c-0.865,201.84-239.639,307.175-389.148,171.693c-0.028,0-0.028,0-0.028,0    C0.535,344.283-5.419,189.254,82.954,97.864C164.655,8.272,311.049-0.207,402.487,79.447h0.028    C454.283,122.769,485.283,189.34,484.885,256.941z"/>
		<g>
			<g>
				<circle style="fill:#FF899A;" cx="376.075" cy="323.089" r="75.733"/>
				<path style="fill:#FFA766;" d="M103.087,252.154c0,40.607-31.962,73.752-72.119,75.638c-3.605-11.208-6.364-22.81-8.223-34.721      c-0.028-0.254-0.084-0.507-0.112-0.761c-1.774-11.517-2.675-23.345-2.675-35.369c0-2.056,0.028-4.083,0.085-6.111      c0-0.535,0.028-1.07,0.056-1.605v-0.028c0-0.282,0-0.563,0.028-0.845c0.591-16.981,3.041-33.482,7.096-49.337      c0.085-0.338,0.197-0.676,0.282-1.014c1.549-5.97,3.351-11.884,5.407-17.657c0.084-0.338,0.197-0.676,0.338-0.985      c0.31-0.901,0.619-1.774,0.957-2.647C72.814,180.176,103.087,212.645,103.087,252.154z"/>
			</g>
			<path style="fill:#401A49;" d="M423.523,329.482c-0.141-0.113-0.338-0.197-0.535-0.169c-39.593,2.957-70.626,36.439-70.626,76.23     c0,19.374,7.35,37.284,19.543,50.857c0.422-0.254,0.817-0.507,1.211-0.732c-12.025-13.348-19.346-31.005-19.346-50.125     c0-38.805,30.047-71.499,68.57-74.766v84.819c0.479-0.507,0.929-1.014,1.408-1.521v-84.059     C423.748,329.82,423.664,329.623,423.523,329.482z"/>
		</g>
		<path style="fill:#401A49;" d="M483.195,284.989c-0.788,6.561-1.859,13.038-3.154,19.431    c-74.146,19.487-195.517,51.505-195.517,51.505l-164.4-11.264L74.11,119.378l285.658-48.886l31.174,204.191    C390.941,274.682,441.658,280.568,483.195,284.989z"/>
		<polyline style="fill:#FFE5D2;" points="90.397,127.764 132.099,332.915 378.951,274.677 349.952,82.707 90.397,128.004   "/>
		<g>
			<path style="fill:#FFE5D2;" d="M408.618,213.812l1.377-4.742c1.887-6.499-0.111-13.567-5.265-17.952     c-10.738-9.136-26.894-27.864-20.34-54.166c5.719-22.953,25.064-40.606,48.441-44.542c20.129-3.39,42.467,3.183,55.075,19.849     c13.314,17.598,12.774,43.852,2.99,62.94c-4.564,8.904-11.44,16.606-20.185,21.561c-6.26,3.547-13.29,5.673-20.429,6.462     c-0.007,0.001-0.015,0.001-0.024,0.002c-7.372,0.643-13.644,5.639-15.563,12.786l-1.339,4.988L408.618,213.812z"/>
			<path style="fill:#FFA766;" d="M472.395,170.794c-5.719,19.69-26.317,31.017-46.007,25.298     c-19.69-5.719-31.017-26.317-25.298-46.007c5.719-19.691,26.317-31.017,46.007-25.298     C466.787,130.505,478.114,151.103,472.395,170.794z"/>
			<path style="fill:#401A49;" d="M423.212,221.64c-0.012,0-0.024,0-0.036,0c-0.248-0.02-0.434-0.236-0.414-0.487     c0.46-5.835,3.378-11.774,8.669-17.645c2.525-2.803,5.357-5.374,8.095-7.863c2.053-1.868,4.176-3.799,6.149-5.806     c6.015-6.124,10.89-13.177,14.489-20.962c1.478-3.2,3.193-7.454,3.319-11.969c0.122-4.473-1.488-8.621-4.308-11.097     c-3.124-2.74-8.002-3.614-12.422-2.236c-2.214,0.689-4.352,1.917-6.29,3.585c0.585,1.963,0.904,4.038,0.921,6.144     c0.036,4.376-1.566,7.8-4.284,9.161c-0.65,0.324-1.605,0.626-2.498,0.231c-0.809-0.36-1.364-1.242-1.568-2.481     c-0.455-2.747,0.446-5.793,2.679-9.057c1.108-1.617,2.36-3.056,3.716-4.288c-1.218-3.728-3.436-6.986-6.356-9.146     c-4.953-3.663-11.94-3.955-16.61-0.701c-4.301,2.998-6.811,8.708-7.457,16.973c-1.252,15.911,2.886,31.847,6.631,43.955     l0.044,0.139c1.946,6.295,4.154,13.428,1.739,19.801c-0.088,0.234-0.343,0.355-0.582,0.26c-0.231-0.088-0.351-0.348-0.261-0.582     c2.304-6.081,0.239-12.756-1.761-19.214l-0.041-0.136c-3.77-12.186-7.934-28.231-6.67-44.294     c0.67-8.548,3.307-14.484,7.841-17.643c4.985-3.47,12.415-3.166,17.663,0.716c2.976,2.199,5.255,5.477,6.555,9.234     c1.955-1.624,4.101-2.827,6.322-3.519c4.717-1.476,9.933-0.524,13.284,2.421c3.022,2.65,4.746,7.06,4.615,11.799     c-0.129,4.68-1.885,9.044-3.402,12.324c-3.643,7.878-8.577,15.015-14.665,21.215c-1.99,2.026-4.123,3.964-6.185,5.84     c-2.72,2.474-5.535,5.031-8.029,7.8c-5.158,5.723-7.997,11.48-8.44,17.115C423.644,221.462,423.446,221.64,423.212,221.64z      M439.718,147.831c-1.183,1.118-2.279,2.406-3.261,3.838c-2.097,3.064-2.949,5.888-2.533,8.399     c0.088,0.538,0.341,1.49,1.045,1.804c0.597,0.263,1.339-0.022,1.727-0.217c3.56-1.78,3.799-6.838,3.787-8.345     C440.466,151.438,440.203,149.59,439.718,147.831z"/>
			<g>
				<path style="fill:#8F8FEF;" d="M437.049,227.826c1.363-2.581-3.309-6.915-3.309-6.915s-12.53-3.594-12.518-3.637l-12.604-3.463      c0,0-6.068,1.196-6.314,4.083c-0.247,2.887,2.37,5.422,2.37,5.422s-4.507,1.255-5.041,4.453      c-0.534,3.198,2.605,5.293,2.605,5.293s-4.876,2.529-5.123,5.416c-0.194,2.268,5.66,4.32,7.158,4.985      c6.88,3.058,14.636,5.258,22.201,5.486c0.979,0.03,3.289,0.25,3.867-0.845c1.363-2.581-1.534-7.392-1.534-7.392      s3.902-0.058,5.183-3.059c1.281-3.002-1.988-6.531-1.988-6.531S435.686,230.408,437.049,227.826z"/>
				<path style="fill:#401A49;" d="M432.001,231.575c-0.024,0-0.051,0-0.076-0.005c-16.554-2.83-27.335-7.793-27.442-7.844      c-0.227-0.105-0.324-0.373-0.219-0.599c0.102-0.227,0.375-0.329,0.599-0.219c0.107,0.049,10.788,4.963,27.213,7.771      c0.246,0.044,0.412,0.275,0.37,0.521C432.408,231.422,432.218,231.575,432.001,231.575z"/>
				<path style="fill:#401A49;" d="M429.152,241.384c-0.024,0-0.051,0-0.076-0.005c-16.554-2.827-27.335-7.79-27.442-7.841      c-0.227-0.105-0.324-0.373-0.219-0.599c0.102-0.226,0.375-0.324,0.599-0.219c0.107,0.049,10.788,4.963,27.213,7.768      c0.246,0.041,0.412,0.275,0.37,0.521C429.559,241.231,429.369,241.384,429.152,241.384z"/>
			</g>
			<g>
				<path style="fill:#FFFFFF;" d="M473.486,126.347c-0.703,1.369-1.174,2.8-1.341,4.119c-0.814,6.417,1.802,17.877,9.728,18.54      c4.655,0.389,7.596-3.17,8.812-7.272c1.47-4.961,0.6-10.577-1.346-15.296c-1.387-3.364-4.11-6.876-8.156-6.446      C477.713,120.36,474.989,123.419,473.486,126.347z"/>
				<path style="fill:#FFFFFF;" d="M479.715,156.559c-0.284,0.509-0.497,1.063-0.576,1.641c-0.247,1.828,0.975,3.665,2.652,4.434      c1.677,0.769,3.684,0.581,5.363-0.184c0.602-0.274,1.178-0.624,1.633-1.104c1.173-1.237,1.342-3.23,0.619-4.774      C487.4,152.296,481.881,152.673,479.715,156.559z"/>
			</g>
			<path style="fill:#FFFFFF;" d="M392.748,173.741c1.305,2.711,3.079,5.435,5.639,6.068c0.978,0.242,2.114,0.096,2.821-0.782     c0.584-0.725,0.757-1.823,0.617-2.804c-0.14-0.98-0.556-1.863-1.017-2.68c-1.009-1.786-2.266-3.349-3.607-4.779     c-1.147-1.224-3.657-3.489-5.149-1.572C390.688,168.944,391.971,172.128,392.748,173.741z"/>
		</g>
		<path style="fill:#8F8FEF;" d="M154.028,277.733c0,3.276-2.656,5.932-5.932,5.932c-3.276,0-5.932-2.656-5.932-5.932    c0-3.276,2.656-5.932,5.932-5.932C151.372,271.801,154.028,274.457,154.028,277.733z"/>
		<circle style="fill:#F05D6A;" cx="334.313" cy="127.824" r="5.932"/>
		<g>
			<polygon style="fill:#FF899A;" points="135.214,155.205 167.209,298.643 347.315,260.896 321.791,121.772    "/>
			<path style="fill:#401A49;" d="M148.633,278.241c-0.246,0-0.494-0.063-0.721-0.2c-0.667-0.399-0.884-1.264-0.485-1.931     l45.655-76.212c0.39-0.655,1.227-0.877,1.89-0.509l82.451,45.648l55.437-117.276c0.336-0.704,1.174-0.994,1.875-0.672     c0.704,0.334,1.003,1.171,0.672,1.875l-56.08,118.633c-0.168,0.353-0.473,0.619-0.843,0.738c-0.365,0.124-0.77,0.083-1.113-0.107     l-82.572-45.713l-44.956,75.043C149.58,277.997,149.112,278.241,148.633,278.241z"/>
			<circle style="fill:#FFD2A7;" cx="194.83" cy="200.442" r="5.932"/>
			<g>
				<path style="fill:#401A49;" d="M117.835,171.472c-0.665,0-1.257-0.472-1.383-1.152c-0.141-0.765,0.365-1.498,1.13-1.641      l45.297-8.389c0.748-0.124,1.498,0.363,1.641,1.13c0.141,0.765-0.365,1.498-1.13,1.641l-45.297,8.389      C118.008,171.465,117.92,171.472,117.835,171.472z"/>
				<path style="fill:#401A49;" d="M118.736,178.661c-0.665,0-1.257-0.472-1.383-1.152c-0.141-0.765,0.365-1.498,1.13-1.641      l45.295-8.387c0.748-0.124,1.5,0.363,1.641,1.13c0.141,0.765-0.365,1.498-1.13,1.641l-45.295,8.387      C118.909,178.654,118.821,178.661,118.736,178.661z"/>
				<path style="fill:#401A49;" d="M121.432,185.492c-0.665,0-1.257-0.472-1.383-1.152c-0.141-0.765,0.365-1.498,1.13-1.641      l45.295-8.387c0.752-0.129,1.498,0.363,1.641,1.13c0.141,0.765-0.365,1.498-1.13,1.641l-45.295,8.387      C121.605,185.484,121.517,185.492,121.432,185.492z"/>
			</g>
			<g>
				<path style="fill:#401A49;" d="M310.507,263.247c-0.626,0-1.196-0.419-1.361-1.052c-0.197-0.753,0.253-1.522,1.006-1.717      l44.569-11.655c0.762-0.202,1.52,0.256,1.717,1.006c0.197,0.753-0.253,1.522-1.006,1.717l-44.569,11.655      C310.743,263.233,310.624,263.247,310.507,263.247z"/>
				<path style="fill:#401A49;" d="M311.924,270.353c-0.626,0-1.196-0.419-1.361-1.052c-0.197-0.753,0.253-1.522,1.006-1.717      l44.569-11.655c0.76-0.197,1.52,0.253,1.717,1.006c0.197,0.753-0.253,1.522-1.006,1.717l-44.569,11.655      C312.161,270.339,312.041,270.353,311.924,270.353z"/>
				<path style="fill:#401A49;" d="M315.11,276.97c-0.626,0-1.196-0.419-1.361-1.052c-0.197-0.753,0.253-1.522,1.006-1.717      l44.569-11.655c0.762-0.2,1.522,0.253,1.717,1.006c0.197,0.753-0.253,1.522-1.006,1.717l-44.569,11.655      C315.346,276.955,315.226,276.97,315.11,276.97z"/>
			</g>
		</g>
		<g>
			<polygon style="fill:#8F8FEF;" points="74.34,268.925 124.669,436.689 282.846,391.632 241.624,232.496    "/>
			<g>
				<polygon style="fill:#FFFFFF;" points="82.009,253.587 132.338,421.35 290.515,376.294 249.293,217.158     "/>
				<g>
					<polygon style="fill:#FFD2A7;" points="153.309,405.892 141.445,367.067 162.655,360.596 174.339,399.421      "/>
					<polygon style="fill:#FF899A;" points="185.303,396.725 158.162,310.267 180.031,304.395 206.334,390.254      "/>
					<polygon style="fill:#FFA766;" points="218.856,387.138 196.807,316.019 218.017,309.188 239.887,380.667      "/>
					<polygon style="fill:#8F8FEF;" points="248.335,378.571 216.939,279.35 239.587,273.239 270.264,372.22      "/>
					<path style="fill:#401A49;" d="M139.289,411.27c-0.302,0-0.58-0.195-0.672-0.497L93.32,263.381       c-0.114-0.372,0.093-0.765,0.465-0.879c0.37-0.114,0.767,0.095,0.879,0.465l45.095,146.73l139.176-40.431       c0.37-0.097,0.765,0.107,0.874,0.48c0.107,0.375-0.107,0.765-0.48,0.874l-139.843,40.624       C139.42,411.26,139.355,411.27,139.289,411.27z"/>
					<g>
						<path style="fill:#401A49;" d="M151.151,364.534c-0.068,0-0.139-0.01-0.207-0.032c-0.373-0.115-0.58-0.509-0.465-0.879        l17.436-56.44c0.102-0.331,0.419-0.541,0.772-0.49l37.563,5.326l31.64-58.169c0.185-0.343,0.614-0.47,0.955-0.282        c0.341,0.185,0.467,0.614,0.283,0.955l-31.874,58.598c-0.141,0.256-0.404,0.399-0.718,0.36l-37.453-5.309l-17.258,55.866        C151.73,364.339,151.453,364.534,151.151,364.534z"/>
						<path style="fill:#401A49;" d="M239.107,259.083c-0.373,0-0.684-0.292-0.704-0.67l-0.178-3.587l-3.536,2.231        c-0.329,0.212-0.76,0.109-0.969-0.219c-0.209-0.329-0.109-0.762,0.219-0.969l4.554-2.876c0.212-0.134,0.477-0.141,0.699-0.032        c0.222,0.117,0.368,0.341,0.38,0.592l0.239,4.792c0.02,0.387-0.28,0.718-0.67,0.738        C239.129,259.083,239.12,259.083,239.107,259.083z"/>
					</g>
				</g>
			</g>
		</g>
		<g>
			<path style="fill:#401A49;" d="M35.139,243.341c0.643-1.289,1.833-2.294,3.344-2.652c2.705-0.641,5.417,1.032,6.058,3.736     c0.641,2.705-1.032,5.417-3.737,6.058c-2.705,0.641-5.417-1.032-6.058-3.737C34.464,245.553,34.631,244.358,35.139,243.341"/>
			<path style="fill:#401A49;" d="M54.571,247.431c-0.986,0-1.956-0.273-2.815-0.801c-1.225-0.755-2.082-1.943-2.413-3.344     c-0.29-1.223-0.141-2.518,0.421-3.643v-0.002c0.716-1.432,2.021-2.464,3.575-2.837c2.9-0.682,5.798,1.113,6.485,4.001     c0.682,2.888-1.11,5.796-3.999,6.48C55.409,247.382,54.99,247.431,54.571,247.431z M50.392,239.955     c-0.487,0.979-0.616,2.106-0.363,3.171c0.287,1.215,1.033,2.248,2.097,2.905c1.064,0.655,2.318,0.865,3.538,0.567     c2.508-0.594,4.067-3.122,3.473-5.633c-0.287-1.215-1.033-2.248-2.097-2.905c-1.064-0.655-2.316-0.857-3.538-0.57     C52.151,237.812,51.018,238.71,50.392,239.955L50.392,239.955z"/>
			<path style="fill:#401A49;" d="M69.511,243.89c-0.986,0-1.955-0.273-2.815-0.801c-1.225-0.755-2.082-1.943-2.413-3.344     c-0.29-1.222-0.141-2.518,0.421-3.643V236.1c0.718-1.434,2.021-2.467,3.577-2.837c1.395-0.329,2.842-0.097,4.069,0.658     c1.225,0.755,2.082,1.943,2.413,3.344c0.682,2.888-1.111,5.796-3.999,6.48C70.349,243.841,69.93,243.89,69.511,243.89z      M65.332,236.414c-0.487,0.979-0.616,2.106-0.363,3.171c0.287,1.215,1.033,2.248,2.097,2.905     c1.064,0.655,2.318,0.864,3.538,0.567c2.508-0.594,4.067-3.122,3.473-5.633c-0.287-1.215-1.033-2.248-2.097-2.905     c-1.064-0.658-2.318-0.857-3.538-0.57C67.09,234.269,65.958,235.167,65.332,236.414L65.332,236.414z"/>
		</g>
		<g>
			<path style="fill:#401A49;" d="M309.833,369.162c1.388,0.386,2.6,1.362,3.24,2.778c1.144,2.533,0.018,5.514-2.515,6.658     c-2.533,1.144-5.514,0.018-6.659-2.515c-1.144-2.533-0.018-5.514,2.515-6.658C307.533,368.92,308.738,368.857,309.833,369.162"/>
			<path style="fill:#401A49;" d="M314.808,393.391c-0.643,0-1.286-0.117-1.904-0.351c-1.344-0.507-2.413-1.507-3.005-2.818     c-1.222-2.708-0.015-5.905,2.691-7.128c1.152-0.519,2.447-0.618,3.66-0.28l0,0c1.544,0.431,2.808,1.515,3.465,2.973     c0.592,1.31,0.638,2.771,0.129,4.118c-0.509,1.347-1.51,2.413-2.822,3.005C316.315,393.23,315.563,393.391,314.808,393.391z      M314.81,383.322c-0.66,0-1.32,0.141-1.931,0.416c-2.35,1.062-3.4,3.84-2.338,6.195c1.062,2.348,3.838,3.404,6.19,2.335     c1.14-0.514,2.011-1.442,2.455-2.61c0.441-1.169,0.402-2.443-0.114-3.58c-0.57-1.269-1.668-2.211-3.012-2.586l0,0     C315.65,383.38,315.231,383.322,314.81,383.322z"/>
			<path style="fill:#401A49;" d="M321.134,407.381c-2.053,0-4.018-1.179-4.917-3.166c-1.222-2.708-0.015-5.905,2.691-7.128     c1.152-0.519,2.447-0.616,3.66-0.28l0,0c1.544,0.431,2.808,1.515,3.465,2.973c0.592,1.31,0.638,2.771,0.129,4.118     c-0.507,1.347-1.507,2.413-2.82,3.005C322.627,407.228,321.875,407.381,321.134,407.381z M321.129,397.314     c-0.66,0-1.32,0.141-1.931,0.416c-2.35,1.062-3.399,3.84-2.338,6.195c1.062,2.35,3.835,3.404,6.195,2.335     c1.137-0.514,2.009-1.439,2.45-2.611c0.441-1.169,0.402-2.443-0.114-3.58c-0.572-1.269-1.668-2.211-3.012-2.586l0,0     C321.97,397.373,321.551,397.314,321.129,397.314z"/>
		</g>
		<g>
			<path style="fill:#8F8FEF;" d="M154.481,70.669c3.238,2.704,5.298,6.771,5.298,11.319c0,8.14-6.599,14.739-14.739,14.739     s-14.739-6.599-14.739-14.739c0-8.141,6.599-14.739,14.739-14.739C148.632,67.249,151.924,68.534,154.481,70.669"/>
			<path style="fill:#F05D6A;" d="M232.491,441.307c3.238,2.704,5.298,6.771,5.298,11.319c0,8.14-6.599,14.739-14.739,14.739     c-8.14,0-14.739-6.599-14.739-14.739s6.599-14.739,14.739-14.739C226.642,437.887,229.934,439.172,232.491,441.307"/>
			<path style="fill:#401A49;" d="M273.5,452.732c-0.003,0-0.007,0-0.012,0l-46.015-0.721c-0.263-0.005-0.502-0.156-0.618-0.392     c-0.117-0.239-0.092-0.521,0.066-0.733l25.165-33.791c0.141-0.188,0.382-0.292,0.599-0.282c0.234,0.012,0.448,0.139,0.567,0.341     l20.85,34.511c0.134,0.217,0.136,0.492,0.01,0.714C273.984,452.598,273.75,452.732,273.5,452.732z M228.87,450.625l43.371,0.679     l-19.652-32.527L228.87,450.625z"/>
		</g>
		<g>
			<path style="fill:#FFA766;" d="M328.863,41.766l-2.973-16.511c-0.862-4.788-5.437-7.975-10.228-7.124L209.065,37.063     c-4.942,0.878-8.158,5.696-7.072,10.596l4.045,18.262c1.036,4.676,5.613,7.673,10.313,6.752l31.768-6.227l3.955,30.211     l5.409-32.046l64.394-12.621C326.607,51.062,329.718,46.511,328.863,41.766z"/>
			<g>
				<path style="fill:#401A49;" d="M242.762,46.719c1.007,0.777,1.675,1.978,1.728,3.348c0.095,2.452-1.816,4.517-4.268,4.612      c-2.452,0.095-4.517-1.816-4.612-4.268c-0.095-2.452,1.816-4.517,4.268-4.612C240.96,45.757,241.967,46.105,242.762,46.719"/>
				<path style="fill:#401A49;" d="M270.104,41.153c1.007,0.777,1.675,1.978,1.728,3.348c0.095,2.452-1.816,4.517-4.268,4.612      c-2.452,0.095-4.517-1.816-4.612-4.269c-0.095-2.452,1.816-4.517,4.268-4.612C268.302,40.19,269.309,40.539,270.104,41.153"/>
				<path style="fill:#401A49;" d="M294.224,36.462c1.007,0.777,1.675,1.978,1.728,3.348c0.095,2.452-1.816,4.517-4.269,4.612      c-2.452,0.095-4.517-1.816-4.612-4.268c-0.095-2.452,1.816-4.517,4.269-4.612C292.422,35.5,293.428,35.849,294.224,36.462"/>
			</g>
		</g>
	</g>
</g>















</svg>
