<?xml version="1.0" encoding="UTF-8"?>
<!-- Generator: Adobe Illustrator 25.2.1, SVG Export Plug-In . SVG Version: 6.00 Build 0)  -->
<svg xmlns="http://www.w3.org/2000/svg" xmlns:xlink="http://www.w3.org/1999/xlink" version="1.1" id="Capa_1" x="0px" y="0px" viewBox="0 0 511.979 511.979" style="enable-background:new 0 0 511.979 511.979;" xml:space="preserve" width="512" height="512">
<g>
	<path style="fill:#FFFFFF;" d="M252.322,509.991c-77.326,0.27-152.539-36.952-199.521-98.248   c-8.345-10.757-15.834-22.208-22.266-34.038c-0.095-0.174-0.326-0.625-0.353-0.672c-6.511-12.054-12.066-24.745-16.516-37.725   c-18.793-54.315-18.244-115.707,1.904-169.702c4.537-12.333,10.088-24.367,16.534-35.865c-3.621-12.96-4.726-26.611-3.191-39.89   c0.572-4.963,3.465-9.097,7.469-11.444c2.778-13.368,8.549-26.029,16.92-37.015c9.903-12.995,22.801-22.94,37.64-29.101   c1.548-4.348,5.04-7.945,9.776-9.45c10.147-3.226,20.698-4.863,31.356-4.863c17.266,0,34.158,4.308,49.273,12.514   c6.294-1.867,12.631-3.47,18.901-4.779c59.757-12.852,124.24-3.087,177.293,27.318c8.497,4.816,16.885,10.277,24.999,16.268h66.113   c23.891,0,43.327,19.436,43.327,43.327v261.058c0,12.649-10.289,22.938-22.938,22.938h-15.466   c-6.07,10.847-12.992,21.3-20.621,31.136C405.974,473.209,329.821,510.693,252.322,509.991z"/>
	<g>
		<path style="fill:#FFE5D2;" d="M491.745,257.089c0.071,38.26-9.453,77.128-27.322,110.688    c-70.794,136.8-257.437,169.66-370.421,64.786c-0.025,0-0.025,0-0.025,0C-82.336,266.44,64.905-21.061,302.61,24.448    c0,0,0-0.026,0.026,0c38.621,7.924,74.945,25.816,104.902,51.228h0.025C460.47,119.956,492.163,188.005,491.745,257.089z"/>
		<path style="fill:#FFA766;" d="M437.484,105.929c-9.379,34.967-41.288,60.709-79.212,60.709c-45.29,0-81.99-36.701-81.99-81.99    c0-23.779,10.144-45.213,26.327-60.199c0-0.026,0-0.026,0.026,0c2.549,0.51,5.046,1.071,7.544,1.682    c0.331,0.076,0.612,0.153,0.943,0.229c3.9,0.969,7.824,2.014,11.647,3.211c0.306,0.077,0.663,0.153,0.968,0.28    c14.553,4.435,28.494,10.246,41.721,17.28c0.357,0.178,0.714,0.382,1.096,0.56c1.249,0.688,2.523,1.377,3.772,2.115    c0.255,0.102,0.484,0.255,0.739,0.408c12.259,6.932,23.83,14.961,34.585,23.906c0.637,0.51,1.274,1.02,1.886,1.555h0.025    c0.204,0.127,0.408,0.306,0.561,0.484c10.551,8.946,20.262,18.834,29.106,29.462C437.306,105.725,437.383,105.827,437.484,105.929    z"/>
		<path style="fill:#8F8FEF;" d="M138.324,386.586c0,24.008-54.517,36.149-54.517,36.149c-5.987-6.148-11.633-12.628-16.897-19.405    c-0.178-0.178-0.331-0.383-0.459-0.586c-7.901-10.144-15.011-20.95-21.205-32.342c-0.076-0.204-0.204-0.408-0.331-0.637    c-6.142-11.367-11.367-23.294-15.598-35.681c-0.102-0.255-0.178-0.484-0.229-0.713c-0.433-1.274-0.866-2.574-1.274-3.874    c-1.886-5.811-3.517-11.749-4.944-17.789c10.22-4.562,21.536-7.111,33.464-7.111C101.623,304.596,138.324,341.297,138.324,386.586    z"/>
		<g>
			<path style="fill:#FFFFFF;" d="M71.778,366.606c-4.918,0-8.92-4.002-8.92-8.92V96.626c0-16.161,13.148-29.31,29.309-29.31     h377.762c16.162,0,29.309,13.149,29.309,29.31v261.06c0,4.918-4.002,8.92-8.92,8.92H71.778z"/>
			<path style="fill:#401A49;" d="M469.929,68.591c15.471,0,28.035,12.565,28.035,28.035v261.058c0,4.231-3.441,7.646-7.646,7.646     H71.779c-4.206,0-7.646-3.415-7.646-7.646V96.626c0-15.47,12.565-28.035,28.035-28.035H469.929 M469.929,66.042H92.168     c-16.864,0-30.584,13.72-30.584,30.584v261.058c0,5.622,4.573,10.195,10.195,10.195h418.539c5.622,0,10.195-4.573,10.195-10.195     V96.626C500.512,79.762,486.793,66.042,469.929,66.042L469.929,66.042z"/>
		</g>
		<path style="fill:#401A49;" d="M84.965,322.538c-0.242,0-0.485-0.06-0.709-0.187c-0.702-0.393-0.951-1.282-0.557-1.981    l49.542-88.185c0.254-0.453,0.732-0.737,1.249-0.744c0.473-0.008,1.001,0.261,1.269,0.709l44.367,74.272l97.817-153.574    c0.259-0.406,0.702-0.66,1.185-0.672c0.388-0.095,0.938,0.209,1.222,0.6l109.973,151.876l66.982-100.308    c0.443-0.662,1.347-0.849,2.019-0.401c0.667,0.445,0.849,1.349,0.401,2.018L391.58,308.011c-0.264,0.396-0.707,0.637-1.182,0.647    c-0.53,0.015-0.923-0.216-1.207-0.602L279.248,156.219l-97.934,153.755c-0.271,0.428-0.831,0.6-1.247,0.674    c-0.505-0.008-0.971-0.276-1.23-0.709l-44.288-74.14l-48.312,85.994C85.968,322.27,85.475,322.538,84.965,322.538z"/>
		<g>
			<path style="fill:#FFA766;" d="M288.194,165.898c-5.098,4.424-12.817,3.878-17.241-1.219c-4.424-5.098-3.879-12.817,1.22-17.242     c5.098-4.424,12.817-3.878,17.241,1.219C293.838,153.754,293.292,161.474,288.194,165.898z"/>
			<path style="fill:#F05D6A;" d="M397.515,314.262c-5.098,4.424-12.817,3.878-17.242-1.22c-4.424-5.098-3.878-12.817,1.22-17.242     c5.098-4.424,12.817-3.878,17.242,1.219C403.158,302.118,402.613,309.838,397.515,314.262z"/>
			<path style="fill:#8F8FEF;" d="M144.385,242.683c-5.098,4.424-12.817,3.878-17.242-1.22c-4.424-5.098-3.878-12.817,1.22-17.241     c5.098-4.424,12.817-3.878,17.242,1.22C150.029,230.539,149.483,238.259,144.385,242.683z"/>
		</g>
		<g>
			<path style="fill:#FF899A;" d="M276.512,405.038c-0.204,10.449-26.404,50.387-52.528,87.75     c-5.25-0.663-10.449-1.503-15.598-2.523c-0.28-0.026-0.535-0.077-0.841-0.127c-11.622-2.32-22.938-5.48-33.872-9.43     c-0.306-0.077-0.586-0.204-0.892-0.306c-5.225-1.911-10.348-3.976-15.394-6.244c-0.306-0.153-0.637-0.255-0.943-0.408     c-9.379-4.257-18.452-9.099-27.143-14.476c-0.229-0.128-0.459-0.255-0.688-0.459c-5.862-3.619-11.545-7.518-17.05-11.647     c-5.25-3.925-10.322-8.105-15.215-12.463c-0.433-0.357-0.841-0.739-1.249-1.147c-0.204-0.127-0.382-0.306-0.56-0.485     c-0.204-0.178-0.357-0.306-0.535-0.51c-0.025,0-0.025,0-0.025,0c-3.441-3.135-6.805-6.372-10.042-9.71     c9.098-28.494,27.169-68.864,41.466-82.168c17.025-15.852,28.57-16.796,28.57-16.796s74.854-132.173,104.622-158.042     c1.223-1.071,2.37-1.937,3.415-2.625c2.09-1.351,3.848-1.937,5.225-1.682c3.033,0.637,4.766,2.778,5.53,6.091     c0.28,1.147,0.408,2.421,0.433,3.848c0,0.025,0,0.051,0,0.051c0.586,27.271-39.555,101.13-47.43,115.326     c-0.025,0.076-0.076,0.153-0.127,0.229c-0.765,1.402-1.198,2.166-1.198,2.166s0.026,0,0.102,0     c0.459,0.076,2.421,0.382,4.97,1.427c6.499,2.625,16.821,9.914,15.878,29.488c0,0,8.971,2.574,15.649,9.736     c3.874,4.129,6.958,9.787,7.111,17.407c0.127,7.111-0.663,13.38-1.784,18.555c-2.115,9.889-5.403,15.725-5.403,15.725     S276.945,384.114,276.512,405.038z"/>
			<path style="fill:#401A49;" d="M272.772,167.637c0.272,1.14,0.401,2.421,0.42,3.834c0.008,0.034,0.016,0.067,0.016,0.067     c-1.677,4.406-3.678,8.64-6.004,12.705c-1.438,2.435-3.112,4.926-5.594,6.404c-0.682,0.411-1.454,0.737-2.293,0.937     c-2.18,0.521-4.601,0.177-6.288-1.546c-2.068-2.129-2.267-5.484-0.603-10.241c1.723-4.807,3.762-9.476,6.167-13.949     c1.232-1.074,2.37-1.948,3.414-2.623c-3.201,5.443-5.871,11.184-7.957,17.141c-1.439,4.065-1.377,6.85,0.22,8.489     c1.646,1.698,4.592,1.42,6.485,0.294c2.238-1.314,3.726-3.69,4.928-5.785C268.596,178.346,270.958,173.103,272.772,167.637z"/>
			<path style="fill:#401A49;" d="M201.685,335.078c-0.132,0-0.266-0.03-0.391-0.092c-0.426-0.217-0.592-0.737-0.378-1.16     c0.423-0.831,42.381-83.267,49.851-98.17c0.214-0.426,0.727-0.6,1.157-0.386c0.426,0.214,0.597,0.732,0.386,1.157     c-7.474,14.909-49.432,97.349-49.855,98.18C202.3,334.906,201.999,335.078,201.685,335.078z"/>
			<path style="fill:#401A49;" d="M236.359,358.665c-0.102,0-0.207-0.017-0.309-0.057c-0.446-0.169-0.667-0.669-0.495-1.113     c3.074-7.999,6.252-16.268,7.87-24.81c1.807-9.555,1.364-18.104-1.322-25.412c-3.141-8.539-9.542-15.138-17.129-17.649     c-0.451-0.149-0.697-0.637-0.548-1.09c0.149-0.451,0.642-0.694,1.09-0.547c8.079,2.676,14.884,9.664,18.204,18.692     c2.793,7.604,3.263,16.462,1.396,26.325c-1.645,8.696-4.853,17.039-7.955,25.108     C237.031,358.456,236.705,358.665,236.359,358.665z"/>
			<path style="fill:#401A49;" d="M256.367,394.851c-0.085,0-0.169-0.012-0.254-0.037c-0.455-0.142-0.709-0.625-0.57-1.078     c1.478-4.779,3.263-9.453,4.99-13.97c1.991-5.214,4.052-10.605,5.622-16.133c2.043-7.193,4.368-20.673-3.012-30.151     c-4.664-5.991-11.593-9.157-17.756-11.464c-0.445-0.167-0.672-0.662-0.505-1.107c0.167-0.446,0.66-0.677,1.107-0.505     c6.389,2.389,13.585,5.687,18.513,12.017c7.85,10.078,5.443,24.177,3.31,31.684c-1.593,5.598-3.666,11.026-5.67,16.275     c-1.717,4.492-3.492,9.139-4.953,13.863C257.076,394.615,256.735,394.851,256.367,394.851z"/>
		</g>
		<path style="fill:#FFD2A7;" d="M497.964,96.626v23.168H64.133V96.626c0-15.47,12.565-28.035,28.035-28.035h377.761    C485.399,68.591,497.964,81.156,497.964,96.626z"/>
		<g>
			<path style="fill:#F05D6A;" d="M422.329,96.874c0,4.752-3.852,8.604-8.604,8.604c-4.752,0-8.604-3.852-8.604-8.604     c0-4.752,3.852-8.604,8.604-8.604C418.477,88.27,422.329,92.122,422.329,96.874z"/>
			<path style="fill:#FFA766;" d="M448.141,96.874c0,4.752-3.852,8.604-8.604,8.604c-4.752,0-8.604-3.852-8.604-8.604     c0-4.752,3.852-8.604,8.604-8.604C444.289,88.27,448.141,92.122,448.141,96.874z"/>
			<path style="fill:#60D8D2;" d="M473.446,96.874c0,4.752-3.852,8.604-8.604,8.604c-4.752,0-8.604-3.852-8.604-8.604     c0-4.752,3.852-8.604,8.604-8.604C469.594,88.27,473.446,92.122,473.446,96.874z"/>
		</g>
		<path style="fill:#401A49;" d="M458.893,224.318c-0.013,0-0.022,0-0.035,0c-0.804-0.017-1.439-0.684-1.419-1.488l0.388-16.156    l-15.247,9.348c-0.692,0.423-1.581,0.202-2.001-0.478c-0.421-0.687-0.207-1.583,0.478-2.001l17.527-10.747    c0.458-0.281,1.026-0.286,1.488-0.022c0.461,0.266,0.739,0.764,0.727,1.297l-0.453,18.829    C460.329,223.691,459.682,224.318,458.893,224.318z"/>
		<g>
			<g>
				<circle style="fill:#FFA766;" cx="397.041" cy="180.69" r="41.212"/>
			</g>
			<g>
				<path style="fill:#FFF5EE;" d="M397.041,218.912c-21.076,0-38.222-17.146-38.222-38.222c0-21.076,17.146-38.222,38.222-38.222      c21.076,0,38.223,17.146,38.223,38.222C435.264,201.766,418.117,218.912,397.041,218.912z M397.041,143.105      c-20.724,0-37.585,16.86-37.585,37.585c0,20.725,16.861,37.585,37.585,37.585c20.725,0,37.586-16.86,37.586-37.585      C434.627,159.965,417.766,143.105,397.041,143.105z"/>
			</g>
			<g>
				<path style="fill:#FFFFFF;" d="M399.892,196.47v4.044h-2.113v-4c-4.944-0.227-8.632-2.519-10.025-6.384l2.068-1.17      c1.034,3.148,3.777,5.035,7.957,5.259v-13.351c-4.586-1.618-8.541-3.283-8.541-8.631c0-4.677,3.776-7.823,8.541-8.136v-4.047      h2.113v4.047c3.552,0.403,6.563,2.292,7.957,5.662l-2.022,1.125c-1.034-2.564-3.058-4.092-5.935-4.45v12.768      c4.586,1.618,8.721,3.415,8.721,8.766C408.613,192.692,405.016,195.975,399.892,196.47z M397.779,178.443v-12.049      c-3.686,0.313-6.159,2.698-6.159,5.844C391.62,175.789,394.227,177.138,397.779,178.443z M406.186,187.973      c0-3.596-2.608-5.08-6.294-6.384v12.542C403.937,193.682,406.186,191.208,406.186,187.973z"/>
			</g>
		</g>
		<g>
			<path style="fill:#F05D6A;" d="M186.862,35.353c38.837,29.595,46.299,85.144,16.737,123.938     c-29.628,38.88-85.134,46.375-123.97,16.78c-25.675-19.566-37.71-50.496-34.247-80.462l87.881,10.081l-26.633-84.277     C133.093,13,163.085,17.234,186.862,35.353z"/>
		</g>
		<path style="fill:#FFA766;" d="M106.961,21.413l26.647,84.716l-88.575-10.57c1.821-15.349,7.711-30.431,17.853-43.581    C74.529,36.88,90.033,26.576,106.961,21.413z"/>
		<g>
			<path style="fill:#8F8FEF;" d="M310.157,435.752c3.176,5.956,0.922,13.359-5.034,16.535c-5.956,3.176-13.36,0.922-16.535-5.034     c-3.176-5.956-0.922-13.359,5.034-16.535C299.578,427.541,306.981,429.795,310.157,435.752z"/>
			<path style="fill:#FFA766;" d="M355.21,384.026c3.176,5.956,0.922,13.359-5.034,16.535c-5.956,3.176-13.359,0.922-16.535-5.034     c-3.176-5.956-0.922-13.359,5.034-16.535C344.631,375.816,352.034,378.07,355.21,384.026z"/>
			<path style="fill:#401A49;" d="M280.816,482.048c-0.097,0-0.197-0.025-0.286-0.077c-0.281-0.157-0.381-0.513-0.221-0.794     l21.151-37.628c0.052-0.097,0.134-0.177,0.234-0.229l32.911-17.549l9.062-38.392c0.072-0.314,0.386-0.518,0.702-0.433     c0.314,0.072,0.508,0.388,0.433,0.702l-9.122,38.648c-0.037,0.162-0.144,0.301-0.294,0.381l-32.993,17.594l-21.069,37.478     C281.216,481.941,281.02,482.048,280.816,482.048z"/>
			<path style="fill:#401A49;" d="M349.159,396.282c-0.209,0-0.411-0.112-0.515-0.311l-4.455-8.35l-6.857,8.238     c-0.204,0.251-0.575,0.284-0.821,0.075c-0.249-0.207-0.281-0.573-0.075-0.821l7.412-8.905c0.127-0.149,0.318-0.219,0.508-0.207     c0.194,0.02,0.363,0.134,0.456,0.306l4.863,9.117c0.152,0.284,0.045,0.637-0.241,0.789     C349.345,396.26,349.251,396.282,349.159,396.282z"/>
		</g>
		<g>
			<g>
				<path style="fill:#401A49;" d="M394.059,396.349c0,2.156-1.748,3.904-3.905,3.904c-2.156,0-3.904-1.748-3.904-3.904      c0-2.156,1.748-3.904,3.904-3.904C392.311,392.445,394.059,394.193,394.059,396.349z"/>
				<path style="fill:#401A49;" d="M410.327,396.349c0,2.156-1.748,3.904-3.904,3.904c-2.156,0-3.904-1.748-3.904-3.904      c0-2.156,1.748-3.904,3.904-3.904C408.579,392.445,410.327,394.193,410.327,396.349z"/>
				<path style="fill:#401A49;" d="M426.595,396.349c0,2.156-1.748,3.904-3.904,3.904c-2.156,0-3.904-1.748-3.904-3.904      c0-2.156,1.748-3.904,3.904-3.904C424.846,392.445,426.595,394.193,426.595,396.349z"/>
			</g>
			<g>
				<path style="fill:#401A49;" d="M260.01,50.817c0,2.156-1.748,3.904-3.904,3.904c-2.156,0-3.904-1.748-3.904-3.904      c0-2.156,1.748-3.904,3.904-3.904C258.262,46.913,260.01,48.661,260.01,50.817z"/>
				<path style="fill:#401A49;" d="M276.278,50.817c0,2.156-1.748,3.904-3.904,3.904c-2.156,0-3.904-1.748-3.904-3.904      c0-2.156,1.748-3.904,3.904-3.904C274.53,46.913,276.278,48.661,276.278,50.817z"/>
				<path style="fill:#401A49;" d="M292.547,50.817c0,2.156-1.748,3.904-3.905,3.904c-2.156,0-3.904-1.748-3.904-3.904      c0-2.156,1.748-3.904,3.904-3.904C290.798,46.913,292.547,48.661,292.547,50.817z"/>
			</g>
			<g>
				<path style="fill:#401A49;" d="M43.972,258.397c2.156,0,3.904,1.748,3.904,3.905c0,2.156-1.748,3.904-3.904,3.904      c-2.156,0-3.904-1.748-3.904-3.904C40.067,260.145,41.815,258.397,43.972,258.397z"/>
				<path style="fill:#401A49;" d="M43.972,242.129c2.156,0,3.904,1.748,3.904,3.904c0,2.156-1.748,3.904-3.904,3.904      c-2.156,0-3.904-1.748-3.904-3.904C40.067,243.877,41.815,242.129,43.972,242.129z"/>
				<path style="fill:#401A49;" d="M43.972,225.861c2.156,0,3.904,1.748,3.904,3.904c0,2.156-1.748,3.904-3.904,3.904      c-2.156,0-3.904-1.748-3.904-3.904C40.067,227.609,41.815,225.861,43.972,225.861z"/>
			</g>
		</g>
	</g>
</g>















</svg>
