<?xml version="1.0" encoding="UTF-8"?>
<!-- Generator: Adobe Illustrator 25.2.1, SVG Export Plug-In . SVG Version: 6.00 Build 0)  -->
<svg xmlns="http://www.w3.org/2000/svg" xmlns:xlink="http://www.w3.org/1999/xlink" version="1.1" id="Capa_1" x="0px" y="0px" viewBox="0 0 512 512" style="enable-background:new 0 0 512 512;" xml:space="preserve" width="512" height="512">
<g>
	<path style="fill:#FFFFFF;" d="M142.973,452.441c-10.082,0-19.019-5.293-24.081-13.308c-0.368,0.009-0.734,0.011-1.1,0.011   c-1.436,0-2.893-0.06-4.328-0.175c-21.124-1.453-40.237-14.26-49.709-33.414c-11.601-23.463-6.716-50.681,10.486-68.519   c-8.623-4.403-17.337-9.654-25.01-16.242c-0.368-0.3-0.727-0.616-1.081-0.933c-3.271-2.901-6.158-5.858-8.725-8.92   c-9.87-11.785-12.994-24.892-8.571-35.962c3.096-7.803,9.709-13.815,18.131-16.849c-2.844-3.682-5.597-7.489-8.237-11.396   c-4.386-6.464-10.589-16.387-13.698-27.706l-0.235-0.869c-1.097-4.269-1.699-8.406-1.831-12.472   c-0.195-6.492,0.99-12.863,3.297-18.643C11.68,180.048,0,163.61,0,144.495c0-25.446,20.703-46.149,46.149-46.149h66.103V76.26   c-0.038-2.728,0.77-5.443,2.375-7.735c2.461-3.511,6.475-5.614,10.762-5.614l80.766-1.031c10.963-0.135,22.477-0.289,34.142-0.443   l46.684-0.608c9.393-0.111,18.544-0.233,27.259-0.351l52.084-0.657c12.215-0.175,19.588-0.263,19.588-0.263   c0.051,0,0.105,0,0.156,0c4.91,0,9.416,2.739,11.676,7.106l33.566,64.896c1.365,2.638,1.776,5.612,1.247,8.445   c1.074-0.884,2.152-1.725,3.242-2.529c0.28-0.216,0.738-0.543,1.17-0.847c7.134-5.062,14.735-8.526,22.553-10.268   c3.618-0.813,7.241-1.226,10.745-1.226c3.928,0,7.73,0.52,11.304,1.547c1.923,0.567,3.733,1.256,5.467,2.069   c0.426,0.19,0.847,0.398,1.256,0.61c0.028,0.013,0.237,0.122,0.265,0.137c14.556,7.643,23.966,25.023,23.418,43.244   c-0.148,4.523-0.809,9.076-1.966,13.572l-0.306,1.136c-3.447,12.549-10.364,23.615-15.268,30.846   c-3.43,5.071-7.031,9.999-10.745,14.708c10.138,2.953,18.176,9.768,21.779,18.844c4.748,11.89,1.316,26.075-9.425,38.898   c-2.839,3.389-6.042,6.671-9.517,9.752l-0.216,0.193c-0.374,0.336-0.753,0.67-1.14,0.984c-0.815,0.7-1.662,1.397-2.557,2.11   l0.52,51.695c0.06,5.452-2.016,10.608-5.847,14.504c-3.828,3.892-8.944,6.051-14.4,6.081l-66.279,0.586v47.309   c0,15.705-12.778,28.482-28.483,28.482H142.973z"/>
	<g>
		<g>
			<path style="fill:#FFD2A7;" d="M70.364,175.939c5.769,1.286,11.006,3.854,15.778,7.24c0.269,0.188,0.554,0.392,0.824,0.596     c8.107,5.984,14.832,14.36,20.509,22.804c8.524,12.665,15.616,26.69,21.877,41.399c0.176,0.372,0.337,0.76,0.498,1.149l0,0.017     c4.965,11.716,9.418,23.859,13.695,36.106c0.128,0.406,0.273,0.811,0.417,1.217c3.917,11.308,7.706,22.685,11.571,33.896     c0.145,0.422,0.291,0.86,0.436,1.282l0.001,0.016c5.387,15.542,10.99,30.699,17.446,44.843c0.142,0.34,0.301,0.679,0.46,1.019     c-0.384-0.201-0.767-0.385-1.151-0.569c-16.597-8.198-22.937-10.877-34.724-16.001c-9.106-3.966-18.229-7.914-27.335-11.88     l-0.017,0c-0.566-0.244-1.132-0.504-1.698-0.748l-0.016,0c-3.03-1.311-6.027-2.64-9.057-3.951     c-14.832-6.435-30.103-13.216-42.23-23.678c-0.32-0.252-0.625-0.537-0.929-0.806c-2.569-2.278-4.997-4.741-7.218-7.392     c-5.295-6.323-9.503-14.979-6.441-22.645c2.515-6.335,9.449-10.009,16.238-10.644c6.772-0.65,13.511,1.195,20.069,3.03     c-4.912-4.646-9.553-9.53-13.873-14.654c-0.288-0.286-0.528-0.59-0.767-0.877c-4.662-5.523-9.021-11.319-13.092-17.338     c-4.985-7.351-9.58-15.338-11.912-23.826c-0.075-0.277-0.15-0.553-0.224-0.83c-0.791-3.075-1.273-6.242-1.379-9.455     c-0.329-10.95,5.029-22.629,14.497-27.602c0.242-0.123,0.5-0.263,0.759-0.37c1.034-0.493,2.103-0.906,3.225-1.238     C61.055,174.77,65.835,174.924,70.364,175.939z"/>
			<g>
				<path style="fill:#401A49;" d="M53.376,177.288c9.773,12.23,18.892,25.007,27.592,38.06c0.19,0.289,0.38,0.578,0.57,0.867      c12.537,18.899,24.174,38.402,35.479,57.752c0.157,0.274,0.313,0.531,0.469,0.788c2.505,4.298,4.992,8.565,7.463,12.831      c3.009,5.168,6.037,10.384,9.08,15.6l0.016-0.001c0.139,0.242,0.279,0.5,0.435,0.757c5.478,9.353,11.055,18.768,16.779,28.112      c0.174,0.29,0.347,0.579,0.537,0.868c6.955,11.371,14.136,22.62,21.619,33.58c1,1.477,2.017,2.953,3.033,4.412l-0.673,0.482      c-1.017-1.476-2.05-2.952-3.051-4.444c-7.5-10.976-14.682-22.242-21.67-33.628c-0.139-0.241-0.295-0.499-0.451-0.74      c-5.793-9.473-11.441-19.017-16.989-28.515c-0.156-0.257-0.312-0.498-0.452-0.756c-2.991-5.119-5.966-10.239-8.923-15.31      c-2.488-4.282-4.992-8.581-7.514-12.879l-0.017-0.016c-0.053-0.129-0.123-0.258-0.209-0.37      c-3.131-5.377-6.295-10.77-9.508-16.144c-0.157-0.274-0.314-0.547-0.47-0.821c-8.13-13.646-16.487-27.236-25.295-40.548      l-0.57-0.867c-8.84-13.278-18.113-26.263-28.04-38.701C52.859,177.535,53.117,177.395,53.376,177.288z"/>
				<path style="fill:#401A49;" d="M86.142,183.18c0.269,0.188,0.554,0.392,0.824,0.596c0,10.436-1.807,21.309-5.427,32.439      c-0.074,0.248-0.147,0.514-0.237,0.763l-0.074,0.248l-0.015,0.05l-0.312-0.006c-13.644-0.764-27.463-1.341-41.177-1.725      c-0.075-0.277-0.15-0.553-0.224-0.83c13.698,0.385,27.499,0.947,41.127,1.711c-0.001-0.016,0.015-0.05,0.031-0.067      c0.104-0.332,0.207-0.68,0.311-1.011C84.476,204.287,86.205,193.532,86.142,183.18z"/>
				<path style="fill:#401A49;" d="M64.728,256.708c13.882,1.002,27.907,1.36,41.795,1.065c0.296,0.007,0.591-0.003,0.886-0.013      l0.027,0.82l-0.442,0.014c-13.79,0.291-27.715-0.037-41.498-1.009C65.207,257.3,64.967,256.996,64.728,256.708z"/>
				<path style="fill:#401A49;" d="M129.352,247.979c0.176,0.372,0.337,0.76,0.498,1.149l0,0.017      c-2.885,9.038-7.031,17.658-12.364,25.612c-0.124,0.201-0.249,0.402-0.39,0.604l-0.386-0.25l-0.302-0.22      c0.031-0.05,0.062-0.101,0.093-0.151c0.172-0.252,0.344-0.504,0.516-0.772C122.379,265.898,126.521,257.146,129.352,247.979z"/>
				<path style="fill:#401A49;" d="M143.545,285.25c0.128,0.406,0.273,0.811,0.417,1.217c-2.279,5.999-5.207,11.773-8.735,17.222      l-0.093,0.151l-0.18,0.022c-0.163,0.022-0.31,0.043-0.473,0.081c-0.294,0.043-0.571,0.085-0.865,0.127      c-25.072,3.978-50.58,6.215-75.967,6.626c-0.32-0.252-0.625-0.537-0.929-0.806c25.536-0.367,51.208-2.577,76.444-6.576      c0.294-0.043,0.571-0.084,0.865-0.127l0.016-0.001c0.212-0.04,0.392-0.062,0.604-0.102      C138.271,297.452,141.272,291.462,143.545,285.25z"/>
				<path style="fill:#401A49;" d="M155.534,320.363c0.145,0.422,0.291,0.86,0.436,1.282l0.001,0.016      c-1.25,3.897-2.652,7.652-4.173,11.263c-0.016,0.017-0.015,0.05-0.031,0.067l-0.076,0.183l-0.195,0.056      c-0.146,0.038-0.293,0.075-0.44,0.096c-13.251,3.194-26.775,5.101-40.389,5.747l-0.017,0c-0.566-0.244-1.132-0.504-1.698-0.748      c14.028-0.545,27.994-2.466,41.653-5.74c0.163-0.038,0.326-0.076,0.488-0.115c0.061-0.133,0.122-0.266,0.167-0.416      C152.826,328.312,154.256,324.409,155.534,320.363z"/>
			</g>
		</g>
		<g>
			<path style="fill:#FFD0C4;" d="M462.379,139.192c-6.523,1.455-12.446,4.358-17.842,8.187c-0.304,0.213-0.627,0.443-0.931,0.674     c-9.167,6.767-16.771,16.238-23.191,25.786c-9.639,14.322-17.658,30.181-24.739,46.813c-0.199,0.42-0.381,0.859-0.563,1.299     l-0.001,0.019c-5.614,13.248-10.65,26.979-15.487,40.828c-0.145,0.459-0.308,0.918-0.472,1.376     c-4.43,12.786-8.714,25.652-13.084,38.329c-0.164,0.477-0.329,0.973-0.493,1.449l0,0.019     c-6.091,17.574-12.427,34.714-19.728,50.708c-0.161,0.384-0.341,0.768-0.52,1.152c0.434-0.227,0.868-0.435,1.301-0.643     c18.768-9.27,25.937-12.299,39.265-18.093c10.297-4.484,20.613-8.949,30.91-13.434l0.019,0c0.64-0.276,1.28-0.57,1.921-0.846     l0.018,0.001c3.426-1.483,6.815-2.985,10.241-4.467c16.772-7.276,34.04-14.945,47.753-26.775     c0.362-0.285,0.707-0.608,1.051-0.912c2.905-2.576,5.651-5.361,8.162-8.359c5.988-7.15,10.746-16.938,7.284-25.606     c-2.844-7.163-10.685-11.318-18.361-12.036c-7.657-0.735-15.278,1.351-22.694,3.426c5.554-5.253,10.802-10.776,15.688-16.571     c0.326-0.323,0.597-0.667,0.868-0.992c5.272-6.246,10.201-12.8,14.804-19.606c5.637-8.312,10.833-17.343,13.469-26.942     c0.085-0.313,0.169-0.625,0.254-0.938c0.894-3.477,1.439-7.059,1.559-10.692c0.372-12.382-5.686-25.589-16.392-31.212     c-0.274-0.139-0.565-0.297-0.858-0.418c-1.169-0.558-2.378-1.025-3.646-1.401C472.906,137.869,467.5,138.043,462.379,139.192z"/>
			<g>
				<path style="fill:#401A49;" d="M481.588,140.717c-11.051,13.829-21.362,28.277-31.201,43.037      c-0.215,0.327-0.43,0.654-0.645,0.98c-14.176,21.371-27.336,43.425-40.119,65.306c-0.177,0.309-0.354,0.6-0.53,0.892      c-2.833,4.861-5.645,9.685-8.439,14.509c-3.403,5.844-6.826,11.742-10.268,17.641l-0.019-0.001      c-0.158,0.273-0.315,0.565-0.492,0.856c-6.194,10.576-12.501,21.222-18.973,31.789c-0.196,0.327-0.393,0.655-0.608,0.982      c-7.865,12.858-15.985,25.579-24.447,37.972c-1.131,1.67-2.281,3.339-3.43,4.99l0.761,0.544c1.15-1.669,2.318-3.337,3.45-5.026      c8.481-12.411,16.602-25.15,24.504-38.026c0.157-0.273,0.334-0.564,0.51-0.837c6.551-10.712,12.937-21.505,19.211-32.244      c0.177-0.291,0.353-0.564,0.511-0.855c3.383-5.789,6.746-11.578,10.09-17.312c2.813-4.843,5.646-9.703,8.496-14.563l0.019-0.018      c0.061-0.146,0.139-0.292,0.236-0.419c3.541-6.08,7.119-12.178,10.752-18.255c0.177-0.309,0.355-0.619,0.532-0.929      c9.193-15.431,18.644-30.798,28.604-45.851l0.645-0.98c9.996-15.015,20.481-29.698,31.707-43.763      C482.173,140.996,481.881,140.838,481.588,140.717z"/>
				<path style="fill:#401A49;" d="M444.537,147.379c-0.304,0.213-0.627,0.443-0.931,0.674c0,11.801,2.043,24.096,6.137,36.681      c0.083,0.281,0.166,0.581,0.268,0.863l0.083,0.281l0.017,0.056l0.353-0.007c15.429-0.864,31.055-1.517,46.562-1.951      c0.085-0.313,0.169-0.625,0.254-0.938c-15.489,0.435-31.096,1.07-46.506,1.935c0.001-0.019-0.017-0.056-0.035-0.075      c-0.118-0.375-0.234-0.768-0.352-1.143C446.421,171.247,444.466,159.085,444.537,147.379z"/>
				<path style="fill:#401A49;" d="M468.752,230.524c-15.697,1.133-31.556,1.537-47.261,1.204c-0.334,0.007-0.668-0.003-1.001-0.015      l-0.031,0.927l0.5,0.016c15.594,0.329,31.34-0.042,46.925-1.141C468.211,231.193,468.482,230.849,468.752,230.524z"/>
				<path style="fill:#401A49;" d="M395.676,220.653c-0.199,0.42-0.381,0.859-0.563,1.299l-0.001,0.019      c3.262,10.22,7.95,19.967,13.981,28.961c0.141,0.227,0.282,0.455,0.441,0.683l0.436-0.283l0.342-0.249      c-0.035-0.057-0.07-0.114-0.106-0.17c-0.195-0.285-0.389-0.57-0.583-0.873C403.561,240.915,398.878,231.019,395.676,220.653z"/>
				<path style="fill:#401A49;" d="M379.626,262.798c-0.145,0.459-0.308,0.918-0.472,1.376c2.578,6.783,5.888,13.313,9.878,19.474      l0.106,0.171l0.203,0.025c0.185,0.025,0.351,0.049,0.535,0.092c0.332,0.048,0.646,0.096,0.978,0.144      c28.352,4.498,57.195,7.028,85.902,7.493c0.362-0.285,0.707-0.608,1.051-0.912c-28.876-0.415-57.906-2.913-86.442-7.437      c-0.332-0.048-0.646-0.095-0.979-0.144l-0.019-0.001c-0.24-0.045-0.443-0.07-0.683-0.115      C385.591,276.596,382.197,269.823,379.626,262.798z"/>
				<path style="fill:#401A49;" d="M366.07,302.503c-0.164,0.477-0.329,0.973-0.493,1.449l0,0.019      c1.413,4.407,2.998,8.653,4.719,12.736c0.018,0.019,0.017,0.056,0.035,0.075l0.086,0.207l0.221,0.063      c0.166,0.042,0.331,0.085,0.497,0.109c14.984,3.612,30.276,5.768,45.671,6.499l0.019,0c0.64-0.276,1.28-0.57,1.921-0.846      c-15.862-0.616-31.655-2.789-47.1-6.491c-0.184-0.043-0.368-0.086-0.552-0.13c-0.069-0.151-0.139-0.301-0.189-0.47      C369.132,311.492,367.514,307.078,366.07,302.503z"/>
			</g>
		</g>
		<g>
			<g>
				<path style="fill:#401A49;" d="M376.705,439.295H134.394c-3.733,0-6.759-3.026-6.759-6.759V84.314      c0-3.733,3.026-6.759,6.759-6.759h242.311c3.733,0,6.759,3.026,6.759,6.759v348.223      C383.464,436.269,380.438,439.295,376.705,439.295z"/>
				<rect x="146.624" y="92.472" style="fill:#8F8FEF;" width="222.698" height="317.735"/>
				<path style="fill:#FFE5D2;" d="M287.994,431.365h-68.245c-3.852,0-6.987-3.135-6.987-6.987c0-3.853,3.134-6.989,6.987-6.989      h68.245c3.852,0,6.987,3.135,6.987,6.989C294.98,428.23,291.846,431.365,287.994,431.365z M219.749,417.939      c-3.551,0-6.439,2.887-6.439,6.439c0,3.55,2.888,6.437,6.439,6.437h68.245c3.551,0,6.439-2.887,6.439-6.437      c0-3.552-2.888-6.439-6.439-6.439H219.749z"/>
				<g>
					<g>
						<path style="fill:#FFE5D2;" d="M300.953,284.332H193.55c-0.242,0-0.454-0.157-0.524-0.39l-25.173-83.351        c-0.05-0.164-0.019-0.346,0.084-0.483c0.103-0.14,0.267-0.222,0.44-0.222h161.105c0.177,0,0.342,0.084,0.445,0.228        c0.103,0.144,0.13,0.33,0.073,0.496l-28.53,83.351C301.395,284.183,301.187,284.332,300.953,284.332z M193.957,283.237        h106.605l28.154-82.256H169.116L193.957,283.237z"/>
						<path style="fill:#FFE5D2;" d="M324.449,214.968H172.853c-0.302,0-0.547-0.244-0.547-0.547c0-0.304,0.245-0.547,0.547-0.547        h151.596c0.302,0,0.547,0.244,0.547,0.547C324.996,214.724,324.751,214.968,324.449,214.968z"/>
						<path style="fill:#FFE5D2;" d="M319.134,230.35H177.328c-0.303,0-0.547-0.244-0.547-0.547c0-0.303,0.245-0.547,0.547-0.547        h141.806c0.302,0,0.547,0.244,0.547,0.547C319.681,230.107,319.436,230.35,319.134,230.35z"/>
						<path style="fill:#FFE5D2;" d="M313.766,246.859H182.221c-0.302,0-0.547-0.244-0.547-0.547c0-0.304,0.245-0.547,0.547-0.547        h131.544c0.302,0,0.547,0.244,0.547,0.547C314.313,246.615,314.068,246.859,313.766,246.859z"/>
						<path style="fill:#FFE5D2;" d="M307.653,264.759H187.633c-0.302,0-0.547-0.244-0.547-0.547s0.245-0.547,0.547-0.547h120.021        c0.302,0,0.547,0.244,0.547,0.547S307.956,264.759,307.653,264.759z"/>
						<path style="fill:#FFE5D2;" d="M210.332,284.146c-0.254,0-0.481-0.175-0.536-0.434l-17.621-83.165        c-0.062-0.295,0.126-0.587,0.423-0.649c0.29-0.053,0.586,0.124,0.649,0.423l17.621,83.165        c0.062,0.295-0.126,0.587-0.423,0.649C210.408,284.141,210.369,284.146,210.332,284.146z"/>
						<path style="fill:#FFE5D2;" d="M227.952,284.052c-0.286,0-0.527-0.222-0.545-0.512l-5.315-83.072        c-0.02-0.301,0.209-0.563,0.511-0.583c0.305,0.002,0.563,0.208,0.582,0.512l5.315,83.072c0.02,0.301-0.209,0.563-0.511,0.583        C227.976,284.052,227.964,284.052,227.952,284.052z"/>
						<path style="fill:#FFE5D2;" d="M251.168,284.611c-0.303,0-0.547-0.244-0.547-0.547v-83.63c0-0.304,0.245-0.547,0.547-0.547        s0.547,0.244,0.547,0.547v83.63C251.715,284.367,251.47,284.611,251.168,284.611z"/>
						<path style="fill:#FFE5D2;" d="M270.188,284.052c-0.022,0-0.044,0-0.066-0.004c-0.301-0.035-0.515-0.308-0.479-0.609        l10.069-83.072c0.037-0.299,0.314-0.543,0.609-0.476c0.301,0.035,0.515,0.308,0.479,0.609l-10.069,83.072        C270.697,283.849,270.461,284.052,270.188,284.052z"/>
						<path style="fill:#FFE5D2;" d="M287.529,283.492c-0.037,0-0.074-0.002-0.113-0.011c-0.296-0.062-0.485-0.352-0.423-0.649        l17.341-82.511c0.063-0.293,0.341-0.494,0.649-0.423c0.296,0.062,0.485,0.352,0.423,0.649l-17.34,82.511        C288.01,283.315,287.782,283.492,287.529,283.492z"/>
					</g>
					<path style="fill:#FFE5D2;" d="M304.869,289.366H193.27c-0.302,0-0.547-0.244-0.547-0.547c0-0.304,0.245-0.547,0.547-0.547       h111.208l32.04-93.05c0.075-0.222,0.284-0.37,0.517-0.37h14.544c0.302,0,0.547,0.244,0.547,0.547s-0.245,0.547-0.547,0.547       h-14.153l-32.04,93.05C305.311,289.218,305.103,289.366,304.869,289.366z"/>
					<path style="fill:#FFE5D2;" d="M211.031,313.141c-5.469,0-9.917-4.449-9.917-9.918s4.448-9.916,9.917-9.916       c5.469,0,9.917,4.447,9.917,9.916S216.5,313.141,211.031,313.141z M211.031,294.401c-4.865,0-8.822,3.958-8.822,8.822       c0,4.866,3.958,8.824,8.822,8.824c4.865,0,8.823-3.958,8.823-8.824C219.854,298.358,215.896,294.401,211.031,294.401z"/>
					<path style="fill:#FFE5D2;" d="M286.829,313.141c-5.469,0-9.917-4.449-9.917-9.918s4.448-9.916,9.917-9.916       c5.469,0,9.917,4.447,9.917,9.916S292.298,313.141,286.829,313.141z M286.829,294.401c-4.865,0-8.823,3.958-8.823,8.822       c0,4.866,3.958,8.824,8.823,8.824c4.865,0,8.822-3.958,8.822-8.824C295.652,298.358,291.694,294.401,286.829,294.401z"/>
				</g>
				<path style="fill:#FFE5D2;" d="M304.683,368.252h-93.419c-8.153,0-14.824-6.671-14.824-14.824l0,0      c0-8.153,6.671-14.824,14.824-14.824h93.419c8.153,0,14.824,6.671,14.824,14.824l0,0      C319.507,361.582,312.836,368.252,304.683,368.252z"/>
				<g>
					<path style="fill:#401A49;" d="M218.295,358.207c0.047-2.155,0-4.318-0.006-8.387l-0.094-1.042       c0-0.873,0.133-1.074,0.882-1.081c0.509,0,1.018-0.017,1.528-0.038c0.518-0.023,1.027-0.071,1.568-0.071       c1.098,0,4.001,0.024,4.001,3.329c0,0.941-0.441,1.761-1.044,2.339c0.518,0.21,0.959,0.573,1.098,0.742       c0.441,0.541,0.757,1.273,0.757,1.939c0,3.451-2.249,3.868-5.253,3.868c-0.355,0-1.359-0.077-2.039-0.207       c-0.122,0.053-0.293,0.083-0.524,0.083c-0.556,0-0.903-0.177-0.965-0.61C218.165,358.793,218.242,358.455,218.295,358.207z        M222.211,358.207c1.406,0,3.066-0.225,3.066-2c0-1.459-1.267-1.939-2.077-1.939c-0.71,0-1.412,0.056-3.19,0.071       c0,2.463,0.009,3.072,0.009,3.699C220.512,358.121,220.991,358.207,222.211,358.207z M221.122,352.855       c2.448,0,3.321-0.302,3.321-1.861c0-1.305-0.687-1.784-2.3-1.784c-0.301,0-0.943,0-2.124,0.047v0.015       c0,0.015,0.009,0.03,0.009,0.053c0.015,1.059,0.006,2.139-0.009,3.338v0.099C220.396,352.809,220.814,352.855,221.122,352.855z       "/>
					<path style="fill:#401A49;" d="M229.526,348.908c0-0.871,0.171-1.412,0.82-1.412c0.749,0,1.027,0.471,1.027,1.22       c0,0.648-0.086,1.397-0.086,5.105c0,2.24,0.334,4.41,2.773,4.41c1.87,0,2.557-1.545,2.557-4.324       c0-2.488-0.053-4.288-0.077-5.052c-0.009-0.154-0.009-0.355-0.009-0.385c0-0.734,0.355-0.973,0.896-0.973       c0.711,0,0.935,0.456,0.935,0.856c0,0.34-0.041,0.695-0.041,1.074c0,0.82,0.017,1.515,0.032,2.148       c0,0.74,0.03,1.474,0.03,2.347c0,3.768-1.412,5.961-4.41,5.961c-2.247,0-4.448-1.096-4.463-5.908       C229.505,352.346,229.526,350.707,229.526,348.908z"/>
					<path style="fill:#401A49;" d="M243.746,354.516c-1.504-2.533-2.424-3.939-3.289-5.182c-0.272-0.387-0.464-0.695-0.464-0.941       c0-0.58,0.394-0.89,0.965-0.89c0.449,0,0.766,0.595,0.973,1.106c0.672,1.35,1.598,2.525,2.424,3.845l0.248,0.409l0.24-0.409       c1.143-1.767,2.024-3.167,2.433-3.954h-0.009c0.216-0.541,0.426-0.997,0.935-0.997c0.447,0,0.95,0.156,0.95,0.897       c0,0.186-0.062,0.541-0.432,0.888c-1.252,1.962-2.572,3.939-3.276,5.244c-0.131,1.189,0.077,3.012,0.077,4.557       c0,0.415-0.193,0.794-0.903,0.794c-0.548,0-0.918-0.355-0.918-0.764C243.701,357.991,243.816,357.852,243.746,354.516z"/>
					<path style="fill:#401A49;" d="M256.983,357.473c0-0.509-0.009-0.995-0.1-8.231c0-0.287-0.116-0.573-0.116-0.905       c0-0.533,0.24-0.841,1.166-0.841c0.471,0,0.702,0.432,0.702,0.826c0,0.456-0.047,0.92-0.047,1.521v1.707       c1.068,0.03,2.024,0.069,3.09,0.069c0.734,0,1.468-0.077,2.279-0.1c0.008-0.4,0.008-0.894,0.008-2.277       c0-0.295-0.094-0.595-0.094-0.905c0-0.533,0.24-0.841,1.175-0.841c0.503,0,0.68,0.518,0.68,0.826       c0,0.781-0.071,1.56-0.086,2.424c0,1.414,0.007,2.82,0.007,4.619c0,2.078,0.109,2.779,0.177,3.188       c0.032,0.171,0.056,0.334,0.056,0.518c0,0.464-0.195,0.804-0.92,0.804c-0.817,0-1.051-0.278-1.051-0.804       c0-0.533,0.116-1.051,0.116-1.605c0-1.352-0.068-2.689-0.077-4.271c-1.466-0.024-3.969,0.038-5.342,0.068       c0.038,3.312,0.122,4.356,0.184,4.943c0.032,0.278,0.047,0.503,0.047,0.873c0,0.462-0.178,0.796-0.911,0.796       c-0.819,0-0.997-0.272-0.997-0.796C256.928,358.562,256.983,358.059,256.983,357.473z"/>
					<path style="fill:#401A49;" d="M269.038,358.23l0.071-0.248l-0.178-9.234c0-1.021,0.509-1.027,1.003-1.027h4.07       c0.186-0.017,0.464-0.07,0.556-0.07c0.779,0,0.935,0.278,0.935,0.834c0,0.787-0.426,0.903-0.935,0.903       c-0.116,0-0.317,0-0.518-0.023c-2.001,0-2.317,0.008-2.61,0.008h-0.719v2.448c0.201,0.008,0.394,0.008,3.823,0.008       c0.116,0,0.27-0.017,0.409-0.032c0.186-0.024,0.441-0.045,0.728-0.045c0.556,0,0.873,0.501,0.873,0.849       c0,0.548-0.411,0.802-0.982,0.802l-4.85,0.009v4.626c1.012,0,2.033,0.045,3.151,0.045c0.308,0,0.565-0.039,0.796-0.077       c0.216-0.03,0.432-0.062,0.695-0.062c0.61,0,1.089,0.171,1.089,0.781c0,0.897-0.681,0.927-1.399,0.927h-5.197       c-0.524,0-0.918-0.24-0.918-0.873C268.931,358.6,268.993,358.393,269.038,358.23z"/>
					<path style="fill:#401A49;" d="M279.229,358.16c0-4.286,0-6.402,0.006-9.003c-0.053-0.148-0.107-0.441-0.107-0.665       c0-0.439,0.278-0.894,0.818-0.894c0.426,0,0.858,0.077,1.406,0.077c0.456,0,0.92-0.07,1.438-0.077       c3.102,0,5.12,1.196,5.12,3.984c0,2.625-1.622,4.093-2.965,4.634c0.177,1.104,0.811,2.03,1.868,2.03       c0.394,0,0.725-0.1,0.958-0.456c0.146-0.208,0.338-0.394,0.655-0.394c0.556,0,0.882,0.346,0.882,0.819       c0,0.879-1.042,1.66-2.634,1.66c-2.193,0-3.105-2.071-3.383-3.353c-0.255,0-0.865,0-1.143-0.006       c-0.301-0.009-0.787-0.017-1.151-0.017v1.128c0.015,0.479,0.171,0.935,0.171,1.414c0,0.586-0.535,0.834-0.929,0.834       c-0.61,0-1.057-0.449-1.057-1.083C279.182,358.57,279.206,358.346,279.229,358.16z M282.665,354.886       c2.788,0,3.421-1.66,3.421-3.374c0-2.249-2.341-2.317-3.46-2.317c-0.526,0-1.051,0.023-1.678,0.03       c-0.03,0.789-0.03,1.213-0.03,1.994c0,1.389,0.015,2.353,0.071,3.62C281.529,354.862,282.526,354.886,282.665,354.886z        M284.595,356.33h0.008H284.595z M284.604,356.33l0.007-0.009C284.604,356.322,284.604,356.33,284.604,356.33z"/>
					<path style="fill:#401A49;" d="M291.369,358.23l0.071-0.248l-0.177-9.234c0-1.021,0.509-1.027,1.003-1.027h4.07       c0.186-0.017,0.464-0.07,0.556-0.07c0.779,0,0.935,0.278,0.935,0.834c0,0.787-0.426,0.903-0.935,0.903       c-0.116,0-0.317,0-0.518-0.023c-2.001,0-2.317,0.008-2.61,0.008h-0.719v2.448c0.201,0.008,0.396,0.008,3.824,0.008       c0.116,0,0.27-0.017,0.409-0.032c0.186-0.024,0.441-0.045,0.728-0.045c0.556,0,0.871,0.501,0.871,0.849       c0,0.548-0.409,0.802-0.98,0.802l-4.851,0.009v4.626c1.012,0,2.033,0.045,3.152,0.045c0.308,0,0.565-0.039,0.796-0.077       c0.216-0.03,0.432-0.062,0.695-0.062c0.61,0,1.089,0.171,1.089,0.781c0,0.897-0.68,0.927-1.399,0.927h-5.197       c-0.524,0-0.918-0.24-0.918-0.873C291.262,358.6,291.324,358.393,291.369,358.23z"/>
				</g>
			</g>
			<path style="opacity:0.17;fill:#FFE5D2;" d="M146.624,410.207L369.323,92.472v317.735     C369.323,410.207,147.076,409.756,146.624,410.207z"/>
		</g>
		<g>
			<g>
				<g>
					<path style="fill:#FF899A;" d="M168.638,137.885c0,0.57-0.044,1.118-0.153,1.665c-0.066,0.482-0.175,0.964-0.307,1.402       c-1.315,4.229-5.215,7.296-9.837,7.296c-4.601,0-8.523-3.067-9.838-7.296c-0.307-0.964-0.46-1.994-0.46-3.067       c0-1.95,0.548-3.768,1.49-5.324c1.775-3.023,5.061-5.039,8.808-5.039c3.746,0,7.033,2.016,8.807,5.039       c0.679,1.096,1.139,2.344,1.337,3.659C168.594,136.768,168.638,137.315,168.638,137.885z"/>
					<path style="fill:#FF899A;" d="M209.81,137.884c0,5.72-4.608,10.357-10.293,10.357c-5.685,0-10.293-4.637-10.293-10.357       c0-5.72,4.608-10.357,10.293-10.357C205.202,127.527,209.81,132.164,209.81,137.884z"/>
					<path style="fill:#FFE5D2;" d="M188.938,137.884c0,5.72-4.608,10.357-10.293,10.357c-5.685,0-10.293-4.637-10.293-10.357       c0-5.72,4.608-10.357,10.293-10.357C184.33,127.527,188.938,132.164,188.938,137.884z"/>
					<path style="fill:#FF899A;" d="M251.553,137.884c0,5.72-4.608,10.357-10.293,10.357c-5.685,0-10.293-4.637-10.293-10.357       c0-5.72,4.608-10.357,10.293-10.357C246.945,127.527,251.553,132.164,251.553,137.884z"/>
					<path style="fill:#FFE5D2;" d="M230.681,137.884c0,5.72-4.608,10.357-10.293,10.357s-10.293-4.637-10.293-10.357       c0-5.72,4.608-10.357,10.293-10.357S230.681,132.164,230.681,137.884z"/>
					<path style="fill:#FF899A;" d="M293.01,137.884c0,5.72-4.608,10.357-10.293,10.357c-5.684,0-10.293-4.637-10.293-10.357       c0-5.72,4.608-10.357,10.293-10.357C288.402,127.527,293.01,132.164,293.01,137.884z"/>
					<path style="fill:#FFE5D2;" d="M272.139,137.884c0,5.72-4.608,10.357-10.293,10.357c-5.685,0-10.293-4.637-10.293-10.357       c0-5.72,4.608-10.357,10.293-10.357C267.53,127.527,272.139,132.164,272.139,137.884z"/>
					<path style="fill:#FF899A;" d="M334.753,137.884c0,5.72-4.608,10.357-10.293,10.357c-5.685,0-10.293-4.637-10.293-10.357       c0-5.72,4.608-10.357,10.293-10.357C330.145,127.527,334.753,132.164,334.753,137.884z"/>
					<path style="fill:#FFE5D2;" d="M313.882,137.884c0,5.72-4.608,10.357-10.293,10.357c-5.684,0-10.293-4.637-10.293-10.357       c0-5.72,4.608-10.357,10.293-10.357C309.273,127.527,313.882,132.164,313.882,137.884z"/>
					<path style="fill:#FF899A;" d="M376.497,137.884c0,5.72-4.608,10.357-10.293,10.357c-5.684,0-10.293-4.637-10.293-10.357       c0-5.72,4.608-10.357,10.293-10.357C371.888,127.527,376.497,132.164,376.497,137.884z"/>
					<path style="fill:#FFE5D2;" d="M355.625,137.884c0,5.72-4.608,10.357-10.293,10.357c-5.685,0-10.293-4.637-10.293-10.357       c0-5.72,4.608-10.357,10.293-10.357C351.017,127.527,355.625,132.164,355.625,137.884z"/>
					<path style="fill:#FF899A;" d="M418.232,137.885c0,1.074-0.153,2.104-0.46,3.067c-1.292,4.229-5.214,7.296-9.815,7.296       c-4.623,0-8.523-3.067-9.837-7.296c-0.307-0.964-0.46-1.994-0.46-3.067c0-1.95,0.526-3.768,1.49-5.324       c1.775-3.023,5.061-5.039,8.808-5.039c3.746,0,7.011,2.016,8.786,5.039C417.684,134.117,418.232,135.935,418.232,137.885z"/>
					<path style="fill:#FFE5D2;" d="M397.368,137.884c0,5.72-4.608,10.357-10.293,10.357s-10.293-4.637-10.293-10.357       c0-5.72,4.608-10.357,10.293-10.357S397.368,132.164,397.368,137.884z"/>
				</g>
				<path style="opacity:0.3;fill:#401A49;" d="M418.232,137.885c0,1.074-0.153,2.104-0.46,3.067H148.503      c-0.307-0.964-0.46-1.994-0.46-3.067c0-1.95,0.548-3.768,1.49-5.324h267.209C417.684,134.117,418.232,135.935,418.232,137.885z"/>
			</g>
			<g>
				<path style="fill:#FFE5D2;" d="M419.634,137.6h-23.772l-24.982-10.078L353.27,137.6h-37.226l-24.658-10.078L273.453,137.6      h-38.692l-23.881-10.078L192.163,137.6H147.78l-22.392-61.544c0.175,0,15.468-0.197,38.583-0.482      c7.09-0.089,18.818,18.023,27.175,17.914c6.104-0.08,8.591-18.378,15.176-18.461c12.313-0.153,25.327-0.329,38.473-0.504      c7.527-0.093,15.306,12.04,22.839,11.941c6.632-0.087,13.029-12.406,19.513-12.488c12.949-0.153,25.459-0.329,36.983-0.482      c7.98-0.094,20.368,14.423,27.211,14.336c7.568-0.096,9.444-14.793,15.14-14.862c12.226-0.175,19.587-0.263,19.587-0.263      L419.634,137.6z"/>
				<polygon style="fill:#FF899A;" points="125.397,76.063 125.397,120.068 147.773,137.596     "/>
				<path style="fill:#FF899A;" d="M234.761,137.6h-42.614l-28.176-62.026c12.269-0.153,26.751-0.35,42.351-0.548L234.761,137.6z"/>
				<path style="fill:#FF899A;" d="M316.046,137.6h-42.592l-28.658-63.078c14.154-0.175,28.504-0.373,42.351-0.548L316.046,137.6z"/>
				<path style="fill:#FF899A;" d="M395.862,137.6H353.27l-29.14-64.107c16.805-0.197,31.506-0.394,42.351-0.526L395.862,137.6z"/>
			</g>
		</g>
		<g>
			<path style="fill:#FFD0C4;" d="M136.212,111.491H46.15c-18.228,0-33.004,14.777-33.004,33.004s14.776,33.004,33.004,33.004     h58.367l26.66,22.376l-8.093-22.376h13.128c18.228,0,33.004-14.777,33.004-33.004S154.44,111.491,136.212,111.491z"/>
			<g>
				<polygon style="fill:#FFA766;" points="53.162,130.567 57.242,138.835 66.366,140.161 59.764,146.596 61.322,155.683       53.162,151.393 45.002,155.683 46.56,146.596 39.958,140.161 49.081,138.835     "/>
			</g>
			<g>
				<polygon style="fill:#FFA766;" points="89.394,130.567 93.474,138.835 102.598,140.161 95.996,146.596 97.554,155.683       89.394,151.393 81.234,155.683 82.792,146.596 76.19,140.161 85.314,138.835     "/>
			</g>
			<g>
				<polygon style="fill:#FFA766;" points="123.568,130.567 127.648,138.835 136.772,140.161 130.17,146.596 131.728,155.683       123.568,151.393 115.408,155.683 116.966,146.596 110.364,140.161 119.487,138.835     "/>
			</g>
		</g>
		<g>
			<g>
				<g>
					<path style="fill:#F05D6A;" d="M449.113,195.61c0,23.468-17.151,42.944-39.605,46.577c-2.029,0.327-4.091,0.524-6.186,0.589       c-0.458,0.033-0.949,0.033-1.407,0.033c-6.416,0-12.569-1.309-18.166-3.666c-1.964-0.786-3.862-1.735-5.663-2.815       c-13.976-8.15-23.37-23.338-23.37-40.718c0-25.465,20.097-46.184,45.333-47.133c0.622-0.065,1.244-0.065,1.866-0.065       c0.458,0,0.949,0,1.407,0.033c6.481,0.164,12.667,1.669,18.232,4.255c1.898,0.884,3.764,1.898,5.531,3.011       C440.341,164.024,449.113,178.786,449.113,195.61z"/>
				</g>
				<g>
					<path style="fill:#FFA766;" d="M451.895,195.61c0,24.418-18.559,44.515-42.322,46.97c-1.604,0.131-3.24,0.229-4.877,0.229       c-0.458,0-0.916,0-1.375-0.033c-6.841-0.196-13.256-1.8-19.05-4.582c-1.898-0.917-3.764-1.964-5.532-3.142       c-12.798-8.445-21.243-22.978-21.243-39.441c0-24.516,18.657-44.646,42.584-46.937c1.047-0.131,2.16-0.196,3.24-0.229       c0.458-0.033,0.917-0.033,1.375-0.033c6.121,0,11.98,1.178,17.348,3.306c1.964,0.786,3.895,1.702,5.728,2.717       C442.173,162.518,451.895,177.902,451.895,195.61z"/>
				</g>
				<g>
					<path style="fill:#FFF5EE;" d="M426.168,157.478c-1.8-1.048-3.731-1.964-5.695-2.717c-4.877-1.898-10.212-2.946-15.777-2.946       c-1.44,0-2.88,0.065-4.288,0.229c-22.159,2.128-39.507,20.85-39.507,43.566c0,15.122,7.725,28.509,19.443,36.365       c1.768,1.178,3.6,2.226,5.499,3.142c5.728,2.717,12.111,4.255,18.854,4.255c1.506,0,3.011-0.065,4.517-0.229       c21.996-2.258,39.278-20.915,39.278-43.533C448.491,179.277,439.49,165.006,426.168,157.478z M409.147,238.423       c-1.44,0.164-2.946,0.229-4.452,0.229c-6.612,0-12.896-1.506-18.493-4.19c-1.899-0.916-3.764-1.997-5.499-3.175       c-11.489-7.725-19.05-20.817-19.05-35.677c0-22.29,17.053-40.718,38.82-42.846c1.375-0.164,2.782-0.229,4.222-0.229       c5.434,0,10.638,1.014,15.417,2.88c1.964,0.753,3.895,1.669,5.728,2.717c13.06,7.364,21.898,21.439,21.898,37.478       C447.738,217.835,430.783,236.197,409.147,238.423z"/>
				</g>
			</g>
			<g>
				<path style="fill:#FFF5EE;" d="M408.1,192.304c-0.426-0.229-0.884-0.426-1.309-0.622c-0.884-0.426-1.735-0.818-2.52-1.276      c-1.833-1.015-3.208-2.226-3.208-4.19c0-1.506,1.211-2.488,2.521-2.946c0.654-0.262,1.342-0.393,1.931-0.393      c1.604,0,3.47,0.197,4.223,1.768c0.065,0.818,0.687,1.506,1.408,1.8c0.294,0.131,0.589,0.196,0.884,0.196      c1.113,0,2.095-0.786,2.095-2.193c0-0.917-0.262-1.735-0.72-2.39c-1.244-1.898-3.83-2.88-6.023-3.208      c0.033-0.884,0.033-1.931,0.033-2.618c0-1.309-0.818-1.669-1.997-1.669c-1.8,0-2.095,1.145-2.095,2.749v1.702      c-0.065,0-0.098,0.033-0.164,0.065c-3.339,0.851-6.415,3.306-6.415,7.004c0,5.662,4.091,7.495,7.659,8.936      c0.131,0.065,0.229,0.098,0.36,0.164c0.491,0.196,1.014,0.392,1.505,0.622c2.16,1.015,4.19,2.455,4.19,5.041      c0,2.913-2.258,4.026-4.681,4.19c-0.262,0.066-0.556,0.066-0.818,0.066c-1.113,0-2.258-0.164-3.208-0.589      c-1.146-0.426-1.997-1.211-1.997-2.422c0-0.393,0.098-0.851,0.196-1.342c0.098-0.491,0.197-1.014,0.197-1.604      c0-1.211-0.884-1.996-2.062-1.996c-2.586,0-2.586,2.684-2.586,4.975c0,3.011,1.866,5.008,4.353,6.088      c0.949,0.425,1.996,0.72,3.109,0.884c-0.033,1.211-0.033,2.684-0.033,3.47c0,1.309,0.818,1.669,2.029,1.669      c0.851,0,1.375-0.262,1.669-0.753c0.327-0.491,0.393-1.178,0.393-2.029v-2.389c4.026-0.687,7.757-3.404,7.757-8.248      C414.777,196.101,411.406,193.875,408.1,192.304z"/>
			</g>
			<path style="opacity:0.15;fill:#FFE5D2;" d="M451.895,195.61c0,24.418-18.559,44.515-42.322,46.97l-0.065-0.393l-0.295-3.044     l-0.065-0.72l-2.52-24.941l-0.524-5.303l-0.327-3.142l-0.196-1.866l-0.818-7.986l-0.393-3.895l-0.098-0.884l-0.36-3.895     l-0.327-3.241l-0.426-4.189l-0.065-0.556l-0.622-5.99l-1.997-19.77l-0.066-0.72l-0.327-3.371l-0.033-0.196     c0.622-0.065,1.244-0.065,1.866-0.065c0.458,0,0.949,0,1.407,0.033c0.458-0.033,0.917-0.033,1.375-0.033     c6.121,0,11.98,1.178,17.348,3.306c1.964,0.786,3.895,1.702,5.728,2.717C442.173,162.518,451.895,177.902,451.895,195.61z"/>
		</g>
		<g>
			<g>
				<g>
					<path style="fill:#F05D6A;" d="M160.155,357.883c10.402,21.037,3.661,46.097-14.857,59.306       c-1.674,1.193-3.435,2.283-5.284,3.27c-0.396,0.232-0.836,0.45-1.247,0.653c-5.751,2.844-11.847,4.398-17.909,4.766       c-2.109,0.166-4.231,0.157-6.324-0.013c-16.141-1.111-31.293-10.561-38.997-26.141c-11.287-22.827-2.456-50.307,19.745-62.344       c0.528-0.334,1.086-0.61,1.644-0.886c0.411-0.203,0.851-0.421,1.276-0.595c5.882-2.726,12.095-4.118,18.229-4.267       c2.094-0.049,4.216,0.033,6.293,0.247C138.291,333.458,152.698,342.802,160.155,357.883z"/>
				</g>
				<g>
					<path style="fill:#FFA766;" d="M162.649,356.65c10.823,21.888,3.095,48.129-17.118,60.863c-1.38,0.828-2.803,1.641-4.27,2.367       c-0.411,0.203-0.821,0.406-1.247,0.58c-6.219,2.856-12.681,4.262-19.107,4.336c-2.108,0.02-4.245-0.092-6.351-0.365       c-15.215-1.897-29.227-11.181-36.524-25.939c-10.867-21.976-3.065-48.29,17.367-60.949c0.881-0.582,1.849-1.133,2.803-1.642       c0.396-0.232,0.807-0.435,1.218-0.639c5.487-2.713,11.261-4.254,17.016-4.726c2.109-0.167,4.246-0.201,6.339-0.104       C139.267,331.296,154.8,340.777,162.649,356.65z"/>
				</g>
				<g>
					<path style="fill:#FFF5EE;" d="M122.685,333.872c-2.078-0.141-4.215-0.107-6.309,0.089c-5.213,0.46-10.46,1.886-15.448,4.352       c-1.291,0.638-2.553,1.336-3.742,2.106c-18.92,11.729-26.172,36.201-16.104,56.564c6.703,13.555,19.561,22.132,33.547,23.979       c2.107,0.273,4.214,0.399,6.322,0.379c6.339-0.103,12.742-1.554,18.786-4.542c1.35-0.667,2.671-1.393,3.948-2.208       c18.716-11.774,25.938-36.158,15.913-56.433C152.358,343.518,137.964,334.715,122.685,333.872z M143.307,413.975       c-1.219,0.785-2.539,1.511-3.889,2.179c-5.927,2.93-12.228,4.366-18.434,4.441c-2.108,0.02-4.259-0.121-6.336-0.409       c-13.722-1.832-26.303-10.217-32.89-23.537c-9.88-19.981-2.762-44.058,15.806-55.613c1.16-0.756,2.392-1.439,3.683-2.077       c4.871-2.408,9.985-3.806,15.096-4.251c2.094-0.196,4.231-0.23,6.339-0.104c14.971,0.813,29.132,9.512,36.241,23.889       C168.774,378.415,161.714,402.39,143.307,413.975z"/>
				</g>
			</g>
			<g>
				<path style="fill:#FFF5EE;" d="M121.926,373.099c-0.483-0.017-0.981,0.01-1.449,0.023c-0.981,0.01-1.918,0.036-2.825-0.027      c-2.093-0.097-3.862-0.573-4.732-2.334c-0.667-1.35-0.017-2.767,0.953-3.758c0.471-0.525,1.029-0.947,1.557-1.208      c1.438-0.711,3.197-1.362,4.569-0.287c0.421,0.704,1.283,1.045,2.059,0.99c0.322-0.013,0.615-0.085,0.879-0.216      c0.997-0.493,1.53-1.633,0.906-2.894c-0.406-0.822-1.004-1.439-1.705-1.823c-1.956-1.15-4.71-0.884-6.82-0.206      c-0.362-0.807-0.827-1.746-1.131-2.362c-0.58-1.173-1.473-1.134-2.53-0.611c-1.614,0.798-1.37,1.955-0.659,3.393l0.755,1.526      c-0.059,0.029-0.074,0.073-0.118,0.131c-2.615,2.243-4.285,5.807-2.646,9.123c2.51,5.076,6.99,4.905,10.826,4.615      c0.146,0.001,0.249-0.013,0.395-0.013c0.527-0.042,1.084-0.098,1.625-0.11c2.386-0.048,4.844,0.344,5.99,2.661      c1.291,2.611-0.24,4.61-2.339,5.83c-0.206,0.175-0.47,0.305-0.704,0.422c-0.998,0.493-2.097,0.854-3.137,0.894      c-1.215,0.126-2.327-0.201-2.864-1.286c-0.174-0.352-0.289-0.806-0.419-1.29c-0.13-0.484-0.274-0.997-0.535-1.525      c-0.537-1.086-1.677-1.398-2.733-0.876c-2.318,1.146-1.128,3.552-0.113,5.606c1.335,2.699,3.892,3.662,6.601,3.528      c1.039-0.039,2.109-0.24,3.179-0.586c0.507,1.1,1.16,2.421,1.508,3.125c0.58,1.174,1.473,1.134,2.559,0.597      c0.763-0.377,1.116-0.844,1.163-1.415c0.076-0.585-0.17-1.23-0.547-1.993l-1.059-2.142c3.304-2.4,5.445-6.49,3.298-10.832      C129.594,373.543,125.586,373.042,121.926,373.099z"/>
			</g>
			<path style="opacity:0.15;fill:#FFE5D2;" d="M162.649,356.65c10.823,21.888,3.095,48.129-17.118,60.863l-0.233-0.323     l-1.613-2.598l-0.378-0.616l-13.315-21.24l-2.82-4.521l-1.686-2.672l-1.003-1.585l-4.273-6.796l-2.079-3.317l-0.48-0.749     l-2.049-3.332l-1.73-2.76l-2.239-3.567l-0.305-0.47l-3.213-5.094l-10.553-16.837l-0.378-0.616l-1.788-2.877l-0.116-0.161     c0.528-0.334,1.086-0.61,1.644-0.886c0.411-0.203,0.851-0.421,1.276-0.595c0.396-0.232,0.807-0.435,1.218-0.639     c5.487-2.713,11.261-4.254,17.016-4.726c2.109-0.167,4.246-0.201,6.339-0.104C139.267,331.296,154.8,340.777,162.649,356.65z"/>
		</g>
		<g>
			<g>
				<g>
					<path style="fill:#F05D6A;" d="M343.226,354.078l12.494-0.27l9.697-0.226v2.909c0,4.014,3.27,7.262,7.307,7.239h0.947       l9.472-0.09l8.435-0.09l55.951-0.496l15.29-0.135c3.992-0.022,7.216-3.293,7.171-7.307l-0.406-40.436l-0.203-20.251       c-0.045-5.029-4.172-9.066-9.201-8.976l-9.81,0.158l-67.227,1.105l-9.472,0.158l-0.519,0.022h-0.609       c-3.969,0.045-7.126,3.27-7.126,7.239v45.577l-9.697,6.067L343.226,354.078z"/>
				</g>
			</g>
			<g>
				<g>
					<path style="fill:#FFF5EE;" d="M394.734,340.164c0.406,0.541,0.834,1.06,1.285,1.556c4.15,4.668,9.788,7.668,16.035,8.525       c1.173,0.158,2.368,0.248,3.541,0.248c5.706,0,11.208-1.849,15.809-5.367c7.284-5.57,11.163-14.681,10.126-23.792       c-0.022-0.158-0.18-0.248-0.316-0.248l-25.281,2.909l2.3-7.284l5.367-16.959c0.045-0.158-0.045-0.316-0.18-0.361       c-8.096-2.571-16.982-1.015-23.724,4.127c-5.57,4.24-9.133,10.374-10.081,17.297       C388.69,327.738,390.517,334.616,394.734,340.164z M390.179,320.905c0.925-6.788,4.42-12.787,9.855-16.936       c4.51-3.428,9.968-5.232,15.516-5.232c2.48,0,4.984,0.361,7.419,1.105l-5.458,17.275l-2.255,7.126       c-0.023,0.09,0,0.18,0.067,0.248c0.045,0.09,0.158,0.113,0.248,0.113l25.416-2.932c0.925,8.84-2.864,17.613-9.945,23.003       c-5.435,4.149-12.133,5.931-18.921,5.007c-6.202-0.857-11.772-3.856-15.854-8.525c-0.383-0.429-0.744-0.88-1.082-1.331       C391.058,334.391,389.277,327.67,390.179,320.905z"/>
				</g>
			</g>
			<g>
				<path style="fill:#FFF5EE;" d="M425.099,298.083l-7.794,24.78l25.909-3.092c-0.533-4.49-2.256-8.901-5.222-12.747      C434.586,302.607,430.051,299.593,425.099,298.083z"/>
			</g>
		</g>
	</g>
</g>















</svg>
