<?xml version="1.0" encoding="UTF-8"?>
<!-- Generator: Adobe Illustrator 25.2.1, SVG Export Plug-In . SVG Version: 6.00 Build 0)  -->
<svg xmlns="http://www.w3.org/2000/svg" xmlns:xlink="http://www.w3.org/1999/xlink" version="1.1" id="Capa_1" x="0px" y="0px" viewBox="0 0 512 512" style="enable-background:new 0 0 512 512;" xml:space="preserve" width="512" height="512">
<g>
	<path style="fill:#FFFFFF;" d="M496.737,302.504c0.857-2.258,1.691-4.54,2.487-6.842c0.161-0.414,0.307-0.83,0.434-1.244   c3.729-10.881,6.141-20.775,7.389-30.358c0.041-0.33,0.077-0.65,0.102-0.971c0.45-3.538,0.723-7.13,0.816-10.662   c0.141-5.086-0.007-12.706-2.93-20.123c-2.581-6.561-7.044-12.069-12.587-15.535c-0.314-0.205-0.816-0.521-1.466-0.858   c-1.532-0.848-3.151-1.543-4.763-2.047c-2.724-0.872-5.575-1.313-8.476-1.313c-0.946,0-1.898,0.047-2.855,0.141   c-3.499-3.445-7.553-6.207-11.818-8.126c0.471-1.28,0.923-2.568,1.359-3.859c0.123-0.327,0.232-0.654,0.355-1.025   c3.965-11.936,6.539-24.352,7.655-36.901c0.016-0.172,0.041-0.51,0.05-0.682c1.091-12.943,0.63-25.939-1.382-38.692   c-0.218-1.348-0.466-2.712-0.734-4.072c-0.061-0.364-0.134-0.739-0.216-1.103c-1.687-8.083-4.206-14.329-7.903-19.617   c-8.021-11.537-22.171-18.425-37.852-18.425c-3.547,0-7.096,0.354-10.561,1.05c-0.732,0.117-1.33,0.263-1.753,0.374   c-1.723,0.399-3.497,0.914-5.316,1.548c-0.086,0.031-0.173,0.061-0.259,0.093c-1.898-1.478-3.915-2.818-6.052-4.017   c-8.267-4.685-17.906-6.564-27.371-5.962c-10.401,0.47-20.025,4.337-27.701,10.568l-0.793-2.137   c-2.087-5.626-7.421-9.111-13.096-9.111c-1.58,0-3.188,0.27-4.756,0.838l-66.456,24.069c-3.124-3.275-6.423-6.396-9.853-9.318   c-4.108-3.496-8.51-6.775-13.141-9.793c-0.289-0.48-0.611-0.938-0.955-1.379l2.362-2.707h60.551   c11.063,0,20.062-9.472,20.062-21.113V41.844c0-11.642-8.999-21.112-20.062-21.112h-79.767c-4.758,0-9.128,1.759-12.571,4.682   h-14.052c-4.906,0-9.219,2.528-11.713,6.353h-35.672c-8.148,0-14.778,6.63-14.778,14.778v15.58   c-24.863,7.27-46.764,21.485-63.848,41.55c-21.035,24.458-30.639,58.054-29.179,90.076c0.741,13.104,3.497,26.047,8.096,38.293   H20.062C9,232.045,0,241.515,0,253.157v11.35c0,11.642,9,21.113,20.062,21.113h20.501v8.974c0,7.715,6.255,13.969,13.969,13.969   h14.328c4.904,0,9.219-2.528,11.711-6.352h28.594c1.982,0.982,3.992,1.914,6.02,2.791l3.851,10.837   c-5.229,2.499-9.958,5.945-13.953,10.189c-2.255-0.742-4.534-1.427-6.809-2.046c-5.293-1.452-10.042-2.158-14.521-2.158   c-10.527,0-17.25,4.091-21.001,7.491c-1.303,1.172-2.485,2.471-3.52,3.868c-0.443,0.565-0.764,1.048-0.957,1.352   c-3.626,5.458-5.416,12.337-5.045,19.388c0.416,7.966,3.435,14.962,5.661,19.515c1.569,3.215,3.312,6.379,5.186,9.413   c0.166,0.292,0.346,0.593,0.548,0.922c5.036,8.094,11.331,16.1,19.241,24.466c0.296,0.333,0.607,0.657,0.928,0.969   c1.66,1.744,3.356,3.467,5.07,5.162c-7.148,6.972-8.901,18.494-3.895,28.204c3.829,7.429,10.349,11.865,15.674,14.94   c1.082,0.616,2.189,1.228,3.292,1.812c0.177,0.093,1.403,0.698,1.425,0.707c10.388,5.356,21.74,9.285,34.669,12.004   c0.225,0.052,0.468,0.105,0.782,0.171c0.339,0.084,0.68,0.152,1.023,0.209c9.765,1.955,20.507,3.247,33.239,3.976l1.98,5.582   c2.031,5.711,7.405,9.297,13.162,9.297c1.439,0,2.903-0.225,4.345-0.696l254.409-83.22c3.612-1.181,6.586-3.783,8.237-7.205   c1.653-3.423,1.839-7.37,0.516-10.932l-0.859-2.317c5.377-3.216,10.274-6.423,14.798-9.69c0.302-0.204,0.598-0.418,0.882-0.642   c0.182-0.137,0.364-0.273,0.546-0.413c10.633-7.828,19.33-16.103,26.562-25.276c0.034-0.039,0.866-1.054,1.016-1.248   c0.755-0.986,1.507-1.997,2.271-3.057c3.524-4.937,7.621-11.673,8.03-20.03C512.497,315.662,506.165,305.93,496.737,302.504z"/>
	<g>
		<g>
			<g>
				<g>
					<path style="fill:#F05D6A;" d="M64.421,129.016c-0.274,0.419-0.462,0.831-0.737,1.249       c-10.876,19.292-15.541,40.774-14.445,62.101c-0.033,0.135-0.019,0.31-0.005,0.485c1.693,30.401,15.315,60.108,40.383,81.448       c11.257,9.583,23.853,16.635,37.08,21.125c43.515,15.1,93.662,3.053,125.351-34.171c41.272-48.48,35.387-121.199-13.046-162.43       c-5.723-4.872-11.835-9.096-18.112-12.646c0,0-107.966-17.106-144.365,25.651C71.894,117.268,67.864,123.056,64.421,129.016z        M189.016,138.662c3.583,1.827,7.027,4.106,10.244,6.844c22.656,19.287,25.391,53.349,6.105,76.005       c-14.415,16.933-37.081,22.763-57.098,16.572c-6.738-2.147-13.184-5.595-18.907-10.467       c-12.014-10.227-18.456-24.604-18.923-39.195c-0.021-0.263-0.002-0.573-0.023-0.835c-0.175-9.857,2.291-19.749,7.625-28.505       c0.496-0.965,1.085-1.85,1.675-2.735c1.059-1.627,2.253-3.221,3.541-4.735C139.804,132.171,167.223,127.369,189.016,138.662z"/>
					<path style="fill:#FFA766;" d="M49.234,192.851l61.179-5.266c0.225,14.875,6.696,29.602,18.946,40.031       c5.723,4.872,12.169,8.32,18.907,10.467l-21.569,57.341c-13.227-4.49-25.823-11.542-37.08-21.125       C64.55,252.959,50.927,223.252,49.234,192.851z"/>
					<path style="fill:#FF899A;" d="M61.865,131.702l36.885,15.713l18.546,13.497c-4.542,8.308-7.061,17.52-6.883,26.673       c0.021,0.263,0.002,0.573,0.023,0.835c-15.378,1.103-43.796,3.341-61.202,4.431C48.104,171.086,50.484,151.3,61.865,131.702z"/>
					<path style="fill:#FFD0C4;" d="M75.11,112.731c37.489-44.036,98.841-53.209,146.896-26.162l-31.98,52.996       c-22.227-11.444-50.304-6.361-67.348,13.661c-1.327,1.559-2.558,3.2-3.651,4.874c-0.608,0.911-1.217,1.82-1.73,2.812       l-55.431-29.21c0.284-0.43,0.477-0.853,0.761-1.285C66.183,124.288,70.34,118.333,75.11,112.731z"/>
				</g>
				
					<rect x="52.154" y="280.268" transform="matrix(-1 -1.224647e-16 1.224647e-16 -1 118.6343 574.8618)" style="fill:#401A49;" width="14.326" height="14.326"/>
				<path style="fill:#401A49;" d="M113.864,288.241H58.215c-0.447,0-0.809-0.362-0.809-0.81c0-0.448,0.362-0.808,0.809-0.808h54.84      v-42.17c0-0.448,0.362-0.81,0.809-0.81c0.447,0,0.809,0.363,0.809,0.81v42.978C114.674,287.879,114.311,288.241,113.864,288.241      z"/>
				<g>
					<g>
						<path style="fill:#FFE5D2;" d="M97.451,246.013H17.683c-3.364,0-6.093,3.198-6.093,7.144v11.349        c0,3.946,2.728,7.144,6.093,7.144h66.902l9.02,10.336l-2.626-10.336h6.472c3.365,0,6.093-3.199,6.093-7.144v-11.349        C103.544,249.212,100.816,246.013,97.451,246.013z"/>
					</g>
					<path style="fill:#401A49;" d="M89.544,253.757H25.764c-0.304,0-0.549-0.245-0.549-0.549c0-0.304,0.245-0.549,0.549-0.549       h63.779c0.304,0,0.549,0.245,0.549,0.549C90.093,253.512,89.847,253.757,89.544,253.757z"/>
					<path style="fill:#401A49;" d="M89.544,257.609H25.764c-0.304,0-0.549-0.245-0.549-0.549c0-0.304,0.245-0.549,0.549-0.549       h63.779c0.304,0,0.549,0.245,0.549,0.549C90.093,257.363,89.847,257.609,89.544,257.609z"/>
					<path style="fill:#401A49;" d="M89.544,257.609H25.764c-0.304,0-0.549-0.245-0.549-0.549c0-0.304,0.245-0.549,0.549-0.549       h63.779c0.304,0,0.549,0.245,0.549,0.549C90.093,257.363,89.847,257.609,89.544,257.609z"/>
					<path style="fill:#401A49;" d="M89.544,261.458H25.764c-0.304,0-0.549-0.245-0.549-0.549s0.245-0.549,0.549-0.549h63.779       c0.304,0,0.549,0.245,0.549,0.549S89.847,261.458,89.544,261.458z"/>
					<path style="fill:#401A49;" d="M89.544,261.458H25.764c-0.304,0-0.549-0.245-0.549-0.549s0.245-0.549,0.549-0.549h63.779       c0.304,0,0.549,0.245,0.549,0.549S89.847,261.458,89.544,261.458z"/>
					<path style="fill:#401A49;" d="M89.544,265.31H25.764c-0.304,0-0.549-0.245-0.549-0.549s0.245-0.549,0.549-0.549h63.779       c0.304,0,0.549,0.245,0.549,0.549S89.847,265.31,89.544,265.31z"/>
				</g>
			</g>
			<g>
				<rect x="190.483" y="39.383" style="fill:#401A49;" width="14.326" height="14.326"/>
				<path style="fill:#401A49;" d="M143.098,90.334c-0.447,0-0.809-0.363-0.809-0.81V46.545c0-0.448,0.362-0.81,0.809-0.81h55.65      c0.447,0,0.809,0.362,0.809,0.81c0,0.448-0.362,0.808-0.809,0.808h-54.84v42.17C143.908,89.971,143.545,90.334,143.098,90.334z"/>
				<g>
					<g>
						<path style="fill:#FFE5D2;" d="M217.108,34.7h79.767c3.365,0,6.093,3.198,6.093,7.144v11.35c0,3.946-2.728,7.144-6.093,7.144        h-66.902l-9.02,10.336l2.626-10.336h-6.472c-3.365,0-6.092-3.199-6.092-7.144v-11.35        C211.015,37.899,213.743,34.7,217.108,34.7z"/>
					</g>
					<path style="fill:#401A49;" d="M288.795,42.444h-63.779c-0.304,0-0.549-0.245-0.549-0.549c0-0.304,0.245-0.549,0.549-0.549       h63.779c0.304,0,0.549,0.245,0.549,0.549C289.344,42.199,289.099,42.444,288.795,42.444z"/>
					<path style="fill:#401A49;" d="M288.795,46.296h-63.779c-0.304,0-0.549-0.245-0.549-0.549c0-0.304,0.245-0.549,0.549-0.549       h63.779c0.304,0,0.549,0.245,0.549,0.549C289.344,46.05,289.099,46.296,288.795,46.296z"/>
					<path style="fill:#401A49;" d="M288.795,46.296h-63.779c-0.304,0-0.549-0.245-0.549-0.549c0-0.304,0.245-0.549,0.549-0.549       h63.779c0.304,0,0.549,0.245,0.549,0.549C289.344,46.05,289.099,46.296,288.795,46.296z"/>
					<path style="fill:#401A49;" d="M288.795,50.147h-63.779c-0.304,0-0.549-0.245-0.549-0.549c0-0.304,0.245-0.549,0.549-0.549       h63.779c0.304,0,0.549,0.245,0.549,0.549C289.344,49.902,289.099,50.147,288.795,50.147z"/>
					<path style="fill:#401A49;" d="M288.795,50.147h-63.779c-0.304,0-0.549-0.245-0.549-0.549c0-0.304,0.245-0.549,0.549-0.549       h63.779c0.304,0,0.549,0.245,0.549,0.549C289.344,49.902,289.099,50.147,288.795,50.147z"/>
					<path style="fill:#401A49;" d="M288.795,53.997h-63.779c-0.304,0-0.549-0.245-0.549-0.549c0-0.304,0.245-0.549,0.549-0.549       h63.779c0.304,0,0.549,0.245,0.549,0.549C289.344,53.751,289.099,53.997,288.795,53.997z"/>
				</g>
			</g>
		</g>
		<g>
			<path style="fill:#FF899A;" d="M454.135,121.237c0.05,0.179,0.083,0.388,0.11,0.574c0.257,1.281,0.492,2.569,0.697,3.841     c1.84,11.664,2.239,23.533,1.252,35.276c-0.018,0.198-0.036,0.396-0.047,0.617c-1.017,11.462-3.37,22.809-6.998,33.735     c-0.079,0.239-0.142,0.45-0.243,0.695c-2.651,7.904-5.99,15.587-9.981,22.918c6.225-6.764,17.584-2.531,24.051,4.018     c6.467,6.548,7.93,16.843,5.807,25.785c-0.163,0.722-0.355,1.427-0.576,2.115c-0.057,0.233-0.119,0.443-0.182,0.654     c-2.471,7.854-7.154,14.869-12.037,21.505c-27.462,37.206-63.65,66.94-99.482,96.214c-3.822,3.131-8.221,6.445-13.125,5.914     c-0.521-0.05-1.038-0.173-1.561-0.318c-0.21-0.063-0.421-0.125-0.609-0.194c-6.35-2.185-13.239-10.525-15.832-16.162     c-11.427-24.887-14.154-52.463-14.786-80.061c0,0-0.023,0.006-0.006-0.023c-0.016-0.406-0.025-0.79-0.04-1.196     c-0.17-7.536-0.171-15.071-0.176-22.532c-0.01-10.72,0.184-22.1,5.584-31.245c0.108-0.223,0.244-0.43,0.364-0.607     c0.13-0.229,0.266-0.436,0.403-0.643c6.185-9.361,20.689-14.037,28.789-6.297c1.388-18.085,5.203-36.042,11.474-53.058     c0.063-0.211,0.148-0.427,0.233-0.644c-0.006-0.022-0.006-0.022-0.006-0.022c4.961-13.274,11.365-25.956,19.318-37.664     c0.016-0.029,0.016-0.029,0.033-0.057c0.126-0.156,0.223-0.328,0.35-0.483c8.13-11.854,18.615-22.787,32.129-27.552     c1.322-0.461,2.685-0.861,4.05-1.165c0.247-0.068,0.494-0.136,0.753-0.159c12.779-2.703,27.197,0.976,34.563,11.575     C451.435,110.921,453.061,116.027,454.135,121.237z"/>
			<path style="fill:#FFD2A7;" d="M413.842,95.013c-6.438,11.508-11.927,23.044-16.742,33.694     c-1.619,3.586-3.216,7.166-4.746,10.727c-0.13,0.229-0.215,0.446-0.3,0.663c-6.038,13.836-11.52,27.496-16.458,41.029     c-0.085,0.217-0.176,0.411-0.217,0.615c-4.743,12.924-8.948,25.7-12.688,38.324c-0.063,0.211-0.148,0.427-0.205,0.66     c-4.813,16.349-8.818,32.475-11.983,48.321c-0.04,0.204-0.087,0.386-0.127,0.59c-3.186,16.117-5.533,31.955-7.016,47.506     c-0.05,0.255-0.078,0.505-0.084,0.748c-1.842,19.417-2.333,38.39-1.458,56.889c0.089,2.511,0.245,5.004,0.401,7.497l-0.57,0.036     c-0.175-2.56-0.311-5.155-0.441-7.727c-0.849-18.579-0.344-37.676,1.518-57.196c0.005-0.243,0.033-0.492,0.061-0.741     c1.469-15.426,3.779-31.133,6.887-47.012c0.063-0.21,0.103-0.415,0.127-0.59c1.093-5.494,2.276-11.012,3.577-16.539     c5.334-22.868,12.446-46.468,21.285-70.64c0.063-0.21,0.154-0.405,0.239-0.621c4.938-13.534,10.431-27.244,16.468-41.081     c0.069-0.188,0.138-0.376,0.252-0.577c1.588-3.698,3.25-7.393,4.928-11.116c4.779-10.519,10.202-21.94,16.537-33.299     C413.336,95.104,413.583,95.036,413.842,95.013z"/>
			<path style="fill:#FFD2A7;" d="M454.135,121.237c0.05,0.179,0.083,0.388,0.11,0.574c-14.494,4.891-29.278,9.427-44.27,13.561     c-5.947,1.64-11.914,3.213-17.921,4.725l-0.606,0.167l-0.076-0.1l-0.035-0.039l-14.777-15.752     c0.126-0.156,0.223-0.328,0.35-0.483l14.714,15.697l0.006,0.023c0.247-0.068,0.471-0.13,0.724-0.176     C413.351,134.127,434.011,128.042,454.135,121.237z"/>
			<path style="fill:#FFD2A7;" d="M456.194,160.928c-0.018,0.198-0.036,0.396-0.047,0.617c-8.904,2.915-17.826,5.592-26.736,8.049     c-18.112,4.995-36.189,9.062-54.03,12.147c-0.231,0.04-0.484,0.085-0.714,0.124c-0.09,0.025-0.186,0.027-0.276,0.052     l-0.157,0.043l-0.105-0.116c-6.175-5.928-11.921-12.313-17.145-19.084c0.063-0.211,0.148-0.427,0.233-0.644     c5.236,6.815,10.994,13.245,17.204,19.212c0.164-0.021,0.32-0.064,0.484-0.085c0.231-0.04,0.461-0.079,0.692-0.118     C402.167,176.503,429.205,169.723,456.194,160.928z"/>
			<path style="fill:#FFD2A7;" d="M449.149,195.28c-0.079,0.239-0.142,0.45-0.243,0.695c-16.946,5.808-34.107,11.096-51.366,15.856     c-11.648,3.212-23.342,6.172-35.053,8.894c-0.141,0.015-0.253,0.046-0.388,0.083l-0.132-0.567     c0.247-0.068,0.478-0.107,0.725-0.176C391.786,213.297,420.798,205.006,449.149,195.28z"/>
			<path style="fill:#FFD2A7;" d="M468.206,250.81c-0.057,0.233-0.119,0.443-0.182,0.654c-4.882,1.564-9.788,3.038-14.748,4.405     c-32.992,9.098-67.987,13.823-102.899,13.766c-0.237,0.017-0.457,0.006-0.7,0c-0.237,0.017-0.48,0.012-0.723,0.006l-0.118,0.008     l-0.076-0.1c-13.763-13.037-24.989-28.875-32.805-46.184c0.108-0.223,0.244-0.43,0.364-0.607     c7.778,17.344,18.988,33.211,32.763,46.293c0.243,0.005,0.486,0.011,0.723-0.006c0.243,0.005,0.464,0.017,0.701,0     C390.658,269.105,430.953,262.847,468.206,250.81z"/>
			<path style="fill:#FFD2A7;" d="M344.094,317.785l-0.379,0.467c-0.155-0.126-0.282-0.236-0.438-0.362l-0.006-0.023     c-0.19-0.165-0.375-0.307-0.543-0.478c-12.748-11.023-23.722-24.37-32.136-39.027c0,0-0.023,0.006-0.006-0.023     c-0.016-0.406-0.025-0.79-0.04-1.196c8.389,14.833,19.413,28.36,32.243,39.505c0.19,0.165,0.381,0.33,0.571,0.495     C343.592,317.368,343.84,317.565,344.094,317.785z"/>
		</g>
		<g>
			<path style="fill:#FFD2A7;" d="M491.625,252.037c-0.086,3.252-0.34,6.491-0.764,9.717c-0.003,0.215-0.033,0.411-0.059,0.63     c-1.227,9.433-3.702,18.697-6.832,27.788c-0.053,0.201-0.13,0.407-0.21,0.591c-3.603,10.473-8.089,20.702-12.553,30.807     c3.504-2.82,6.911-4.051,11.183-5.461c1.954-0.667,4.042-1.148,6.09-0.789c4.549,0.839,7.385,5.909,7.159,10.545     c-0.226,4.636-2.757,8.824-5.446,12.592c-0.646,0.895-1.315,1.795-1.989,2.672c-0.172,0.202-0.339,0.427-0.511,0.629     l-0.023,0.005c-6.966,8.937-15.274,16.559-24.393,23.256c-0.286,0.226-0.577,0.429-0.863,0.655l-0.023,0.005     c-15.664,11.361-33.626,20.132-51.245,28.38c-4.464,2.092-9.206,4.218-14.108,3.738c-2.476-0.247-4.802-1.143-6.881-2.447     c-0.165-0.108-0.335-0.239-0.5-0.348c-2.074-1.4-3.9-3.208-5.344-5.239c-3.053-4.169-6.058-12.224-5.772-17.372     c0.767-13.023,2.713-25.982,5.857-38.666l-0.005-0.023c0.052-0.32,0.132-0.622,0.212-0.924l-0.005-0.023     c3.619-14.519,8.752-28.615,15.333-42.037c0.832-1.719,1.733-3.451,2.766-5.116c0.122-0.216,0.266-0.436,0.415-0.633     c1.851-2.881,4.106-5.418,7.085-6.988c4.903-2.611,12.278-1.218,14.061,4.047c1.728-4.734,3.731-9.287,6.036-13.642     c0.14-0.243,0.257-0.481,0.397-0.724c4.977-9.237,11.235-17.575,18.641-25.081c0.154-0.175,0.312-0.326,0.489-0.506     c2.638-2.64,5.436-5.195,8.377-7.637c6.04-5.035,13.901-9.663,21.388-7.271c0.865,0.272,1.676,0.627,2.46,1.082     c0.183,0.081,0.349,0.189,0.514,0.298c3.243,1.99,5.687,5.287,7.097,8.869C491.469,242.012,491.762,247.087,491.625,252.037z"/>
			<path style="fill:#FF899A;" d="M482.562,228.549c-9.33,12.78-18.265,25.859-26.746,39.176c-0.167,0.225-0.316,0.423-0.415,0.633     c-5.458,8.528-10.727,17.16-15.808,25.896c-0.127,0.193-0.253,0.385-0.352,0.596c-5.925,10.171-11.611,20.458-17.077,30.891     c0.005,0.023-0.013,0.05-0.031,0.078c-2.351,4.483-4.623,8.997-6.891,13.534c-0.085,0.16-0.166,0.344-0.27,0.532     c-4.022,8.111-7.906,16.313-11.635,24.577c-0.104,0.188-0.18,0.394-0.261,0.578c-4.533,10.001-8.833,20.096-12.918,30.312     c-0.165-0.108-0.335-0.239-0.5-0.348c4.063-10.093,8.331-20.11,12.815-30.006c0.058-0.179,0.157-0.389,0.261-0.577     c3.81-8.447,7.798-16.837,11.919-25.159c2.25-4.51,4.527-9.001,6.855-13.479c0.122-0.215,0.221-0.426,0.324-0.614     c5.376-10.294,10.995-20.449,16.852-30.487c0.076-0.206,0.221-0.426,0.365-0.647c5.113-8.813,10.431-17.551,15.989-26.171     c0.099-0.211,0.221-0.426,0.411-0.656c8.427-13.235,17.308-26.231,26.602-38.956C482.231,228.332,482.397,228.44,482.562,228.549     z"/>
			<path style="fill:#FF899A;" d="M490.861,261.755c-0.003,0.215-0.033,0.411-0.059,0.63c-2.853,0.688-5.693,1.325-8.52,1.912     c-9.186,1.908-18.176,3.275-26.882,4.06l-0.255,0.029l-0.109-0.524c-2.066-8.345-3.991-16.814-5.702-25.281     c0.154-0.175,0.312-0.326,0.489-0.506c1.701,8.421,3.589,16.826,5.623,25.13c0.038,0.182,0.099,0.36,0.137,0.542     c0.068-0.014,0.164-0.01,0.233-0.024C467.104,266.665,478.842,264.679,490.861,261.755z"/>
			<path style="fill:#FF899A;" d="M483.97,290.174c-0.053,0.201-0.13,0.407-0.21,0.591c-14.073,2.304-28.985,3.665-44.52,4.086     c-0.096-0.004-0.187,0.015-0.283,0.011l-0.21,0.02l-0.065-0.2c-3.164-8.593-5.973-17.425-8.385-26.293     c0.14-0.243,0.257-0.481,0.397-0.724c2.417,8.89,5.226,17.723,8.354,26.37c0.042,0.087,0.056,0.155,0.097,0.241     c0.142-0.005,0.306-0.016,0.448-0.021C455.099,293.815,469.937,292.446,483.97,290.174z"/>
			<path style="fill:#FF899A;" d="M422.195,325.781l-0.064,0.037l-0.446,0.259c-0.069-0.105-0.111-0.191-0.18-0.296     c-7.541-12.724-13.863-26.225-18.806-40.178c0.122-0.216,0.266-0.436,0.415-0.633c4.874,13.968,11.192,27.445,18.715,40.197     c0.111,0.191,0.222,0.382,0.333,0.573C422.19,325.759,422.19,325.759,422.195,325.781z"/>
			<path style="fill:#FF899A;" d="M488.203,341.13c-0.172,0.202-0.339,0.427-0.511,0.629c0,0,0.005,0.023-0.023,0.005     c-24.162,2.616-48.521,1.992-72.699-1.88c-0.146-0.017-0.27-0.039-0.416-0.056l0.096-0.567c0.197,0.031,0.393,0.061,0.59,0.091     C439.491,343.233,463.937,343.816,488.203,341.13z"/>
			<path style="fill:#FF899A;" d="M463.276,365.02c-0.286,0.226-0.577,0.429-0.863,0.655l-0.023,0.005     c-20.65,2.125-41.454,0.643-59.316-0.641c-0.192-0.008-0.361-0.02-0.53-0.033l-0.073-0.009l-0.05-0.013l-0.097-0.123     c-6.757-9.867-12.756-20.32-17.927-31.135l-0.005-0.023c0.052-0.32,0.132-0.622,0.212-0.924     c5.186,11.002,11.263,21.605,18.127,31.641c0.192,0.008,0.388,0.039,0.603,0.041C421.417,365.771,442.458,367.251,463.276,365.02     z"/>
		</g>
		<g>
			<path style="fill:#FFD2A7;" d="M69.071,367.315c1.425,2.924,2.999,5.766,4.722,8.527c0.092,0.194,0.201,0.36,0.315,0.549     c5.025,8.077,11.117,15.483,17.731,22.46c0.132,0.161,0.287,0.317,0.436,0.45c7.619,8.039,15.939,15.49,24.189,22.837     c-4.358-1.115-7.968-0.823-12.44-0.337c-2.055,0.202-4.154,0.63-5.869,1.805c-3.793,2.648-4.273,8.438-2.147,12.563     c2.127,4.126,6.165,6.888,10.174,9.204c0.959,0.547,1.941,1.089,2.918,1.608c0.24,0.113,0.486,0.248,0.726,0.361l0.023-0.005     c10.042,5.247,20.762,8.742,31.837,11.058c0.354,0.087,0.703,0.151,1.056,0.238l0.023-0.005     c18.964,3.849,38.945,4.39,58.397,4.596c4.93,0.055,10.126,0.025,14.39-2.444c2.152-1.25,3.897-3.03,5.248-5.078     c0.105-0.167,0.206-0.357,0.311-0.524c1.308-2.134,2.22-4.536,2.693-6.982c1.051-5.06,0.448-13.635-1.945-18.202     c-6.094-11.535-13.234-22.522-21.351-32.764l-0.005-0.023c-0.18-0.27-0.378-0.511-0.576-0.753l-0.005-0.023     c-9.309-11.715-19.822-22.417-31.373-31.906c-1.469-1.219-3.006-2.423-4.637-3.51c-0.2-0.146-0.423-0.286-0.64-0.404     c-2.878-1.855-5.982-3.23-9.344-3.424c-5.544-0.345-11.679,3.979-11.12,9.509c-3.534-3.592-7.243-6.907-11.146-9.915     c-0.228-0.163-0.433-0.332-0.661-0.495c-8.357-6.344-17.507-11.34-27.357-15.103c-0.212-0.095-0.42-0.168-0.655-0.257     c-3.495-1.31-7.1-2.476-10.788-3.479c-7.584-2.08-16.655-3.035-22.479,2.244c-0.674,0.606-1.265,1.265-1.79,2.004     c-0.133,0.15-0.239,0.317-0.344,0.484c-2.127,3.155-2.986,7.168-2.784,11.013C65.059,358.126,66.895,362.866,69.071,367.315z"/>
			<path style="fill:#FF899A;" d="M67.587,342.182c13.787,7.766,27.338,15.967,40.575,24.573c0.245,0.135,0.463,0.253,0.64,0.404     c8.501,5.5,16.873,11.173,25.117,17.018c0.195,0.123,0.39,0.246,0.567,0.397c9.607,6.802,19.044,13.809,28.342,21.038     c0.005,0.023,0.033,0.04,0.061,0.058c3.996,3.106,7.935,6.273,11.879,9.462c0.144,0.111,0.294,0.244,0.466,0.372     c7.022,5.715,13.955,11.571,20.773,17.547c0.172,0.128,0.327,0.284,0.476,0.417c8.27,7.223,16.366,14.63,24.316,22.236     c0.105-0.167,0.206-0.357,0.311-0.524c-7.879-7.503-15.915-14.851-24.096-21.999c-0.127-0.139-0.304-0.289-0.477-0.418     c-6.967-6.11-14.073-12.093-21.272-17.959c-3.916-3.172-7.85-6.316-11.824-9.427c-0.2-0.146-0.377-0.296-0.549-0.425     c-9.158-7.142-18.48-14.056-27.97-20.765c-0.155-0.156-0.377-0.297-0.6-0.437c-8.305-5.903-16.766-11.65-25.396-17.193     c-0.177-0.151-0.377-0.297-0.645-0.427c-13.153-8.553-26.621-16.702-40.352-24.432C67.798,341.848,67.692,342.015,67.587,342.182     z"/>
			<path style="fill:#FF899A;" d="M73.793,375.843c0.092,0.194,0.201,0.36,0.315,0.549c2.882-0.556,5.73-1.153,8.546-1.79     c9.151-2.07,17.899-4.55,26.148-7.443l0.245-0.079l-0.118-0.522c-1.577-8.451-3.334-16.957-5.286-25.371     c-0.212-0.095-0.42-0.168-0.655-0.257c1.941,8.368,3.705,16.801,5.295,25.201c0.041,0.182,0.06,0.368,0.101,0.55     c-0.068,0.015-0.154,0.059-0.222,0.074C97.449,370.467,85.943,373.524,73.793,375.843z"/>
			<path style="fill:#FF899A;" d="M91.84,398.852c0.132,0.161,0.287,0.317,0.436,0.45c13.763-3.734,27.898-8.674,42.211-14.728     c0.086-0.043,0.176-0.064,0.262-0.107l0.199-0.069l-0.023-0.21c-0.681-9.131-1.784-18.334-3.263-27.404     c-0.228-0.163-0.433-0.332-0.661-0.495c1.484,9.093,2.587,18.295,3.324,27.461c-0.002,0.096,0.013,0.164,0.011,0.26     c-0.131,0.053-0.285,0.112-0.416,0.166C119.624,390.204,105.552,395.106,91.84,398.852z"/>
			<path style="fill:#FF899A;" d="M162.816,405.663l0.073,0.007l0.513,0.051c0.02-0.124,0.022-0.22,0.042-0.344     c1.59-14.705,1.751-29.612,0.468-44.359c-0.2-0.146-0.423-0.286-0.64-0.404c1.351,14.732,1.186,29.616-0.377,44.339     c-0.022,0.22-0.044,0.44-0.066,0.66C162.811,405.64,162.811,405.64,162.816,405.663z"/>
			<path style="fill:#FF899A;" d="M109.1,446.982c0.24,0.113,0.486,0.248,0.726,0.361c0,0,0.005,0.023,0.023-0.005     c23.074-7.63,44.985-18.291,65.385-31.833c0.126-0.076,0.229-0.147,0.355-0.224l-0.322-0.476     c-0.167,0.109-0.333,0.218-0.499,0.328C154.305,428.713,132.298,439.372,109.1,446.982z"/>
			<path style="fill:#FF899A;" d="M141.686,458.396c0.354,0.087,0.703,0.151,1.056,0.238l0.023-0.005     c19.674-6.623,37.994-16.591,53.719-25.161c0.172-0.087,0.32-0.168,0.469-0.249l0.063-0.038l0.04-0.033l0.037-0.152     c2.061-11.78,3.19-23.779,3.415-35.765l-0.005-0.023c-0.18-0.27-0.378-0.511-0.576-0.753c-0.161,12.162-1.299,24.33-3.387,36.308     c-0.171,0.087-0.337,0.196-0.532,0.288C180.094,441.736,161.557,451.801,141.686,458.396z"/>
		</g>
		<polygon style="fill:#401A49;" points="81.847,176.127 188.841,477.294 443.249,394.077 329.122,86.569   "/>
		<polygon style="fill:#FFE5D2;" points="99.284,178.463 193.763,444.403 418.412,370.92 317.635,99.38   "/>
		<path style="fill:#401A49;" d="M198.966,430.502l-0.096-0.268l-86.763-244.222l0.272-0.099l200.566-72.639l0.1,0.27    l92.549,249.368l-0.288,0.095L198.966,430.502z M112.85,186.363l86.474,243.409l205.515-67.225l-92.238-248.53L112.85,186.363z"/>
		<g>
			<g>
				<path style="fill:#8F8FEF;" d="M148.818,148.982l9.213,24.668l103.427-37.448l-9.808-25.262l-31.801,9.808      c0,0-9.213-28.829-33.287-19.318c-20.132,7.953-8.024,33.881-8.024,33.881L148.818,148.982z"/>
				<path style="fill:#401A49;" d="M200.566,114.174c2.728,2.728,2.728,7.15,0,9.878c-2.727,2.727-7.15,2.727-9.877,0      c-2.728-2.728-2.728-7.15,0-9.878C193.417,111.447,197.839,111.447,200.566,114.174z"/>
			</g>
			<path style="fill:#401A49;" d="M157.14,170.077c-0.118,0-0.229-0.072-0.272-0.189c-0.056-0.151,0.02-0.317,0.171-0.374     l102.832-38.338c0.146-0.061,0.316,0.02,0.374,0.171c0.056,0.151-0.02,0.317-0.171,0.374l-102.832,38.339     C157.208,170.072,157.173,170.077,157.14,170.077z"/>
		</g>
		<g>
			
				<rect x="160.373" y="217.871" transform="matrix(0.9437 -0.3307 0.3307 0.9437 -65.8963 69.3397)" style="fill:#FF899A;" width="20.908" height="20.908"/>
			
				<rect x="175.008" y="259.636" transform="matrix(0.9437 -0.3307 0.3307 0.9437 -78.8844 76.5295)" style="fill:#FF899A;" width="20.908" height="20.907"/>
			
				<rect x="190.911" y="305.017" transform="matrix(0.9437 -0.3307 0.3307 0.9437 -92.9986 84.3434)" style="fill:#FF899A;" width="20.907" height="20.908"/>
			<g>
				<path style="fill:#8F8FEF;" d="M260.279,192.179L192.2,216.035c-0.28,0.098-0.59-0.051-0.688-0.331l-0.68-1.94      c-0.098-0.28,0.051-0.59,0.331-0.688l68.079-23.856c0.28-0.098,0.59,0.051,0.688,0.331l0.68,1.941      C260.708,191.771,260.559,192.081,260.279,192.179z"/>
				<path style="fill:#8F8FEF;" d="M262.929,199.743l-68.078,23.856c-0.28,0.098-0.59-0.051-0.688-0.331l-0.68-1.941      c-0.098-0.28,0.051-0.59,0.331-0.688l68.079-23.857c0.28-0.098,0.59,0.051,0.688,0.331l0.68,1.941      C263.358,199.335,263.209,199.645,262.929,199.743z"/>
				<path style="fill:#8F8FEF;" d="M320.602,217.933L207.806,257.46c-0.814,0.285-1.713-0.147-1.998-0.961l0,0      c-0.285-0.814,0.147-1.713,0.961-1.998l112.796-39.526c0.814-0.285,1.713,0.147,1.998,0.961l0,0      C321.848,216.749,321.416,217.648,320.602,217.933z"/>
				<path style="fill:#8F8FEF;" d="M323.252,225.497l-112.796,39.526c-0.814,0.285-1.713-0.147-1.998-0.961l0,0      c-0.285-0.814,0.147-1.713,0.961-1.999l112.796-39.526c0.814-0.285,1.713,0.147,1.999,0.961l0,0      C324.499,224.312,324.066,225.212,323.252,225.497z"/>
				<path style="fill:#8F8FEF;" d="M336.85,264.301l-112.796,39.526c-0.814,0.285-1.713-0.147-1.999-0.961l0,0      c-0.285-0.814,0.148-1.713,0.961-1.999l112.796-39.526c0.814-0.285,1.713,0.147,1.999,0.961l0,0      C338.097,263.117,337.664,264.016,336.85,264.301z"/>
				<path style="fill:#8F8FEF;" d="M339.501,271.865l-112.796,39.526c-0.814,0.285-1.713-0.147-1.998-0.961l0,0      c-0.285-0.814,0.147-1.713,0.961-1.998l112.796-39.526c0.814-0.285,1.713,0.147,1.998,0.961l0,0      C340.747,270.681,340.315,271.58,339.501,271.865z"/>
			</g>
		</g>
		<g>
			<polyline style="fill:#FF899A;" points="276.315,176.636 283.604,173.718 288.94,187.938 281.63,190.681 276.594,177.26    "/>
			<polyline style="fill:#FF899A;" points="286.666,165.363 293.928,162.372 301.721,183.142 294.412,185.884 287.056,166.281         "/>
			<g>
				<g>
					<path style="fill:#FF899A;" d="M276.588,195.561c-0.038,0.001-0.077-0.006-0.113-0.022c-0.061-0.028-0.108-0.078-0.131-0.14       l-12.47-33.232c-0.049-0.13,0.017-0.274,0.147-0.323c0.132-0.046,0.275,0.017,0.323,0.147l12.382,32.998l50.252-18.857       c0.131-0.045,0.275,0.017,0.323,0.147c0.048,0.13-0.017,0.274-0.147,0.323l-50.487,18.945       C276.641,195.555,276.614,195.56,276.588,195.561z"/>
					<path style="fill:#FF899A;" d="M281.64,190.931c-0.038,0.001-0.077-0.006-0.113-0.022c-0.061-0.028-0.108-0.078-0.131-0.14       l-7.868-20.97c-0.049-0.13,0.017-0.274,0.147-0.323l7.429-2.788c0.063-0.023,0.131-0.021,0.192,0.007       c0.061,0.028,0.108,0.078,0.131,0.14l7.869,20.97c0.049,0.13-0.017,0.274-0.147,0.323l-7.429,2.788       C281.693,190.925,281.666,190.93,281.64,190.931z M274.084,169.858l7.693,20.501l6.96-2.612l-7.693-20.5L274.084,169.858z"/>
					<path style="fill:#FF899A;" d="M294.462,186.151c-0.043,0.002-0.086-0.007-0.127-0.025c-0.068-0.031-0.12-0.088-0.147-0.157       l-9.937-26.481c-0.054-0.146,0.019-0.309,0.164-0.363l7.429-2.788c0.072-0.027,0.148-0.023,0.216,0.007       c0.068,0.031,0.121,0.088,0.147,0.157l9.937,26.482c0.054,0.146-0.019,0.309-0.164,0.363l-7.429,2.788       C294.523,186.144,294.492,186.15,294.462,186.151z M284.878,159.552l9.739,25.954l6.902-2.589l-9.739-25.954L284.878,159.552z"/>
					<path style="fill:#FF899A;" d="M306.805,181.54c-0.046,0.002-0.093-0.007-0.135-0.027c-0.074-0.032-0.13-0.094-0.158-0.169       l-11.421-30.436c-0.059-0.156,0.02-0.33,0.177-0.389l7.429-2.788c0.076-0.027,0.159-0.024,0.231,0.007       c0.073,0.033,0.13,0.094,0.158,0.169l11.421,30.436c0.059,0.156-0.021,0.33-0.177,0.389l-7.429,2.788       C306.869,181.533,306.837,181.539,306.805,181.54z M295.762,150.979l11.209,29.87l6.864-2.576l-11.209-29.87L295.762,150.979z"/>
				</g>
				<polyline style="fill:#FF899A;" points="297.762,157.775 305.011,154.75 313.943,178.555 306.634,181.298 298.203,158.83           "/>
			</g>
		</g>
		<g>
			<path style="fill:#FFA766;" d="M217.27,414.278l-24.931-68.742l0.574-0.207l168.156-60.987l24.93,68.74l-0.574,0.207     L217.27,414.278z M193.903,346.27l24.098,66.441l166.433-60.363l-24.097-66.439L193.903,346.27z"/>
			<path style="fill:#FFA766;" d="M231.022,401.193l-1.114-0.504l14.058-31.063l23.021,4.279l15.401-38.901l0.598,0.304     c9.501,4.838,24.825,12.449,27.299,13.194c1.903-3.291,12.758-18.725,32.342-45.979l0.993,0.711     c-12.557,17.478-31.382,43.91-32.413,45.99l0.007,0.232l-0.311,0.218c-0.37,0.243-1.076,0.662-27.873-12.973l-15.277,38.591     l-23.068-4.288L231.022,401.193z"/>
			<path style="fill:#8F8FEF;" d="M233.029,400.169c0.531,1.465-0.226,3.084-1.691,3.616c-1.465,0.531-3.084-0.226-3.616-1.691     c-0.531-1.466,0.226-3.085,1.691-3.616C230.879,397.947,232.498,398.704,233.029,400.169z"/>
			<path style="fill:#FF899A;" d="M285.272,335.079c0.532,1.466-0.226,3.084-1.691,3.616c-1.466,0.531-3.084-0.226-3.616-1.691     c-0.531-1.466,0.226-3.084,1.691-3.616C283.122,332.857,284.741,333.614,285.272,335.079z"/>
			<path style="fill:#FFA766;" d="M345.369,302.538c0.531,1.465-0.226,3.084-1.691,3.616c-1.466,0.531-3.084-0.226-3.616-1.691     c-0.532-1.466,0.225-3.084,1.691-3.616C343.219,300.315,344.838,301.072,345.369,302.538z"/>
			<g>
				
					<rect x="364.994" y="335.551" transform="matrix(0.9401 -0.341 0.341 0.9401 -93.5701 146.0261)" style="fill:#FF899A;" width="7.353" height="7.353"/>
				
					<rect x="361.651" y="326.334" transform="matrix(0.9401 -0.3409 0.3409 0.9401 -90.6251 144.3273)" style="fill:#8F8FEF;" width="7.353" height="7.353"/>
				
					<rect x="368.139" y="344.221" transform="matrix(0.9401 -0.341 0.341 0.9401 -96.3411 147.6254)" style="fill:#FFA766;" width="7.353" height="7.353"/>
			</g>
		</g>
		<g>
			<g>
				<g>
					<path style="fill:#F05D6A;" d="M406.492,120.745c0,16.692-12.199,30.545-28.17,33.129c-1.443,0.233-2.91,0.372-4.4,0.419       c-0.326,0.023-0.675,0.023-1.001,0.023c-4.563,0-8.94-0.931-12.921-2.608c-1.397-0.559-2.747-1.234-4.028-2.002       c-9.941-5.797-16.622-16.599-16.622-28.962c0-18.112,14.294-32.849,32.244-33.525c0.442-0.047,0.885-0.047,1.327-0.047       c0.326,0,0.675,0,1.001,0.023c4.61,0.116,9.01,1.187,12.967,3.027c1.35,0.629,2.677,1.35,3.935,2.142       C400.253,98.279,406.492,108.778,406.492,120.745z"/>
				</g>
				<g>
					<path style="fill:#FFA766;" d="M408.471,120.745c0,17.368-13.2,31.662-30.103,33.408c-1.141,0.093-2.305,0.163-3.469,0.163       c-0.326,0-0.652,0-0.978-0.023c-4.866-0.14-9.429-1.281-13.549-3.26c-1.35-0.652-2.677-1.397-3.935-2.235       c-9.103-6.006-15.11-16.343-15.11-28.054c0-17.437,13.27-31.755,30.289-33.385c0.745-0.093,1.537-0.14,2.305-0.163       c0.326-0.023,0.652-0.023,0.978-0.023c4.353,0,8.521,0.838,12.339,2.352c1.397,0.559,2.77,1.21,4.074,1.932       C401.557,97.208,408.471,108.15,408.471,120.745z"/>
				</g>
				<g>
					<path style="fill:#FFF5EE;" d="M390.172,93.622c-1.28-0.745-2.654-1.397-4.051-1.932c-3.469-1.35-7.264-2.095-11.221-2.095       c-1.024,0-2.049,0.047-3.05,0.163c-15.761,1.513-28.1,14.83-28.1,30.987c0,10.756,5.494,20.278,13.829,25.865       c1.257,0.838,2.561,1.583,3.911,2.235c4.074,1.932,8.614,3.026,13.41,3.026c1.071,0,2.142-0.046,3.213-0.163       c15.645-1.606,27.937-14.876,27.937-30.964C406.05,109.128,399.648,98.977,390.172,93.622z M378.066,151.196       c-1.024,0.116-2.095,0.163-3.166,0.163c-4.703,0-9.173-1.071-13.154-2.98c-1.35-0.652-2.677-1.42-3.911-2.258       c-8.172-5.494-13.55-14.807-13.55-25.376c0-15.854,12.129-28.962,27.611-30.475c0.978-0.117,1.979-0.163,3.003-0.163       c3.865,0,7.566,0.722,10.965,2.049c1.397,0.535,2.77,1.187,4.074,1.932c9.289,5.238,15.575,15.249,15.575,26.657       C405.515,136.553,393.455,149.614,378.066,151.196z"/>
				</g>
			</g>
			<g>
				<path style="fill:#FFF5EE;" d="M377.321,118.394c-0.303-0.163-0.629-0.303-0.931-0.442c-0.629-0.303-1.234-0.582-1.793-0.908      c-1.304-0.722-2.282-1.583-2.282-2.98c0-1.071,0.861-1.769,1.793-2.095c0.466-0.186,0.954-0.279,1.374-0.279      c1.141,0,2.468,0.14,3.003,1.257c0.046,0.582,0.489,1.071,1.001,1.28c0.21,0.093,0.419,0.14,0.629,0.14      c0.792,0,1.49-0.559,1.49-1.56c0-0.652-0.186-1.234-0.512-1.7c-0.885-1.35-2.724-2.049-4.284-2.282      c0.023-0.629,0.023-1.373,0.023-1.863c0-0.931-0.582-1.187-1.42-1.187c-1.281,0-1.49,0.815-1.49,1.956v1.211      c-0.047,0-0.07,0.023-0.116,0.047c-2.375,0.605-4.563,2.352-4.563,4.982c0,4.028,2.91,5.331,5.448,6.355      c0.093,0.047,0.163,0.07,0.256,0.116c0.349,0.14,0.722,0.279,1.071,0.442c1.537,0.722,2.98,1.746,2.98,3.585      c0,2.072-1.606,2.864-3.329,2.98c-0.186,0.047-0.396,0.047-0.582,0.047c-0.792,0-1.606-0.116-2.282-0.419      c-0.815-0.303-1.42-0.861-1.42-1.723c0-0.279,0.07-0.605,0.14-0.955c0.07-0.349,0.14-0.722,0.14-1.141      c0-0.861-0.629-1.42-1.467-1.42c-1.839,0-1.839,1.909-1.839,3.539c0,2.142,1.327,3.562,3.096,4.33      c0.675,0.302,1.42,0.512,2.212,0.628c-0.023,0.861-0.023,1.909-0.023,2.468c0,0.931,0.582,1.187,1.444,1.187      c0.605,0,0.978-0.187,1.187-0.536c0.233-0.349,0.279-0.838,0.279-1.443v-1.7c2.864-0.489,5.518-2.421,5.518-5.867      C382.071,121.094,379.673,119.511,377.321,118.394z"/>
			</g>
			<path style="opacity:0.15;fill:#FFE5D2;" d="M408.471,120.745c0,17.368-13.2,31.662-30.103,33.408l-0.046-0.279l-0.21-2.165     l-0.047-0.512l-1.792-17.74l-0.373-3.772l-0.233-2.235l-0.14-1.327l-0.582-5.681l-0.279-2.77l-0.07-0.629l-0.256-2.77     l-0.233-2.305l-0.303-2.98l-0.047-0.396l-0.442-4.26l-1.42-14.062l-0.047-0.512l-0.233-2.398l-0.023-0.14     c0.442-0.047,0.885-0.047,1.327-0.047c0.326,0,0.675,0,1.001,0.023c0.326-0.023,0.652-0.023,0.978-0.023     c4.353,0,8.521,0.838,12.339,2.352c1.397,0.559,2.77,1.21,4.074,1.932C401.557,97.208,408.471,108.15,408.471,120.745z"/>
		</g>
		<g>
			<g>
				<g>
					<path style="fill:#F05D6A;" d="M170.862,358.673c0,16.693-12.2,30.545-28.17,33.129c-1.443,0.233-2.91,0.373-4.4,0.419       c-0.326,0.023-0.675,0.023-1.001,0.023c-4.563,0-8.94-0.931-12.921-2.607c-1.397-0.559-2.747-1.234-4.028-2.002       c-9.941-5.797-16.622-16.6-16.622-28.962c0-18.112,14.295-32.849,32.244-33.525c0.442-0.047,0.885-0.047,1.327-0.047       c0.326,0,0.675,0,1.001,0.023c4.609,0.116,9.01,1.187,12.967,3.026c1.35,0.629,2.677,1.35,3.935,2.142       C164.622,336.207,170.862,346.707,170.862,358.673z"/>
				</g>
				<g>
					<path style="fill:#FFA766;" d="M172.841,358.673c0,17.368-13.2,31.662-30.103,33.408c-1.141,0.093-2.305,0.163-3.469,0.163       c-0.326,0-0.652,0-0.978-0.023c-4.866-0.14-9.429-1.281-13.55-3.259c-1.35-0.652-2.677-1.397-3.935-2.235       c-9.103-6.007-15.109-16.343-15.109-28.054c0-17.438,13.27-31.755,30.289-33.385c0.745-0.093,1.536-0.14,2.305-0.163       c0.326-0.023,0.652-0.023,0.978-0.023c4.354,0,8.521,0.838,12.339,2.351c1.397,0.559,2.771,1.211,4.074,1.932       C165.926,335.136,172.841,346.078,172.841,358.673z"/>
				</g>
				<g>
					<path style="fill:#FFF5EE;" d="M154.542,331.551c-1.281-0.745-2.654-1.397-4.051-1.932c-3.469-1.35-7.264-2.095-11.221-2.095       c-1.024,0-2.049,0.047-3.05,0.163c-15.761,1.513-28.1,14.83-28.1,30.987c0,10.756,5.494,20.278,13.829,25.865       c1.257,0.838,2.561,1.583,3.911,2.235c4.074,1.932,8.614,3.027,13.41,3.027c1.071,0,2.142-0.047,3.213-0.163       c15.645-1.606,27.937-14.877,27.937-30.964C170.42,347.056,164.017,336.905,154.542,331.551z M142.436,389.125       c-1.024,0.116-2.095,0.163-3.166,0.163c-4.703,0-9.173-1.071-13.154-2.98c-1.351-0.652-2.677-1.42-3.911-2.258       c-8.171-5.494-13.549-14.807-13.549-25.376c0-15.854,12.129-28.962,27.611-30.475c0.978-0.116,1.979-0.163,3.003-0.163       c3.865,0,7.566,0.722,10.965,2.049c1.397,0.535,2.77,1.187,4.074,1.932c9.289,5.238,15.575,15.249,15.575,26.657       C169.884,374.481,157.825,387.542,142.436,389.125z"/>
				</g>
			</g>
			<g>
				<path style="fill:#FFF5EE;" d="M141.691,356.322c-0.303-0.163-0.629-0.303-0.931-0.442c-0.629-0.303-1.234-0.582-1.793-0.908      c-1.304-0.722-2.282-1.583-2.282-2.98c0-1.071,0.861-1.769,1.793-2.095c0.466-0.186,0.955-0.279,1.374-0.279      c1.141,0,2.468,0.14,3.003,1.257c0.046,0.582,0.489,1.071,1.001,1.28c0.209,0.093,0.419,0.14,0.628,0.14      c0.792,0,1.49-0.559,1.49-1.56c0-0.652-0.186-1.234-0.512-1.699c-0.885-1.35-2.724-2.049-4.284-2.281      c0.023-0.629,0.023-1.374,0.023-1.863c0-0.931-0.582-1.187-1.42-1.187c-1.281,0-1.49,0.815-1.49,1.956v1.211      c-0.047,0-0.07,0.023-0.116,0.047c-2.375,0.605-4.563,2.351-4.563,4.982c0,4.028,2.91,5.331,5.448,6.356      c0.093,0.047,0.163,0.07,0.256,0.116c0.349,0.14,0.722,0.279,1.071,0.442c1.537,0.722,2.98,1.746,2.98,3.585      c0,2.072-1.606,2.863-3.329,2.98c-0.186,0.047-0.396,0.047-0.582,0.047c-0.792,0-1.607-0.116-2.282-0.419      c-0.815-0.303-1.42-0.861-1.42-1.723c0-0.279,0.07-0.605,0.14-0.954c0.07-0.349,0.14-0.722,0.14-1.141      c0-0.861-0.628-1.42-1.466-1.42c-1.839,0-1.839,1.909-1.839,3.539c0,2.142,1.327,3.562,3.096,4.33      c0.675,0.303,1.42,0.512,2.212,0.629c-0.023,0.861-0.023,1.909-0.023,2.468c0,0.931,0.582,1.187,1.444,1.187      c0.605,0,0.978-0.186,1.187-0.536c0.233-0.349,0.279-0.838,0.279-1.443v-1.699c2.863-0.489,5.518-2.421,5.518-5.867      C146.44,359.022,144.042,357.439,141.691,356.322z"/>
			</g>
			<path style="opacity:0.15;fill:#FFE5D2;" d="M172.841,358.673c0,17.368-13.2,31.662-30.103,33.408l-0.046-0.28l-0.21-2.165     l-0.047-0.512l-1.792-17.74l-0.373-3.771l-0.233-2.235l-0.14-1.327l-0.582-5.681l-0.279-2.77l-0.07-0.628l-0.256-2.771     l-0.233-2.305l-0.303-2.98l-0.047-0.396l-0.442-4.261l-1.42-14.062l-0.047-0.512l-0.233-2.398l-0.023-0.14     c0.442-0.047,0.885-0.047,1.327-0.047c0.326,0,0.675,0,1.001,0.023c0.326-0.023,0.652-0.023,0.978-0.023     c4.354,0,8.521,0.838,12.339,2.351c1.397,0.559,2.771,1.211,4.074,1.932C165.926,335.136,172.841,346.078,172.841,358.673z"/>
		</g>
	</g>
</g>















</svg>
