<?xml version="1.0" encoding="UTF-8"?>
<!-- Generator: Adobe Illustrator 25.2.1, SVG Export Plug-In . SVG Version: 6.00 Build 0)  -->
<svg xmlns="http://www.w3.org/2000/svg" xmlns:xlink="http://www.w3.org/1999/xlink" version="1.1" id="Capa_1" x="0px" y="0px" viewBox="0 0 512 512" style="enable-background:new 0 0 512 512;" xml:space="preserve" width="512" height="512">
<g>
	<path style="fill:#FFFFFF;" d="M268.854,512c-5.691,0-11.173-2.076-15.436-5.845c-13.481-11.913-46.622-43.169-63.021-75.961   c-1.805-3.612-3.68-7.578-5.607-11.854c-14.954,13.229-33.92,20.439-54.125,20.439c-20.415,0-39.576-7.364-54.607-20.867   l-6.428,0.005c-8.392,0-15.935-4.656-19.701-12.152c-3.745-7.458-2.985-16.242,1.985-22.92c0.239-0.32,0.482-0.637,0.728-0.953   c-2.594-8.053-3.905-16.44-3.905-25.041c0-26.72,13.144-51.719,34.765-66.975c0.901-2.987,2.746-5.564,5.19-7.386H43.756   c-5.176,0-9.713-2.734-12.245-6.836c-4.099-2.533-6.829-7.067-6.829-12.241V157.539c0-4.705,2.259-8.882,5.75-11.506   c-2.058-7.248-3.116-14.776-3.116-22.368c0-45.176,36.753-81.928,81.928-81.928c7.07,0,14.025,0.901,20.72,2.648   c-0.021-0.421-0.03-0.843-0.03-1.269V25.481C129.933,11.431,141.364,0,155.414,0h145.314c14.05,0,25.481,11.431,25.481,25.481   v17.635c0,3.846-0.857,7.493-2.388,10.766c4.939,3.827,8.125,9.815,8.125,16.534v44.593c5.56-1.358,11.297-2.053,17.103-2.053   c13.814,0,27.279,3.984,38.808,11.363c9.127-3.82,20.137-5.998,30.94-5.998c3.46,0,6.784,0.237,9.879,0.7   c21.679,3.252,39.515,13.814,48.937,28.974c5.454,8.774,7.735,17.431,9.247,24.741c1.337,6.473-0.295,13.128-4.473,18.262   c-4.2,5.157-10.42,8.116-17.065,8.118l-45.649,0.035c-6.276,31.326-32.944,55.38-65.516,57.674   c6.637,37.767,15.979,86.065,20.537,107.78c4.783,22.792,20.994,65.472,27.743,82.764c2.369,6.075,2.079,12.913-0.796,18.763   c-2.877,5.855-8.118,10.265-14.38,12.103l-111.825,32.818C273.302,511.682,271.085,512,268.854,512z"/>
	<g>
		<circle style="fill:#FFA766;" cx="108.02" cy="123.665" r="67.546"/>
		<circle style="fill:#8F8FEF;" cx="129.442" cy="356.85" r="67.546"/>
		<circle style="fill:#F05D6A;" cx="347.826" cy="184.98" r="57.642"/>
		<g>
			<path style="fill:#FF899A;" d="M154.886,174.29c0,0-16.003,11.145-15.145,19.718c0.857,8.573,11.145,10.573,19.146,8.001     L154.886,174.29z"/>
			<path style="fill:#FF899A;" d="M153.926,217.419c-8.608,1.663-16.46,6.929-21.267,14.26c-2.223,3.391-3.838,7.602-2.609,11.466     c1.617,5.085,7.496,7.552,12.823,7.851c5.005,0.281,10.079-0.791,14.542-3.072C156.118,236.916,154.225,228.499,153.926,217.419z     "/>
			<path style="fill:#FF899A;" d="M359.397,367.56c-6.477-30.862-22.105-112.825-26.671-145.167     c-4.572-32.386-16.765-26.29-16.765-26.29c-15.241,12.955-13.717,136.404-13.717,136.404l-8.656,0.709l-16.681-65.481     l-112.59,56.581c0,0,18.86,61.724,37.721,99.445c15.543,31.085,48.552,61.783,59.683,71.62c2.307,2.039,5.488,2.741,8.442,1.874     l111.828-32.821c5.037-1.478,7.732-6.946,5.824-11.836C380.55,433.982,364.366,391.238,359.397,367.56z"/>
			<path style="fill:#401A49;" d="M255.665,399.691c-0.016,0-0.032,0-0.048-0.002c-0.33-0.026-0.577-0.314-0.55-0.644     c3.133-40.016,21.835-78.59,51.31-105.833c0.246-0.224,0.624-0.208,0.847,0.033c0.225,0.243,0.209,0.623-0.033,0.848     c-29.256,27.04-47.82,65.328-50.931,105.046C256.237,399.453,255.974,399.691,255.665,399.691z"/>
			<g>
				<path style="fill:#401A49;" d="M313.619,334.411H157.133c-1.504,0-2.723-1.219-2.723-2.722V66.613      c0-1.504,1.219-2.722,2.723-2.722h156.486c1.504,0,2.723,1.219,2.723,2.722v265.076      C316.342,333.192,315.123,334.411,313.619,334.411z"/>
				<rect x="163.226" y="73.035" style="fill:#FFF5EE;" width="144.659" height="240.611"/>
				<path style="fill:#FFF5EE;" d="M260.43,328.968h-51.907c-2.805,0-5.086-2.281-5.086-5.086v-0.279      c0-2.804,2.281-5.086,5.086-5.086h51.907c2.803,0,5.085,2.281,5.085,5.086v0.279      C265.515,326.686,263.234,328.968,260.43,328.968z M208.523,319.061c-2.505,0-4.543,2.038-4.543,4.543v0.279      c0,2.505,2.038,4.543,4.543,4.543h51.907c2.504,0,4.541-2.038,4.541-4.543v-0.279c0-2.505-2.038-4.543-4.541-4.543H208.523z"/>
				<g>
					<path style="fill:#FFA766;" d="M253.335,263.365v-16.771c0.009-0.163,0.018-0.326,0.029-0.49       c0.303-4.591,3.752-8.258,8.23-9.31c9.956-2.339,18.599-10.234,23.159-19.628c5.66-11.66,6.088-25.165,5.009-38.081       c-0.852-10.21-2.651-20.566-7.565-29.555c-7.317-13.385-21.621-22.687-36.823-23.947c-12.39-1.027-24.879,3.051-35.219,9.952       c-5.845,3.901-11.156,8.773-14.77,14.799c-3.275,5.46-5.058,11.686-6.308,17.928c-2.782,13.889-3.01,28.674,2.186,41.851       c4.33,10.98,13.39,20.692,24.35,25.116c4.023,1.624,6.781,5.372,6.781,9.711v15.496c0.224,0.551,0.052,1.245-0.36,1.674       C230.884,266.671,243.77,266.122,253.335,263.365z"/>
					<path style="fill:#FFF5EE;" d="M244.758,264.706c-0.857-17.491,0.44-35.074,3.857-52.259c0.666-3.346,1.527-6.858,2.916-10.04       c-3.507-0.508-7.198-1.751-10.87-3.717c-0.229-0.122-0.468-0.254-0.716-0.396c-1.581,2.93-3.894,5.567-6.76,7.587       c-3.699,2.605-8.286,4.231-13.265,4.75c0.368,0.877,0.696,1.764,1.004,2.629c5.44,15.277,10.444,33.229,6.305,50.537       l-1.163-0.279c4.066-17.005-0.887-34.745-6.268-49.859c-0.35-0.983-0.717-1.97-1.128-2.924       c-1.346,0.089-2.715,0.097-4.105,0.025c-1.687-0.088-3.612-0.331-5.097-1.461c-1.525-1.16-2.377-3.542-1.216-5.24       c1.269-1.857,3.996-1.766,5.92-0.735c2.456,1.313,4.049,3.631,5.237,6.154c4.928-0.451,9.461-2.02,13.088-4.577       c2.731-1.924,4.929-4.437,6.425-7.224c-3.276-2.068-7.284-5.587-7.305-10.436c-0.01-2.473,1.433-5.378,4.13-5.891       c1.865-0.357,3.943,0.612,5.163,2.408c0.931,1.371,1.406,3.197,1.415,5.425c0.009,2.731-0.64,5.478-1.84,8.04       c0.256,0.148,0.504,0.286,0.741,0.412c3.674,1.967,7.36,3.185,10.83,3.639c1.405-2.862,3.294-5.391,5.93-7.198       c1.435-0.986,3.619-2.048,5.887-1.508c1.195,0.283,2.306,1.152,2.898,2.266c0.495,0.932,0.583,1.937,0.246,2.83       c-0.438,1.16-1.444,1.904-2.274,2.424c-3.337,2.089-7.495,2.9-11.994,2.465c-1.395,3.098-2.261,6.612-2.96,10.127       c-3.397,17.088-4.688,34.572-3.836,51.967L244.758,264.706z M211.347,203.793c-0.866,0-1.657,0.283-2.108,0.942       c-0.767,1.12-0.113,2.802,0.952,3.612c1.228,0.934,2.932,1.14,4.437,1.22c1.181,0.062,2.351,0.062,3.506,0.003       c-1.076-2.186-2.464-4.088-4.526-5.192C212.915,204.008,212.103,203.793,211.347,203.793z M253.299,201.405       c4.077,0.332,7.804-0.446,10.808-2.329c0.669-0.42,1.478-1.008,1.79-1.832c0.214-0.568,0.149-1.223-0.183-1.847       c-0.437-0.82-1.248-1.457-2.119-1.664c-1.831-0.436-3.696,0.482-4.935,1.33C256.313,196.671,254.599,198.871,253.299,201.405z        M236.516,182.476c-0.186,0-0.369,0.016-0.549,0.05c-1.986,0.377-3.165,2.691-3.156,4.711c0.018,4.256,3.625,7.442,6.644,9.365       c1.091-2.369,1.681-4.901,1.671-7.414c-0.008-1.986-0.414-3.588-1.209-4.758C239.1,183.225,237.763,182.476,236.516,182.476z"/>
					<g>
						<path style="fill:#8F8FEF;" d="M253.275,261.398l-0.024,1.818v0.646l-0.024,2.129v0.646l-0.048,6.936l-0.024,0.622        l-0.024,3.851c-16.192,9.759-31.14-0.909-31.14-0.909v-2.918l0.024-3.061v-5.214l0.024-0.646v-3.181L253.275,261.398z"/>
						<g>
							<path style="fill:#401A49;" d="M253.251,263.216v0.646c-6.123,2.272-12.604,3.42-19.11,3.42         c-4.066,0-8.132-0.454-12.126-1.339l0.024-0.646C232.395,267.688,243.325,266.947,253.251,263.216z"/>
							<path style="fill:#401A49;" d="M253.227,265.99v0.646c-4.281,1.818-8.323,3.157-12.294,4.018         c-3.755,0.837-7.414,1.244-10.954,1.244c-2.631,0-5.214-0.215-7.678-0.67c-0.096-0.024-0.191-0.048-0.287-0.072v-0.598         c0.12,0.024,0.263,0.048,0.383,0.072c5.74,1.052,11.959,0.861,18.416-0.55C244.808,269.195,248.922,267.856,253.227,265.99z"/>
							<path style="fill:#401A49;" d="M253.179,273.572l-0.024,0.622c-5.453,1.555-11.098,2.344-16.742,2.344         c-4.855,0-9.686-0.574-14.422-1.722v-0.598C232.251,276.729,243.038,276.514,253.179,273.572z"/>
						</g>
					</g>
				</g>
				<polygon style="opacity:0.33;fill:#FFFFFF;" points="163.226,73.035 307.885,313.646 163.226,313.646     "/>
			</g>
			<path style="fill:#FF899A;" d="M154.41,249.064c0,0-22.766,9.525-22.194,26.671c0.572,17.146,15.717,26.576,22.29,18.86     c6.572-7.716,0.095-28.005,0.095-28.005L154.41,249.064z"/>
			<path style="fill:#FF899A;" d="M154.22,293.071c0,0-16.003,4.953-17.717,17.527c-1.715,12.574,14.002,28.005,18.86,22.004     c4.858-6.001-0.286-23.432-0.286-23.432L154.22,293.071z"/>
		</g>
		<path style="fill:#FFF5EE;" d="M464.092,184.734l-133.748,0.098c-6.226,0.005-9.883-7.107-6.167-12.102    c0.943-1.267,1.991-2.453,3.139-3.538c7.091-6.732,17.773-9.425,27.198-6.882c5.116,1.406,9.754,4.159,14.063,7.301    c0.927-12.088,7.45-22.68,17.743-29.053c10.323-6.373,27.031-9.108,39-7.313c14.961,2.244,30.769,9.333,38.855,22.341    c3.987,6.415,5.922,13.021,7.377,20.062C472.522,180.341,468.885,184.73,464.092,184.734z"/>
		<path style="fill:#FFF5EE;" d="M202.142,403.434l-133.747,0.098c-6.226,0.005-9.883-7.107-6.167-12.102    c0.943-1.267,1.991-2.453,3.139-3.538c7.091-6.732,17.773-9.425,27.198-6.882c5.116,1.406,9.754,4.159,14.063,7.3    c0.927-12.088,7.45-22.68,17.743-29.053c10.323-6.373,27.031-9.108,39-7.313c14.961,2.244,30.769,9.333,38.855,22.341    c3.987,6.415,5.922,13.021,7.377,20.062C210.572,399.041,206.935,403.43,202.142,403.434z"/>
		<g>
			<path style="fill:#FFF5EE;" d="M299.504,14.383H154.191c-6.13,0-11.099,4.969-11.099,11.099v17.633     c0,6.13,4.969,11.099,11.099,11.099h121.875l11.892,17.429l-0.243-17.429h11.789c6.13,0,11.099-4.969,11.099-11.099V25.482     C310.603,19.352,305.634,14.383,299.504,14.383z"/>
			<g>
				<g>
					<path style="fill:#FFA766;" d="M196.066,44.381v2.571h-1.343V44.41c-3.143-0.144-5.487-1.602-6.374-4.059l1.315-0.744       c0.657,2.001,2.401,3.201,5.058,3.343v-8.487c-2.915-1.028-5.43-2.087-5.43-5.487c0-2.973,2.4-4.973,5.43-5.172v-2.573h1.343       v2.573c2.258,0.256,4.172,1.457,5.058,3.6l-1.285,0.715c-0.657-1.63-1.944-2.601-3.773-2.829v8.117       c2.915,1.029,5.544,2.171,5.544,5.573C201.61,41.979,199.323,44.066,196.066,44.381z M194.722,32.921v-7.66       c-2.343,0.199-3.915,1.715-3.915,3.715C190.807,31.234,192.465,32.092,194.722,32.921z M200.067,38.979       c0-2.286-1.658-3.229-4.001-4.058v7.973C198.638,42.609,200.067,41.036,200.067,38.979z"/>
				</g>
				<g>
					<path style="fill:#FFA766;" d="M231.489,44.381v2.571h-1.343V44.41c-3.143-0.144-5.487-1.602-6.373-4.059l1.315-0.744       c0.657,2.001,2.401,3.201,5.058,3.343v-8.487c-2.915-1.028-5.43-2.087-5.43-5.487c0-2.973,2.4-4.973,5.43-5.172v-2.573h1.343       v2.573c2.258,0.256,4.172,1.457,5.058,3.6l-1.285,0.715c-0.658-1.63-1.944-2.601-3.773-2.829v8.117       c2.915,1.029,5.544,2.171,5.544,5.573C237.033,41.979,234.746,44.066,231.489,44.381z M230.145,32.921v-7.66       c-2.344,0.199-3.915,1.715-3.915,3.715C226.23,31.234,227.887,32.092,230.145,32.921z M235.49,38.979       c0-2.286-1.658-3.229-4.001-4.058v7.973C234.06,42.609,235.49,41.036,235.49,38.979z"/>
				</g>
				<g>
					<path style="fill:#FFA766;" d="M262.661,44.381v2.571h-1.343V44.41c-3.143-0.144-5.487-1.602-6.373-4.059l1.315-0.744       c0.658,2.001,2.401,3.201,5.059,3.343v-8.487c-2.915-1.028-5.429-2.087-5.429-5.487c0-2.973,2.4-4.973,5.429-5.172v-2.573       h1.343v2.573c2.258,0.256,4.172,1.457,5.058,3.6l-1.285,0.715c-0.658-1.63-1.944-2.601-3.773-2.829v8.117       c2.915,1.029,5.544,2.171,5.544,5.573C268.205,41.979,265.919,44.066,262.661,44.381z M261.317,32.921v-7.66       c-2.343,0.199-3.915,1.715-3.915,3.715C257.402,31.234,259.06,32.092,261.317,32.921z M266.662,38.979       c0-2.286-1.658-3.229-4.001-4.058v7.973C265.232,42.609,266.662,41.036,266.662,38.979z"/>
				</g>
			</g>
		</g>
		<g>
			<rect x="42.533" y="166.508" style="fill:#FFD2A7;" width="138.931" height="101.598"/>
			<g>
				<rect x="37.841" y="157.539" style="fill:#FFE5D2;" width="138.728" height="105.874"/>
				<polygon style="fill:#8F8FEF;" points="50.019,178.894 55.086,178.894 53.096,171.836     "/>
				<polygon style="fill:#8F8FEF;" points="164.219,247.487 164.219,252.554 171.277,250.563     "/>
				<g>
					<polyline style="fill:#8F8FEF;" points="66.126,213.1 82.777,212.738 82.777,244.953 66.217,244.953 66.217,214.548      "/>
					<polyline style="fill:#8F8FEF;" points="95.084,198.426 111.734,197.898 111.734,244.953 95.174,244.953 95.174,200.541             "/>
					<g>
						<g>
							<path style="fill:#8F8FEF;" d="M167.114,250.914H52.733c-0.294,0-0.531-0.238-0.531-0.531v-75.288         c0-0.294,0.238-0.531,0.531-0.531s0.531,0.238,0.531,0.531v74.757h113.85c0.294,0,0.531,0.238,0.531,0.531         C167.646,250.676,167.408,250.914,167.114,250.914z"/>
							<path style="fill:#8F8FEF;" d="M83.049,245.484H66.217c-0.294,0-0.531-0.238-0.531-0.531v-47.507         c0-0.294,0.238-0.531,0.531-0.531h16.831c0.294,0,0.531,0.238,0.531,0.531v47.507         C83.58,245.246,83.342,245.484,83.049,245.484z M66.749,244.421h15.769v-46.444H66.749V244.421z"/>
							<path style="fill:#8F8FEF;" d="M112.095,245.549h-16.83c-0.33,0-0.597-0.267-0.597-0.597v-59.995         c0-0.33,0.267-0.597,0.597-0.597h16.83c0.33,0,0.597,0.267,0.597,0.597v59.995         C112.692,245.282,112.425,245.549,112.095,245.549z M95.862,244.355h15.636v-58.801H95.862V244.355z"/>
							<path style="fill:#8F8FEF;" d="M140.058,245.593h-16.831c-0.354,0-0.64-0.287-0.64-0.64v-68.954         c0-0.354,0.287-0.64,0.64-0.64h16.831c0.354,0,0.64,0.287,0.64,0.64v68.954C140.698,245.306,140.411,245.593,140.058,245.593         z M123.867,244.312h15.551v-67.673h-15.551V244.312z"/>
						</g>
						<polyline style="fill:#8F8FEF;" points="122.774,191.626 139.424,191.02 139.424,244.953 122.864,244.953 122.864,194.05               "/>
					</g>
				</g>
			</g>
		</g>
		<g>
			<g>
				
					<rect x="95.238" y="286.686" transform="matrix(-1.836970e-16 1 -1 -1.836970e-16 408.3658 191.4487)" style="fill:#FFA766;" width="26.442" height="26.442"/>
			</g>
			<g>
				
					<rect x="95.238" y="328.606" transform="matrix(-1.836970e-16 1 -1 -1.836970e-16 450.2856 233.3686)" style="fill:#FF899A;" width="26.442" height="26.442"/>
			</g>
			<g>
				
					<rect x="95.238" y="367.946" transform="matrix(-1.836970e-16 1 -1 -1.836970e-16 489.6258 272.7088)" style="fill:#FFD2A7;" width="26.442" height="26.442"/>
			</g>
		</g>
	</g>
</g>















</svg>
