<?xml version="1.0" encoding="UTF-8"?>
<!-- Generator: Adobe Illustrator 25.2.1, SVG Export Plug-In . SVG Version: 6.00 Build 0)  -->
<svg xmlns="http://www.w3.org/2000/svg" xmlns:xlink="http://www.w3.org/1999/xlink" version="1.1" id="Capa_1" x="0px" y="0px" viewBox="0 0 512 512" style="enable-background:new 0 0 512 512;" xml:space="preserve" width="512" height="512">
<g>
	<path style="fill:#FFFFFF;" d="M86.205,413.302c-1.761,0-3.493-0.438-5.041-1.274l-16.26-8.784   c-4.078-1.188-7.172-4.712-7.729-9.017L0.612,234.776c-1.657-4.668,0.14-9.861,4.326-12.51c1.228-0.777,2.566-1.274,3.931-1.5   c-1.99-3.422-3.14-7.448-3.14-11.754v-18.823c0-12.384,9.506-22.458,21.189-22.458h127.724c2.775-3.708,6.105-6.811,9.837-9.136   c7.689-4.825,17.063-6.112,26.104-4.746c7.287,1.07,14.514,3.743,21.47,7.945c0.366,0.219,0.808,0.489,1.226,0.761   c4.304,2.711,8.589,6.088,12.9,10.177c1.806-41.132,35.832-74.035,77.401-74.035c42.721,0,77.477,34.757,77.477,77.477   c0,9.746-1.814,19.265-5.281,28.136c4.675-5.207,11.175-11.652,19.075-16.32l0.741-0.433c3.46-1.97,6.958-3.489,10.509-4.582   c3.976-1.212,8.111-1.82,12.32-1.82c10.79,0,20.742,4.045,27.304,11.098l0.185,0.204c0.249,0.271,0.497,0.554,0.734,0.842   c1.022,1.203,1.961,2.491,2.79,3.835c3.091,5.09,4.786,10.99,5.084,17.608c0.306,6.621-0.813,13.454-3.323,20.298   c-0.129,0.361-0.293,0.798-0.461,1.214c-3.316,8.544-9.019,17.471-17.382,27.162c0.572,0.471,1.117,0.974,1.635,1.502   c4.924-2.112,9.898-3.91,14.871-5.374c0.183-0.057,0.758-0.216,0.86-0.242c7.351-2.105,14.008-3.127,20.346-3.127   c5.946,0,11.545,0.943,16.638,2.8c1.319,0.487,2.566,1.022,3.734,1.602c0.288,0.133,0.692,0.33,1.158,0.602   c12.605,6.726,20.353,19.721,19.312,32.454c-0.373,4.719-1.856,9.428-4.665,14.78c-0.124,0.249-0.261,0.499-0.399,0.739   c-0.475,0.882-0.965,1.759-1.464,2.612c-4.758,8.075-10.5,15.576-17.092,22.333l-0.124,0.128c-0.091,0.1-0.123,0.133-0.217,0.23   c-6.419,6.521-13.597,12.294-21.337,17.159c-0.237,0.152-0.459,0.288-0.691,0.423c-0.711,0.442-1.428,0.875-2.148,1.302   c1.518,3.199,2.462,6.695,2.773,10.126c0.875,9.692-4.017,19.837-12.768,26.475c-0.508,0.394-1.091,0.811-1.694,1.208   c-0.126,0.09-0.566,0.388-0.627,0.428c-6.317,4.112-13.249,6.212-19.797,7.867c-2.954,0.741-6.008,1.436-9.126,2.081l-5.656,7.538   c-2.003,2.669-5.147,4.24-8.484,4.24H86.205z"/>
	<g>
		<g>
			<path style="fill:#FF899A;" d="M495.992,303.583c-0.055,0.123-0.132,0.254-0.202,0.371c-0.446,0.834-0.907,1.661-1.377,2.465     c-4.336,7.359-9.571,14.17-15.523,20.273c-0.101,0.102-0.202,0.205-0.31,0.323c-5.839,5.933-12.371,11.187-19.421,15.619     c-0.154,0.097-0.286,0.186-0.455,0.276c-5.115,3.194-10.512,5.949-16.112,8.207c6.586-0.914,10.982,6.673,11.582,13.303     c0.6,6.63-3.318,13.052-8.615,17.068c-0.423,0.328-0.854,0.633-1.294,0.916c-0.139,0.104-0.271,0.193-0.402,0.281     c-4.991,3.249-10.832,5.013-16.611,6.472c-32.444,8.146-66.324,8.108-99.794,7.977c-3.573-0.009-7.554-0.182-10.048-2.733     c-0.268-0.267-0.5-0.574-0.725-0.896c-0.089-0.132-0.177-0.263-0.251-0.389c-2.541-4.14-2.552-11.965-1.408-16.305     c5.064-19.151,16.222-35.803,28.561-51.504c0,0-0.015-0.007,0.007-0.016c0.178-0.234,0.35-0.452,0.528-0.686     c3.37-4.286,6.835-8.494,10.263-12.662c4.924-5.99,10.266-12.255,17.486-14.879c0.163-0.075,0.334-0.128,0.482-0.172     c0.178-0.068,0.349-0.121,0.52-0.173c7.758-2.383,18.008,1.676,18.971,9.723c9.092-9.46,19.479-17.732,30.806-24.35     c0.132-0.089,0.279-0.17,0.426-0.252c0.007-0.015,0.007-0.015,0.007-0.015c8.874-5.131,18.282-9.267,28.107-12.148     c0.022-0.009,0.022-0.009,0.044-0.017c0.142-0.029,0.275-0.08,0.418-0.109c9.991-2.88,20.873-4.164,30.61-0.61     c0.95,0.35,1.895,0.754,2.797,1.212c0.169,0.075,0.339,0.151,0.494,0.257c8.378,4.367,14.737,13.052,13.976,22.358     C499.228,296.581,497.788,300.18,495.992,303.583z"/>
			<path style="fill:#FFD2A7;" d="M485.552,270.41c-8.887,3.465-17.257,7.383-24.843,11.115c-2.553,1.258-5.091,2.523-7.583,3.808     c-0.178,0.068-0.325,0.15-0.472,0.232c-9.734,4.95-19.077,10.056-28.057,15.342c-0.147,0.082-0.288,0.148-0.404,0.244     c-8.592,5.036-16.815,10.236-24.708,15.564c-0.132,0.089-0.279,0.171-0.418,0.275c-10.206,6.915-19.858,14.078-28.912,21.471     c-0.117,0.096-0.226,0.176-0.342,0.271c-9.191,7.534-17.784,15.299-25.764,23.3c-0.146,0.12-0.276,0.246-0.39,0.379     c-9.958,9.995-18.957,20.363-26.975,31.095c-1.105,1.443-2.164,2.907-3.224,4.371l-0.335-0.242     c1.08-1.51,2.197-3.021,3.307-4.517c8.07-10.764,17.134-21.196,27.15-31.239c0.115-0.133,0.245-0.259,0.375-0.386     c7.915-7.938,16.427-15.646,25.464-23.083c0.132-0.089,0.248-0.184,0.342-0.271c3.137-2.565,6.335-5.102,9.603-7.59     c13.494-10.316,28.319-20.223,44.37-29.657c0.132-0.089,0.272-0.155,0.419-0.237c8.981-5.286,18.352-10.416,28.087-15.366     c0.125-0.074,0.25-0.147,0.405-0.206c2.588-1.335,5.215-2.633,7.864-3.941c7.505-3.676,15.786-7.559,24.547-10.989     C485.228,270.229,485.397,270.304,485.552,270.41z"/>
			<path style="fill:#FFD2A7;" d="M495.992,303.583c-0.055,0.123-0.132,0.254-0.202,0.371c-10.342-3.934-20.684-8.2-30.956-12.786     c-4.075-1.819-8.13-3.685-12.179-5.603l-0.415-0.185l0.004-0.091l-0.002-0.038l-1.007-15.591c0.142-0.029,0.275-0.08,0.418-0.109     l0.997,15.531l-0.007,0.015c0.169,0.075,0.323,0.144,0.485,0.235C467.291,292.025,481.626,298.129,495.992,303.583z"/>
			<path style="fill:#FFD2A7;" d="M478.889,326.692c-0.101,0.102-0.202,0.205-0.31,0.323c-6.312-2.467-12.525-5.075-18.631-7.8     c-12.41-5.54-24.375-11.582-35.756-18.064c-0.147-0.084-0.309-0.175-0.456-0.259c-0.061-0.027-0.116-0.07-0.178-0.098     l-0.108-0.048l-0.005-0.113c-0.722-6.15-0.994-12.357-0.798-18.54c0.132-0.089,0.279-0.17,0.426-0.252     c-0.21,6.213,0.048,12.452,0.772,18.639c0.101,0.063,0.208,0.111,0.309,0.175c0.147,0.084,0.294,0.168,0.441,0.252     C441.559,310.544,459.774,319.192,478.889,326.692z"/>
			<path style="fill:#FFD2A7;" d="M459.158,342.634c-0.154,0.097-0.286,0.186-0.455,0.276c-12.133-4.549-24.147-9.488-35.973-14.767     c-7.981-3.563-15.872-7.288-23.663-11.153c-0.085-0.057-0.162-0.091-0.254-0.132L399,316.48c0.169,0.076,0.316,0.16,0.485,0.235     C418.843,326.316,438.855,335.028,459.158,342.634z"/>
			<path style="fill:#FFD2A7;" d="M444.263,382.405c-0.139,0.104-0.271,0.193-0.402,0.281c-3.445-1.372-6.863-2.805-10.261-4.322     c-22.606-10.091-44.319-23.546-63.787-39.632c-0.14-0.099-0.258-0.207-0.391-0.322c-0.14-0.099-0.273-0.214-0.407-0.329     l-0.07-0.05l0.004-0.091c-1.689-13.609-0.675-27.615,2.92-40.875c0.163-0.075,0.334-0.128,0.482-0.172     c-3.633,13.262-4.67,27.276-2.994,40.915c0.133,0.115,0.266,0.23,0.406,0.329c0.133,0.115,0.251,0.223,0.391,0.322     C392.549,356.959,417.927,371.995,444.263,382.405z"/>
			<path style="fill:#FFD2A7;" d="M344.162,362.728l-0.426,0.086c-0.029-0.142-0.049-0.262-0.078-0.404l0.007-0.015     c-0.031-0.18-0.068-0.344-0.083-0.517c-2.049-12.017-2.039-24.517,0.003-36.57c0,0-0.015-0.007,0.007-0.016     c0.178-0.234,0.35-0.452,0.528-0.686c-2.137,12.141-2.202,24.763-0.163,36.886c0.031,0.18,0.061,0.359,0.092,0.539     C344.074,362.265,344.122,362.489,344.162,362.728z"/>
		</g>
		<g>
			<path style="fill:#FFA766;" d="M442.116,215.219c0.258,5.574-0.783,10.981-2.685,16.168c-0.105,0.291-0.219,0.602-0.339,0.898     c-3.442,8.868-9.406,17.07-15.69,24.334c-9.425,10.904-20.443,20.841-32.291,30.19c-0.295,0.253-0.609,0.495-0.923,0.738     l-0.015,0.004c-9.442,7.426-19.4,14.493-29.497,21.424c-0.338,0.218-0.671,0.45-1.005,0.682     c-9.33,6.371-18.755,12.642-28.01,18.942c-0.348,0.237-0.711,0.478-1.06,0.715l-0.015,0.005     c-12.823,8.759-25.242,17.62-36.526,27.007c-0.274,0.214-0.544,0.443-0.814,0.672c0.088-0.4,0.16-0.794,0.233-1.19     c3.355-17.151,4.224-23.591,5.97-35.597c1.356-9.279,2.692-18.567,4.047-27.846l-0.005-0.015c0.082-0.576,0.179-1.156,0.26-1.733     l-0.005-0.015c0.444-3.085,0.911-6.145,1.355-9.23c2.186-15.107,4.578-30.698,11.103-44.338c0.15-0.354,0.335-0.702,0.504-1.046     c1.438-2.905,3.081-5.727,4.945-8.407c4.448-6.391,11.29-12.369,19.032-11.48c6.394,0.721,11.46,6.127,13.72,12.154     c2.271,6.008,2.26,12.604,2.214,19.033c3.014-5.626,6.314-11.064,9.911-16.27c0.189-0.333,0.406-0.627,0.609-0.916     c3.876-5.616,8.076-11.023,12.55-16.224c5.461-6.363,11.597-12.528,18.752-16.756c0.233-0.137,0.466-0.273,0.7-0.41     c2.605-1.482,5.371-2.706,8.271-3.599c9.894-3.013,21.861-1.027,28.737,6.365c0.172,0.19,0.363,0.391,0.525,0.6     c0.706,0.82,1.347,1.691,1.927,2.63C440.874,206.449,441.918,210.841,442.116,215.219z"/>
			<g>
				<path style="fill:#401A49;" d="M436.677,200.078c-8.719,11.934-18.098,23.407-27.832,34.568      c-0.216,0.245-0.432,0.49-0.649,0.734c-14.109,16.104-28.991,31.539-43.817,46.633c-0.211,0.211-0.406,0.417-0.602,0.623      c-3.295,3.347-6.565,6.67-9.839,9.979c-3.962,4.022-7.964,8.073-11.961,12.138l0.005,0.015      c-0.186,0.187-0.386,0.378-0.582,0.584c-7.162,7.308-14.356,14.722-21.45,22.252c-0.221,0.23-0.441,0.46-0.658,0.705      c-8.635,9.154-17.103,18.484-25.232,28.017c-1.097,1.277-2.19,2.569-3.268,3.857l-0.606-0.494      c1.093-1.292,2.181-2.599,3.292-3.881c8.14-9.553,16.622-18.887,25.263-28.075c0.186-0.187,0.381-0.393,0.562-0.594      c7.194-7.625,14.488-15.135,21.766-22.543c0.196-0.206,0.377-0.408,0.577-0.599c3.922-3.994,7.849-7.973,11.735-11.923      c3.285-3.328,6.579-6.675,9.87-10.037l0.01-0.019c0.105-0.081,0.205-0.177,0.286-0.282c4.122-4.185,8.25-8.404,12.35-12.663      c0.211-0.211,0.421-0.421,0.632-0.632c10.416-10.788,20.724-21.769,30.668-33.092l0.649-0.734      c9.905-11.343,19.435-23.009,28.306-35.135C436.324,199.668,436.515,199.869,436.677,200.078z"/>
				<path style="fill:#401A49;" d="M439.43,231.387c-0.105,0.291-0.219,0.602-0.339,0.898c-9.507,2.586-19.859,3.635-30.895,3.096      c-0.245-0.006-0.504-0.007-0.754-0.027l-0.245-0.006l-0.049-0.001l-0.072-0.286c-2.686-12.619-5.584-25.35-8.633-37.938      c0.233-0.137,0.466-0.273,0.7-0.41c3.044,12.573,5.953,25.285,8.634,37.889c0.015-0.005,0.049,0.001,0.068,0.011      c0.328,0.012,0.671,0.02,0.998,0.033C419.79,235.1,430.016,234.009,439.43,231.387z"/>
				<path style="fill:#401A49;" d="M367.142,230.102c2.528,12.894,5.678,25.759,9.388,38.338c0.067,0.271,0.149,0.537,0.231,0.803      l-0.74,0.228l-0.123-0.4c-3.683-12.49-6.835-25.257-9.365-38.053C366.722,230.685,366.939,230.392,367.142,230.102z"/>
				<path style="fill:#401A49;" d="M391.111,286.809c-0.295,0.253-0.609,0.495-0.923,0.738l-0.015,0.004      c-8.948-0.388-17.828-2.028-26.396-4.915c-0.214-0.064-0.428-0.127-0.647-0.206l0.132-0.413l0.125-0.33      c0.054,0.016,0.107,0.032,0.161,0.048c0.272,0.094,0.544,0.189,0.831,0.279C373.059,284.898,382.058,286.502,391.111,286.809z"/>
				<path style="fill:#401A49;" d="M360.676,308.976c-0.338,0.218-0.671,0.45-1.005,0.682c-6.03-0.59-12.015-1.825-17.854-3.689      l-0.16-0.048l-0.065-0.158c-0.06-0.144-0.116-0.272-0.191-0.411c-0.112-0.257-0.219-0.5-0.33-0.757      c-9.838-21.854-18.197-44.536-24.864-67.56c0.15-0.354,0.335-0.702,0.504-1.046c6.663,23.171,15.039,46.01,24.937,68.007      c0.111,0.257,0.219,0.5,0.33,0.757l0.005,0.015c0.089,0.183,0.154,0.341,0.242,0.525      C348.253,307.195,354.454,308.445,360.676,308.976z"/>
				<path style="fill:#401A49;" d="M331.661,328.599c-0.348,0.237-0.711,0.478-1.06,0.715l-0.015,0.005      c-3.86-0.173-7.628-0.519-11.294-1.01c-0.019-0.01-0.049-0.001-0.068-0.011l-0.186-0.024l-0.099-0.164      c-0.071-0.124-0.141-0.248-0.197-0.377c-6.194-11.28-11.283-23.126-15.245-35.368l-0.005-0.015      c0.082-0.576,0.179-1.156,0.26-1.733c3.973,12.644,9.185,24.89,15.552,36.521c0.075,0.139,0.15,0.278,0.225,0.417      c0.137,0.023,0.273,0.045,0.42,0.049C323.748,328.103,327.659,328.438,331.661,328.599z"/>
			</g>
		</g>
		<g>
			<path style="fill:#FFA766;" d="M187.226,164.343c6.304,0.925,12.138,3.269,17.537,6.532c0.304,0.181,0.627,0.377,0.933,0.576     c9.19,5.79,17.085,14.261,23.858,22.887c10.169,12.939,18.907,27.454,26.806,42.77c0.219,0.385,0.422,0.79,0.626,1.195     l0.002,0.018c6.268,12.201,12.02,24.902,17.59,37.729c0.17,0.426,0.358,0.851,0.545,1.275     c5.109,11.845,10.085,23.776,15.131,35.522c0.19,0.442,0.381,0.901,0.571,1.343l0.002,0.018     c7.025,16.281,14.252,32.131,22.315,46.824c0.18,0.354,0.378,0.706,0.576,1.058c-0.429-0.185-0.855-0.353-1.283-0.521     c-18.494-7.496-25.522-9.872-38.6-14.445c-10.105-3.54-20.225-7.061-30.33-10.602l-0.018,0.002     c-0.628-0.217-1.257-0.452-1.885-0.669l-0.018,0.002c-3.361-1.169-6.689-2.359-10.05-3.528     c-16.457-5.74-33.412-11.819-47.279-22.103c-0.364-0.246-0.715-0.528-1.063-0.793c-2.943-2.245-5.749-4.701-8.346-7.374     c-6.195-6.377-11.405-15.349-8.722-23.833c2.201-7.01,9.364-11.511,16.612-12.732c7.229-1.236,14.62,0.212,21.816,1.664     c-5.649-4.604-11.026-9.487-16.078-14.653c-0.333-0.284-0.615-0.592-0.895-0.882c-5.45-5.568-10.597-11.453-15.451-17.601     c-5.943-7.507-11.517-15.728-14.697-24.669c-0.102-0.291-0.205-0.583-0.307-0.874c-1.094-3.243-1.864-6.61-2.233-10.055     c-1.223-11.746,3.61-24.728,13.394-30.825c0.25-0.151,0.517-0.322,0.787-0.458c1.072-0.613,2.189-1.141,3.368-1.588     C177.125,163.825,182.276,163.611,187.226,164.343z"/>
			<g>
				<path style="fill:#401A49;" d="M169.071,167.141c11.477,12.372,22.295,25.384,32.685,38.726      c0.227,0.296,0.455,0.591,0.682,0.887c14.978,19.323,29.037,39.366,42.726,59.271c0.19,0.282,0.378,0.546,0.567,0.811      c3.034,4.422,6.047,8.811,9.042,13.202c3.645,5.317,7.314,10.685,11,16.05l0.017-0.002c0.169,0.249,0.34,0.515,0.528,0.779      c6.631,9.62,13.375,19.299,20.27,28.89c0.21,0.298,0.419,0.595,0.647,0.891c8.38,11.673,16.993,23.196,25.908,34.385      c1.193,1.508,2.403,3.014,3.611,4.503l-0.685,0.571c-1.21-1.506-2.438-3.01-3.633-4.536      c-8.934-11.204-17.549-22.745-25.966-34.432c-0.169-0.249-0.357-0.513-0.544-0.76c-6.98-9.725-13.809-19.537-20.528-29.307      c-0.189-0.264-0.375-0.511-0.546-0.777c-3.622-5.266-7.227-10.534-10.808-15.751c-3.014-4.407-6.048-8.829-9.1-13.249      l-0.02-0.016c-0.068-0.135-0.153-0.268-0.254-0.382c-3.793-5.532-7.623-11.078-11.504-16.601      c-0.19-0.282-0.38-0.564-0.571-0.846c-9.823-14.025-19.887-27.971-30.413-41.583l-0.682-0.887      c-10.557-13.573-21.557-26.797-33.217-39.38C168.534,167.448,168.801,167.277,169.071,167.141z"/>
				<path style="fill:#401A49;" d="M204.763,170.875c0.304,0.181,0.627,0.377,0.933,0.576c0.828,11.219-0.251,23.052-3.259,35.304      c-0.06,0.273-0.117,0.564-0.195,0.839l-0.06,0.273l-0.012,0.055l-0.336,0.018c-14.729,0.262-29.631,0.738-44.405,1.414      c-0.102-0.291-0.205-0.583-0.307-0.874c14.756-0.674,29.639-1.166,44.35-1.426c-0.002-0.018,0.012-0.055,0.028-0.074      c0.086-0.365,0.169-0.747,0.254-1.112C204.648,193.698,205.653,181.998,204.763,170.875z"/>
				<path style="fill:#401A49;" d="M187.578,251.622c15.004-0.025,30.109-0.754,45.017-2.173c0.318-0.016,0.635-0.05,0.951-0.084      l0.094,0.879l-0.475,0.051c-14.802,1.408-29.799,2.161-44.693,2.209C188.14,252.22,187.858,251.912,187.578,251.622z"/>
				<path style="fill:#401A49;" d="M256.361,237.107c0.219,0.385,0.422,0.79,0.626,1.195l0.002,0.018      c-2.384,9.945-6.157,19.542-11.258,28.516c-0.118,0.226-0.236,0.452-0.372,0.68l-0.434-0.238l-0.343-0.212      c0.029-0.057,0.059-0.113,0.089-0.169c0.165-0.284,0.33-0.569,0.494-0.871C250.287,256.925,254.045,247.188,256.361,237.107z"/>
				<path style="fill:#401A49;" d="M274.578,276.05c0.17,0.426,0.358,0.851,0.545,1.275c-1.975,6.63-4.663,13.07-8.024,19.208      l-0.089,0.169l-0.191,0.038c-0.174,0.037-0.33,0.071-0.502,0.125c-0.313,0.069-0.608,0.136-0.92,0.205      c-26.639,6.267-53.883,10.696-81.143,13.154c-0.364-0.246-0.715-0.528-1.063-0.793c27.424-2.422,54.848-6.835,81.66-13.138      c0.312-0.069,0.608-0.136,0.92-0.206l0.017-0.002c0.225-0.06,0.416-0.098,0.641-0.158      C269.876,289.586,272.628,282.908,274.578,276.05z"/>
				<path style="fill:#401A49;" d="M290.254,312.846c0.19,0.442,0.381,0.901,0.571,1.343l0.002,0.018      c-1.034,4.289-2.243,8.437-3.592,12.44c-0.016,0.02-0.012,0.055-0.028,0.074l-0.067,0.203l-0.205,0.075      c-0.154,0.052-0.309,0.104-0.465,0.139c-13.992,4.486-28.379,7.609-42.964,9.385l-0.018,0.002      c-0.628-0.217-1.257-0.452-1.885-0.669c15.038-1.7,29.899-4.874,44.323-9.477c0.172-0.054,0.344-0.108,0.516-0.162      c0.055-0.148,0.111-0.296,0.146-0.46C287.974,321.607,289.202,317.297,290.254,312.846z"/>
			</g>
		</g>
		<g>
			<path style="fill:#FFE5D2;" d="M368.646,176.176c0-36.931-29.939-66.87-66.87-66.87c-36.931,0-66.87,29.939-66.87,66.87     c0,28.456,17.806,52.697,42.858,62.353v21.843h48.329v-21.954C350.986,228.683,368.646,204.518,368.646,176.176z"/>
			<path style="fill:#401A49;" d="M306.75,263.266c-0.025,0-0.052-0.002-0.079-0.006c-0.243-0.044-0.404-0.274-0.36-0.519     l7.985-44.676c0.531-2.971,1.148-5.979,1.745-8.887c1.008-4.922,2.052-10.012,2.709-15.075     c0.782-6.018,1.081-16.882-2.749-19.415c-1.333-0.883-3.134-0.661-5.358,0.646c-1.203,0.707-2.272,1.544-3.18,2.479     c1.245,4.253,1.328,9.401,0.247,12.096c-0.473,1.178-1.14,1.858-1.983,2.019c-0.826-0.013-1.448-0.358-1.889-0.994     c-1.4-2.002-0.866-6.464-0.063-8.847c0.548-1.628,1.462-3.153,2.68-4.502c-0.446-1.395-1.021-2.661-1.724-3.648     c-1.029-1.448-2.065-2.23-3.165-2.393c-0.868-0.134-1.816,0.109-3.019,0.74c-2.303,1.209-4.169,3.115-5.477,5.366     c0.586,0.87,1.004,1.78,1.276,2.485c1.111,2.866,1.636,6.004,1.521,9.077c-0.046,1.276-0.745,2.952-1.833,3.544     c-0.554,0.299-1.165,0.289-1.711-0.04c-0.525-0.312-0.818-0.843-1.054-1.37c-1.931-4.301-1.466-9.46,0.753-13.627     c-0.741-0.962-1.724-1.786-2.985-2.008c-2.188-0.376-4.247,1.255-5.171,3.067c-1.054,2.063-1.111,4.506-1.081,6.636     c0.125,8.399,1.707,16.79,3.236,24.903c3.107,16.491,6.318,33.532,10.479,50.107c0.052-0.021,0.109-0.031,0.167-0.031     c0,0,0,0,0.002,0c0.422,0,0.634,0.282,0.657,0.563c0.033,0.418-0.368,0.933-0.782,1c-0.27,0.054-0.6-0.09-0.705-0.502     c-4.268-16.857-7.535-34.197-10.696-50.969c-1.536-8.152-3.123-16.581-3.249-25.057c-0.034-2.236,0.029-4.809,1.178-7.054     c1.077-2.107,3.521-3.989,6.121-3.54c1.389,0.245,2.475,1.069,3.305,2.056c1.376-2.259,3.293-4.165,5.636-5.395     c1.379-0.726,2.51-0.987,3.565-0.833c1.353,0.201,2.584,1.102,3.761,2.757c0.682,0.96,1.249,2.142,1.699,3.439     c0.889-0.858,1.906-1.63,3.033-2.293c2.546-1.494,4.665-1.703,6.301-0.621c5.169,3.418,3.366,18.56,3.144,20.275     c-0.663,5.094-1.709,10.2-2.722,15.137c-0.596,2.904-1.211,5.906-1.741,8.868l-7.985,44.676     C307.152,263.115,306.964,263.266,306.75,263.266z M296.667,261.282h0.01H296.667z M292.588,178.55     c-1.912,3.851-2.259,8.516-0.502,12.432c0.176,0.391,0.383,0.782,0.695,0.969c0.284,0.169,0.544,0.176,0.828,0.021     c0.701-0.381,1.326-1.659,1.368-2.793c0.109-2.952-0.395-5.968-1.462-8.721C293.303,179.91,292.998,179.228,292.588,178.55z      M306.752,178.606c-0.954,1.151-1.678,2.423-2.132,3.766c-0.872,2.594-1.109,6.54-0.052,8.052     c0.282,0.404,0.638,0.607,1.088,0.619c0.556-0.117,0.983-0.864,1.226-1.467C307.853,187.16,307.786,182.533,306.752,178.606z"/>
			<g>
				<g>
					<path style="fill:#8F8FEF;" d="M325.561,267.439h-47.417c-2.132,0-3.875-1.744-3.875-3.875l0,0       c0-2.131,1.744-3.875,3.875-3.875h47.417c2.131,0,3.875,1.744,3.875,3.875l0,0       C329.436,265.695,327.692,267.439,325.561,267.439z"/>
					<path style="fill:#8F8FEF;" d="M325.561,274.734h-47.417c-2.132,0-3.875-1.744-3.875-3.875l0,0       c0-2.132,1.744-3.875,3.875-3.875h47.417c2.131,0,3.875,1.744,3.875,3.875l0,0C329.436,272.99,327.692,274.734,325.561,274.734       z"/>
					<path style="fill:#8F8FEF;" d="M325.561,282.485h-47.417c-2.132,0-3.875-1.744-3.875-3.876l0,0       c0-2.131,1.744-3.875,3.875-3.875h47.417c2.131,0,3.875,1.744,3.875,3.875l0,0       C329.436,280.741,327.692,282.485,325.561,282.485z"/>
					<path style="fill:#8F8FEF;" d="M317.73,289.324H285.29c-0.796,0-1.448-0.651-1.448-1.448v-4.855       c0-0.796,0.651-1.448,1.448-1.448h32.439c0.796,0,1.448,0.651,1.448,1.448v4.855       C319.177,288.672,318.526,289.324,317.73,289.324z"/>
				</g>
				<path style="fill:#401A49;" d="M327.383,267.77h-50.95c-0.247,0-0.446-0.199-0.446-0.446c0-0.247,0.199-0.446,0.446-0.446h50.95      c0.247,0,0.446,0.199,0.446,0.446C327.829,267.571,327.63,267.77,327.383,267.77z"/>
				<path style="fill:#401A49;" d="M327.383,275.407h-50.95c-0.247,0-0.446-0.199-0.446-0.445c0-0.247,0.199-0.446,0.446-0.446      h50.95c0.247,0,0.446,0.199,0.446,0.446C327.829,275.209,327.63,275.407,327.383,275.407z"/>
				<path style="fill:#401A49;" d="M318.379,282.817h-33.967c-0.247,0-0.446-0.199-0.446-0.446c0-0.247,0.199-0.446,0.446-0.446      h33.967c0.247,0,0.446,0.199,0.446,0.446C318.825,282.618,318.626,282.817,318.379,282.817z"/>
			</g>
		</g>
		<path style="fill:#FFFFFF;" d="M337.05,160.889c1.16,0.674,2.488,1.167,3.823,1.028c1.986-0.207,3.624-1.821,4.331-3.689    c0.706-1.868,0.621-3.943,0.285-5.912c-0.915-5.372-8.207-21.157-15.78-14.425C323.705,143.229,331.618,157.731,337.05,160.889z"/>
		<path style="fill:#FFFFFF;" d="M339.791,174.291c-0.508,3.323,0.426,6.842,2.514,9.476c0.832,1.049,1.873,1.983,3.14,2.416    c2.966,1.015,6.317-1.141,7.524-4.034c1.207-2.893,0.728-6.219-0.234-9.202c-0.594-1.843-1.394-3.675-2.756-5.052    C345.093,162.956,340.527,169.476,339.791,174.291z"/>
		<g>
			<path style="fill:#401A49;" d="M8.803,231.229l57.321,161.586h261.898L274.16,230.076     C274.16,230.076,9.297,231.723,8.803,231.229z"/>
			<path style="fill:#401A49;" d="M415.489,390.831l-8.903,11.864H84.399l-18.27-9.87c0-1.006,158.007-1.568,261.493-1.8     C378.02,390.889,415.489,390.831,415.489,390.831z"/>
			<path style="opacity:0.29;fill:#8F8FEF;" d="M415.489,390.831l-8.903,11.864h-73.41l-5.555-11.671     C378.02,390.889,415.489,390.831,415.489,390.831z"/>
			<path style="fill:#FFE5D2;" d="M66.129,393.067c-0.134,0-0.243-0.109-0.243-0.243c0-0.134,0.109-0.243,0.243-0.243l261.892-0.01     c0.134,0,0.243,0.109,0.243,0.243c0,0.134-0.109,0.243-0.243,0.243L66.129,393.067z"/>
			<path style="fill:#FFE5D2;" d="M158.282,336.231c-11.985,0-21.738-9.753-21.738-21.737c0-11.987,9.753-21.74,21.738-21.74     c11.985,0,21.737,9.753,21.737,21.74C180.019,326.478,170.267,336.231,158.282,336.231z M158.282,293.239     c-11.719,0-21.252,9.535-21.252,21.254c0,11.719,9.533,21.252,21.252,21.252c11.719,0,21.252-9.533,21.252-21.252     C179.534,302.774,170.001,293.239,158.282,293.239z"/>
		</g>
		<g>
			<g>
				<path style="fill:#FFE5D2;" d="M163.653,178.34H25.113c-5.844,0-10.582,5.305-10.582,11.848v18.823      c0,6.544,4.738,11.849,10.582,11.849h116.195l15.666,17.143l-4.561-17.143h11.24c5.844,0,10.582-5.305,10.582-11.849v-18.823      C174.234,183.645,169.497,178.34,163.653,178.34z"/>
			</g>
			<g>
				<g>
					<polygon style="fill:#FFA766;" points="38.515,188.78 41.618,195.067 48.556,196.075 43.535,200.968 44.72,207.878        38.515,204.616 32.309,207.878 33.494,200.968 28.474,196.075 35.412,195.067      "/>
				</g>
				<g>
					<polygon style="fill:#FFA766;" points="65.631,188.78 68.734,195.067 75.672,196.075 70.651,200.968 71.837,207.878        65.631,204.616 59.425,207.878 60.611,200.968 55.59,196.075 62.528,195.067      "/>
				</g>
				<g>
					<polygon style="fill:#FFA766;" points="92.747,188.78 95.85,195.067 102.788,196.075 97.768,200.968 98.953,207.878        92.747,204.616 86.542,207.878 87.727,200.968 82.707,196.075 89.644,195.067      "/>
				</g>
				<g>
					<polygon style="fill:#FFA766;" points="119.864,188.78 122.966,195.067 129.904,196.075 124.884,200.968 126.069,207.878        119.864,204.616 113.658,207.878 114.843,200.968 109.823,196.075 116.761,195.067      "/>
				</g>
				<g>
					<polygon style="fill:#FFA766;" points="146.98,188.78 150.083,195.067 157.021,196.075 152,200.968 153.185,207.878        146.98,204.616 140.774,207.878 141.959,200.968 136.939,196.075 143.877,195.067      "/>
				</g>
			</g>
		</g>
		<g>
			<g>
				<g>
					<path style="fill:#FFF5EE;" d="M280.71,349.065l14.648-0.317l11.369-0.264v3.411c0,4.706,3.834,8.514,8.567,8.487h1.111       l11.104-0.106l9.889-0.106l65.598-0.582l17.926-0.159c4.68-0.026,8.461-3.86,8.408-8.566l-0.476-47.407l-0.238-23.743       c-0.053-5.896-4.891-10.629-10.788-10.523l-11.501,0.185l-78.819,1.295l-11.104,0.185l-0.608,0.026h-0.714       c-4.653,0.053-8.355,3.834-8.355,8.487v53.436l-11.369,7.112L280.71,349.065z"/>
				</g>
			</g>
			<g>
				<g>
					<rect x="327.569" y="289.474" style="fill:#FFD0C4;" width="81.902" height="52.728"/>
					<path style="fill:#FFFFFF;" d="M369.858,318.531c-0.071,0-0.14-0.021-0.201-0.061l-42.289-28.7       c-0.165-0.111-0.207-0.335-0.096-0.498c0.109-0.165,0.337-0.209,0.498-0.096l42.082,28.559l39.408-28.553       c0.161-0.117,0.385-0.082,0.502,0.079c0.115,0.161,0.079,0.385-0.079,0.502l-39.613,28.7       C370.007,318.508,369.931,318.531,369.858,318.531z"/>
					<path style="fill:#FFFFFF;" d="M327.569,342.559c-0.103,0-0.203-0.042-0.274-0.128c-0.128-0.151-0.109-0.377,0.044-0.504       l34.659-29.174c0.151-0.128,0.377-0.111,0.504,0.044c0.128,0.151,0.109,0.376-0.044,0.504l-34.66,29.174       C327.732,342.532,327.651,342.559,327.569,342.559z"/>
					<path style="fill:#FFFFFF;" d="M409.472,342.559c-0.086,0-0.174-0.029-0.241-0.092l-32.22-29.342       c-0.146-0.134-0.157-0.36-0.025-0.506c0.136-0.146,0.364-0.159,0.506-0.025l32.22,29.342c0.146,0.134,0.157,0.36,0.025,0.506       C409.666,342.519,409.568,342.559,409.472,342.559z"/>
				</g>
			</g>
			<g>
				<path style="fill:#8F8FEF;" d="M418.799,291.359c0,6.814-5.524,12.338-12.338,12.338c-6.814,0-12.337-5.524-12.337-12.338      s5.524-12.338,12.337-12.338C413.276,279.022,418.799,284.545,418.799,291.359z"/>
				<g>
					<path style="fill:#FFE5D2;" d="M400.806,294.423c0-1.928,0-3.695-0.03-7.754c-0.465,0.23-1.042,0.762-1.596,0.762       c-0.496,0-0.836-0.34-0.836-0.82c0-0.333,0.193-0.606,0.591-0.806c0.481-0.244,0.968-0.532,1.338-0.753       c0.591-0.363,1.042-0.599,1.397-0.599c0.57,0,0.85,0.525,0.85,0.953c0,0.142-0.066,0.259-0.066,0.392       c-0.015,0.836-0.022,2.018-0.022,3.215c0,1.966-0.096,5.449,0.103,6.542c0.022,0.133,0.044,0.259,0.044,0.392       c0,0.437-0.177,0.799-0.872,0.799c-0.776,0-0.998-0.288-0.998-0.799C400.709,295.473,400.806,295.009,400.806,294.423z"/>
					<path style="fill:#FFE5D2;" d="M405.836,290.632c0-3.593,1.707-6.105,4.383-6.105c2.78,0,4.323,2.512,4.323,6.105       c0,3.385-1.478,6.186-4.323,6.186C407.337,296.818,405.836,294.018,405.836,290.632z M412.873,290.632       c0-2.44-0.813-4.591-2.617-4.591c-1.802,0-2.742,1.863-2.742,4.591c0,2.291,0.813,4.663,2.742,4.663       C412.148,295.295,412.873,292.923,412.873,290.632z"/>
				</g>
			</g>
		</g>
	</g>
</g>















</svg>
