<?xml version="1.0" encoding="UTF-8"?>
<!-- Generator: Adobe Illustrator 25.2.1, SVG Export Plug-In . SVG Version: 6.00 Build 0)  -->
<svg xmlns="http://www.w3.org/2000/svg" xmlns:xlink="http://www.w3.org/1999/xlink" version="1.1" id="Capa_1" x="0px" y="0px" viewBox="0 0 512 512" style="enable-background:new 0 0 512 512;" xml:space="preserve" width="512" height="512">
<g>
	<path style="fill:#FFFFFF;" d="M511.573,243.17c-1.38-6.664-3.461-14.559-8.448-22.581c-4.451-7.161-10.958-13.188-18.923-17.763   c10.17-8.168,16.707-20.682,16.707-34.711c0-24.553-19.975-44.527-44.526-44.527c-5.162,0-10.099,0.928-14.713,2.55V109.8   c0-13.888-11.299-25.187-25.187-25.187H295.567c-13.888,0-25.187,11.299-25.187,25.187v17.635c0,3.546,0.736,6.924,2.066,9.987   h-41.713l-1.278-0.011l-0.006-1.009V124.09c1.053-4.004,0.362-8.412-2.245-11.93c-2.659-3.667-6.954-5.856-11.484-5.856   c-1.212,0-2.417,0.159-3.578,0.46H82.49c-1.159-0.302-2.358-0.458-3.56-0.458c-4.46,0-8.714,2.133-11.442,5.791   c-2.248,3.06-3.167,6.812-2.588,10.565c0.072,0.468,0.167,0.931,0.283,1.385v39.434c-18.079,7.001-30.595,24.508-30.595,44.777   c0,25.933,20.655,47.131,46.379,48.008v8.06c-6.386,1.584-12.265,3.934-17.01,6.863c-7.421,4.595-13.268,10.891-17.157,18.266   c-0.247-0.073-0.495-0.143-0.743-0.211c-3.264-0.881-6.663-1.328-10.107-1.328c-10.211,0-20.228,3.951-27.468,10.822   c-1.602,1.516-3.087,3.19-4.415,4.975c-4.658,6.26-5.369,14.49-1.858,21.478c3.528,7.022,10.594,11.385,18.457,11.385l60.3-0.044   v21.823c0,13.888,11.299,25.187,25.187,25.187h57.22c8.014,17.793,25.909,29.815,46.109,29.815   c20.202,0,38.095-12.021,46.107-29.815h35.991c12.873,20.673,23.776,37.422,23.896,37.606c2.563,3.934,6.918,6.24,11.509,6.24   c0.778,0,1.561-0.066,2.345-0.201l81.065-14.03c3.846-0.665,7.227-2.936,9.3-6.244c2.073-3.308,2.638-7.341,1.559-11.093   c-0.022-0.082-1.556-5.404-4.009-13.704c9.789-3.457,16.822-12.802,16.822-23.759v-90.419l57.325-0.042   c6.227-0.004,12.052-2.778,15.985-7.609C511.296,255.474,512.825,249.239,511.573,243.17z"/>
	<g>
		
			<ellipse transform="matrix(0.9966 -0.083 0.083 0.9966 -16.8637 7.5014)" style="fill:#FFD0C4;" cx="81.845" cy="206.699" rx="34.297" ry="34.297"/>
		<circle style="fill:#8F8FEF;" cx="208.704" cy="361.229" r="36.83"/>
		<g>
			<g>
				<path style="fill:#401A49;" d="M413.987,368.245H99.491c-3.073,0-5.564-2.491-5.564-5.564V155.167      c0-3.073,2.491-5.564,5.564-5.564h314.496c3.073,0,5.564,2.491,5.564,5.564V362.68      C419.552,365.753,417.06,368.245,413.987,368.245z"/>
				<rect x="105.034" y="161.879" style="fill:#FFE5D2;" width="294.446" height="193.504"/>
				<path style="fill:#FFE5D2;" d="M410.588,269.733c-3.919,0-7.107-3.189-7.107-7.108c0-3.919,3.188-7.107,7.107-7.107      c3.919,0,7.107,3.188,7.107,7.107C417.694,266.544,414.507,269.733,410.588,269.733z M410.588,256.091      c-3.603,0-6.534,2.932-6.534,6.534c0,3.603,2.931,6.535,6.534,6.535c3.603,0,6.534-2.931,6.534-6.535      C417.122,259.023,414.19,256.091,410.588,256.091z"/>
				<g>
					<path style="fill:#FFA766;" d="M374.147,342.017H129.392c-0.474,0-0.859-0.385-0.859-0.859V200.853       c0-0.474,0.385-0.859,0.859-0.859s0.859,0.385,0.859,0.859v139.447h243.896c0.474,0,0.859,0.385,0.859,0.859       C375.006,341.633,374.621,342.017,374.147,342.017z"/>
					<path style="fill:#FFA766;" d="M155.116,341.055c-0.158,0-0.286-0.129-0.286-0.286V204.751c0-0.158,0.129-0.286,0.286-0.286       s0.286,0.129,0.286,0.286v136.018C155.402,340.926,155.273,341.055,155.116,341.055z"/>
					<path style="fill:#FFA766;" d="M188.633,341.055c-0.158,0-0.286-0.129-0.286-0.286V204.751c0-0.158,0.129-0.286,0.286-0.286       c0.158,0,0.286,0.129,0.286,0.286v136.018C188.919,340.926,188.79,341.055,188.633,341.055z"/>
					<path style="fill:#FFA766;" d="M222.15,341.055c-0.158,0-0.286-0.129-0.286-0.286V204.751c0-0.158,0.129-0.286,0.286-0.286       c0.158,0,0.286,0.129,0.286,0.286v136.018C222.436,340.926,222.307,341.055,222.15,341.055z"/>
					<path style="fill:#FFA766;" d="M255.668,341.055c-0.158,0-0.286-0.129-0.286-0.286V204.751c0-0.158,0.129-0.286,0.286-0.286       c0.158,0,0.286,0.129,0.286,0.286v136.018C255.954,340.926,255.825,341.055,255.668,341.055z"/>
					<path style="fill:#FFA766;" d="M255.668,341.055c-0.158,0-0.286-0.129-0.286-0.286V204.751c0-0.158,0.129-0.286,0.286-0.286       c0.158,0,0.286,0.129,0.286,0.286v136.018C255.954,340.926,255.825,341.055,255.668,341.055z"/>
					<path style="fill:#FFA766;" d="M289.185,341.055c-0.158,0-0.286-0.129-0.286-0.286V204.751c0-0.158,0.129-0.286,0.286-0.286       c0.158,0,0.286,0.129,0.286,0.286v136.018C289.471,340.926,289.342,341.055,289.185,341.055z"/>
					<path style="fill:#FFA766;" d="M322.702,341.055c-0.158,0-0.286-0.129-0.286-0.286V204.751c0-0.158,0.129-0.286,0.286-0.286       c0.158,0,0.286,0.129,0.286,0.286v136.018C322.988,340.926,322.86,341.055,322.702,341.055z"/>
					<path style="fill:#FFA766;" d="M356.22,341.055c-0.158,0-0.286-0.129-0.286-0.286V204.751c0-0.158,0.129-0.286,0.286-0.286       c0.158,0,0.286,0.129,0.286,0.286v136.018C356.506,340.926,356.378,341.055,356.22,341.055z"/>
				</g>
				<g>
					<path style="fill:#8F8FEF;" d="M154.336,291.845c-0.171,0-0.34-0.076-0.452-0.222c-0.194-0.249-0.149-0.609,0.101-0.803       l67.814-52.615c0.197-0.153,0.471-0.159,0.676-0.019l66.663,46.122l78.781-70.631c0.234-0.21,0.598-0.192,0.808,0.044       c0.211,0.235,0.192,0.597-0.044,0.808l-79.117,70.932c-0.194,0.178-0.488,0.195-0.707,0.045l-66.691-46.14l-67.482,52.358       C154.582,291.806,154.459,291.845,154.336,291.845z"/>
					<g>
						<path style="fill:#8F8FEF;" d="M158.623,291.466c0,2.26-1.832,4.092-4.092,4.092c-2.26,0-4.092-1.832-4.092-4.092        c0-2.26,1.832-4.092,4.092-4.092C156.791,287.374,158.623,289.206,158.623,291.466z"/>
						<circle style="fill:#8F8FEF;" cx="221.858" cy="239.729" r="4.092"/>
						<path style="fill:#8F8FEF;" d="M293.179,284.354c0,2.26-1.832,4.092-4.092,4.092c-2.26,0-4.092-1.832-4.092-4.092        c0-2.26,1.832-4.092,4.092-4.092C291.347,280.262,293.179,282.094,293.179,284.354z"/>
						<path style="fill:#8F8FEF;" d="M371.711,214.006c0,2.26-1.832,4.092-4.092,4.092s-4.092-1.832-4.092-4.092        c0-2.26,1.832-4.092,4.092-4.092S371.711,211.746,371.711,214.006z"/>
					</g>
				</g>
				<g>
					<rect x="343.358" y="175.13" style="fill:#8F8FEF;" width="16.759" height="16.759"/>
					<rect x="317.636" y="175.13" style="fill:#FFA766;" width="16.759" height="16.759"/>
					<rect x="367.912" y="175.13" style="fill:#FF899A;" width="16.759" height="16.759"/>
				</g>
			</g>
			<path style="opacity:0.25;fill:#FFF5EE;" d="M105.034,161.879v193.504L399.48,161.879     C399.48,161.879,105.034,162.464,105.034,161.879z"/>
		</g>
		<path style="fill:#FF899A;" d="M329.188,411.574c-1.809,0.313-3.621-0.471-4.618-2.012    C313.874,393.026,254.599,300.739,259.565,294c5.456-7.405,38.974,33.323,38.974,33.323s-45.209-82.429-37.804-88.665    c7.405-6.236,42.481,53.394,42.481,53.394s5.261-13.056,22.994-7.015c0,0,2.738-6.549,12.082-7.795    c8.769-1.169,12.861,5.456,12.861,5.456s7.015-7.405,14.81-4.287c6.83,2.732,33.412,92.549,39.885,114.733    c0.765,2.623-0.925,5.323-3.617,5.789L329.188,411.574z"/>
		<g>
			<path style="fill:#8F8FEF;" d="M415.703,96.793H294.787c-6.323,0-11.449,5.126-11.449,11.449v17.635     c0,6.323,5.126,11.449,11.449,11.449h74.171l-6.503,22.605l19.892-22.605h33.356c6.323,0,11.448-5.126,11.448-11.449v-17.635     C427.151,101.919,422.026,96.793,415.703,96.793z"/>
			<g>
				<path style="fill:#FFF5EE;" d="M331.276,116.67c0,2.798-2.268,5.066-5.067,5.066c-2.798,0-5.066-2.268-5.066-5.066      c0-2.798,2.268-5.067,5.066-5.067C329.008,111.603,331.276,113.871,331.276,116.67z"/>
				<path style="fill:#FFF5EE;" d="M361.286,116.67c0,2.798-2.268,5.066-5.066,5.066c-2.798,0-5.067-2.268-5.067-5.066      c0-2.798,2.268-5.067,5.067-5.067C359.018,111.603,361.286,113.871,361.286,116.67z"/>
				<path style="fill:#FFF5EE;" d="M389.737,116.67c0,2.798-2.268,5.066-5.067,5.066c-2.798,0-5.066-2.268-5.066-5.066      c0-2.798,2.268-5.067,5.066-5.067C387.468,111.603,389.737,113.871,389.737,116.67z"/>
			</g>
		</g>
		<g>
			<rect x="93.342" y="146.095" style="opacity:0.08;fill:#401A49;" width="127.444" height="64.891"/>
			<g>
				<rect x="78.142" y="118.943" style="fill:#FFF5EE;" width="136.791" height="84.638"/>
				<path style="fill:#8F8FEF;" d="M146.861,169.771c-0.094,0-0.189-0.03-0.268-0.088l-68.715-50.379      c-0.202-0.149-0.246-0.433-0.097-0.636c0.151-0.202,0.435-0.243,0.636-0.097l68.444,50.181l67.81-50.18      c0.201-0.15,0.484-0.108,0.636,0.095c0.15,0.202,0.107,0.486-0.095,0.636l-68.079,50.379      C147.051,169.741,146.956,169.771,146.861,169.771z"/>
				<path style="fill:#8F8FEF;" d="M214.94,204.028c-0.09,0-0.182-0.027-0.261-0.082l-58.735-41.173      c-0.205-0.145-0.255-0.428-0.111-0.634c0.146-0.204,0.432-0.253,0.634-0.112l58.735,41.173c0.205,0.145,0.255,0.428,0.111,0.634      C215.224,203.96,215.082,204.028,214.94,204.028z"/>
				<path style="fill:#8F8FEF;" d="M78.147,204.028c-0.144,0-0.285-0.068-0.374-0.196c-0.143-0.206-0.092-0.489,0.115-0.633      l59.273-41.173c0.203-0.143,0.489-0.092,0.633,0.115c0.143,0.206,0.092,0.489-0.115,0.633l-59.273,41.173      C78.328,204.001,78.236,204.028,78.147,204.028z"/>
			</g>
		</g>
		<path style="fill:#FFF5EE;" d="M490.604,252.596l-120.742,0.089c-5.62,0.004-8.922-6.416-5.567-10.925    c0.851-1.144,1.798-2.214,2.834-3.194c6.402-6.077,16.045-8.509,24.554-6.212c4.619,1.269,8.806,3.754,12.695,6.591    c0.837-10.912,6.726-20.475,16.018-26.228c9.319-5.753,24.403-8.222,35.207-6.602c13.506,2.026,27.777,8.425,35.076,20.169    c3.599,5.791,5.346,11.755,6.66,18.111C498.214,248.631,494.93,252.593,490.604,252.596z"/>
		<path style="fill:#FFF5EE;" d="M140.62,321.19l-120.742,0.089c-5.62,0.004-8.922-6.416-5.567-10.925    c0.851-1.144,1.798-2.215,2.834-3.194c6.402-6.078,16.045-8.509,24.553-6.212c4.619,1.269,8.806,3.754,12.696,6.591    c0.837-10.913,6.726-20.475,16.018-26.228c9.319-5.753,24.402-8.222,35.207-6.602c13.505,2.026,27.777,8.426,35.076,20.169    c3.599,5.791,5.346,11.754,6.66,18.111C148.23,317.224,144.946,321.187,140.62,321.19z"/>
		<circle style="fill:#FFA766;" cx="455.602" cy="166.556" r="30.789"/>
	</g>
</g>















</svg>
