<?xml version="1.0" encoding="UTF-8"?>
<!-- Generator: Adobe Illustrator 25.2.1, SVG Export Plug-In . SVG Version: 6.00 Build 0)  -->
<svg xmlns="http://www.w3.org/2000/svg" xmlns:xlink="http://www.w3.org/1999/xlink" version="1.1" id="Capa_1" x="0px" y="0px" viewBox="0 0 512 512" style="enable-background:new 0 0 512 512;" xml:space="preserve" width="512" height="512">
<g>
	<g>
		<path style="fill:#FFFFFF;" d="M436.967,3.266h-75.966c-23.164,0-42.809,15.358-49.288,36.425l-24.836-6.397    c-1.715-0.442-3.454-0.78-5.203-1.013c-1.316-4.74-4.424-8.735-8.55-11.207c0.167-6.183-2.484-12.24-7.539-16.417    C261.922,1.653,257.293,0,252.553,0c-4.1,0-8.068,1.21-11.395,3.45c-1.845,1.23-3.989,1.945-6.207,2.07    c-5.491,0.312-10.524,2.745-14.182,6.85c-3.569,4.007-5.404,9.143-5.194,14.435c-6.569,3.487-13.842,5.609-21.06,5.979    c-5.494,0.284-10.542,2.69-14.222,6.776c-1.883,2.092-3.282,4.498-4.168,7.068c-3.62,3.457-5.886,8.319-5.886,13.719v54.485    l-44.765-13.194c-1.779-0.524-3.584-0.776-5.367-0.776c-6.785,0-13.237,3.655-16.638,9.845L36.598,232.44    c-2.75,5.007-3.099,10.987-0.951,16.282c2.151,5.293,6.569,9.337,12.032,11.01l70.438,21.564l-1.823,3.471    c-7.564-2.773-15.607-4.229-23.742-4.229c-38.085,0-69.069,30.983-69.069,69.068c0,22.875,11.519,43.94,29.64,56.636    c-3.328,9.785-3.152,20.505,0.639,30.278c4.629,11.933,14.185,21.276,26.223,25.633l130.38,47.197    c4.857,1.758,9.927,2.65,15.075,2.65c16.605,0,31.67-9.155,39.318-23.895l31.091-59.91c2.095,0.797,4.359,1.252,6.734,1.252    h89.938c10.484,0,18.984-8.5,18.984-18.984v-22.081c0-3.327-0.862-6.451-2.366-9.171c21.802-14.929,36.14-39.998,36.14-68.358    c0-4.335-0.349-8.664-1.044-12.962c14.621-12.962,23.279-31.714,23.279-51.684c0-29.188-18.199-54.206-43.847-64.3l26.251-50.586    c1.879-3.618,3.232-7.428,4.048-11.332c20.102-7.038,34.553-26.198,34.553-48.67V54.816    C488.518,26.391,465.393,3.266,436.967,3.266z"/>
	</g>
	<g>
		<g>
			
				<ellipse transform="matrix(0.7071 -0.7071 0.7071 0.7071 -220.6252 167.4372)" style="fill:#FF899A;" cx="91.802" cy="350.037" rx="50.315" ry="50.314"/>
		</g>
		<g>
			
				<ellipse transform="matrix(0.9239 -0.3827 0.3827 0.9239 -63.8225 171.4666)" style="fill:#FFD0C4;" cx="399.099" cy="246.162" rx="50.314" ry="50.314"/>
		</g>
		<g>
			<g>
				
					<ellipse transform="matrix(0.9571 -0.2898 0.2898 0.9571 -74.5793 118.5304)" style="fill:#FFF5EE;" cx="362.965" cy="311.105" rx="63.32" ry="63.32"/>
			</g>
			<g>
				<path style="fill:#8F8FEF;" d="M362.965,375.216c-35.352,0-64.113-28.76-64.113-64.111c0-35.352,28.761-64.112,64.113-64.112      c35.35,0,64.111,28.76,64.111,64.112C427.076,346.456,398.315,375.216,362.965,375.216z M362.965,248.576      c-34.478,0-62.528,28.051-62.528,62.53c0,34.478,28.051,62.529,62.528,62.529c34.478,0,62.526-28.051,62.526-62.529      C425.491,276.626,397.443,248.576,362.965,248.576z"/>
			</g>
			<g>
				<path style="fill:#8F8FEF;" d="M399.502,313.365h-37.931c-0.438,0-0.793-0.354-0.793-0.791v-27.777      c0-0.437,0.355-0.791,0.793-0.791c0.437,0,0.792,0.354,0.792,0.791v26.986h37.139c0.437,0,0.792,0.354,0.792,0.791      C400.294,313.011,399.939,313.365,399.502,313.365z"/>
			</g>
		</g>
		<g>
			<path style="fill:#401A49;" d="M71.808,409.439L253.403,63.543c5.484-10.446,17.433-15.747,28.858-12.804l135.396,34.883     c15.832,4.079,23.756,21.825,16.225,36.336L247.872,480.385c-5.876,11.322-19.23,16.538-31.225,12.197L85.667,445.168     C71.172,439.921,64.643,423.087,71.808,409.439z"/>
		</g>
		<g>
			<path style="fill:#FFF5EE;" d="M272.45,58.005l140.071,33.588c5.988,1.436,9.065,8.087,6.284,13.58L234.096,469.954     c-2.168,4.283-7.183,6.285-11.705,4.676L85.603,425.93c-5.448-1.939-7.929-8.242-5.266-13.374l181.425-349.67     C263.78,58.996,268.189,56.983,272.45,58.005z"/>
		</g>
		<g>
			<path style="fill:#401A49;" d="M294.142,56.806l-5.712,11.859c-2.586,5.369,0.332,11.769,6.082,13.338l71.132,19.4     c4.174,1.138,8.591-0.676,10.76-4.42l9.17-15.831L294.142,56.806z"/>
		</g>
		<g>
			<path style="fill:#FFF5EE;" d="M398.397,179.566c-0.514,0-1.034-0.11-1.527-0.345l-2.38-1.132     c-1.781-0.844-2.542-2.977-1.701-4.756l14.431-30.584l0,0c0.795-1.676,2.772-2.482,4.508-1.816l2.555,0.974     c0.93,0.354,1.675,1.085,2.046,2.006c0.371,0.923,0.337,1.969-0.09,2.869l-14.606,30.742     C401.021,178.812,399.735,179.566,398.397,179.566z M407.941,143.089l-14.431,30.584c-0.657,1.384-0.064,3.043,1.32,3.699     l2.38,1.132c1.391,0.661,3.048,0.065,3.708-1.32l14.606-30.741c0.337-0.71,0.36-1.503,0.066-2.232     c-0.292-0.727-0.856-1.281-1.588-1.561l-2.555-0.974C410.106,141.169,408.556,141.782,407.941,143.089L407.941,143.089z"/>
		</g>
		<g>
			<g>
				<polygon style="fill:#FFA766;" points="52.308,241.514 119.482,119.222 305.503,174.052 238.903,298.64     "/>
			</g>
			<g>
				<g>
					<path style="fill:#8F8FEF;" d="M228.783,220.504c-7.106,22.325-28.016,38.518-52.73,38.518       c-30.594,0-55.403-24.809-55.403-55.403s24.809-55.403,55.403-55.403c6.194,0,12.169,1.006,17.734,2.893l-21.224,48.485       L228.783,220.504z"/>
				</g>
				<g>
					<path style="fill:#FFD0C4;" d="M180.059,196.93l20.338-41.746c0,0,21.408,4.817,28.366,22.478s-0.535,36.394-0.535,36.394       L180.059,196.93z"/>
				</g>
			</g>
		</g>
		<g>
			<g>
				<polygon style="fill:#FFD0C4;" points="310.102,207.344 322.275,182.998 349.461,191.519 338.505,216.271     "/>
			</g>
			<g>
				<polygon style="fill:#FFD0C4;" points="293.33,243.457 305.503,219.111 332.689,227.632 321.734,252.384     "/>
			</g>
			<g>
				<polygon style="fill:#FFD0C4;" points="274.192,281.395 286.365,257.05 313.551,265.571 302.595,290.322     "/>
			</g>
			<g>
				<path style="fill:#401A49;" d="M324.976,207.117c-0.138,0-0.273-0.028-0.403-0.086c-0.305-0.136-0.522-0.417-0.575-0.747      l-1.349-8.425c-0.085-0.539,0.281-1.047,0.822-1.134c0.567-0.076,1.047,0.285,1.134,0.822l1.108,6.928l17.258-11.142      c0.456-0.292,1.071-0.168,1.37,0.296c0.297,0.459,0.164,1.072-0.294,1.369l-18.534,11.963      C325.35,207.064,325.164,207.117,324.976,207.117z"/>
			</g>
			<g>
				<path style="fill:#401A49;" d="M308.004,242.911c-0.13,0-0.263-0.027-0.384-0.081c-0.292-0.13-0.496-0.398-0.546-0.713      l-1.283-8.022c-0.082-0.514,0.268-0.997,0.782-1.08c0.53-0.09,0.997,0.269,1.079,0.783l1.055,6.595l16.44-10.611      c0.437-0.281,1.02-0.159,1.304,0.281c0.281,0.437,0.157,1.022-0.281,1.304l-17.654,11.393      C308.361,242.86,308.181,242.911,308.004,242.911z"/>
			</g>
			<g>
				<path style="fill:#401A49;" d="M287.167,282.136c-0.13,0-0.26-0.027-0.382-0.081c-0.294-0.13-0.501-0.399-0.551-0.715      l-1.275-8.097c-0.079-0.516,0.27-0.998,0.787-1.079c0.504-0.082,0.997,0.27,1.079,0.784l1.047,6.652l16.302-10.694      c0.435-0.285,1.018-0.163,1.307,0.27c0.286,0.436,0.164,1.022-0.273,1.307l-17.524,11.497      C287.527,282.085,287.347,282.136,287.167,282.136z"/>
			</g>
		</g>
		<g>
			<g>
				<g>
					<rect x="188.914" y="59.449" style="fill:#F05D6A;" width="19.39" height="67.149"/>
				</g>
				<g>
					<rect x="216.128" y="47.697" style="fill:#FFA766;" width="19.39" height="78.9"/>
				</g>
				<g>
					<rect x="244.023" y="36.366" style="fill:#FF899A;" width="19.39" height="90.231"/>
				</g>
			</g>
			<g>
				<g>
					<path style="fill:#401A49;" d="M195.294,53.965c-0.838,0-1.534-0.656-1.579-1.5c-0.043-0.872,0.628-1.614,1.5-1.659       c20.855-1.066,41.339-12.296,53.454-29.31c0.506-0.708,1.489-0.881,2.205-0.37c0.71,0.506,0.877,1.492,0.371,2.204       c-12.663,17.781-34.072,29.518-55.871,30.632C195.347,53.963,195.321,53.965,195.294,53.965z"/>
				</g>
				<g>
					<path style="fill:#401A49;" d="M249.729,36.036c-0.829,0-1.527-0.65-1.574-1.49c-0.215-3.688,0.284-7.618,1.452-11.553       c-4.193,2.083-8.786,3.305-13.487,3.573c-0.885,0.02-1.617-0.616-1.667-1.488c-0.05-0.872,0.615-1.618,1.487-1.668       c5.613-0.318,11.049-2.133,15.721-5.247c0.581-0.388,1.346-0.35,1.882,0.095c0.538,0.443,0.723,1.185,0.453,1.827       c-2.02,4.838-2.947,9.776-2.688,14.279c0.051,0.871-0.615,1.618-1.484,1.67C249.792,36.034,249.76,36.036,249.729,36.036z"/>
				</g>
			</g>
		</g>
		<g>
			<g>
				<path style="fill:#8F8FEF;" d="M437.797,21.177h-76.315c-18.068,0-32.716,14.647-32.716,32.715v16.579      c0,18.068,14.647,32.715,32.716,32.715h19.941l-4.311,29.362l20.545-29.362h40.14c18.068,0,32.715-14.647,32.715-32.715V53.892      C470.513,35.824,455.866,21.177,437.797,21.177z"/>
			</g>
			<g>
				<g>
					<g>
						<path style="fill:#FFD2A7;" d="M422.17,60.767v22.416h-44.85V60.767c0-12.388,10.046-22.435,22.435-22.435        c6.194,0,11.784,2.512,15.844,6.572C419.659,48.964,422.17,54.573,422.17,60.767z"/>
					</g>
					<g>
						<path style="fill:#401A49;" d="M377.32,82.276c0.189,0,0.396-0.019,0.661,0l-0.661,0.019l-0.604,0.038        C376.716,82.314,376.924,82.295,377.32,82.276z"/>
					</g>
					<g>
						<path style="fill:#FFD2A7;" d="M425.542,85.83h-53.519c-0.932,0-1.688-0.756-1.688-1.688l0,0c0-0.932,0.755-1.688,1.072-1.786        h53.519c1.548,0.098,2.304,0.854,2.304,1.786l0,0C427.23,85.075,426.474,85.83,425.542,85.83z"/>
					</g>
					<g>
						<path style="fill:#FFD2A7;" d="M405.292,88.241c0,2.929-2.374,5.304-5.303,5.304c-2.929,0-5.304-2.375-5.304-5.304        s2.374-5.304,5.304-5.304C402.917,82.937,405.292,85.312,405.292,88.241z"/>
					</g>
					<g>
						<path style="fill:#FFD2A7;" d="M401.796,41.11h-4.701v-6.087c0-1.298,1.052-2.351,2.351-2.351l0,0        c1.298,0,2.35,1.052,2.35,2.351V41.11z"/>
					</g>
				</g>
				<g>
					<path style="fill:#401A49;" d="M422.295,82.668h-44.975c-0.204,0-0.371-0.167-0.371-0.372c0-0.205,0.167-0.372,0.371-0.372       h44.975c0.204,0,0.371,0.167,0.371,0.372C422.666,82.501,422.499,82.668,422.295,82.668z"/>
				</g>
			</g>
		</g>
		<g>
			<g>
				<rect x="285.485" y="389.395" style="fill:#FFA766;" width="27.096" height="27.096"/>
			</g>
			<g>
				<rect x="328.443" y="389.395" style="fill:#FF899A;" width="27.096" height="27.096"/>
			</g>
			<g>
				<rect x="368.757" y="389.395" style="fill:#FFD2A7;" width="27.096" height="27.096"/>
			</g>
		</g>
		<g>
			<g>
				<path style="fill:#8F8FEF;" d="M140.916,336.479l1.552-3.104c3.374-6.748,11.149-10.048,18.347-7.788l60.068,18.862      c9.182,2.884,13.484,13.402,8.953,21.894l-8.607,16.131l-71.563-24.591C140.877,354.863,136.76,344.792,140.916,336.479z"/>
			</g>
			<g>
				<g>
					<path style="fill:#FFF5EE;" d="M174.079,348.443c-0.711,2.518-3.318,3.985-5.824,3.278c-2.506-0.707-3.961-3.322-3.251-5.839       c0.711-2.518,3.318-3.985,5.824-3.278C173.335,343.311,174.79,345.926,174.079,348.443z"/>
				</g>
				<g>
					<path style="fill:#FFF5EE;" d="M187.691,352.286c-0.711,2.518-3.318,3.985-5.824,3.278c-2.506-0.707-3.961-3.322-3.251-5.84       c0.71-2.518,3.318-3.985,5.824-3.278C186.947,347.154,188.402,349.768,187.691,352.286z"/>
				</g>
				<g>
					<path style="fill:#FFF5EE;" d="M201.036,356.053c-0.71,2.518-3.318,3.985-5.824,3.278c-2.506-0.707-3.961-3.322-3.251-5.839       c0.711-2.518,3.318-3.985,5.824-3.278C200.292,350.921,201.747,353.535,201.036,356.053z"/>
				</g>
			</g>
			<g>
				<path style="fill:#F05D6A;" d="M232.344,412.922l0.742-3.389c1.613-7.37-2.363-14.822-9.384-17.585l-58.587-23.054      c-8.956-3.524-18.91,1.958-20.719,11.411l-3.435,17.958l71.13,25.816C220.827,427.25,230.357,422,232.344,412.922z"/>
			</g>
			<g>
				<g>
					<path style="fill:#FFF5EE;" d="M196.216,399.899c-0.851,2.474,0.455,5.166,2.917,6.013c2.462,0.847,5.148-0.472,5.999-2.945       c0.851-2.474-0.455-5.166-2.917-6.013C199.753,396.106,197.067,397.425,196.216,399.899z"/>
				</g>
				<g>
					<path style="fill:#FFF5EE;" d="M182.841,395.297c-0.851,2.474,0.455,5.166,2.917,6.013c2.462,0.847,5.148-0.472,5.999-2.945       c0.851-2.474-0.455-5.166-2.917-6.013C186.378,391.505,183.693,392.823,182.841,395.297z"/>
				</g>
				<g>
					<path style="fill:#FFF5EE;" d="M169.729,390.786c-0.851,2.474,0.455,5.166,2.917,6.013c2.462,0.847,5.148-0.472,5.999-2.945       c0.851-2.474-0.455-5.166-2.917-6.013C173.266,386.994,170.58,388.312,169.729,390.786z"/>
				</g>
			</g>
		</g>
	</g>
</g>















</svg>
