<?xml version="1.0" encoding="UTF-8"?>
<!-- Generator: Adobe Illustrator 25.2.1, SVG Export Plug-In . SVG Version: 6.00 Build 0)  -->
<svg xmlns="http://www.w3.org/2000/svg" xmlns:xlink="http://www.w3.org/1999/xlink" version="1.1" id="Capa_1" x="0px" y="0px" viewBox="0 0 512 512" style="enable-background:new 0 0 512 512;" xml:space="preserve" width="512" height="512">
<g>
	<path style="fill:#FFFFFF;" d="M407.243,460.271c-23.585,0-45.44-10.734-59.829-29.053H130.063   c-13.445,0-24.805-9.078-28.265-21.422H68.641c-0.289,0-0.581-0.005-0.875-0.015c-4.26,1.04-8.604,1.567-12.947,1.567   c-30.228,0-54.82-24.592-54.82-54.82c0-24.999,16.633-46.105,39.676-52.661v-13.243c-12.487-4.491-21.441-16.454-21.441-30.469   v-29.866c0-14.015,8.954-25.978,21.441-30.467v-46.058c0-15.971,12.995-28.966,28.966-28.966H106.7v-59.7   c0-7.383,5.986-13.369,13.369-13.369h160.993c7.383,0,13.369,5.986,13.369,13.369v59.7h42.591   c11.715-27.923,39.262-46.66,70.221-46.66c41.991,0,76.152,34.162,76.152,76.152c0,12.588-3.066,24.729-8.767,35.526   C495.483,191.285,512,208.723,512,229.945v13.61c0,22.184-18.047,40.23-40.228,40.23H449.83v9.948   c10.732,5.287,18.043,16.323,18.043,29.018v15.312c10.044,13.21,15.523,29.373,15.523,46.055   C483.396,426.109,449.234,460.271,407.243,460.271z"/>
	<g>
		
			<ellipse transform="matrix(0.7071 -0.7071 0.7071 0.7071 -236.5589 142.1433)" style="fill:#FFA766;" cx="53.303" cy="356.623" rx="41.45" ry="41.45"/>
		<circle style="fill:#FF899A;" cx="405.726" cy="154.385" r="62.784"/>
		<circle style="fill:#8F8FEF;" cx="405.726" cy="384.214" r="62.784"/>
		<path style="fill:#FFE5D2;" d="M434.943,153.858v227.069c0,8.623-6.974,15.597-15.597,15.597H67.123    c-8.623,0-15.597-6.974-15.597-15.597V153.858c0-8.623,6.974-15.597,15.597-15.597h352.223    C427.969,138.261,434.943,145.235,434.943,153.858z"/>
		<g>
			<path style="fill:#8F8FEF;" d="M434.943,153.858v28.765H51.526v-28.765c0-8.623,6.974-15.597,15.597-15.597h352.223     C427.969,138.261,434.943,145.235,434.943,153.858z"/>
			<g>
				<path style="fill:#FFA766;" d="M366.206,161.242c0,4.111-3.332,7.443-7.443,7.443c-4.111,0-7.443-3.332-7.443-7.443      c0-4.111,3.332-7.443,7.443-7.443C362.874,153.799,366.206,157.131,366.206,161.242z"/>
				<path style="fill:#FF899A;" d="M390.936,161.242c0,4.111-3.332,7.443-7.443,7.443c-4.111,0-7.443-3.332-7.443-7.443      c0-4.111,3.332-7.443,7.443-7.443C387.604,153.799,390.936,157.131,390.936,161.242z"/>
				<path style="fill:#401A49;" d="M414.466,161.242c0,4.111-3.332,7.443-7.443,7.443c-4.111,0-7.443-3.332-7.443-7.443      c0-4.111,3.332-7.443,7.443-7.443C411.134,153.799,414.466,157.131,414.466,161.242z"/>
			</g>
			<g>
				<path style="fill:#FFF5EE;" d="M82.239,170.263c-0.505,0-0.914-0.409-0.914-0.914v-15.55c0-0.505,0.409-0.914,0.914-0.914      s0.914,0.409,0.914,0.914v15.55C83.152,169.854,82.743,170.263,82.239,170.263z"/>
				<path style="fill:#FFF5EE;" d="M90.013,162.489H74.462c-0.505,0-0.914-0.409-0.914-0.914c0-0.505,0.409-0.914,0.914-0.914      h15.551c0.505,0,0.914,0.409,0.914,0.914C90.927,162.079,90.518,162.489,90.013,162.489z"/>
			</g>
		</g>
		<g>
			<path style="fill:#FFF5EE;" d="M371.612,398.449v3.543c0,8.823-7.152,15.953-15.953,15.953H128.545     c-8.823,0-15.976-7.13-15.976-15.953v-3.543c0-8.823,7.152-15.953,15.976-15.953h227.113     C364.459,382.496,371.612,389.626,371.612,398.449z"/>
			<path style="fill:#FF899A;" d="M169.854,382.496v35.45h-41.31c-8.823,0-15.976-7.13-15.976-15.953v-3.543     c0-8.823,7.152-15.953,15.976-15.953H169.854z"/>
			<g>
				<path style="fill:#FFF5EE;" d="M148.248,397.922c0,4.142-3.358,7.5-7.5,7.5c-4.142,0-7.5-3.358-7.5-7.5      c0-4.142,3.358-7.5,7.5-7.5C144.89,390.422,148.248,393.78,148.248,397.922z"/>
				<path style="fill:#FFF5EE;" d="M150.693,410.945c-0.276,0-0.55-0.118-0.74-0.348l-9.944-12.065      c-0.335-0.408-0.279-1.012,0.131-1.348c0.407-0.337,1.014-0.279,1.349,0.129l9.944,12.065c0.335,0.408,0.279,1.012-0.131,1.348      C151.123,410.874,150.908,410.945,150.693,410.945z"/>
			</g>
		</g>
		<g>
			<g>
				<path style="fill:#FFA766;" d="M285.949,279.248H49.083c-10.492,0-18.998-8.506-18.998-18.998v-29.866      c0-10.51,8.533-19.023,19.043-18.998l217.431,0.516c10.408,0.025,18.858,8.419,18.952,18.827L285.949,279.248z"/>
				
					<ellipse transform="matrix(0.0621 -0.9981 0.9981 0.0621 -175.9653 303.9342)" style="fill:#FFFFFF;" cx="73.74" cy="245.598" rx="23.04" ry="23.04"/>
				<g>
					<polygon style="fill:#FFD2A7;" points="122.94,223.878 126.014,230.106 132.887,231.105 127.914,235.952 129.088,242.797        122.94,239.566 116.793,242.797 117.967,235.952 112.994,231.105 119.867,230.106      "/>
					<polygon style="fill:#FFD2A7;" points="153.93,223.878 157.004,230.106 163.876,231.105 158.903,235.952 160.077,242.797        153.93,239.566 147.783,242.797 148.957,235.952 143.984,231.105 150.856,230.106      "/>
					<polygon style="fill:#FFD2A7;" points="184.92,223.878 187.994,230.106 194.866,231.105 189.893,235.952 191.067,242.797        184.92,239.566 178.773,242.797 179.947,235.952 174.973,231.105 181.846,230.106      "/>
					<polygon style="fill:#FFD2A7;" points="215.91,223.878 218.983,230.106 225.856,231.105 220.883,235.952 222.057,242.797        215.91,239.566 209.762,242.797 210.936,235.952 205.963,231.105 212.836,230.106      "/>
					<polygon style="fill:#FFD2A7;" points="246.899,223.878 249.973,230.106 256.846,231.105 251.872,235.952 253.046,242.797        246.899,239.566 240.752,242.797 241.926,235.952 236.953,231.105 243.826,230.106      "/>
				</g>
				<g style="opacity:0.32;">
					<path style="fill:#401A49;" d="M250.555,254.389H116.712c-0.708,0-1.288-0.58-1.288-1.288l0,0c0-0.709,0.58-1.288,1.288-1.288       h133.843c0.709,0,1.289,0.58,1.289,1.288l0,0C251.844,253.809,251.264,254.389,250.555,254.389z"/>
					<path style="fill:#401A49;" d="M237.199,262.271H115.971c-0.301,0-0.548-0.246-0.548-0.548v-1.482       c0-0.301,0.246-0.548,0.548-0.548h121.228c0.301,0,0.548,0.246,0.548,0.548v1.482       C237.747,262.025,237.501,262.271,237.199,262.271z"/>
				</g>
			</g>
			<g>
				<path style="fill:#FFA766;" d="M197.124,371.71H433.99c10.492,0,18.998-8.505,18.998-18.998v-29.866      c0-10.51-8.533-19.023-19.043-18.998l-217.431,0.516c-10.408,0.025-18.858,8.419-18.952,18.826L197.124,371.71z"/>
				
					<ellipse transform="matrix(0.9732 -0.2298 0.2298 0.9732 -71.2287 64.3623)" style="fill:#FFFFFF;" cx="240.778" cy="338.06" rx="23.04" ry="23.04"/>
				<g>
					<polygon style="fill:#FFD2A7;" points="289.979,316.341 293.053,322.569 299.926,323.567 294.952,328.415 296.126,335.26        289.979,332.028 283.832,335.26 285.006,328.415 280.033,323.567 286.905,322.569      "/>
					<polygon style="fill:#FFD2A7;" points="320.969,316.341 324.042,322.569 330.915,323.567 325.942,328.415 327.116,335.26        320.969,332.028 314.822,335.26 315.996,328.415 311.022,323.567 317.895,322.569      "/>
					<polygon style="fill:#FFD2A7;" points="351.958,316.341 355.032,322.569 361.905,323.567 356.932,328.415 358.106,335.26        351.958,332.028 345.811,335.26 346.985,328.415 342.012,323.567 348.885,322.569      "/>
					<polygon style="fill:#FFD2A7;" points="382.948,316.341 386.022,322.569 392.895,323.567 387.922,328.415 389.095,335.26        382.948,332.028 376.801,335.26 377.975,328.415 373.002,323.567 379.875,322.569      "/>
					<polygon style="fill:#FFD2A7;" points="413.938,316.341 417.012,322.569 423.884,323.567 418.911,328.415 420.085,335.26        413.938,332.028 407.791,335.26 408.965,328.415 403.992,323.567 410.864,322.569      "/>
				</g>
				<g style="opacity:0.29;">
					<path style="fill:#401A49;" d="M417.594,346.852H283.751c-0.708,0-1.288-0.58-1.288-1.288l0,0c0-0.709,0.58-1.289,1.288-1.289       h133.843c0.709,0,1.288,0.58,1.288,1.289l0,0C418.882,346.272,418.302,346.852,417.594,346.852z"/>
					<path style="fill:#401A49;" d="M404.238,354.734H283.01c-0.301,0-0.548-0.246-0.548-0.548v-1.482       c0-0.301,0.246-0.547,0.547-0.547h121.228c0.301,0,0.547,0.246,0.547,0.547v1.482       C404.785,354.487,404.539,354.734,404.238,354.734z"/>
				</g>
			</g>
			<g>
				<path style="fill:#401A49;" d="M311.417,244.111c0.841-0.974,2.091-1.583,3.479-1.56c2.483,0.04,4.464,2.086,4.423,4.57      c-0.041,2.483-2.086,4.464-4.57,4.423c-2.483-0.04-4.464-2.086-4.423-4.57C310.345,245.878,310.753,244.88,311.417,244.111"/>
				<path style="fill:#401A49;" d="M328.54,252.083c-0.026,0-0.052-0.001-0.078-0.001c-2.652-0.043-4.776-2.237-4.735-4.89      c0.022-1.127,0.435-2.215,1.169-3.063l0,0c0.933-1.084,2.313-1.668,3.723-1.669c1.286,0.021,2.485,0.541,3.379,1.464      c0.894,0.923,1.373,2.14,1.354,3.425c-0.022,1.285-0.542,2.485-1.464,3.378C330.982,251.603,329.798,252.083,328.54,252.083z       M328.54,243.089c-1.219,0-2.37,0.527-3.166,1.451h-0.002c-0.638,0.736-0.997,1.682-1.014,2.662      c-0.037,2.307,1.808,4.214,4.112,4.251c0.024,0,0.048,0,0.07,0c1.092,0,2.124-0.417,2.909-1.177      c0.803-0.777,1.253-1.82,1.271-2.938c0.02-1.117-0.398-2.174-1.175-2.977c-0.777-0.803-1.819-1.255-2.935-1.273      C328.586,243.089,328.562,243.089,328.54,243.089z"/>
				<path style="fill:#401A49;" d="M342.257,252.306c-0.026,0-0.052-0.001-0.078-0.001c-1.286-0.021-2.485-0.541-3.379-1.464      c-0.894-0.924-1.373-2.14-1.353-3.425c0.02-1.127,0.433-2.215,1.166-3.064l0,0c0.936-1.084,2.296-1.653,3.723-1.669      c1.286,0.021,2.485,0.541,3.379,1.464c0.894,0.924,1.373,2.14,1.353,3.425c-0.022,1.285-0.542,2.485-1.464,3.379      C344.701,251.826,343.515,252.306,342.257,252.306z M342.257,243.312c-1.219,0-2.37,0.527-3.166,1.451h-0.002      c-0.638,0.738-0.996,1.683-1.012,2.663c-0.02,1.116,0.398,2.174,1.175,2.977c0.777,0.803,1.819,1.254,2.935,1.273      c0.024,0,0.048,0,0.07,0c1.092,0,2.124-0.416,2.909-1.177c0.803-0.777,1.253-1.82,1.271-2.938      c0.02-1.116-0.398-2.174-1.175-2.977s-1.819-1.254-2.935-1.273C342.303,243.312,342.279,243.312,342.257,243.312z"/>
			</g>
			<g>
				<path style="fill:#401A49;" d="M114.915,335.867c0.841-0.974,2.092-1.583,3.479-1.56c2.483,0.041,4.464,2.086,4.423,4.57      c-0.041,2.483-2.086,4.464-4.57,4.423c-2.483-0.04-4.464-2.087-4.423-4.57C113.843,337.634,114.251,336.637,114.915,335.867"/>
				<path style="fill:#401A49;" d="M132.038,343.839c-0.026,0-0.052-0.001-0.078-0.001c-1.286-0.021-2.485-0.541-3.379-1.464      c-0.894-0.924-1.373-2.14-1.353-3.425c0.02-1.127,0.433-2.215,1.166-3.064l0,0c0.918-1.064,2.241-1.67,3.645-1.67      c0.026,0,0.052,0.001,0.078,0.001c2.652,0.042,4.776,2.236,4.735,4.889C136.806,341.731,134.656,343.837,132.038,343.839z       M132.038,334.844c-1.218,0-2.37,0.527-3.166,1.451h-0.002c-0.638,0.738-0.997,1.683-1.012,2.663      c-0.02,1.116,0.398,2.174,1.175,2.977s1.819,1.254,2.935,1.273c0.024,0,0.046,0,0.07,0c2.276,0,4.145-1.831,4.182-4.115      c0.037-2.305-1.808-4.213-4.113-4.25C132.084,334.844,132.06,334.844,132.038,334.844z"/>
				<path style="fill:#401A49;" d="M145.755,344.062c-0.026,0-0.052-0.001-0.078-0.001c-1.286-0.021-2.485-0.541-3.379-1.464      c-0.894-0.923-1.373-2.14-1.353-3.425c0.02-1.123,0.433-2.211,1.166-3.064c0.918-1.064,2.243-1.67,3.647-1.67      c0.026,0,0.05,0.001,0.076,0.001c2.652,0.043,4.776,2.236,4.735,4.889C150.523,341.954,148.373,344.062,145.755,344.062z       M142.589,336.519c-0.64,0.741-0.999,1.686-1.014,2.663c-0.02,1.117,0.398,2.174,1.175,2.977      c0.777,0.803,1.819,1.255,2.935,1.273c0.024,0,0.046,0,0.07,0c2.276,0,4.145-1.831,4.182-4.115      c0.037-2.305-1.808-4.213-4.112-4.249c-0.024,0-0.046,0-0.068,0C144.537,335.068,143.386,335.594,142.589,336.519      L142.589,336.519z"/>
			</g>
		</g>
		<g>
			<g>
				<path style="fill:#FFD2A7;" d="M470.255,203.179H407.6c-14.834,0-26.86,12.026-26.86,26.86v13.612      c0,14.834,12.025,26.86,26.86,26.86h16.372l-3.54,24.106l16.868-24.106h32.955c14.834,0,26.86-12.026,26.86-26.86v-13.612      C497.115,215.205,485.09,203.179,470.255,203.179z"/>
			</g>
			<g>
				<g>
					<g>
						<path style="fill:#FFA766;" d="M457.426,235.684v18.403h-36.822v-18.403c0-10.171,8.248-18.419,18.419-18.419        c5.086,0,9.675,2.062,13.008,5.396C455.364,225.993,457.426,230.598,457.426,235.684z"/>
					</g>
					<g>
						<path style="fill:#401A49;" d="M420.604,253.343c0.155,0,0.326-0.016,0.543,0l-0.543,0.016l-0.496,0.031        C420.108,253.374,420.278,253.358,420.604,253.343z"/>
					</g>
					<g>
						<path style="fill:#FFA766;" d="M460.194,256.26h-43.939c-0.765,0-1.385-0.62-1.385-1.386l0,0c0-0.765,0.62-1.385,0.88-1.466        h43.94c1.271,0.081,1.891,0.701,1.891,1.466l0,0C461.58,255.64,460.959,256.26,460.194,256.26z"/>
					</g>
					<g>
						<circle style="fill:#FFA766;" cx="439.214" cy="258.24" r="4.354"/>
					</g>
					<g>
						<path style="fill:#FFA766;" d="M440.698,219.545h-3.859v-4.998c0-1.066,0.864-1.93,1.93-1.93l0,0        c1.066,0,1.93,0.864,1.93,1.93V219.545z"/>
					</g>
				</g>
				<g>
					<path style="fill:#401A49;" d="M457.528,253.664h-36.925c-0.167,0-0.305-0.137-0.305-0.306c0-0.169,0.137-0.306,0.305-0.306       h36.925c0.168,0,0.305,0.137,0.305,0.306C457.832,253.527,457.695,253.664,457.528,253.664z"/>
				</g>
			</g>
		</g>
		<g>
			<g>
				<rect x="118.551" y="65.192" style="fill:#FFD0C4;" width="160.994" height="87.374"/>
				<polygon style="fill:#FFD0C4;" points="210.052,140.887 191.37,177.339 189.548,140.432     "/>
			</g>
			<g>
				<g>
					<g>
						<path style="fill:#401A49;" d="M190.831,105.459c-1.104-8.069-5.257-15.218-11.749-20.16        c-7.859-5.993-18.214-7.806-27.65-4.81c-0.158,0.053-0.263,0.237-0.21,0.421l6.255,19.765l2.681,8.49l-29.464-3.391        c-0.158,0-0.342,0.105-0.368,0.289c-1.209,10.619,3.312,21.237,11.801,27.729c5.362,4.1,11.775,6.255,18.425,6.255        c1.367,0,2.76-0.105,4.127-0.289c7.28-0.999,13.851-4.494,18.688-9.935c0.526-0.578,1.025-1.183,1.498-1.813        C189.78,121.545,191.909,113.528,190.831,105.459z M184.339,127.616c-0.394,0.526-0.815,1.051-1.262,1.551        c-4.757,5.441-11.249,8.936-18.477,9.935c-7.911,1.078-15.717-0.999-22.052-5.835c-8.253-6.282-12.669-16.506-11.591-26.809        l29.622,3.417c0.105,0,0.237-0.026,0.289-0.131c0.079-0.079,0.105-0.184,0.079-0.289l-2.628-8.306l-6.361-20.133        c2.839-0.867,5.756-1.288,8.647-1.288c6.466,0,12.826,2.103,18.083,6.098c6.335,4.836,10.408,11.828,11.486,19.739        C191.226,113.449,189.149,121.282,184.339,127.616z"/>
					</g>
				</g>
				<g>
					<path style="fill:#401A49;" d="M149.475,78.966l9.084,28.88l-30.196-3.604c0.621-5.233,2.629-10.374,6.086-14.857       C138.419,84.239,143.704,80.726,149.475,78.966z"/>
				</g>
			</g>
			<g>
				<path style="fill:#401A49;" d="M267.635,95.07h-64.27c-0.958,0-1.734-0.776-1.734-1.734l0,0c0-0.958,0.777-1.734,1.734-1.734      h64.27c0.958,0,1.734,0.776,1.734,1.734l0,0C269.37,94.294,268.593,95.07,267.635,95.07z"/>
				<path style="fill:#401A49;" d="M267.635,108.656h-64.27c-0.958,0-1.734-0.777-1.734-1.735l0,0c0-0.958,0.777-1.734,1.734-1.734      h64.27c0.958,0,1.735,0.776,1.735,1.734l0,0C269.37,107.88,268.593,108.656,267.635,108.656z"/>
				<path style="fill:#401A49;" d="M267.635,116.461h-64.27c-0.958,0-1.734-0.776-1.734-1.734l0,0c0-0.958,0.777-1.734,1.734-1.734      h64.27c0.958,0,1.734,0.776,1.734,1.734l0,0C269.37,115.685,268.593,116.461,267.635,116.461z"/>
				<path style="fill:#401A49;" d="M267.635,123.977h-64.27c-0.958,0-1.734-0.776-1.734-1.734l0,0c0-0.958,0.777-1.734,1.734-1.734      h64.27c0.958,0,1.734,0.776,1.734,1.734l0,0C269.37,123.2,268.593,123.977,267.635,123.977z"/>
			</g>
		</g>
	</g>
</g>















</svg>
