<?xml version="1.0" encoding="UTF-8"?>
<!-- Generator: Adobe Illustrator 25.2.1, SVG Export Plug-In . SVG Version: 6.00 Build 0)  -->
<svg xmlns="http://www.w3.org/2000/svg" xmlns:xlink="http://www.w3.org/1999/xlink" version="1.1" id="Capa_1" x="0px" y="0px" viewBox="0 0 512 512" style="enable-background:new 0 0 512 512;" xml:space="preserve" width="512" height="512">
<g>
	<path style="fill:#FFFFFF;" d="M81.202,499.816c-10.51,0-19.767-6.919-22.74-17L14.875,335.103   c-0.609-2.061-0.936-4.196-0.97-6.342c-0.1-6.486,2.596-13.293,7.891-18.017c-1.165-4.645-2.19-9.325-3.075-14.032   C7.613,290.877-0.03,278.985,0,265.441l0.049-21.474c0.03-13.208,7.247-24.727,17.841-30.662   C28.344,150.558,63.533,94.544,116.238,57.63c0.526-0.394,1.065-0.768,1.616-1.123c15.896-10.943,33.035-19.9,50.96-26.635   c0.669-0.28,1.35-0.535,2.038-0.762c26.218-9.609,53.764-14.481,81.876-14.481c9.308,0,18.737,0.56,28.105,1.667   c6.569-2.276,13.678-3.645,20.918-4.003c1.452-0.072,2.899-0.109,4.348-0.109c18.376,0,36.742,5.805,51.717,16.347   c0.634,0.447,1.308,0.936,2.001,1.471c0.908,0.118,1.804,0.266,2.693,0.442c8.491,1.697,16.322,6.21,22.648,13.05   c5.082,5.497,8.785,12.047,10.899,19.131c8.806,6.652,17.151,13.918,24.963,21.731c6.944-2.256,14.236-3.439,21.534-3.439   c11.369,0,22.701,2.853,32.764,8.248c33.806,18.133,46.56,60.386,28.432,94.188c-4.457,8.315-10.533,15.567-17.795,21.379   c0.31,1.507,0.602,3.013,0.878,4.513c0.021,0.1,0.176,0.854,0.225,1.135c2.494,13.955,3.758,28.203,3.758,42.341   c0,16.466-1.707,32.903-5.083,48.968c20.816,67.349-26.193,171.393-31.716,183.232c-3.895,8.35-12.274,13.687-21.488,13.687   L81.202,499.816z"/>
	<g>
		<g>
			<path style="fill:#FFD0C4;" d="M476.558,253.583c0,18.805-2.332,37.073-6.727,54.502c-0.06,0.299-0.119,0.568-0.179,0.837     c-6.757,26.489-18.267,51.064-33.544,72.799c0,0,0.03,0,0,0.03c-37.491,53.307-97.704,89.482-166.557,94.385     c-5.321,0.418-10.703,0.598-16.144,0.598c-25.293,0-49.599-4.215-72.261-11.959C145,452.399,113.04,431.023,87.987,403.308     c-13.484-14.859-24.964-31.541-34.053-49.63c-0.149-0.239-0.269-0.478-0.359-0.747c-14.919-29.927-23.32-63.651-23.32-99.348     c0-75.849,37.849-142.878,95.7-183.179c0.179-0.149,0.388-0.299,0.598-0.418c15.038-10.404,31.392-19.015,48.822-25.502     c0.239-0.12,0.478-0.209,0.718-0.269c24.097-8.91,50.137-13.783,77.314-13.783c93.04,0,172.805,56.954,206.26,137.915     c0.12,0.239,0.239,0.478,0.299,0.748c5.77,14.021,10.135,28.761,12.916,44.038c0.06,0.239,0.09,0.478,0.149,0.717     C475.333,226.736,476.558,240.01,476.558,253.583z"/>
			<g style="opacity:0.42;">
				<path style="fill:#FFFFFF;" d="M469.832,308.086c-0.06,0.299-0.119,0.568-0.179,0.837c-24.276-8.012-52.17-5.979-73.905,7.265      c-20.3,12.408-34.77,32.618-48.762,52.141c-15.905,22.184-32.349,45.115-57.283,56.206c-9.537,4.216-20.031,6.279-30.555,6.279      c-16.682,0-33.455-5.173-46.639-15.098c-10.823-8.162-19.314-19.044-27.505-29.598c-4.066-5.262-8.312-10.703-12.766-15.726      c-18.088-20.36-40.062-33.156-61.887-36.026c-21.586-2.84-43.351,4.903-56.416,19.313c-0.149-0.239-0.269-0.478-0.359-0.747      c13.274-14.44,35.159-22.184,56.864-19.314c22.004,2.9,44.158,15.786,62.335,36.265c4.485,5.053,8.73,10.494,12.826,15.756      c8.162,10.524,16.593,21.376,27.356,29.479c21.317,16.055,52.051,19.552,76.447,8.73c24.755-11.002,41.139-33.844,56.954-55.967      c14.051-19.582,28.581-39.853,49.001-52.32c16.204-9.866,36.176-13.962,56.326-11.51      C457.933,304.797,464.002,306.143,469.832,308.086z"/>
				<path style="fill:#FFFFFF;" d="M473.03,213.85c-7.235,2.511-15.008,3.737-22.901,3.737c-8.999,0-18.147-1.615-26.878-4.843      c-16.473-6.069-31.78-17.968-43.111-33.545c-3.498-4.843-6.667-10.045-9.717-15.068c-3.408-5.591-6.936-11.391-10.942-16.682      c-15.696-20.689-39.464-34.442-65.236-37.73c-17.52-2.242-35.577,0.359-53.067,2.84c-21.377,3.049-43.47,6.189-64.488,0.419      c-22.004-6.069-40.899-22.064-50.735-42.574c0.179-0.149,0.388-0.299,0.598-0.418c9.776,20.36,28.522,36.265,50.346,42.274      c20.838,5.74,42.872,2.601,64.189-0.448c17.52-2.482,35.637-5.083,53.247-2.81c25.951,3.288,49.928,17.161,65.744,37.999      c4.036,5.322,7.564,11.122,10.972,16.742c3.05,5.023,6.189,10.195,9.716,15.008c11.211,15.457,26.399,27.296,42.723,33.305      c16.294,6.01,34.053,6.368,49.39,1.077C472.941,213.372,472.971,213.611,473.03,213.85z"/>
				<path style="fill:#FFFFFF;" d="M459.965,169.095c-1.076,0.09-2.182,0.12-3.259,0.12c-1.973,0-3.917-0.15-5.86-0.419      c-21.107-3.139-35.428-22.662-43.709-38.507c-2.422-4.634-4.724-9.477-6.936-14.171c-6.248-13.274-12.736-26.967-23.081-37.491      c-10.524-10.733-24.545-17.579-39.494-19.254c-18.117-2.003-36.026,3.588-53.336,9.029c-12.407,3.857-25.203,7.893-38.179,9.178      c-17.848,1.764-35.189-1.883-48.882-10.285c-9.328-5.74-16.862-13.723-21.855-22.812c0.239-0.12,0.478-0.209,0.718-0.269      c4.933,8.939,12.347,16.802,21.526,22.423c13.543,8.341,30.734,11.959,48.403,10.195c12.916-1.285,25.682-5.292,38.059-9.149      c17.37-5.471,35.368-11.092,53.635-9.029c15.098,1.674,29.299,8.58,39.942,19.433c10.434,10.613,16.922,24.396,23.23,37.7      c2.212,4.694,4.485,9.537,6.906,14.171c8.222,15.666,22.363,35.009,43.171,38.089c2.84,0.419,5.77,0.538,8.7,0.299      C459.786,168.586,459.906,168.825,459.965,169.095z"/>
			</g>
		</g>
		<path style="fill:#8F8FEF;" d="M440.569,484.851h-96.527l-32.97-11.827l-121.952,11.827c0,0-3.134-172.667,15.771-202.902    c13.698-21.916,55.482-44.475,77.473-55.26l17.128,3.737l65.805-26.572l1.82-1.5c9.996,5.603,83.767,48.572,104.326,106.695    C493.485,371.417,440.569,484.851,440.569,484.851z"/>
		<path style="fill:#FFF5EE;" d="M367.119,202.353c-3.9,94.972,0.938,190.882-23.076,282.497h-93.269    c-1.432-45.191-2.172-90.53,2.271-135.498c4.146-41.982,12.908-83.841,29.321-122.664c8.392-4.097,13.895-6.491,13.895-6.491    l69.724-18.486C365.984,201.712,366.379,201.934,367.119,202.353z"/>
		<path style="fill:#F05D6A;" d="M348.589,40.402c-12.408-8.734-27.772-13.184-42.927-12.434c-13.534,0.67-27.821,6.269-34.5,18.059    c-0.794,1.402-1.515,2.925-2.807,3.887c-1.156,0.861-2.624,1.16-4.043,1.416c-4.935,0.889-9.97,1.536-14.624,3.403    c-10.849,4.353-18.486,15.603-18.763,27.29c-0.278,11.687,6.692,23.186,17.072,28.562c6.897,3.573,14.925,4.531,22.665,3.884    c7.74-0.647,15.268-2.822,22.65-5.237c14.899-4.874,29.765-10.96,41.593-21.246c7.079-6.156,12.92-13.956,16.297-22.743    c1.709-4.445,2.719-9.086,2.987-13.84C354.501,45.907,353.24,43.677,348.589,40.402z"/>
		<path style="fill:#F05D6A;" d="M354.794,46.314c2.684-0.252,5.412-0.425,8.056,0.102c3.981,0.795,7.53,3.158,10.286,6.138    c4.613,4.989,7.165,11.83,6.944,18.622c-0.062,1.905-0.306,3.937,0.609,5.61c0.502,0.917,1.303,1.624,2.04,2.365    c6.47,6.504,8.384,16.566,6.751,25.594c-1.632,9.028-6.369,17.193-11.701,24.659c-1.859,2.604-4.254,5.394-7.453,5.456    c-1.969,0.039-3.787-0.999-5.415-2.106c-12.086-8.21-19.697-21.561-25.045-35.158c-2.743-6.972-4.995-14.12-7.385-21.217    c-1.849-5.49-4.869-11.346-5.328-17.193C326.182,46.825,346.332,47.11,354.794,46.314z"/>
		<g>
			<path style="fill:#FF899A;" d="M365.984,152.547v49.164c0,0-33.591,39.909-51.657,42.007     c-18.066,2.098-18.905-18.906-18.905-18.906l0.839-9.428l2.098-23.348l38.354-22.386c0.025-0.025,0.025-0.025,0.049-0.025     L365.984,152.547z"/>
			<g>
				<path style="fill:#401A49;" d="M353.569,164.345c-2.345,12.612-5.307,25.495-12.365,36.232      c-7.059,10.736-19.078,19.054-31.912,18.338c-4.541-0.247-8.91-1.604-13.032-3.529l2.098-23.348l38.354-22.386      c0.025-0.025,0.025-0.025,0.049-0.025C342.414,167.775,348.09,165.974,353.569,164.345z"/>
			</g>
		</g>
		<path style="fill:#401A49;" d="M353.569,164.345c-2.345,12.612-5.307,25.495-12.365,36.232    c-7.059,10.736-19.078,19.054-31.912,18.338c-4.541-0.247-8.91-1.604-13.032-3.529l2.098-23.348l38.354-22.386    C342.389,167.775,348.065,165.974,353.569,164.345z"/>
		<path style="fill:#FF899A;" d="M366.65,157.558h-0.864c-0.025,0.938-0.099,1.678-0.222,2.123    c-1.678,6.318-17.647,34.035-45.363,42.031c-27.717,7.972-38.65-0.839-50.818-24.804c-12.192-23.941-11.773-70.563-11.773-70.563    c0-29.938,23.225-54.199,51.879-54.199c4.418,0,8.712,0.592,12.809,1.678c18.066,4.788,32.356,19.498,37.243,38.255l0.148-0.025    c0,0,0.049,0.444,0.148,1.185c0.987,4.171,1.53,8.539,1.53,13.031c0.469,4.097,1.012,8.787,1.53,13.648    c0.025,0.247,0.049,0.518,0.074,0.765c0.272-0.197,0.518-0.395,0.815-0.543c0.148-0.123,0.321-0.247,0.493-0.346    c6.911-4.196,17.055-2.863,22.657,2.838c1.209,1.234,2.197,2.493,2.962,3.776C398.365,140.528,381.434,157.089,366.65,157.558z"/>
		<path style="fill:#401A49;" d="M369.098,142.973c-0.106,0-0.215-0.018-0.32-0.058c-0.479-0.177-0.724-0.71-0.547-1.189    c1.177-3.181,2.723-5.868,4.595-7.985c2.224-2.518,4.932-4.269,7.831-5.067c0.5-0.139,1.003,0.154,1.137,0.647    c0.136,0.492-0.154,1.001-0.648,1.137c-2.55,0.701-4.949,2.26-6.934,4.508c-1.721,1.946-3.149,4.436-4.246,7.4    C369.828,142.743,369.474,142.973,369.098,142.973z"/>
		<g>
			<path style="fill:#401A49;" d="M310.89,125.927c0.314,3.356,2.828,5.865,5.615,5.604c2.787-0.261,4.792-3.193,4.477-6.549     c-0.314-3.356-2.828-5.865-5.615-5.604C312.58,119.64,310.575,122.571,310.89,125.927z"/>
			<path style="fill:#401A49;" d="M268.459,129.9c0.314,3.356,2.828,5.865,5.615,5.604c2.787-0.261,4.792-3.193,4.477-6.549     s-2.828-5.865-5.615-5.604C270.149,123.613,268.145,126.545,268.459,129.9z"/>
		</g>
		<path style="fill:#401A49;" d="M289.759,156.283c-0.146,0-0.294-0.004-0.441-0.01c-2.068-0.09-4.435-1.15-5.062-3.318    c-0.315-1.091-0.1-2.219,0.058-3.044c0.465-2.433,0.991-4.869,1.518-7.308c1.841-8.522,3.745-17.334,2.857-26.008    c-0.053-0.509,0.318-0.964,0.826-1.015c0.506-0.051,0.964,0.318,1.015,0.826c0.918,8.967-1.017,17.925-2.889,26.588    c-0.523,2.423-1.046,4.845-1.509,7.264c-0.159,0.83-0.276,1.567-0.098,2.182c0.369,1.278,2.003,1.924,3.364,1.983    c0.844,0.035,1.681-0.063,2.574-0.169c0.877-0.104,1.777-0.212,2.714-0.186c0.51,0.014,0.914,0.44,0.9,0.951    c-0.014,0.51-0.415,0.855-0.951,0.9c-0.789-0.015-1.595,0.072-2.445,0.173C291.401,156.187,290.59,156.283,289.759,156.283z"/>
		<path style="fill:#401A49;" d="M321.374,107.05c2.303-0.581,2.534-3.882,0.299-4.686c-2.363-0.85-4.983-1.083-7.479-0.735    c-2.049,0.285-3.942,0.856-5.729,1.667c-2.344,1.063-1.609,4.539,0.959,4.713c2.83,0.191,5.664,0.055,8.662-0.313    C319.034,107.579,320.189,107.349,321.374,107.05z"/>
		<path style="fill:#401A49;" d="M267.387,112.762c-2.472,0.054-3.505-3.132-1.465-4.53c2.029-1.391,4.444-2.275,6.891-2.592    c2.051-0.265,4.028-0.214,5.966,0.096c2.542,0.408,2.749,3.954,0.318,4.799c-2.68,0.93-5.449,1.547-8.438,1.983    C269.732,112.654,268.584,112.736,267.387,112.762z"/>
		<path style="fill:#401A49;" d="M296.48,164.937c-1.931,0-3.864-0.662-5.344-1.917c-0.39-0.33-0.437-0.914-0.106-1.304    c0.328-0.39,0.913-0.44,1.304-0.106c1.789,1.518,4.443,1.915,6.596,0.983c2.155-0.928,3.687-3.127,3.813-5.472    c0.028-0.51,0.421-0.895,0.974-0.874c0.51,0.027,0.901,0.464,0.874,0.974c-0.163,3.03-2.144,5.872-4.928,7.072    C298.658,164.727,297.57,164.937,296.48,164.937z"/>
		<path style="fill:#F05D6A;" d="M364.281,119.796c-0.074,0.123-0.173,0.271-0.271,0.395c-0.074-0.025-0.148-0.025-0.222-0.049    C363.935,120.018,364.108,119.895,364.281,119.796z"/>
		<path style="fill:#F05D6A;" d="M361.368,106.271c0-4.492-0.543-8.86-1.53-13.031c-0.099-0.741-0.148-1.185-0.148-1.185    l-0.148,0.025c-2.799-10.746-8.695-20.151-16.608-27.135c0.129-2.045,0.098-4.095-0.299-6.101    c-1.447-7.307-7.591-13.224-14.744-15.302c-7.153-2.077-17.29,2.128-23.77,5.8c-0.233,9.015,2.366,18.186,7.832,25.359    c5.056,6.636,12.635,11.383,20.853,12.683c0.261,0.086,0.505,0.207,0.773,0.278c0.888,8.046,4.196,14.734,9.65,20.732    c5.207,5.726,12.168,9.798,19.671,11.526C362.38,115.057,361.837,110.368,361.368,106.271z"/>
		<path style="fill:#8F8FEF;" d="M437.411,385.285"/>
		<path style="fill:#401A49;" d="M29.494,332.352l45.371,153.756h243.658L273.992,324.79    C273.992,324.79,28.654,332.352,29.494,332.352z"/>
		<path style="fill:#FFF5EE;" d="M134.451,388.8c-2.333,3.589-3.159,7.935-3.675,12.184c-0.564,4.64-0.784,9.523,1.076,13.811    c2.876,6.625,10.137,10.352,17.253,11.589c10.066,1.749,21.223-0.834,28.232-8.266c7.009-7.433,8.652-19.98,2.378-28.044    C169.815,377.348,143.979,374.145,134.451,388.8z"/>
		<g>
			<path style="fill:#401A49;" d="M199.706,183.716l11.218,116.82c0.261,2.72,2.682,4.71,5.402,4.44l57.866-5.751     c2.685-0.267,4.658-2.64,4.431-5.329l-9.687-114.309c-0.225-2.659-2.523-4.657-5.188-4.512l-59.397,3.24     C201.549,178.469,199.438,180.923,199.706,183.716z"/>
			<path style="fill:#FFF5EE;" d="M247.801,191.114c-0.673,0-1.313-0.241-1.826-0.691c-0.582-0.51-0.917-1.218-0.942-1.992     l-0.115-3.4c-0.051-1.512,1.09-2.769,2.599-2.865l13.28-0.842c1.528-0.099,2.846,1.063,2.946,2.585l0.198,2.955     c0.101,1.508-0.999,2.803-2.504,2.949l-13.362,1.29C247.983,191.109,247.892,191.114,247.801,191.114z M247.555,182.78     c-1.173,0.074-2.06,1.054-2.021,2.23l0.114,3.4c0.022,0.601,0.282,1.151,0.735,1.549c0.454,0.4,1.041,0.591,1.632,0.527     l13.362-1.29c1.171-0.113,2.027-1.119,1.948-2.292l-0.197-2.955c-0.081-1.183-1.092-2.097-2.292-2.01L247.555,182.78z"/>
		</g>
		<path style="fill:#FF899A;" d="M356.436,275.183c0,0-23.815-17.201-39.386-25.097c-15.572-7.896-77.857-32.146-79.994-25.66    c-2.137,6.486,43.966,25.096,43.966,25.096s-47.019-12.971-49.462-7.05c-2.443,5.922,43.966,22.559,43.966,22.559    s-47.019-5.922-47.324,1.128c-0.305,7.05,49.767,15.885,49.767,15.885s-30.688,7.18-29.311,11.843    c1.221,4.136,39.997-0.094,39.997-0.094s34.807,6.204,44.577,12.407L356.436,275.183z"/>
		<path style="fill:#8F8FEF;" d="M357.382,263.036l105.865,157.538c0,0-27.096,61.124-72.467,54.823    c-45.371-6.301-76.878-157.537-76.878-157.537l42.85-54.193"/>
		<path style="fill:#401A49;" d="M406.891,474.361c-3.153,0-6.219-0.382-9.136-1.158c-19.342-5.151-34.278-21.868-43.831-33.992    c-0.317-0.401-0.247-0.983,0.154-1.3c0.401-0.315,0.985-0.249,1.3,0.154c14.921,18.941,28.538,29.537,42.854,33.349    c9.994,2.66,21.916,0.431,32.717-6.117c11.334-6.872,19.537-17.385,21.943-28.122c0.112-0.501,0.609-0.814,1.105-0.7    c0.499,0.112,0.813,0.606,0.7,1.105c-2.513,11.218-11.033,22.172-22.788,29.3C423.806,471.793,415.066,474.361,406.891,474.361z"/>
		<path style="fill:#401A49;" d="M437.832,387.89c-0.305,0-0.603-0.15-0.779-0.424l-79.819-123.928    c-0.277-0.43-0.153-1.003,0.277-1.28c0.429-0.279,1.003-0.151,1.28,0.277l79.819,123.928c0.277,0.43,0.152,1.003-0.277,1.28    C438.177,387.843,438.004,387.89,437.832,387.89z"/>
		<g>
			<path style="fill:#FFA766;" d="M492.951,169.716c12.459-23.233,3.725-52.167-19.508-64.626     c-23.233-12.459-52.167-3.725-64.626,19.508c-11.266,21.008-5.159,46.634,13.281,60.57l-8.935,16.661l14.994,8.041l9.094-16.958     C458.527,199.275,482.048,190.048,492.951,169.716z"/>
			<path style="fill:#FFF5EE;" d="M428.866,204.361c-0.55-2.365,0.29-5.146,2.569-8.502c2.245-3.307,4.813-6.184,7.632-8.552     c2.737-2.298,5.789-4.173,8.74-5.986c1.604-0.985,3.262-2.004,4.848-3.077c5.537-3.749,9.097-7.662,10.884-11.961     c0.904-2.177,1.381-4.548,1.381-6.859c0-2.018-0.367-3.728-1.092-5.083c-1.794-3.351-6.27-4.817-10.412-3.414     c-1.217,0.412-2.414,1.048-3.567,1.881c-0.197,2.862-0.99,5.685-1.836,8.334c-0.826,2.591-2.109,5.689-4.722,6.649     c-0.624,0.228-1.129,0.211-1.504-0.05c-0.391-0.273-0.589-0.782-0.605-1.554c-0.038-2.118,0.691-4.36,2.298-7.057     c1.656-2.778,3.632-5.041,5.772-6.646c0.015-0.287,0.024-0.574,0.027-0.862c0.031-3.416-1.019-6.435-2.88-8.286     c-1.133-1.127-2.689-1.954-4.498-2.392c-3.95-0.962-8.329,0.246-11.141,3.085c-2.497,2.516-4.054,6.426-4.626,11.624     c-0.507,4.607-0.35,9.491,0.494,15.371c0.092,0.642,0.191,1.286,0.29,1.93c0.523,3.421,1.065,6.959,0.649,10.524     c-0.585,5.003-3.037,10.117-7.291,15.201l-0.474-0.395c4.176-4.991,6.582-9.997,7.153-14.878     c0.406-3.482-0.128-6.979-0.646-10.359c-0.099-0.645-0.197-1.29-0.29-1.935c-0.84-5.852-1.001-10.93-0.496-15.525     c0.587-5.34,2.201-9.375,4.8-11.993c2.963-2.985,7.57-4.255,11.726-3.249c1.918,0.464,3.573,1.347,4.787,2.554     c1.977,1.968,3.092,5.15,3.062,8.73c-0.001,0.133-0.004,0.268-0.008,0.401c1.08-0.733,2.196-1.301,3.33-1.686     c4.421-1.499,9.22,0.092,11.153,3.708c0.774,1.445,1.167,3.254,1.167,5.375c0,2.391-0.495,4.845-1.429,7.095     c-1.833,4.414-5.467,8.417-11.107,12.235c-1.598,1.082-3.262,2.104-4.871,3.094c-2.932,1.8-5.963,3.663-8.666,5.931     c-2.777,2.332-5.307,5.167-7.52,8.426c-2.177,3.205-2.988,5.827-2.479,8.014L428.866,204.361z M449.189,153.311     c-1.909,1.531-3.676,3.613-5.178,6.134c-1.546,2.594-2.248,4.732-2.21,6.73c0.012,0.56,0.123,0.908,0.341,1.06     c0.247,0.173,0.645,0.085,0.937-0.024c2.362-0.867,3.564-3.799,4.348-6.257C448.205,158.512,448.939,155.925,449.189,153.311z"/>
			<g>
				<path style="fill:#8F8FEF;" d="M416.544,194.525l15.837,8.135l-6.173,12.634c-0.629,1.286-2.216,1.77-3.455,1.052l-12.059-6.989      c-1.185-0.687-1.584-2.207-0.889-3.388L416.544,194.525z"/>
				<path style="fill:#8F8FEF;" d="M411.893,209.311l-0.98,2.574c-0.442,1.16,0.047,2.467,1.14,3.053l6.283,3.37      c0.981,0.526,2.192,0.33,2.958-0.478l2.41-2.543L411.893,209.311z"/>
			</g>
			<g>
				<path style="fill:#FFF5EE;" d="M483.638,149.765c0.432,1.136,1.085,2.317,2.221,2.751c0.839,0.321,1.79,0.165,2.63-0.152      c2.294-0.865,4.04-2.874,4.962-5.146c1.557-3.841,1.763-14.996-4.945-14.523C481.755,133.172,482.012,145.488,483.638,149.765z"/>
				<path style="fill:#FFF5EE;" d="M480.536,160.475c-0.279,0.745-0.447,1.547-0.352,2.337c0.221,1.843,1.982,3.317,3.837,3.382      c3.855,0.134,6.122-4.651,4.295-7.82C486.156,154.628,481.707,157.343,480.536,160.475z"/>
			</g>
		</g>
		<g>
			<path style="fill:#F05D6A;" d="M336.889,319.564c-20.668-13.697-48.526-8.045-62.223,12.624     c-7.061,10.655-8.942,23.212-6.312,34.763l-17.901,10.717l23.226,2.479c3.331,5.534,7.868,10.457,13.61,14.263     c20.668,13.696,48.526,8.045,62.222-12.624C363.209,361.118,357.558,333.26,336.889,319.564z"/>
			<path style="fill:#401A49;" d="M310.201,381.922c-0.085,0-0.173-0.021-0.26-0.058c-0.15-0.065-0.249-0.197-0.296-0.351     c-0.204-0.209-0.572-0.558-1.069-1.028c-18.541-17.587-24.378-30.79-17.348-39.244c1.813-2.18,3.973-3.285,6.423-3.285     c0.013,0,0.027,0,0.041,0c5.609,0.028,11.298,5.928,13.868,8.984c2.203-2.156,9.039-8.339,15.176-7.753     c2.518,0.233,4.611,1.568,6.218,3.967l0,0c6.332,9.454-0.681,22.035-20.845,37.394c-0.626,0.476-1.077,0.818-1.303,1.01     c-0.072,0.127-0.178,0.233-0.306,0.278c-0.01,0.004-0.022,0.006-0.032,0.01C310.386,381.898,310.296,381.922,310.201,381.922z      M297.65,339.161c-2.074,0-3.923,0.959-5.498,2.851c-4.503,5.416-5.164,16.334,17.252,37.596     c0.355,0.337,0.648,0.615,0.868,0.831c0.26-0.208,0.627-0.486,1.106-0.851c19.565-14.902,26.487-26.935,20.573-35.763l0,0     c-1.395-2.083-3.187-3.24-5.327-3.437c-6.085-0.589-13.296,6.454-14.676,7.867c-0.122,0.122-0.281,0.188-0.458,0.181     c-0.172-0.008-0.332-0.088-0.44-0.222c-2.21-2.713-7.936-9.026-13.366-9.053C297.674,339.161,297.662,339.161,297.65,339.161z"/>
		</g>
		<g>
			<path style="fill:#8F8FEF;" d="M173.422,120.381c-21.423-12.937-49.648-6.067-63.041,15.344     c-13.393,21.411-6.884,49.255,14.539,62.192c16.687,10.077,37.471,8.09,52.187-3.378l20.168,5.75l-11.197-15.016     c0.644-0.884,1.295-1.76,1.883-2.7C201.354,161.162,194.845,133.317,173.422,120.381z"/>
			<g>
				<path style="fill:#401A49;" d="M152.026,183.385c-0.178,0-0.351-0.085-0.46-0.237l-16.875-23.579      c-0.128-0.177-0.141-0.413-0.036-0.604c0.026-0.046,2.546-4.689,0.649-8.445c-0.368-0.727-0.86-1.609-1.404-2.585      c-2.659-4.772-6.302-11.308-3.673-13.964c2.94-2.972,14.863,7.83,18.101,10.875c2.591-2.254,11.429-9.691,14.102-8.671      c1.989,0.758,2.783,3.641,3.363,5.746c0.217,0.787,0.513,1.864,0.719,2.049c0.208,0.187,0.768,0.46,1.359,0.75      c1.751,0.858,4.396,2.153,5.445,4.534c0.672,1.52,0.964,3.449,1.247,5.316c0.288,1.897,0.56,3.691,1.173,4.444      c1.178,1.446,4.766,5.849,2.482,9.531c-2.026,3.26-23.505,13.615-25.947,14.785C152.193,183.367,152.11,183.385,152.026,183.385      z M135.813,159.191l16.397,22.911c6.85-3.298,23.512-11.686,25.046-14.154c1.858-2.995-1.346-6.926-2.399-8.218      c-0.808-0.992-1.089-2.845-1.414-4.99c-0.272-1.792-0.554-3.645-1.163-5.028c-0.883-2.001-3.305-3.187-4.907-3.972      c-0.723-0.354-1.292-0.632-1.618-0.924c-0.433-0.389-0.672-1.196-1.055-2.591c-0.515-1.872-1.222-4.435-2.673-4.989      c-1.618-0.591-8.77,4.776-13.339,8.803c-0.221,0.192-0.551,0.186-0.765-0.015c-5.995-5.7-15.188-12.961-16.891-11.253      c-2.03,2.05,1.657,8.663,3.859,12.615c0.551,0.991,1.051,1.887,1.423,2.626C138.199,153.737,136.4,157.991,135.813,159.191z"/>
				<polygon style="fill:#401A49;" points="135.151,159.24 123.763,167.016 140.082,190.718 152.026,182.819     "/>
			</g>
		</g>
		<g>
			<path style="fill:#FFF5EE;" d="M15.021,266.882l0.051-22.354c0.015-6.483,4.879-11.729,10.874-11.729l133.409,0.01     c6.185,0,11.124,5.572,10.863,12.255l-0.974,24.9c-0.249,6.376-5.157,11.373-11.058,11.259l-39.884-0.77l1.709,40.556     l-13.465-40.782l-80.844-1.56C19.761,278.553,15.006,273.306,15.021,266.882z"/>
			<g>
				<path style="fill:#401A49;" d="M120.551,253.327c-1.054,1.253-1.606,2.985-1.375,4.795c0.413,3.239,3.176,5.503,6.172,5.056      c2.996-0.447,5.089-3.434,4.676-6.674c-0.413-3.239-3.176-5.503-6.172-5.056C122.53,251.645,121.383,252.337,120.551,253.327"/>
				<path style="fill:#401A49;" d="M86.179,252.392c-1.055,1.254-1.606,2.985-1.375,4.795c0.413,3.239,3.176,5.503,6.172,5.057      c2.995-0.447,5.089-3.435,4.676-6.674c-0.413-3.239-3.176-5.503-6.172-5.056C88.158,250.71,87.012,251.402,86.179,252.392"/>
				<path style="fill:#401A49;" d="M55.906,251.856c-1.055,1.254-1.606,2.985-1.375,4.795c0.413,3.239,3.177,5.503,6.172,5.056      c2.996-0.447,5.089-3.435,4.676-6.674c-0.413-3.239-3.177-5.503-6.172-5.056C57.884,250.174,56.738,250.866,55.906,251.856"/>
			</g>
		</g>
	</g>
</g>















</svg>
