<?xml version="1.0" encoding="UTF-8"?>
<!-- Generator: Adobe Illustrator 25.2.1, SVG Export Plug-In . SVG Version: 6.00 Build 0)  -->
<svg xmlns="http://www.w3.org/2000/svg" xmlns:xlink="http://www.w3.org/1999/xlink" version="1.1" id="Capa_1" x="0px" y="0px" viewBox="0 0 512 512" style="enable-background:new 0 0 512 512;" xml:space="preserve" width="512" height="512">
<g>
	<path style="fill:#FFFFFF;" d="M253.856,495.216c-26.493,0-52.553-4.314-77.454-12.822c-38.202-13.081-72.738-35.867-99.885-65.898   c-14.395-15.862-26.601-33.613-36.262-52.74c-0.336-0.608-0.643-1.23-0.917-1.861c-4.712-9.525-8.797-19.408-12.205-29.517h-9.334   C7.969,332.378,0,324.409,0,314.579V163.857c0-9.829,7.969-17.799,17.799-17.799h23.556c5.779-11.139,12.455-21.842,19.953-31.99   c-3.142-7.735-4.568-15.509-4.334-23.517c0.901-31.895,27.499-57.859,59.292-57.859c10.985,0,21.865,3.192,31.244,8.999   c7.241-3.599,14.66-6.827,22.166-9.642c0.594-0.253,1.199-0.479,1.809-0.675c26.374-9.681,54.083-14.59,82.372-14.59   c56.705,0,111.269,20.038,154.425,56.565h85.92c9.829,0,17.799,7.968,17.799,17.799v69.68c0,9.829-7.97,17.799-17.799,17.799   h-13.949c3.775,11.017,6.733,22.319,8.83,33.754c0.026,0.127,0.171,0.837,0.211,1.066c2.506,14.036,3.778,28.353,3.778,42.553   c0,19.686-2.402,39.238-7.138,58.121c0,0-0.217,0.997-0.267,1.188c-7.08,27.756-19.024,53.795-35.505,77.408   c-0.171,0.271-0.35,0.537-0.539,0.8C408,452.627,342.949,489.463,271.136,494.578C265.728,495.005,260.033,495.216,253.856,495.216   z"/>
	<g>
		<g>
			<path style="fill:#8F8FEF;" d="M475.336,256c0,18.659-2.314,36.784-6.675,54.079c-0.059,0.297-0.119,0.564-0.178,0.831     c-6.704,26.283-18.125,50.667-33.284,72.234c0,0,0.03,0,0,0.03c0,0-72.963-4.832-95.003,10.218     c-31.383,21.429-70.259,83.434-70.259,83.434c-5.28,0.415-10.62,0.593-16.019,0.593c-25.096,0-49.214-4.183-71.7-11.866     c0,0-23.143-37.392-44.293-51.478c-17.34-11.549-48.142-9.513-48.142-9.513c-13.379-14.743-24.77-31.296-33.788-49.243     c-0.148-0.237-0.267-0.474-0.356-0.742C40.837,324.881,32.502,291.419,32.502,256c0-75.259,37.555-141.767,94.957-181.756     c0.178-0.148,0.386-0.297,0.593-0.415c14.921-10.324,31.148-18.867,48.442-25.304c0.237-0.119,0.475-0.208,0.712-0.267     c23.91-8.84,49.748-13.676,76.713-13.676c92.317,0,171.462,56.511,204.657,136.843c0.118,0.237,0.237,0.475,0.296,0.742     c5.725,13.913,10.057,28.537,12.815,43.696c0.06,0.237,0.089,0.475,0.148,0.712C474.12,229.361,475.336,242.532,475.336,256z"/>
			<g style="opacity:0.42;">
				<path style="fill:#FFE5D2;" d="M468.661,310.078c-0.059,0.297-0.119,0.564-0.178,0.831c-24.088-7.95-51.765-5.933-73.331,7.209      c-20.142,12.311-34.5,32.364-48.383,51.735c-15.782,22.011-32.097,44.764-56.838,55.77c-9.463,4.183-19.875,6.23-30.317,6.23      c-16.553,0-33.195-5.132-46.277-14.981c-10.739-8.098-19.163-18.896-27.292-29.368c-4.034-5.221-8.247-10.62-12.667-15.604      c-17.947-20.202-39.751-32.898-61.406-35.746c-21.418-2.818-43.014,4.865-55.977,19.163c-0.148-0.237-0.267-0.474-0.356-0.742      c13.171-14.328,34.886-22.011,56.422-19.163c21.833,2.877,43.815,15.663,61.851,35.983c4.45,5.013,8.662,10.412,12.726,15.633      c8.098,10.442,16.464,21.21,27.143,29.25c21.151,15.93,51.646,19.401,75.853,8.662c24.562-10.916,40.819-33.58,56.511-55.532      c13.942-19.43,28.36-39.543,48.621-51.913c16.078-9.789,35.894-13.853,55.888-11.421      C456.855,306.815,462.877,308.15,468.661,310.078z"/>
				<path style="fill:#FFE5D2;" d="M471.836,216.576c-7.179,2.492-14.892,3.708-22.723,3.708c-8.929,0-18.007-1.602-26.669-4.806      c-16.345-6.022-31.534-17.829-42.777-33.284c-3.471-4.806-6.615-9.967-9.641-14.951c-3.382-5.547-6.882-11.302-10.857-16.553      c-15.574-20.528-39.157-34.174-64.728-37.437c-17.384-2.225-35.301,0.356-52.655,2.818c-21.211,3.026-43.132,6.141-63.987,0.415      c-21.833-6.022-40.581-21.892-50.341-42.243c0.178-0.148,0.386-0.297,0.593-0.415c9.7,20.201,28.3,35.983,49.955,41.946      c20.676,5.696,42.539,2.581,63.69-0.445c17.384-2.462,35.36-5.043,52.833-2.789c25.749,3.263,49.54,17.027,65.233,37.704      c4.005,5.28,7.505,11.035,10.887,16.612c3.026,4.984,6.141,10.116,9.641,14.892c11.124,15.336,26.194,27.084,42.391,33.046      c16.167,5.963,33.788,6.319,49.006,1.068C471.747,216.101,471.776,216.338,471.836,216.576z"/>
				<path style="fill:#FFE5D2;" d="M458.872,172.167c-1.068,0.089-2.165,0.119-3.233,0.119c-1.958,0-3.886-0.148-5.814-0.415      c-20.943-3.115-35.153-22.486-43.37-38.208c-2.403-4.598-4.687-9.404-6.882-14.061c-6.2-13.171-12.637-26.757-22.901-37.2      c-10.442-10.65-24.355-17.443-39.187-19.104c-17.977-1.987-35.746,3.56-52.922,8.959c-12.311,3.827-25.008,7.832-37.882,9.107      c-17.71,1.75-34.915-1.869-48.502-10.205c-9.255-5.696-16.731-13.616-21.685-22.634c0.237-0.119,0.475-0.208,0.712-0.267      c4.895,8.87,12.252,16.671,21.359,22.249c13.438,8.276,30.495,11.866,48.027,10.115c12.815-1.275,25.482-5.251,37.763-9.077      c17.235-5.429,35.093-11.006,53.218-8.959c14.981,1.661,29.071,8.514,39.632,19.282c10.353,10.531,16.79,24.206,23.049,37.407      c2.195,4.657,4.45,9.463,6.853,14.061c8.158,15.544,22.189,34.738,42.836,37.793c2.818,0.415,5.725,0.534,8.632,0.296      C458.694,171.663,458.813,171.9,458.872,172.167z"/>
			</g>
		</g>
		<g>
			<rect x="17.862" y="163.857" style="fill:#FFF5EE;" width="131.378" height="150.722"/>
			<rect x="29.684" y="225.382" style="fill:#F05D6A;" width="20.956" height="75.227"/>
			<rect x="67.297" y="242.04" style="fill:#FFA766;" width="20.956" height="58.569"/>
			<rect x="104.776" y="197.709" style="fill:#8F8FEF;" width="20.956" height="102.899"/>
			<path style="fill:#401A49;" d="M79.924,242.875c-0.053,0-0.106-0.01-0.158-0.029L39.467,227.13     c-0.222-0.087-0.332-0.338-0.246-0.562c0.088-0.222,0.337-0.334,0.562-0.246l40.007,15.603l37.683-45.299     c0.156-0.183,0.427-0.208,0.611-0.056c0.184,0.153,0.209,0.427,0.056,0.611L80.257,242.72     C80.173,242.82,80.049,242.875,79.924,242.875z"/>
			<path style="fill:#401A49;" d="M42.042,225.718c0,1.966-1.594,3.56-3.56,3.56s-3.56-1.594-3.56-3.56     c0-1.966,1.594-3.56,3.56-3.56S42.042,223.752,42.042,225.718z"/>
			<path style="fill:#401A49;" d="M82.611,242.644c0,1.966-1.594,3.56-3.56,3.56c-1.966,0-3.56-1.594-3.56-3.56     c0-1.966,1.594-3.56,3.56-3.56C81.017,239.084,82.611,240.678,82.611,242.644z"/>
			<path style="fill:#401A49;" d="M120.627,196.836c0,1.966-1.594,3.56-3.56,3.56c-1.966,0-3.56-1.594-3.56-3.56     c0-1.966,1.594-3.56,3.56-3.56C119.033,193.277,120.627,194.87,120.627,196.836z"/>
		</g>
		<g>
			<path style="fill:#FF899A;" d="M144.095,284.284l51.503-85.838c0,0,123.708-24.236,127.243,3.03c0,0,5.049,16.158-21.207,21.207     c0,0,16.663,1.01,18.177,14.138c1.515,13.128-6.564,21.712-22.722,24.742c0,0,19.692,5.554,19.692,17.168     c0,11.613-8.079,16.663-23.227,16.663c0,0-38.88,82.304-60.087,107.55L144.095,284.284z"/>
			<g>
				<path style="fill:#401A49;" d="M308.24,312.56h-134.9c-1.371,0-2.483-1.112-2.483-2.483V74.695c0-1.371,1.112-2.483,2.483-2.483      h134.9c1.371,0,2.483,1.111,2.483,2.483v235.382C310.722,311.448,309.611,312.56,308.24,312.56z"/>
				<rect x="178.935" y="84.331" style="fill:#8F8FEF;" width="124.213" height="207.905"/>
				<path style="fill:#FFF5EE;" d="M260.797,307.755h-37.113c-2.814,0-5.103-2.29-5.103-5.103c0-2.815,2.29-5.105,5.103-5.105      h37.113c2.815,0,5.105,2.29,5.105,5.103C265.902,305.465,263.612,307.755,260.797,307.755z M223.685,298.288      c-2.405,0-4.362,1.957-4.362,4.362c0,2.406,1.958,4.363,4.362,4.363h37.113c2.406,0,4.363-1.958,4.363-4.362      c0-2.406-1.957-4.363-4.363-4.363H223.685z"/>
				<g>
					<path style="fill:#FFF5EE;" d="M279.404,201.221h-69.222c-0.231,0-0.426-0.171-0.456-0.399l-8.855-68.042h-12.254       c-0.254,0-0.459-0.206-0.459-0.459c0-0.253,0.206-0.459,0.459-0.459h12.657c0.231,0,0.426,0.171,0.456,0.399l8.855,68.042       h68.819c0.253,0,0.459,0.206,0.459,0.459S279.658,201.221,279.404,201.221z"/>
					<path style="fill:#FFF5EE;" d="M278.624,196.534h-64.691c-0.234,0-0.43-0.176-0.457-0.409l-5.157-46.41h0.001       c-0.002-0.017-0.004-0.033-0.004-0.05c0-0.244,0.19-0.445,0.434-0.458c0.061-0.008,0.135,0.007,0.197,0.032       c2.256,0.307,50.738-0.502,76.23-0.971c0.095,0.012,0.262,0.055,0.352,0.154c0.09,0.1,0.13,0.236,0.111,0.368l-6.562,47.347       C279.047,196.365,278.853,196.534,278.624,196.534z M214.343,195.616h63.881l6.433-46.419       c-59.775,1.098-72.556,1.07-75.371,0.923L214.343,195.616z"/>
					<path style="fill:#FFF5EE;" d="M283.311,159.266h-73.363c-0.254,0-0.459-0.206-0.459-0.459s0.206-0.459,0.459-0.459h73.363       c0.254,0,0.459,0.206,0.459,0.459S283.564,159.266,283.311,159.266z"/>
					<path style="fill:#FFF5EE;" d="M282.139,171.689h-70.316c-0.254,0-0.459-0.206-0.459-0.459s0.206-0.459,0.459-0.459h70.316       c0.254,0,0.459,0.206,0.459,0.459S282.393,171.689,282.139,171.689z"/>
					<path style="fill:#FFF5EE;" d="M280.03,183.877h-67.504c-0.253,0-0.459-0.206-0.459-0.459c0-0.253,0.206-0.459,0.459-0.459       h67.504c0.254,0,0.459,0.206,0.459,0.459C280.489,183.671,280.283,183.877,280.03,183.877z"/>
					<path style="fill:#FFF5EE;" d="M226.355,196.534c-0.237,0-0.437-0.181-0.457-0.42l-3.984-46.41       c-0.023-0.252,0.165-0.475,0.417-0.496c0.236-0.035,0.475,0.164,0.496,0.417l3.984,46.41c0.023,0.252-0.165,0.475-0.417,0.496       C226.381,196.533,226.368,196.534,226.355,196.534z"/>
					<path style="fill:#FFF5EE;" d="M242.293,196.298c-0.254,0-0.459-0.206-0.459-0.459v-46.643c0-0.253,0.206-0.459,0.459-0.459       c0.253,0,0.459,0.206,0.459,0.459v46.643C242.752,196.093,242.546,196.298,242.293,196.298z"/>
					<path style="fill:#FFF5EE;" d="M258.466,196.298c-0.004,0-0.006,0-0.01,0c-0.254-0.006-0.454-0.215-0.45-0.469l0.938-45.94       c0.005-0.253,0.182-0.464,0.469-0.45c0.254,0.006,0.454,0.215,0.45,0.469l-0.938,45.94       C258.92,196.099,258.715,196.298,258.466,196.298z"/>
					<path style="fill:#FFF5EE;" d="M272.06,196.534c-0.019,0-0.04-0.001-0.059-0.004c-0.252-0.032-0.429-0.263-0.397-0.514       l6.095-47.113c0.031-0.252,0.265-0.43,0.514-0.397c0.252,0.032,0.429,0.263,0.397,0.514l-6.095,47.113       C272.486,196.365,272.288,196.534,272.06,196.534z"/>
					<path style="fill:#FFF5EE;" d="M211.9,217.628c-3.872,0-7.023-3.15-7.023-7.021c0-3.872,3.151-7.023,7.023-7.023       c3.872,0,7.023,3.151,7.023,7.023C218.923,214.479,215.772,217.628,211.9,217.628z M211.9,204.502       c-3.366,0-6.104,2.738-6.104,6.104c0,3.365,2.738,6.103,6.104,6.103c3.366,0,6.104-2.738,6.104-6.103       C218.005,207.241,215.266,204.502,211.9,204.502z"/>
					<path style="fill:#FFF5EE;" d="M275.654,217.628c-3.872,0-7.023-3.15-7.023-7.021c0-3.872,3.151-7.023,7.023-7.023       c3.872,0,7.022,3.151,7.022,7.023C282.676,214.479,279.526,217.628,275.654,217.628z M275.654,204.502       c-3.366,0-6.104,2.738-6.104,6.104c0,3.365,2.738,6.103,6.104,6.103c3.365,0,6.103-2.738,6.103-6.103       C281.758,207.241,279.019,204.502,275.654,204.502z"/>
				</g>
				<g>
					<path style="fill:#FFF5EE;" d="M278.975,252.852h-73.468c-5.103,0-9.278-4.175-9.278-9.278l0,0       c0-5.103,4.175-9.278,9.278-9.278h73.468c5.103,0,9.278,4.175,9.278,9.278l0,0       C288.253,248.676,284.078,252.852,278.975,252.852z"/>
					<g>
						<path style="fill:#401A49;" d="M215.397,239.57c0.742,0,1.324,0.201,1.743,0.604c0.42,0.402,0.63,0.962,0.63,1.677        c0,0.372-0.079,0.726-0.238,1.062c-0.16,0.336-0.394,0.607-0.703,0.816c-0.31,0.207-0.695,0.324-1.154,0.351l-0.052-0.265        c0.326,0,0.647,0.047,0.961,0.139c0.313,0.093,0.594,0.242,0.842,0.445c0.248,0.203,0.446,0.457,0.597,0.762        c0.151,0.305,0.225,0.674,0.225,1.107c0,0.46-0.076,0.856-0.232,1.188c-0.154,0.331-0.362,0.599-0.623,0.802        c-0.261,0.203-0.56,0.354-0.894,0.451c-0.337,0.097-0.686,0.146-1.049,0.146h-3.567c-0.106,0-0.198-0.04-0.279-0.12        c-0.079-0.079-0.119-0.172-0.119-0.278v-8.486c0-0.106,0.041-0.199,0.119-0.278c0.08-0.08,0.173-0.12,0.279-0.12H215.397z         M215.29,240.352h-3.116l0.159-0.238v3.752l-0.146-0.198h3.103c0.46-0.01,0.847-0.159,1.161-0.451        c0.313-0.292,0.47-0.725,0.47-1.3c0-0.487-0.141-0.869-0.423-1.147C216.215,240.492,215.811,240.352,215.29,240.352z         M215.383,244.463h-3.116l0.066-0.079v3.805l-0.079-0.118h3.155c0.566,0,1.039-0.143,1.419-0.432        c0.38-0.287,0.57-0.745,0.57-1.373c0-0.441-0.093-0.795-0.279-1.061c-0.187-0.265-0.434-0.454-0.742-0.57        C216.069,244.52,215.737,244.463,215.383,244.463z"/>
						<path style="fill:#401A49;" d="M226.681,239.57c0.124,0,0.221,0.037,0.292,0.112c0.071,0.075,0.107,0.171,0.107,0.286v5.49        c0,0.654-0.156,1.246-0.464,1.777c-0.309,0.531-0.726,0.953-1.247,1.266c-0.521,0.314-1.11,0.471-1.764,0.471        s-1.245-0.157-1.77-0.471c-0.526-0.313-0.945-0.735-1.253-1.266c-0.31-0.531-0.465-1.123-0.465-1.777v-5.49        c0-0.115,0.038-0.21,0.114-0.286c0.074-0.075,0.178-0.112,0.311-0.112c0.106,0,0.2,0.037,0.278,0.112        c0.08,0.075,0.12,0.171,0.12,0.286v5.49c0,0.513,0.122,0.972,0.365,1.379c0.243,0.406,0.568,0.732,0.974,0.975        c0.407,0.244,0.849,0.365,1.326,0.365c0.495,0,0.946-0.121,1.352-0.365c0.406-0.243,0.732-0.568,0.974-0.975        c0.244-0.406,0.365-0.866,0.365-1.379v-5.49c0-0.115,0.036-0.21,0.106-0.286C226.473,239.607,226.566,239.57,226.681,239.57z"/>
						<path style="fill:#401A49;" d="M234.97,239.517c0.115,0,0.211,0.042,0.285,0.126c0.075,0.084,0.113,0.175,0.113,0.271        c0,0.044-0.007,0.086-0.02,0.127c-0.013,0.039-0.033,0.081-0.06,0.126l-3.116,4.283l0.159-0.516v4.521        c0,0.106-0.039,0.2-0.119,0.278c-0.079,0.08-0.177,0.12-0.292,0.12c-0.115,0-0.209-0.04-0.285-0.12        c-0.075-0.079-0.112-0.172-0.112-0.278v-4.429l0.066,0.318l-3.037-4.151c-0.035-0.044-0.061-0.091-0.079-0.139        c-0.018-0.049-0.026-0.096-0.026-0.14c0-0.115,0.047-0.209,0.139-0.285c0.093-0.075,0.188-0.112,0.286-0.112        c0.132,0,0.243,0.061,0.331,0.185l2.851,3.885l-0.198-0.026l2.772-3.859C234.714,239.578,234.829,239.517,234.97,239.517z"/>
						<path style="fill:#401A49;" d="M240.897,239.57c0.106,0,0.201,0.039,0.286,0.12c0.084,0.079,0.125,0.177,0.125,0.292v8.46        c-0.008,0.115-0.055,0.213-0.139,0.292c-0.085,0.08-0.179,0.12-0.286,0.12c-0.123,0-0.224-0.04-0.298-0.12        c-0.075-0.079-0.114-0.177-0.114-0.292v-8.46c0-0.115,0.041-0.213,0.119-0.292C240.673,239.609,240.774,239.57,240.897,239.57        z M240.831,243.721h6.299l-0.013,0.769h-6.339L240.831,243.721z M247.118,239.57c0.123,0,0.222,0.039,0.298,0.12        c0.075,0.079,0.112,0.177,0.112,0.292v8.46c-0.008,0.115-0.05,0.213-0.126,0.292c-0.075,0.08-0.175,0.12-0.298,0.12        c-0.116,0-0.213-0.04-0.292-0.12c-0.08-0.079-0.12-0.177-0.12-0.292v-8.46c0-0.115,0.042-0.213,0.125-0.292        C246.902,239.609,247.001,239.57,247.118,239.57z"/>
						<path style="fill:#401A49;" d="M250.418,239.57h4.867c0.106,0,0.2,0.037,0.278,0.112c0.08,0.075,0.12,0.171,0.12,0.286        c0,0.115-0.04,0.207-0.12,0.279c-0.079,0.071-0.172,0.105-0.278,0.105h-4.562l0.133-0.225v3.726l-0.146-0.172h3.978        c0.107,0,0.2,0.04,0.279,0.12c0.08,0.079,0.119,0.172,0.119,0.278c0,0.115-0.039,0.207-0.119,0.278        c-0.079,0.072-0.172,0.106-0.279,0.106h-3.952l0.12-0.133v3.819l-0.066-0.079h4.495c0.106,0,0.2,0.039,0.278,0.118        c0.08,0.08,0.12,0.173,0.12,0.279c0,0.116-0.04,0.208-0.12,0.279c-0.079,0.072-0.172,0.107-0.278,0.107h-4.867        c-0.107,0-0.199-0.04-0.279-0.12c-0.079-0.079-0.12-0.172-0.12-0.278v-8.486c0-0.106,0.041-0.199,0.12-0.278        C250.219,239.609,250.311,239.57,250.418,239.57z"/>
						<path style="fill:#401A49;" d="M258.004,248.853c-0.133,0-0.242-0.04-0.325-0.12c-0.085-0.079-0.127-0.172-0.127-0.278v-8.486        c0-0.106,0.041-0.199,0.12-0.278c0.08-0.08,0.172-0.12,0.278-0.12h3.58c0.504,0,0.955,0.109,1.353,0.325        c0.397,0.216,0.709,0.514,0.935,0.895c0.225,0.38,0.337,0.809,0.337,1.287c0,0.389-0.071,0.747-0.212,1.074        c-0.141,0.328-0.341,0.604-0.597,0.829c-0.257,0.226-0.544,0.392-0.862,0.497l-0.464-0.146        c0.326,0.026,0.631,0.13,0.915,0.312c0.283,0.182,0.511,0.429,0.683,0.742c0.172,0.313,0.263,0.693,0.273,1.134        c0.008,0.38,0.027,0.677,0.059,0.888c0.031,0.213,0.078,0.372,0.14,0.477c0.062,0.107,0.141,0.19,0.239,0.253        c0.087,0.053,0.147,0.128,0.178,0.226c0.031,0.097,0.02,0.19-0.034,0.278c-0.035,0.071-0.086,0.121-0.152,0.152        c-0.066,0.031-0.135,0.047-0.206,0.047c-0.071,0-0.141-0.018-0.212-0.053c-0.124-0.072-0.25-0.182-0.378-0.332        c-0.129-0.15-0.234-0.371-0.319-0.663c-0.084-0.292-0.126-0.698-0.126-1.22c0-0.346-0.055-0.628-0.166-0.849        c-0.11-0.221-0.251-0.391-0.423-0.511c-0.173-0.119-0.363-0.203-0.57-0.252c-0.208-0.048-0.405-0.073-0.591-0.073h-3.09        l0.146-0.185v3.753c0,0.106-0.035,0.2-0.106,0.278C258.211,248.813,258.119,248.853,258.004,248.853z M258.242,244.158h3.329        c0.3-0.026,0.583-0.126,0.849-0.298c0.264-0.173,0.479-0.409,0.642-0.71c0.164-0.3,0.246-0.649,0.246-1.047        c0-0.504-0.171-0.922-0.511-1.253c-0.341-0.331-0.786-0.497-1.333-0.497h-3.169l0.092-0.185v4.177L258.242,244.158z"/>
						<path style="fill:#401A49;" d="M266.836,239.57h4.867c0.106,0,0.2,0.037,0.278,0.112c0.08,0.075,0.12,0.171,0.12,0.286        c0,0.115-0.04,0.207-0.12,0.279c-0.079,0.071-0.172,0.105-0.278,0.105h-4.562l0.133-0.225v3.726l-0.146-0.172h3.978        c0.106,0,0.2,0.04,0.279,0.12c0.08,0.079,0.12,0.172,0.12,0.278c0,0.115-0.039,0.207-0.12,0.278        c-0.079,0.072-0.172,0.106-0.279,0.106h-3.952l0.12-0.133v3.819l-0.066-0.079h4.495c0.106,0,0.2,0.039,0.278,0.118        c0.08,0.08,0.12,0.173,0.12,0.279c0,0.116-0.04,0.208-0.12,0.279c-0.079,0.072-0.172,0.107-0.278,0.107h-4.867        c-0.107,0-0.199-0.04-0.279-0.12c-0.079-0.079-0.12-0.172-0.12-0.278v-8.486c0-0.106,0.041-0.199,0.12-0.278        C266.637,239.609,266.729,239.57,266.836,239.57z"/>
					</g>
				</g>
				<path style="opacity:0.24;fill:#FFF5EE;" d="M178.935,292.236L303.148,84.331H176.915      C176.915,84.331,178.494,292.678,178.935,292.236z"/>
			</g>
			<path style="fill:#FF899A;" d="M240.54,393.852l-1.81,2.195l-0.208,0.267l-4.628,5.696c0,0,0,0,0,0.029l-0.564,0.682     l-51.112,62.83c-35.865-12.281-67.576-33.491-92.435-60.991c9.908-12.133,17.71-24.918,16.938-34.441     c-2.017-24.74-20.201-54.02,7.594-100.474c9.938-16.642,18.333-32.157,25.63-45.18c0,0,0-0.03,0.03-0.059     c6.437-11.48,12.014-20.973,17.057-27.588c0.178-0.237,0.356-0.445,0.563-0.682c4.776-6.111,9.137-9.522,13.26-9.344     c0.178,0,0.326,0,0.505,0.03c2.462,0.267,4.598,1.246,6.378,2.759c0.415,0.326,0.831,0.712,1.187,1.098     c4.865,5.162,6.912,14.654,6.704,24.414c-0.089,4.45-0.653,8.958-1.632,13.141c-1.127,4.717-2.966,11.896-5.073,19.875     c-0.208,0.742-0.415,1.513-0.593,2.284c-2.462,9.285-5.221,19.371-7.475,27.707c-0.534,1.928-1.038,3.797-1.513,5.518     c0,0.059-0.03,0.119-0.03,0.148c-2.017,7.297-3.382,12.252-3.382,12.252l4.924,6.467l0.564,0.741l7.149,9.345l1.988,2.611     c0.03,0.089,0.089,0.178,0.148,0.237l41.62,54.553l1.483,1.928l16.583,21.744L240.54,393.852z"/>
			<path style="fill:#401A49;" d="M203.047,367.202c-0.013,0-0.026,0-0.04-0.001c-0.408-0.022-0.722-0.37-0.701-0.777     c-0.006-0.125-0.279-4.272-12.437-32.235c-11.139-25.619-25.002-36.334-25.141-36.439c-0.248-0.188-0.352-0.512-0.26-0.81     c0.053-0.17,5.327-17.123,7.572-24.607c2.585-8.617,13.236-47.021,13.603-54.358c0.335-6.687-0.634-20.986-6.693-27.243     c-2.078-2.149-4.588-3.226-7.576-3.159c-13.64,0.242-31.854,39.442-32.037,39.838c-0.17,0.373-0.609,0.535-0.982,0.362     c-0.371-0.171-0.533-0.61-0.362-0.982c0.761-1.651,18.791-40.44,33.354-40.699c3.383-0.021,6.29,1.154,8.667,3.61     c8.014,8.277,7.147,27.531,7.106,28.346c-0.391,7.826-11.794,48.478-13.663,54.709c-2.034,6.78-6.549,21.317-7.427,24.142     c2.411,1.999,14.969,13.175,25.196,36.698c12.386,28.488,12.576,32.534,12.557,32.902     C203.765,366.894,203.438,367.202,203.047,367.202z"/>
			<path style="fill:#401A49;" d="M151.677,217.565c-2.577,0-4.876-0.713-6.694-2.131c-0.354-0.276-0.417-0.787-0.141-1.141     c0.277-0.354,0.789-0.416,1.141-0.141c4.099,3.201,9.838,1.319,12.112,0.363c3.736-1.566,6.964-4.773,9.09-9.028     c1.476-2.951,2.18-5.85,2.095-8.615c-0.096-3.076-1.258-5.976-3.188-7.959c-0.313-0.322-0.306-0.836,0.016-1.149     c0.322-0.314,0.837-0.306,1.149,0.016c2.21,2.27,3.539,5.566,3.647,9.042c0.094,3.037-0.667,6.198-2.265,9.393     c-2.299,4.602-5.821,8.083-9.915,9.8C156.257,217.051,153.867,217.565,151.677,217.565z"/>
		</g>
		<g>
			<path style="fill:#FF899A;" d="M435.2,383.143c0,0,0.03,0,0,0.03c-37.2,52.892-96.944,88.786-165.262,93.652     c-8.484-8.454-14.892-15.841-16.019-19.846c-1.246-4.509-6.615-18.452-12.904-35.42c-0.148-0.415-0.297-0.801-0.445-1.216     c-0.475-1.305-0.92-2.581-1.394-3.827c-0.03-0.119-0.059-0.208-0.118-0.297c-1.513-4.153-3.085-8.425-4.628-12.756     c-0.148-0.415-0.297-0.771-0.445-1.157c-0.03-0.089-0.06-0.178-0.089-0.267c0-0.029,0-0.029,0-0.029     c-3.619-10.234-7.179-20.617-10.086-30.11c-0.267-0.831-0.504-1.631-0.742-2.433c-4.331-14.417-7.031-26.372-6.052-31.8     c0-0.089,0.03-0.148,0.059-0.208c0.208-1.127,0.623-1.958,1.246-2.432c9.849-7.565,25.749-3.797,33.314,9.849     c0,0-0.059-0.653-0.178-1.81c-0.356-4.45-1.424-16.612-2.611-30.495c-0.148-1.721-0.326-3.441-0.475-5.191     c-0.267-3.115-0.534-6.289-0.801-9.463c-0.178-1.898-0.326-3.797-0.475-5.666c-0.237-2.7-0.475-5.34-0.682-7.921     c-0.03-0.327-0.06-0.653-0.089-1.009c-0.682-7.95-1.276-15.099-1.72-20.202c-0.03-0.415-0.059-0.86-0.089-1.305     c-0.208-2.492-0.356-4.42-0.445-5.547c-0.059-1.038-0.119-2.195-0.149-3.412c-0.208-5.429,0.089-12.429,2.432-18.57     c0.238-0.593,0.475-1.157,0.712-1.691c2.699-5.873,7.505-10.65,15.93-11.925c0.385-0.059,0.771-0.119,1.157-0.119     c9.582-1.008,14.447,5.043,17.295,14.061c0.326,1.068,0.652,2.166,0.92,3.323c0,0.029,0.03,0.059,0.03,0.089     c1.008,3.945,1.691,8.336,2.314,12.845c0.623,4.509,1.157,9.196,1.78,13.735c0.949,6.971,2.462,17.087,4.064,27.647     c0.356,2.373,0.712,4.776,1.068,7.149c0.445,2.878,0.89,5.755,1.335,8.573c0.178,1.305,0.386,2.581,0.593,3.827     c0.03,0.238,0.089,0.504,0.119,0.771c0,0.059,0,0.118,0.03,0.178c0.089,0.682,0.208,1.335,0.296,1.987     c0.297,1.898,0.593,3.767,0.861,5.577c0.178,1.246,0.386,2.492,0.563,3.678c0.03,0.178,0.059,0.326,0.059,0.475     c0.119,0.623,0.208,1.246,0.297,1.839c0.118,0.712,0.237,1.394,0.326,2.077c0.089,0.534,0.148,1.038,0.237,1.542     c0.119,0.682,0.208,1.365,0.326,1.988c0.148,0.949,0.297,1.898,0.415,2.759c0.059,0.415,0.118,0.771,0.178,1.157     c0.237,1.364,0.415,2.61,0.593,3.737c0,0,6.052-21.952,25.749-22.723c19.697-0.742,24.236,22.723,24.236,22.723     s14.387-10.59,25.749-7.564c11.362,3.026,15.159,15.159,15.159,15.159s23.465-9.107,35.598,0.742     C428.318,351.135,431.996,364.988,435.2,383.143z"/>
			<path style="fill:#401A49;" d="M254.927,461.245c-0.305,0-0.592-0.19-0.699-0.494c-0.171-0.484-17.221-48.613-22.21-61.581     l-0.477-1.239c-9.091-23.597-20.411-55.842-13.777-63.392c2.999-3.411,7.918-5.079,13.495-4.586     c8.643,0.771,17.086,6.342,22.032,14.539c0.212,0.35,0.099,0.806-0.252,1.018c-0.35,0.21-0.807,0.098-1.018-0.252     c-4.707-7.799-12.712-13.097-20.895-13.827c-5.108-0.453-9.567,1.034-12.248,4.086c-6.809,7.749,8.889,48.491,14.048,61.88     l0.477,1.239c4.996,12.987,22.052,61.134,22.224,61.62c0.136,0.386-0.066,0.809-0.452,0.947     C255.093,461.232,255.01,461.245,254.927,461.245z"/>
			<path style="fill:#401A49;" d="M257.452,388.536c-0.373,0-0.694-0.28-0.735-0.659c-0.077-0.683-7.611-68.524-10.605-98.976     l-0.421-4.227c-3.061-30.606-6.226-62.255,15.465-64.749c5.198-0.6,9.657,0.548,13.242,3.409     c10.1,8.059,12.313,28.225,14.655,49.572c0.593,5.408,1.206,11.001,1.955,16.323c3.224,22.923,8.529,56.204,8.582,56.538     c0.065,0.405-0.21,0.784-0.615,0.849c-0.39,0.073-0.786-0.209-0.849-0.615c-0.054-0.334-5.362-33.63-8.587-56.566     c-0.752-5.344-1.367-10.948-1.961-16.367c-2.308-21.033-4.488-40.9-14.106-48.575c-3.309-2.64-7.28-3.65-12.146-3.095     c-20.239,2.327-17.148,33.237-14.159,63.129l0.421,4.228c2.994,30.444,10.527,98.275,10.603,98.957     c0.046,0.408-0.247,0.775-0.654,0.819C257.507,388.535,257.479,388.536,257.452,388.536z"/>
			<path style="fill:#401A49;" d="M223.063,370.191c-0.294,0-0.587-0.02-0.876-0.062c-0.405-0.06-0.686-0.435-0.628-0.841     c0.059-0.407,0.441-0.676,0.841-0.628c2.753,0.405,5.093-1.752,5.968-2.696c4.65-5.019,5.083-13.801,1.007-20.428     c-1.672-2.718-6.207-8.871-12.325-7.326c-0.403,0.102-0.8-0.142-0.9-0.537c-0.101-0.397,0.14-0.8,0.537-0.9     c4.966-1.255,10.053,1.651,13.951,7.987c4.412,7.174,3.904,16.724-1.182,22.215C227.529,369.051,225.244,370.191,223.063,370.191     z"/>
			<path style="fill:#401A49;" d="M257.713,256.91c-1.679,0-3.34-0.227-4.911-0.99c-6.286-3.058-4.246-16.592-2.835-20.913     c1.871-5.734,6.212-9.845,11.329-10.731c0.69-0.12,1.381-0.189,2.057-0.207l0,0c7.741-0.111,13.055,6.098,15.479,12.06     c1.404,3.452,3.184,10.516,0.96,15.089c-0.903,1.858-2.364,3.089-4.342,3.657c-3.524,1.013-7.151,1.267-10.658,1.514     l-1.642,0.117c-0.556,0.042-1.124,0.098-1.698,0.155C260.215,256.786,258.958,256.91,257.713,256.91z M263.391,225.55     c-0.604,0.016-1.223,0.078-1.841,0.185c-5.469,0.947-8.843,5.648-10.176,9.731c-1.452,4.449-2.968,16.669,2.077,19.121     c2.358,1.149,5.151,0.872,7.855,0.602c0.586-0.057,1.166-0.115,1.735-0.158l1.649-0.118c3.588-0.252,6.978-0.49,10.352-1.46     c1.58-0.453,2.698-1.397,3.42-2.882c1.737-3.573,0.699-9.701-1-13.884C275.222,231.184,270.337,225.289,263.391,225.55     L263.391,225.55z"/>
		</g>
		<g>
			<rect x="346.15" y="195.457" style="fill:#FFE5D2;" width="108.694" height="123.667"/>
			<g>
				<path style="fill:#FFA766;" d="M436.66,227.314l-18.226,18.435c-4.143-4.72-10.254-7.684-17.045-7.684      c-3.173,0-6.189,0.656-8.943,1.809l-12.52-8.094l3.761-16.241c5.481-2.176,11.46-3.357,17.701-3.357      C415.288,212.183,427.796,218.004,436.66,227.314z"/>
				<g>
					<path style="fill:#F05D6A;" d="M405.983,282.973c-1.652,0.393-2.811,0.617-4.594,0.617c-12.561,0-22.762-10.201-22.762-22.762       c0-9.388,5.69-17.465,13.82-20.953l-4.621-12.84l-4.137-11.495c-18.121,7.054-30.944,24.65-30.944,45.289       c0,26.879,20.68,49.268,47.533,49.268c3.173,0,6.908-0.186,9.898-0.763l8.957-18.005L405.983,282.973z"/>
				</g>
				<path style="fill:#FF899A;" d="M449.192,250.262l-11.626,3.454l-14.187,2.325c-0.887-4.757-2.045-7.023-5.087-10.458      c-0.079-0.079-0.157-0.184-0.236-0.262c4.642-4.563,13.296-12.902,18.593-18.016      C442.969,233.992,447.487,240.847,449.192,250.262z"/>
				<path style="fill:#FFD0C4;" d="M450.268,260.151c0,24.415-17.244,44.726-40.094,49.182l-4.191-26.36      c10.277-2.404,17.911-11.722,17.911-22.822c0-0.864-0.054-1.729-0.16-2.566c-0.054-0.459-0.107-0.918-0.214-1.377l25.813-5.78      c0.027,0.216,0.08,0.405,0.107,0.621C449.975,253.993,450.268,257.044,450.268,260.151z"/>
			</g>
			<path style="fill:#401A49;" d="M374.71,243.28h-34.105c-0.225,0-0.408-0.183-0.408-0.408c0-0.225,0.183-0.408,0.408-0.408h34.105     c0.225,0,0.408,0.183,0.408,0.408C375.117,243.097,374.934,243.28,374.71,243.28z"/>
			<path style="fill:#401A49;" d="M460.112,289.308h-34.105c-0.225,0-0.408-0.183-0.408-0.408s0.183-0.408,0.408-0.408h34.105     c0.225,0,0.408,0.183,0.408,0.408S460.336,289.308,460.112,289.308z"/>
			<rect x="333.949" y="239.267" style="fill:#401A49;" width="7.209" height="7.209"/>
			<rect x="456.507" y="284.741" style="fill:#401A49;" width="7.209" height="7.209"/>
			<rect x="435.434" y="203.221" style="fill:#401A49;" width="7.209" height="7.209"/>
			<path style="fill:#401A49;" d="M411.588,228.861c-0.225,0-0.408-0.183-0.408-0.408v-21.628c0-0.225,0.183-0.408,0.408-0.408     h28.005c0.225,0,0.408,0.183,0.408,0.408c0,0.225-0.183,0.408-0.408,0.408h-27.597v21.22     C411.996,228.678,411.813,228.861,411.588,228.861z"/>
		</g>
		<g>
			<g>
				<rect x="322.336" y="91.147" style="fill:#FFE5D2;" width="171.929" height="69.68"/>
				<path style="fill:#FFE5D2;" d="M301.634,177.743c0,2.51-2.034,4.544-4.544,4.544c-2.51,0-4.544-2.035-4.544-4.544      c0-2.51,2.035-4.544,4.544-4.544C299.599,173.199,301.634,175.233,301.634,177.743z"/>
				<path style="fill:#FFE5D2;" d="M405.65,177.861H299.993c-0.204,0-0.371-0.166-0.371-0.371c0-0.204,0.166-0.371,0.371-0.371      h105.286v-32.197c0-0.204,0.166-0.371,0.371-0.371s0.371,0.166,0.371,0.371v32.567      C406.02,177.695,405.854,177.861,405.65,177.861z"/>
			</g>
			<rect x="339.756" y="104.402" style="fill:#401A49;" width="11.361" height="11.361"/>
			<rect x="339.756" y="122.579" style="fill:#401A49;" width="11.361" height="11.361"/>
			<rect x="339.756" y="141.136" style="fill:#401A49;" width="11.361" height="11.361"/>
			<rect x="360.206" y="105.917" style="fill:#401A49;" width="113.988" height="3.03"/>
			<rect x="360.206" y="111.597" style="fill:#401A49;" width="113.988" height="3.03"/>
			<g>
				<rect x="360.206" y="122.579" style="fill:#401A49;" width="113.988" height="3.03"/>
				<rect x="360.206" y="127.881" style="fill:#401A49;" width="71.195" height="3.408"/>
			</g>
			<g>
				<rect x="360.206" y="141.893" style="fill:#401A49;" width="113.988" height="3.03"/>
				<rect x="360.206" y="147.195" style="fill:#401A49;" width="71.195" height="3.408"/>
			</g>
		</g>
		<path style="fill:#F05D6A;" d="M154.864,76.328C148.516,60.873,133.06,50.49,116.33,50.49c-22.248,0-40.878,18.511-41.501,40.581    c-0.564,19.312,13.438,33.936,25.838,46.959c0.89,0.949,14.358,15.218,14.892,15.218c5.695-4.776,10.959-10.515,16.103-15.9    c12.118-12.687,21.215-22.071,24.864-36.102C158.543,93.356,158.424,84.991,154.864,76.328z M117.279,116.91    c-12.667,0-22.931-10.264-22.931-22.931c0-12.637,10.264-22.901,22.931-22.901c12.637,0,22.901,10.264,22.901,22.901    C140.18,106.646,129.916,116.91,117.279,116.91z"/>
	</g>
</g>















</svg>
