<?xml version="1.0" encoding="UTF-8"?>
<!-- Generator: Adobe Illustrator 25.2.1, SVG Export Plug-In . SVG Version: 6.00 Build 0)  -->
<svg xmlns="http://www.w3.org/2000/svg" xmlns:xlink="http://www.w3.org/1999/xlink" version="1.1" id="Capa_1" x="0px" y="0px" viewBox="0 0 512.003 512.003" style="enable-background:new 0 0 512.003 512.003;" xml:space="preserve" width="512" height="512">
<g>
	<path style="fill:#FFFFFF;" d="M260.726,505.101c-1.17,0-2.338-0.138-3.481-0.412l-13.554-3.254   c-1.969,0.058-3.938,0.087-5.907,0.087c-10.868,0-21.847-0.75-32.634-2.227c-24.632-3.385-48.423-10.574-70.721-21.369   c-1.065-0.495-2.101-1.009-3.111-1.529c-0.536-0.267-1.211-0.607-1.857-0.944c-23.18-11.848-44.271-27.482-62.576-46.405   C24.343,385.373-0.303,324.695,0.003,263.741c0-39.259,9.775-78.166,28.268-112.515c14.267-26.548,33.224-49.897,56.342-69.392   c0.227-0.194,0.45-0.377,0.667-0.553c10.635-8.9,22.098-16.898,34.098-23.789c0.292-0.184,0.584-0.358,0.878-0.526   c19.602-11.174,40.635-19.455,62.564-24.643c0,0,0.53-0.133,0.632-0.158c17.668-4.133,35.948-6.23,54.331-6.23   c11.111,0,22.229,0.778,33.226,2.32V21.81c0-8.233,6.675-14.908,14.908-14.908h125.607c8.233,0,14.908,6.675,14.908,14.908v97.139   c19.797,25.81,34.28,55.73,42.081,87.048c3.523,14.144,5.753,28.77,6.631,43.479c0.044,0.442,0.073,0.859,0.087,1.286   c0.002,0.051,0.005,0.102,0.007,0.153l20.496-1.876c0.454-0.044,0.908-0.063,1.361-0.063c4.142,0,8.124,1.728,10.958,4.804   c3.147,3.411,4.523,8.092,3.727,12.663l-32.233,184.934c-0.49,2.807-1.754,5.338-3.564,7.367l-5.733,7.81   c-2.308,3.142-5.753,5.256-9.601,5.889l-197.506,32.461C262.343,505.035,261.534,505.101,260.726,505.101z"/>
	<g>
		<path style="fill:#FFE5D2;" d="M461.703,264.78c0,1.168,0,2.336-0.025,3.479c-0.099,5.814-0.398,11.553-0.944,17.219    c0,0.224-0.025,0.422-0.05,0.621c-2.187,23.232-7.951,45.395-16.746,65.992c-0.074,0.223-0.174,0.422-0.273,0.646    c-15.43,35.854-39.953,66.837-70.713,90.044c-13.864,10.461-28.971,19.355-45.096,26.362c-3.28,1.441-6.584,2.783-9.938,4.05    c-22.387,8.522-46.488,13.517-71.657,14.312c-2.484,0.099-4.969,0.149-7.454,0.149c-10.386,0-20.622-0.721-30.611-2.087    c-23.505-3.23-45.817-10.113-66.365-20.076c-0.919-0.423-1.814-0.87-2.683-1.317c-0.596-0.298-1.193-0.596-1.764-0.894    c-21.964-11.231-41.792-26.015-58.762-43.556c-8.224-8.497-15.778-17.666-22.585-27.381c-3.876-5.516-7.479-11.231-10.833-17.119    c-18.635-32.549-29.269-70.266-29.269-110.443c0-38.164,9.591-74.067,26.486-105.448c13.392-24.921,31.431-47.034,52.898-65.123    c0.199-0.174,0.397-0.323,0.571-0.472c10.063-8.423,20.871-15.952,32.301-22.486c0.174-0.124,0.348-0.224,0.522-0.323    c18.088-10.311,37.767-18.138,58.563-23.058c0.199-0.05,0.397-0.099,0.596-0.149c16.349-3.826,33.419-5.839,50.935-5.839    c68.651,0,130.071,31.033,170.968,79.857c21.269,25.418,37.021,55.681,45.295,88.901c3.305,13.268,5.417,27.008,6.237,41.096    c0.025,0.224,0.05,0.422,0.05,0.646C461.579,256.482,461.703,260.631,461.703,264.78z"/>
		<g>
			<path style="fill:#FFFFFF;" d="M460.734,285.477c0,0.224-0.025,0.422-0.05,0.621c-12.001-3.777-23.455-13.268-34.835-28.772     c-8.721-11.901-16.374-24.971-23.753-37.618c-13.044-22.312-26.511-45.394-46.314-62.389     c-17.144-14.709-38.91-24.424-61.296-27.331c-15.355-1.988-31.257-0.919-46.612,0.099c-20.548,1.367-41.767,2.783-61.718-3.155     c-25.269-7.529-46.96-27.431-56.6-51.954c-0.472-1.242-0.944-2.484-1.367-3.727c0.174-0.124,0.348-0.224,0.522-0.323     c0.447,1.292,0.919,2.559,1.416,3.826c9.591,24.35,31.133,44.102,56.203,51.581c19.852,5.888,41.021,4.497,61.495,3.13     c15.405-1.019,31.331-2.087,46.736-0.099c22.511,2.932,44.401,12.696,61.619,27.48c19.877,17.07,33.393,40.177,46.463,62.563     c7.379,12.622,15.007,25.667,23.703,37.568C437.602,272.309,448.907,281.676,460.734,285.477z"/>
			<path style="fill:#FFFFFF;" d="M443.938,352.091c-0.074,0.223-0.174,0.422-0.273,0.646h-0.571c-4.671,0-9.268-0.546-13.666-1.689     c-25.095-6.411-40.574-28.896-47.556-41.742c-6.883-12.672-11.802-26.511-16.573-39.878c-2.385-6.708-4.845-13.641-7.528-20.324     c-10.063-25.194-21.766-41.717-36.798-52.028c-26.487-18.163-61.421-14.982-86.068-9.119c-3.727,0.894-7.553,1.888-11.231,2.857     c-14.535,3.801-29.567,7.727-44.624,6.187c-22.039-2.311-43.929-16.995-60.054-40.276c-12.87-18.61-20.871-40.226-23.679-62.514     c0.199-0.174,0.397-0.323,0.571-0.472c2.733,22.337,10.734,44.003,23.604,62.638c16.026,23.132,37.767,37.717,59.632,40.003     c14.958,1.565,29.915-2.385,44.4-6.187c3.677-0.944,7.504-1.963,11.231-2.857c24.772-5.888,59.905-9.069,86.565,9.218     c15.131,10.386,26.909,27.008,37.046,52.302c2.683,6.708,5.143,13.641,7.529,20.349c4.746,13.367,9.665,27.157,16.523,39.804     c6.932,12.746,22.288,35.108,47.159,41.444C434.198,351.643,439.018,352.165,443.938,352.091z"/>
			<path style="fill:#FFFFFF;" d="M461.356,252.382c-5.541-1.242-10.982-3.603-15.927-7.007     c-11.305-7.851-20.051-20.324-26.784-38.139c-2.807-7.429-5.069-15.206-7.255-22.71c-2.137-7.33-4.348-14.883-7.081-22.163     c-7.752-20.772-19.504-38.313-33.965-50.687c-16.398-14.013-36.947-21.691-56.426-21.02c-9.044,0.323-18.039,2.36-26.76,4.323     c-8.025,1.814-16.349,3.702-24.697,4.249c-1.565,0.099-3.156,0.149-4.746,0.149c-23.008,0-45.22-10.56-58.886-28.201     c-5.367-6.932-9.243-14.933-11.553-23.306c0.199-0.05,0.397-0.099,0.596-0.149c2.286,8.299,6.137,16.2,11.454,23.083     c13.541,17.492,35.58,27.952,58.389,27.952c1.565,0,3.131-0.05,4.721-0.149c8.298-0.547,16.572-2.41,24.598-4.224     c8.721-1.988,17.765-4.025,26.859-4.348c0.795-0.025,1.566-0.025,2.36-0.025c18.908,0,38.636,7.653,54.488,21.194     c14.56,12.448,26.362,30.064,34.164,50.96c2.708,7.28,4.92,14.858,7.081,22.188c2.187,7.504,4.447,15.256,7.255,22.685     c6.659,17.666,15.355,30.039,26.536,37.816c4.82,3.33,10.137,5.64,15.529,6.883C461.331,251.96,461.356,252.158,461.356,252.382z     "/>
		</g>
		<path style="fill:#F05D6A;" d="M45.139,375.143C26.553,342.604,15.933,304.93,15.933,264.78c0-38.164,9.591-74.067,26.486-105.448    c6.112,1.292,12.349,3.727,18.61,7.454c10.883,6.435,21.244,14.933,26.138,26.586c4.969,11.926,3.553,25.641-0.224,37.99    c-3.777,12.374-9.765,23.952-13.914,36.201c-3.528,10.361-5.739,21.194-6.535,32.102c-0.596,7.876-0.447,15.952,2.187,23.381    C72.732,334.599,45.139,375.143,45.139,375.143z"/>
		<g>
			<path style="fill:#401A49;" d="M88.058,246.574c-11.774-6.757-19.732-18.98-23.547-32.008c-4.712-16.093-3.47-34.04,4.329-48.885     c7.799-14.845,22.293-26.236,38.772-29.338c0.521-16.723,8.296-33.623,21.496-43.904c13.201-10.28,30.346-17.639,46.689-14.048     c1.035,0.208,3.068-1.57,5.571-2.543c3.086-1.2,3.572-1.388,6.012-1.742c5.349-0.776,10.811-0.602,16.152,0.153     c7.391,1.045,14.694,3.22,21.083,7.08c14.383,8.689,22.187,26.908,17.366,43.267c15.516,17.287,26.256,40.434,25.267,63.641     c-0.988,23.208-13.289,46.158-33.294,57.963c-21.201,12.51-47.395,11.585-71.993,10.651     c-23.497-0.892-47.698-1.601-69.207-11.102L88.058,246.574z"/>
			<path style="fill:#8F8FEF;" d="M287.803,468.819c0,0-10.038,2.659-25.219,6.112c-2.683,0.621-5.566,1.267-8.547,1.913     c-2.41,0.522-4.919,1.068-7.504,1.615c-6.56,1.367-13.591,2.758-20.871,4.1c-5.715,1.068-11.579,2.062-17.467,3.006     c-23.505-3.23-45.817-10.113-66.365-20.076c-0.919-0.423-1.814-0.87-2.683-1.317c-0.596-0.298-1.193-0.596-1.764-0.894     c-21.964-11.231-41.792-26.015-58.762-43.556c-8.224-8.497-15.778-17.666-22.585-27.381c-3.876-5.516-7.479-11.231-10.833-17.119     c-0.77-28.4-0.224-58.439,3.95-78.291c4.199-19.952,19.803-37.767,36.649-51.78c20.896-17.368,43.63-28.896,48.724-31.356     c0.671-0.348,1.044-0.522,1.044-0.522l44.351,8.672c0,0,0.273,0.099,0.82,0.348c2.957,1.391,14.262,7.18,38.487,25.269     c1.516,1.143,3.007,2.311,4.447,3.553c25.89,22.089,39.506,59.358,49.047,89.249c2.161,6.758,4.075,16.473,5.764,27.629     c2.584,17.02,4.622,37.32,6.137,55.234c0.373,4.497,0.72,8.82,1.043,12.92c0.497,6.659,0.92,12.672,1.242,17.666     C287.505,463.03,287.803,468.819,287.803,468.819z"/>
			<g>
				<path style="fill:#401A49;" d="M237.94,401.629c-0.228,0-0.449-0.116-0.575-0.325c-0.192-0.318-0.09-0.73,0.228-0.922      c6.956-4.193,14.483-7.295,22.371-9.219c0.364-0.09,0.726,0.136,0.813,0.494c0.087,0.36-0.134,0.723-0.493,0.812      c-7.757,1.891-15.16,4.941-21.998,9.064C238.177,401.597,238.058,401.629,237.94,401.629z"/>
				<path style="fill:#401A49;" d="M238.262,400.985c-0.017,0-0.034-0.001-0.053-0.003c-0.369-0.029-0.645-0.352-0.616-0.722      c2.938-37.577-9.47-75.447-20.419-108.86c-0.116-0.352,0.078-0.731,0.43-0.847c0.34-0.118,0.73,0.075,0.847,0.429      c10.987,33.532,23.439,71.537,20.481,109.382C238.905,400.717,238.609,400.985,238.262,400.985z"/>
			</g>
			<g>
				<path style="fill:#FF899A;" d="M180.768,222.862c-0.215-5.157-0.026-6.743,0.35-12.061c0.349-4.862,0.913-9.67,1.639-14.316      c-2.713-0.967-5.506-3.411-7.387-5.614c-8.219-9.67-17.164-18.694-26.753-27.021c-0.994-0.86-2.122-1.746-3.331-2.471      c-2.202-1.397-4.647-2.229-6.876-1.263c-0.698,19.259-2.149,38.49-4.325,57.615c0,0,14.965,47.993,38.281,41.135      C195.684,252.008,180.768,222.862,180.768,222.862z"/>
				<path style="fill:#401A49;" d="M182.756,196.484c-0.725,4.647-1.289,9.455-1.639,14.316      c-11.013-0.94-21.461-6.607-28.552-15.095c-7.574-9.079-11.254-21.193-10.556-32.984c1.074-0.51,2.149-0.967,3.277-1.343      c1.209,0.725,2.337,1.611,3.331,2.471c9.589,8.327,18.533,17.351,26.753,27.021C177.25,193.073,180.043,195.518,182.756,196.484      z"/>
				<g>
					<path style="fill:#FF899A;" d="M225.073,134.975c0,0.038,0.001,0.075,0.001,0.113c0.134,15.235-2.612,31.172-8.765,45.147       c-4.027,9.142-10.921,18.351-21.762,18.855c-28.284,1.316-48.643-11.899-55.412-37.765c-3.438,1.343-11.389,1.316-12.571,1.101       c-5.748-0.967-10.932-4.056-12.382-10.1c-2.444-10.341,8.327-18.614,17.029-16.357c-0.027-0.215-0.027-0.403-0.054-0.618       c-0.107-1.182-0.161-2.391-0.161-3.572c0-25.947,21.031-46.978,46.978-46.978c4.002,0,7.897,0.51,11.604,1.45       C211.911,91.915,224.835,112.696,225.073,134.975z"/>
					<g>
						<path style="fill:#401A49;" d="M135.518,154.562c-0.206,0-0.41-0.096-0.541-0.274c-0.72-0.982-1.575-1.862-2.538-2.616        c-0.721-0.566-1.415-0.991-2.12-1.299c-2.414-1.059-5.268-0.855-7.787-0.673c-0.42,0.035-0.691-0.253-0.718-0.621        c-0.027-0.37,0.252-0.691,0.621-0.718c2.672-0.195,5.707-0.409,8.422,0.783c0.81,0.354,1.599,0.836,2.412,1.472        c1.058,0.83,1.997,1.798,2.79,2.878c0.221,0.3,0.155,0.719-0.143,0.939C135.795,154.519,135.657,154.562,135.518,154.562z"/>
						<g>
							<path style="fill:#401A49;" d="M183.854,145.797c0,2.793-1.881,5.058-4.2,5.058s-4.2-2.264-4.2-5.058         c0-2.793,1.88-5.058,4.2-5.058S183.854,143.004,183.854,145.797z"/>
							<path style="fill:#401A49;" d="M219.172,145.797c0,2.793-1.881,5.058-4.2,5.058c-2.32,0-4.201-2.264-4.201-5.058         c0-2.793,1.881-5.058,4.201-5.058C217.291,140.739,219.172,143.004,219.172,145.797z"/>
							<path style="fill:#401A49;" d="M203.397,165.932c-1.089,0-2.208-0.416-3.154-1.188c-0.621-0.505-0.988-1.037-1.116-1.629         c-0.08-0.361,0.148-0.719,0.512-0.799c0.371-0.079,0.721,0.153,0.798,0.513c0.061,0.278,0.282,0.571,0.653,0.874         c0.832,0.68,1.868,0.988,2.761,0.85c0.699-0.114,1.657-0.546,1.987-1.044c0.114-0.171,0.107-0.281,0.087-0.359         c-1.798-7.356-2.536-14.925-2.189-22.495c0.015-0.36,0.313-0.642,0.67-0.642c0.01,0,0.019,0.001,0.032,0.001         c0.369,0.017,0.655,0.331,0.638,0.701c-0.34,7.443,0.386,14.885,2.155,22.115c0.116,0.483,0.022,0.974-0.272,1.419         c-0.59,0.891-1.912,1.468-2.89,1.628C203.848,165.914,203.623,165.932,203.397,165.932z"/>
							<path style="fill:#401A49;" d="M174.377,136.622c-0.167,0-0.335-0.061-0.463-0.185c-0.269-0.256-0.279-0.681-0.022-0.949         c2.024-2.118,4.979-3.264,7.898-3.048c0.369,0.027,0.648,0.348,0.621,0.718c-0.027,0.368-0.281,0.64-0.718,0.621         c-2.487-0.181-5.076,0.802-6.83,2.635C174.732,136.553,174.555,136.622,174.377,136.622z"/>
							<path style="fill:#401A49;" d="M219.642,135.649c-0.201,0-0.4-0.091-0.534-0.263c-1.366-1.778-3.989-2.136-5.86-1.712         c-0.364,0.078-0.723-0.147-0.803-0.507c-0.082-0.361,0.146-0.721,0.507-0.803c2.346-0.534,5.488-0.053,7.223,2.204         c0.226,0.294,0.17,0.716-0.124,0.942C219.928,135.603,219.785,135.649,219.642,135.649z"/>
							<path style="fill:#401A49;" d="M199.869,173.282c-0.767,0-1.548-0.148-2.286-0.458c-2.05-0.86-3.683-2.852-4.37-5.328         c-0.097-0.358,0.112-0.728,0.468-0.826c0.369-0.097,0.73,0.111,0.827,0.467c0.575,2.084,1.919,3.748,3.594,4.45         c1.827,0.767,4.04,0.229,5.049-1.214c0.213-0.307,0.626-0.381,0.936-0.165c0.303,0.212,0.376,0.631,0.165,0.934         C203.293,172.514,201.614,173.282,199.869,173.282z"/>
						</g>
					</g>
				</g>
				<path style="fill:#401A49;" d="M189.659,110.452c-2.122,5.426-5.506,10.502-10.395,13.645      c-4.862,3.169-11.254,4.163-16.465,1.639c0.591,5.855-1.343,11.953-5.238,16.384c-3.921,4.432-9.213,6.769-15.122,6.903      c-1.45-2.847-2.928-5.721-4.889-8.246c-1.719-2.229-5.006-4.46-7.531-5.695c-0.107-1.182-0.171-2.247-0.171-3.429      c0-25.947,21.544-48.177,47.491-48.177c4.002,0,8.123,0.26,11.83,1.2C192.741,91.982,192.695,102.743,189.659,110.452z"/>
			</g>
			<g>
				<polygon style="fill:#401A49;" points="261.519,482.089 161.623,457.858 282.779,435.913 465.883,449.857     "/>
				<polygon style="opacity:0.35;fill:#8F8FEF;" points="261.519,482.089 161.623,457.858 282.779,435.913 465.883,449.857     "/>
				<path style="fill:#FF899A;" d="M226.087,414.882c0,0,38.404-4.115,44.348-3.2c5.943,0.914,31.089,28.803,29.717,32.461      c-1.372,3.658-16.459,13.258-20.116,10.515c-3.658-2.743-19.202-9.601-19.202-9.601l-40.69,3.658L226.087,414.882z"/>
				<polygon style="fill:#401A49;" points="161.623,457.858 168.481,468.831 261.748,491.233 459.254,458.773 465.883,449.743       261.748,478.432     "/>
				<polygon style="fill:#401A49;" points="291.008,283.897 261.519,482.089 465.883,449.857 498.115,264.924     "/>
				<ellipse style="fill:#FFE5D2;" cx="393.876" cy="370.992" rx="24.002" ry="23.317"/>
			</g>
			<g>
				<path style="fill:#8F8FEF;" d="M239.8,453.29c0,0-26.809,5.565-59.433,8.423c-0.696,0.05-1.392,0.124-2.087,0.199      c-4.423,0.348-8.97,0.671-13.541,0.919c-1.068,0.05-2.161,0.099-3.23,0.149c-8.026,0.373-16.175,0.497-24.126,0.298      c-21.964-11.231-41.792-26.015-58.762-43.556c-8.224-8.497-15.778-17.666-22.585-27.381      c-6.833-44.028-4.596-90.839-4.596-90.839l20.125-28.797c0,0,20.101,1.366,36.574,23.753      c9.392,12.821,13.119,44.053,14.61,68.427c0.373,6.46,0.597,12.448,0.746,17.492c0.248,9.143,0.174,15.132,0.174,15.132      l0.994-0.025l1.342-0.05l111.511-3.131l0.174,4.522l0.05,1.217v0.249l0.025,0.472l0.025,0.621v0.199l0.472,12.075l0.348,8.647      l0.82,21.467l0.124,3.205L239.8,453.29z"/>
				<path style="fill:#401A49;" d="M240.47,453.265c0,0.348-0.223,0.621-0.547,0.671c-0.397,0.075-27.977,4.87-57.246,8.249      c-0.721,0.099-1.441,0.174-2.186,0.248c-5.019,0.572-10.088,1.118-15.032,1.54c-7.255,0.671-14.287,1.168-20.722,1.416      c-0.969,0.025-1.938,0.05-2.907,0.1c-0.919-0.423-1.814-0.87-2.683-1.317c1.814-0.025,3.677-0.05,5.541-0.124      c5.267-0.199,10.932-0.571,16.821-1.069c1.043-0.074,2.087-0.174,3.155-0.273c3.951-0.348,8.001-0.746,12.026-1.193      c0.571-0.05,1.168-0.124,1.764-0.199c28.4-3.131,56.377-7.852,60.675-8.597l-0.1-5.69l-0.05-3.18l-0.373-21.542l-0.149-8.671      l-0.224-12.076v-0.174H125.506c-0.124,0-0.224-0.025-0.323-0.099c-0.199-0.099-0.348-0.298-0.348-0.546      c0-0.05-0.025-0.422-0.05-1.118c-0.025-0.547-0.075-1.242-0.124-2.137c-0.174-3.18-0.547-8.547-1.168-15.107      c-1.913-19.703-6.311-50.339-15.927-66.365c-14.784-24.623-34.636-30.735-34.835-30.785c-0.348-0.099-0.547-0.472-0.447-0.844      c0.1-0.348,0.472-0.547,0.845-0.447c0.199,0.05,20.523,6.311,35.58,31.381c7.205,12.001,11.504,31.978,14.038,49.569      c2.012,14.187,2.932,26.809,3.255,32.549c0.075,1.044,0.124,1.839,0.124,2.385c0.025,0.099,0.025,0.149,0.025,0.224H238.88      c0.025,0,0.05,0,0.074,0.025c0.348,0.025,0.596,0.298,0.596,0.621v0.124l0.224,12.697l0.522,30.114l0.075,3.28L240.47,453.265z"/>
				<path style="fill:#401A49;" d="M115.034,415.514c-0.116,0-0.235-0.03-0.342-0.095c-0.32-0.189-0.425-0.6-0.235-0.92      c3.111-5.243,6.636-10.316,10.477-15.074c0.228-0.286,0.655-0.334,0.944-0.101c0.289,0.233,0.333,0.656,0.099,0.945      c-3.8,4.709-7.289,9.726-10.365,14.914C115.486,415.396,115.263,415.514,115.034,415.514z"/>
			</g>
			<path style="fill:none;" d="M238.427,399.916c0.568,0.338,1.262-0.126,1.763-0.557c5.558-4.779,11.961-8.574,18.823-11.153"/>
		</g>
		<g>
			<path style="opacity:0.16;fill:#FFA766;" d="M455.069,210.64c-8.671,30.984-37.121,53.693-70.862,53.693     c-40.649,0-73.595-32.946-73.595-73.595c0-40.624,32.946-73.57,73.595-73.57c8.995,0,17.616,1.615,25.567,4.572     C431.043,147.157,446.795,177.42,455.069,210.64z"/>
			<g>
				<path style="fill:#FFA766;" d="M436.864,182.45c0-26.539-21.515-48.054-48.054-48.054c-26.54,0-48.054,21.515-48.054,48.054      c0,23.998,17.61,43.829,40.6,47.418v19.033h17.128v-19.372C420.386,225.052,436.864,205.675,436.864,182.45z"/>
				<path style="fill:#FFF5EE;" d="M396.489,243.676c-1.612-1.835-2.188-4.704-1.764-8.767c0.421-4.007,1.331-7.782,2.705-11.219      c1.336-3.342,3.152-6.46,4.909-9.473c0.955-1.635,1.94-3.326,2.833-5.03c3.128-5.959,4.424-11.123,3.966-15.79      c-0.234-2.361-0.938-4.692-2.038-6.743c-0.964-1.792-2.103-3.135-3.39-3.99c-3.182-2.121-7.852-1.293-10.859,1.924      c-0.884,0.945-1.645,2.078-2.27,3.366c1.184,2.632,1.825,5.515,2.337,8.267c0.496,2.693,0.831,6.053-1.029,8.146      c-0.44,0.5-0.894,0.717-1.359,0.672c-0.707-0.085-1.135-0.842-1.275-1.09c-1.041-1.862-1.46-4.199-1.317-7.355      c0.147-3.252,0.824-6.2,1.958-8.643c-0.122-0.262-0.25-0.522-0.386-0.778c-1.6-3.043-3.968-5.223-6.497-5.98      c-1.544-0.46-3.313-0.457-5.129,0.016c-3.966,1.029-7.27,4.185-8.418,8.038c-1.018,3.421-0.538,7.631,1.427,12.514      c1.743,4.329,4.207,8.588,7.751,13.403c0.386,0.525,0.781,1.048,1.174,1.572c2.092,2.787,4.258,5.668,5.583,9.029      c1.862,4.717,2.12,10.422,0.763,16.956l-0.608-0.126c1.331-6.413,1.086-11.999-0.73-16.603      c-1.296-3.283-3.435-6.129-5.503-8.883c-0.395-0.525-0.791-1.051-1.179-1.578c-3.577-4.858-6.065-9.16-7.826-13.539      c-2.019-5.016-2.506-9.365-1.446-12.923c1.207-4.057,4.684-7.378,8.858-8.462c1.921-0.501,3.811-0.503,5.461-0.009      c2.688,0.804,5.192,3.095,6.869,6.286c0.063,0.119,0.124,0.24,0.185,0.36c0.608-1.165,1.329-2.199,2.153-3.079      c3.208-3.439,8.217-4.307,11.659-2.018c1.371,0.912,2.578,2.33,3.591,4.214c1.137,2.122,1.867,4.534,2.108,6.976      c0.473,4.79-0.847,10.069-4.031,16.138c-0.903,1.717-1.893,3.414-2.847,5.055c-1.745,2.995-3.552,6.091-4.871,9.393      c-1.352,3.383-2.248,7.102-2.663,11.053c-0.405,3.88,0.122,6.593,1.614,8.292L396.489,243.676z M390.235,188.715      c-0.966,2.267-1.544,4.954-1.675,7.906c-0.138,3.036,0.255,5.267,1.238,7.021c0.276,0.491,0.54,0.746,0.807,0.778      c0.299,0.029,0.615-0.233,0.821-0.466c1.68-1.893,1.352-5.067,0.88-7.62C391.835,193.798,391.253,191.152,390.235,188.715z"/>
				<g>
					<path style="fill:#8F8FEF;" d="M380.88,240.812l17.921-0.317l0.534,14.146c0.054,1.44-1.124,2.625-2.565,2.577l-14.024-0.464       c-1.378-0.046-2.456-1.205-2.401-2.583L380.88,240.812z"/>
					<path style="fill:#8F8FEF;" d="M383.787,256.143l0.355,2.75c0.16,1.239,1.215,2.167,2.464,2.167h7.178       c1.12,0,2.102-0.75,2.397-1.831l0.928-3.403L383.787,256.143z"/>
				</g>
				<g>
					<path style="fill:#FFF5EE;" d="M419.109,169.18c0.924,0.802,2.065,1.539,3.279,1.385c0.897-0.114,1.666-0.705,2.261-1.386       c1.624-1.859,2.217-4.472,1.954-6.926c-0.446-4.148-5.571-14.144-11.297-10.532       C409.545,155.355,415.631,166.159,419.109,169.18z"/>
					<path style="fill:#FFF5EE;" d="M421.453,180.158c0.107,0.793,0.34,1.585,0.799,2.241c1.073,1.53,3.337,2,5.014,1.174       c3.484-1.715,3.219-7.039,0.09-8.981C423.657,172.297,421.001,176.822,421.453,180.158z"/>
				</g>
			</g>
		</g>
		<g>
			<rect x="286.939" y="22.851" style="fill:#FFF5EE;" width="125.607" height="99.809"/>
			<polygon style="fill:#FFF5EE;" points="290.323,94.747 255.22,117.585 296.666,108.703    "/>
		</g>
		<g>
			<g>
				
					<ellipse transform="matrix(0.1387 -0.9903 0.9903 0.1387 227.8647 407.9358)" style="fill:#FFD2A7;" cx="348.458" cy="72.967" rx="30.662" ry="30.662"/>
			</g>
			<g>
				<path style="fill:#FFF5EE;" d="M348.458,101.404c-15.681,0-28.437-12.757-28.437-28.437c0-15.681,12.757-28.437,28.437-28.437      c15.68,0,28.438,12.757,28.438,28.437C376.896,88.647,364.138,101.404,348.458,101.404z M348.458,45.004      c-15.419,0-27.963,12.544-27.963,27.963c0,15.419,12.544,27.963,27.963,27.963c15.419,0,27.964-12.543,27.964-27.963      C376.422,57.547,363.877,45.004,348.458,45.004z"/>
			</g>
			<g>
				<path style="fill:#FFFFFF;" d="M350.579,84.707v3.009h-1.572V84.74c-3.678-0.168-6.422-1.874-7.459-4.75l1.539-0.87      c0.77,2.342,2.81,3.746,5.92,3.913V73.1c-3.412-1.204-6.354-2.442-6.354-6.422c0-3.479,2.809-5.82,6.354-6.053v-3.011h1.572      v3.011c2.643,0.3,4.883,1.706,5.92,4.213l-1.505,0.837c-0.769-1.907-2.275-3.044-4.416-3.311v9.499      c3.412,1.204,6.489,2.541,6.489,6.522C357.067,81.896,354.392,84.338,350.579,84.707z M349.006,71.295v-8.964      c-2.742,0.233-4.582,2.007-4.582,4.348C344.424,69.321,346.364,70.324,349.006,71.295z M355.262,78.385      c0-2.676-1.941-3.779-4.683-4.75v9.331C353.589,82.633,355.262,80.792,355.262,78.385z"/>
			</g>
		</g>
		<g>
			<g>
				<rect x="105.084" y="314.876" style="fill:#FFF5EE;" width="159.863" height="58.363"/>
				<polygon style="fill:#FFF5EE;" points="260.718,360.763 288.208,363.723 259.872,349.344     "/>
			</g>
			<g>
				<rect x="126.653" y="328.198" style="fill:#401A49;" width="114.611" height="4.44"/>
				<rect x="126.653" y="338.771" style="fill:#401A49;" width="114.611" height="4.229"/>
				<rect x="126.653" y="349.344" style="fill:#401A49;" width="80.354" height="4.441"/>
			</g>
		</g>
		<g>
			<path style="fill:#F05D6A;" d="M438.759,246.612c-15.716,0.01-28.448,12.758-28.438,28.474c0.005,8.102,3.413,15.393,8.85,20.572     l-5.698,11.934l13.135-6.831c3.699,1.755,7.82,2.766,12.187,2.763c15.716-0.01,28.448-12.758,28.438-28.474     C467.223,259.334,454.474,246.602,438.759,246.612z"/>
			<path style="fill:#401A49;" d="M438.044,290.505c-0.082,0-0.159-0.022-0.218-0.079c-0.056-0.039-0.101-0.089-0.129-0.147     c-0.119-0.133-0.353-0.371-0.676-0.7c-11.357-11.549-14.764-20.041-10.126-25.241c1.203-1.35,2.616-2.003,4.169-1.94     c3.556,0.143,7.029,4.004,8.587,5.997c1.446-1.317,5.955-5.074,9.785-4.576c1.591,0.202,2.885,1.094,3.851,2.65l0,0     c3.804,6.129-0.917,13.943-14.029,23.229c-0.405,0.287-0.697,0.492-0.845,0.609c-0.047,0.077-0.115,0.142-0.194,0.168     C438.164,290.494,438.103,290.505,438.044,290.505z M430.866,263.159c-1.259,0-2.401,0.566-3.4,1.687     c-2.971,3.332-3.631,10.235,10.1,24.197c0.218,0.221,0.395,0.405,0.531,0.545c0.168-0.125,0.407-0.294,0.718-0.515     c12.723-9.009,17.375-16.479,13.821-22.203l0,0c-0.838-1.35-1.947-2.122-3.299-2.294c-3.828-0.501-8.563,3.796-9.469,4.66     c-0.079,0.074-0.19,0.097-0.295,0.105c-0.108-0.009-0.208-0.064-0.274-0.151c-1.338-1.766-4.822-5.89-8.266-6.028     C430.978,263.16,430.922,263.159,430.866,263.159z"/>
		</g>
		<g>
			<path style="fill:#FFF5EE;" d="M319.807,227.348c-8.22-14.256-26.441-19.149-40.698-10.928     c-14.256,8.22-19.149,26.441-10.928,40.697c6.403,11.104,18.871,16.492,30.809,14.462l9.725,9.687l-1.746-12.245     c0.64-0.311,1.283-0.615,1.909-0.976C323.135,259.825,328.028,241.604,319.807,227.348z"/>
			<g>
				<path style="fill:#401A49;" d="M299.241,257.551c-4.796,0-9.979-0.251-10.952-0.301c-0.18-0.009-0.328-0.146-0.349-0.325      l-2.337-19.007c-0.019-0.141,0.047-0.28,0.166-0.357c0.028-0.019,2.901-1.922,2.981-4.704c0.014-0.536,0.007-1.201-0.002-1.937      c-0.042-3.61-0.101-8.553,2.22-9.269c2.602-0.803,6.062,9.222,6.968,12.011c2.185-0.498,9.518-2.031,10.725-0.595      c0.898,1.063,0.477,2.908,0.14,4.389c-0.119,0.527-0.285,1.247-0.222,1.421c0.061,0.174,0.295,0.509,0.543,0.863      c0.732,1.048,1.841,2.632,1.706,4.344c-0.086,1.093-0.517,2.305-0.931,3.477c-0.423,1.194-0.821,2.323-0.704,2.955      c0.225,1.21,0.908,4.892-1.53,6.311C306.698,257.388,303.095,257.551,299.241,257.551z M288.638,256.525      c4.927,0.239,17.014,0.609,18.65-0.338c1.989-1.156,1.376-4.451,1.174-5.535c-0.154-0.828,0.257-1.991,0.735-3.338      c0.4-1.128,0.812-2.293,0.891-3.288c0.115-1.446-0.901-2.899-1.575-3.861c-0.302-0.43-0.54-0.771-0.636-1.042      c-0.124-0.359-0.012-0.903,0.201-1.832c0.285-1.251,0.676-2.964,0.016-3.745c-0.728-0.86-6.476,0.015-10.323,0.915      c-0.189,0.035-0.379-0.064-0.438-0.249c-1.657-5.191-4.665-12.34-6.146-11.852c-1.792,0.552-1.734,5.559-1.699,8.552      c0.009,0.746,0.016,1.421,0,1.966c-0.075,2.756-2.419,4.66-3.124,5.171L288.638,256.525z"/>
				<polygon style="fill:#401A49;" points="285.97,237.873 277.072,238.806 279.054,257.708 288.308,256.879     "/>
			</g>
		</g>
	</g>
</g>















</svg>
