<?xml version="1.0" encoding="UTF-8"?>
<!-- Generator: Adobe Illustrator 25.2.1, SVG Export Plug-In . SVG Version: 6.00 Build 0)  -->
<svg xmlns="http://www.w3.org/2000/svg" xmlns:xlink="http://www.w3.org/1999/xlink" version="1.1" id="Capa_1" x="0px" y="0px" viewBox="0 0 512 512" style="enable-background:new 0 0 512 512;" xml:space="preserve" width="512" height="512">
<g>
	<path style="fill:#FFFFFF;" d="M255.982,512c-31.94,0-63.09-5.818-92.585-17.297c-11.207-4.335-22.163-9.506-32.531-15.355   C10.753,413.26-35.417,257.647,29.416,136.787c7.573-14.341,16.506-27.964,26.619-40.607L44.22,52.778   c-2.145-7.873-0.541-16.113,4.401-22.61c4.944-6.497,12.46-10.243,20.627-10.275l88.454-0.319   c15.638-6.522,31.935-11.484,48.497-14.759c0.257-0.051,0.514-0.096,0.774-0.136c0.297-0.045,0.59-0.11,0.887-0.17   c14.005-2.634,28.01-4.114,41.856-4.448c0.138-0.003,1.65-0.031,1.865-0.034C253.049,0,254.516,0,255.982,0   c18,0,35.88,1.871,53.14,5.564c13.247,2.784,26.245,6.65,38.824,11.526c1.492,0.571,2.981,1.162,4.465,1.763l95.838-0.353   c8.037,0,15.438,3.549,20.408,9.74c4.968,6.192,6.833,14.186,5.118,21.937l-11.919,53.719c0.528,0.715,1.984,2.713,1.984,2.713   c0.588,0.808,1.175,1.619,1.752,2.436c14.894,21.158,26.334,44.306,34.269,68.95c4.75,9.13,7.359,19.526,7.768,30.949   c2.906,15.327,4.351,31.469,4.354,47.056c0,27.481-4.326,54.49-12.857,80.282c-2.453,7.418-5.25,14.708-8.316,21.685   c-0.336,0.865-0.718,1.726-1.111,2.554c-8.941,20.027-20.501,38.864-34.359,55.999c-4.722,5.897-9.89,11.764-15.313,17.379   c-7.958,8.268-17.114,16.507-26.277,23.711c-21.064,16.52-44.433,29.544-69.47,38.717c-17.325,6.406-35.574,10.927-54.188,13.42   c-0.382,0.056-1.882,0.251-2.026,0.268C277.444,511.333,266.649,512,255.982,512z"/>
	<g>
		<path style="fill:#8F8FEF;" d="M497.436,255.796c0,26.13-4.196,51.304-11.98,74.829c-2.315,7.003-4.948,13.861-7.9,20.545    c-0.231,0.636-0.521,1.273-0.81,1.881c-8.421,18.895-19.243,36.46-32.091,52.346c-4.543,5.672-79.836,65.744-103.535,74.425    c-16.118,5.961-33.074,10.186-50.639,12.529c-0.579,0.087-1.157,0.145-1.736,0.232c-9.81,1.215-19.793,1.852-29.949,1.852    c-30.412,0-59.522-5.7-86.288-16.117C162.034,474.266,2.018,229.03,47.59,144.68c8.449-16.002,18.664-30.962,30.383-44.562    c3.733-4.34,7.639-8.565,11.691-12.616c14.989-15.105,31.975-28.184,50.552-38.804h0.087c7.697-4.456,15.568-8.449,23.786-11.98    c15.336-6.655,31.483-11.748,48.295-15.076c81.686-16.694,170.294,13.059,225.039,75.9v0.029c2.94,3.302,5.823,6.715,8.565,10.186    v0.029c5.18,6.511,9.983,13.282,14.439,20.313C484.584,166.036,497.521,210.81,497.436,255.796z"/>
		<g>
			<path style="fill:#FFA766;" d="M162.144,425.494c-1.649,5.99-3.849,11.835-6.569,17.42c-0.029,0.087-0.087,0.202-0.145,0.289     c-0.232,0.521-0.492,1.042-0.753,1.534c-3.385,6.684-7.523,12.993-12.327,18.751c-1.736-0.955,1.681-67.075,1.681-67.104     c-4.571-4.468-65.408,15.16-65.408,15.16c-14.313-16.485-26.339-34.952-35.64-54.687     c-30.706-64.368-30.112-142.533,1.562-206.433c1.013-2.113,2.083-4.196,3.183-6.279c11.054,7.003,19.792,18.461,24.075,30.991     c7.234,21.355,3.964,44.822-1.939,66.554c-0.203,0.752-0.405,1.476-0.637,2.228c-0.202,0.81-0.434,1.65-0.665,2.46     c-2.199,7.871-4.398,15.799-4.63,23.931c-0.174,5.527,0.665,11.256,2.836,16.32c0.289,0.695,0.579,1.36,0.897,1.997     c1.591,3.067,3.704,5.845,6.395,8.073c6.077,5.064,14.15,6.684,21.731,8.97c20.149,6.053,37.902,19.077,50.465,35.882     c9.115,12.182,15.539,26.39,18.143,41.379C166.89,397.079,165.964,411.663,162.144,425.494z"/>
			<path style="fill:#FF899A;" d="M402.085,178.261c-16.147-7.958-34.492-9.81-52.056-13.687     c-17.564-3.907-35.766-10.649-46.443-25.146c-5.209-7.118-8.247-15.597-10.272-24.191c-6.048-25.84-4.375-68.857,14.694-92.874     c108.048,22.744,189.568,118.078,189.568,232.898c0,26.13-4.196,51.304-11.98,74.83c-3.762-0.578-7.437-1.591-10.967-3.009     c-15.742-6.366-27.808-21.008-31.078-37.646c-3.039-15.51,1.186-31.512,0.463-47.282"/>
		</g>
		<g>
			<path style="fill:#FFF5EE;" d="M493.264,209.975v0.029c0.232,10.475-1.823,20.719-4.254,29.11     c-2.199,7.553-5.035,15.047-7.755,22.31c-3.993,10.62-8.131,21.587-10.359,32.843c-3.906,19.648-1.244,39.845,6.8,56.368     c-0.231,0.636-0.521,1.273-0.81,1.881c-8.681-16.928-11.517-37.762-7.408-58.538c2.257-11.372,6.395-22.397,10.417-33.074     c2.72-7.205,5.527-14.7,7.726-22.195c4.601-15.741,7.755-38.167-3.183-55.789c-10.359-16.61-30.181-24.162-46.27-28.908     c-18.751-5.498-38.312-9.202-57.236-12.761c-23.005-4.369-46.761-8.855-69.274-16.609c-23.641-8.189-39.788-18.288-50.726-31.801     c-13.889-17.188-18.953-41.119-13.195-62.474c1.273-4.746,3.067-9.318,5.353-13.687c0.55,0,1.071,0,1.649-0.029     c-2.373,4.456-4.283,9.202-5.614,14.092c-5.643,20.892-0.666,44.331,12.935,61.172c10.764,13.311,26.68,23.265,50.089,31.338     c22.368,7.755,46.096,12.24,69.042,16.552c18.953,3.588,38.573,7.292,57.381,12.819c16.349,4.803,36.46,12.501,47.08,29.544     c0.376,0.608,0.752,1.244,1.099,1.852v0.029C491.296,192.18,493.09,201.15,493.264,209.975z"/>
			<path style="fill:#FFF5EE;" d="M430.385,421.212c-0.347,0.376-0.695,0.723-1.042,1.07c-1.505-0.955-3.009-1.968-4.485-3.038     c-3.53-2.546-6.916-5.324-10.099-8.247c-19.59-18.085-32.293-43.086-35.679-69.447c-0.058-0.232-0.087-0.463-0.116-0.724     c-0.521-4.225-0.781-8.507-0.81-12.79c0-1.273,0.029-2.575,0.058-3.877c0.087-3.067,0.289-6.135,0.665-9.202     c0-0.058,0-0.087,0.029-0.145c0.232-2.026,0.521-4.051,0.868-6.077c0.145-0.868,0.289-1.736,0.463-2.575     c0.289-1.534,0.608-3.067,0.955-4.601c0.087-0.463,0.203-0.926,0.348-1.418c0-0.174,0.058-0.347,0.116-0.55     c0.694-2.865,1.447-5.729,2.315-8.565c0.261-0.926,0.55-1.823,0.839-2.72c1.215-3.877,2.546-7.726,3.964-11.546     c0.174-0.579,0.376-1.129,0.637-1.707c1.62-4.456,3.356-8.854,5.122-13.224c0.521-1.36,1.07-2.691,1.592-4.022     c0.203-0.492,0.376-0.955,0.579-1.447c0.174-0.434,0.347-0.897,0.55-1.36c0.839-2.113,1.678-4.254,2.546-6.395     c0.955-2.46,1.91-4.948,2.836-7.408c0.145-0.376,0.26-0.723,0.405-1.1c0.087-0.231,0.173-0.463,0.26-0.723     c2.575-7.234,4.311-14.671,1.707-21.066c-0.116-0.318-0.232-0.607-0.376-0.897c-2.576-5.469-8.218-9.52-17.217-12.385     c-0.203-0.058-0.405-0.145-0.637-0.203c-14.815-4.572-30.673-5.237-46.009-5.903c-11.401-0.463-23.178-0.984-34.55-3.067     c-11.633-2.141-23.034-6.106-33.798-11.777c-0.781-0.377-1.534-0.782-2.286-1.216c-8.565-4.716-16.696-10.446-24.162-17.188     c-3.212-2.807-6.337-5.874-9.288-9.086c-1.823-1.968-3.588-3.993-5.267-6.077c-9.549-11.603-17.014-24.625-22.049-38.283     c-0.521-1.331-0.984-2.662-1.447-3.993c-2.605-7.871-4.456-15.944-5.44-24.075c-1.476-12.327-0.984-24.625,1.244-36.257     c0.781-4.051,1.794-8.015,2.98-11.893c1.592-5.15,3.531-10.156,5.816-14.902c0.579-0.087,1.157-0.203,1.736-0.318     c-2.373,4.832-4.427,9.925-6.077,15.22c-1.186,3.878-2.199,7.842-2.98,11.893c-2.257,11.575-2.778,23.786-1.302,36.084     c0.983,8.276,2.893,16.378,5.585,24.249c0.376,1.158,0.782,2.286,1.244,3.415c4.832,13.021,11.893,25.262,20.574,36.17     c4.456,5.585,9.376,10.851,14.642,15.655c8.305,7.61,17.507,14.15,27.345,19.329c0.839,0.434,1.678,0.868,2.517,1.273     c9.722,4.861,20.024,8.42,30.673,10.359c11.256,2.055,23.004,2.576,34.347,3.039c15.423,0.665,31.367,1.36,46.356,5.961     c1.62,0.492,3.125,1.013,4.514,1.592c7.205,2.893,11.893,6.771,14.266,11.777c0.231,0.492,0.434,0.984,0.608,1.505     c2.402,6.54,0.781,13.919-1.736,21.066c-0.087,0.26-0.174,0.492-0.26,0.723c-0.203,0.55-0.376,1.071-0.579,1.592     c-0.868,2.315-1.736,4.601-2.633,6.916c-1.244,3.125-2.488,6.221-3.733,9.289c-0.058,0.145-0.116,0.318-0.174,0.463     c-0.116,0.318-0.26,0.608-0.376,0.926c-0.347,0.839-0.666,1.707-1.013,2.546c-1.765,4.37-3.501,8.768-5.151,13.224     c-0.376,0.926-0.694,1.881-1.042,2.807c-1.244,3.443-2.46,6.916-3.559,10.446c-0.694,2.199-1.36,4.398-1.968,6.627     c-0.608,2.17-1.157,4.398-1.678,6.597c0.029,0,0.029,0,0,0.029c-0.058,0.174-0.087,0.347-0.116,0.521     c-0.694,3.096-1.302,6.221-1.765,9.347v0.029c-0.145,1.013-0.289,2.026-0.405,3.067c-0.029,0.087-0.029,0.203-0.058,0.289     c0,0.087-0.029,0.203-0.029,0.29c-0.463,3.993-0.695,8.015-0.666,12.038c0,0.289,0,0.607,0.029,0.897     c0.029,4.254,0.318,8.536,0.897,12.79c0.029,0.231,0.058,0.492,0.087,0.724c3.415,24.972,15.366,49.076,33.364,66.641     c3.646,3.588,7.581,6.916,11.719,9.896C427.26,419.186,428.794,420.228,430.385,421.212z"/>
			<path style="fill:#FFF5EE;" d="M71.776,254.133c2.286,16.291-3.183,32.351-8.478,47.89c-0.839,2.46-1.678,4.919-2.46,7.379     c-8.131,24.827-11.083,45.285-9.173,64.123c-0.579-0.983-1.157-1.997-1.678-2.98c-1.36-18.172,1.707-37.936,9.463-61.606     c0.81-2.431,1.649-4.919,2.488-7.379c5.237-15.394,10.649-31.28,8.42-47.224c-2.17-15.452-11.748-29.805-25.638-38.37     c-5.99-3.704-12.703-6.279-19.764-7.697c0.116-0.492,0.203-0.955,0.29-1.447c7.234,1.447,14.121,4.109,20.255,7.9     C59.738,223.518,69.548,238.246,71.776,254.133z"/>
			<path style="fill:#FFF5EE;" d="M290.622,491.816c-0.579,0.087-1.157,0.145-1.736,0.232     c-17.709-25.724-45.893-44.678-76.566-49.134c-1.447-0.232-2.923-0.405-4.369-0.55c-8.334-0.81-16.754-0.695-25.175-0.203     c-3.125,0.203-6.279,0.463-9.404,0.753c-2.113,0.174-4.225,0.405-6.309,0.607c0,0,0,0-0.029,0     c-1.071,0.116-2.142,0.203-3.212,0.318c-0.087,0-0.174,0.029-0.26,0.029c-2.923,0.289-5.903,0.579-8.883,0.868     c-2.894,0.232-5.816,0.492-8.71,0.666c-9.144,0.608-20.603,0.926-32.351-0.897c-0.695-0.521-1.389-1.042-2.055-1.592     c-0.145-0.087-0.261-0.203-0.405-0.318c0.608,0.116,1.215,0.232,1.823,0.318c11.922,1.996,23.612,1.707,32.901,1.07     c3.154-0.203,6.366-0.492,9.549-0.781c0.984-0.087,1.968-0.203,2.951-0.289c1.794-0.174,3.559-0.347,5.296-0.521     c6.424-0.637,12.964-1.302,19.532-1.707c8.305-0.463,16.639-0.579,24.886,0.232c4.08,0.405,8.16,1.07,12.211,1.997     c19.706,4.398,38.514,14.613,53.938,29.457C280.465,478.332,285.934,484.872,290.622,491.816z"/>
		</g>
		<g>
			<g>
				<path style="fill:#401A49;" d="M451.27,35.124c5.565-0.02,9.712,5.128,8.507,10.561l-13.65,61.538v0.029l-9.925,44.707      l-0.318,1.418l-9.752,43.926l-4.659,21.008l23.323,186.553c-4.543,5.672-9.346,11.112-14.41,16.349      c-0.347,0.376-0.695,0.723-1.042,1.07c-2.72,2.778-5.527,5.498-8.391,8.16c-4.684,4.338-9.538,8.505-14.563,12.465      c-0.007,0.002-0.014,0.005-0.021,0.007H163.291l-71.52-17.391c0,0,0,0,0-0.029c-4.796-4.619-9.292-9.539-13.658-14.526v-0.029      l17.68-105.271l14.642-87.359L78.113,99.583L63.926,47.479c-1.5-5.509,2.635-10.941,8.345-10.961l91.957-0.335l42.479-0.174      h1.476l38.341-0.145h1.447l52.115-0.174l51.941-0.202h0.058L451.27,35.124z"/>
				<polygon style="fill:#FFF5EE;" points="80.156,48.388 119.313,205.014 414.834,205.014 448.08,46.91     "/>
				<rect x="110.446" y="217.951" style="fill:#FFF5EE;" width="311.039" height="0.723"/>
				<path style="fill:#FFF5EE;" d="M395.048,230.741H144.033l0.039-0.396l1.119-12.012l0.094-0.094      c0.147-0.144,0.587-0.596,247.877-0.042h0.32L395.048,230.741z M144.829,230.018H394.23l-1.389-11.097      c-9.964-0.022-237.96-0.52-246.97-0.093L144.829,230.018z"/>
				<g>
					<g>
						<path style="fill:#FFF5EE;" d="M414.181,239.375H119l-10.359,71.212l-4.456,30.557l-0.058,0.405h323.423L414.181,239.375z         M104.966,340.826l3.703-25.319l0.637-4.572l1.302-8.797l1.939-13.398l1.939-13.369l1.968-13.397l1.939-13.369l1.244-8.507        h293.908l6.308,48.15l1.736,13.224l1.736,13.224l1.707,13.195l1.708,12.935H104.966z"/>
					</g>
					<g>
						<rect x="118.327" y="248.242" style="fill:#FFF5EE;" width="296.015" height="0.723"/>
						<rect x="116.399" y="261.541" style="fill:#FFF5EE;" width="299.812" height="0.723"/>
						<polygon style="fill:#FFF5EE;" points="114.47,275.726 114.47,275.003 418.076,274.676 418.076,275.399       "/>
						<polygon style="fill:#FFF5EE;" points="112.539,289.107 112.539,288.384 419.944,287.891 419.944,288.614       "/>
						<polygon style="fill:#FFF5EE;" points="110.611,302.488 110.611,301.765 421.812,301.108 421.812,301.831       "/>
						<polygon style="fill:#FFF5EE;" points="108.683,315.868 108.683,315.145 423.68,314.324 423.68,315.047       "/>
						<polygon style="fill:#FFF5EE;" points="106.754,329.249 106.754,328.526 425.546,327.541 425.546,328.264       "/>
					</g>
					<g>
						<polygon style="fill:#FFF5EE;" points="124.473,341.373 123.755,341.276 137.055,239.691 137.773,239.787       "/>
					</g>
					<g>
						
							<rect x="103.165" y="289.984" transform="matrix(0.1015 -0.9948 0.9948 0.1015 -150.4405 414.1301)" style="fill:#FFF5EE;" width="101.742" height="0.724"/>
					</g>
					<g>
						<polygon style="fill:#FFF5EE;" points="407.826,341.373 394.527,239.787 395.245,239.691 408.544,341.276       "/>
					</g>
					<g>
						
							<rect x="377.901" y="239.476" transform="matrix(0.9948 -0.1017 0.1017 0.9948 -27.5554 39.956)" style="fill:#FFF5EE;" width="0.724" height="101.742"/>
					</g>
					<g>
						<polygon style="fill:#FFF5EE;" points="175.823,328.789 175.102,328.738 181.012,240.081 181.733,240.132       "/>
					</g>
					<g>
						
							<rect x="157.772" y="284.012" transform="matrix(0.0312 -0.9995 0.9995 0.0312 -88.3654 477.5802)" style="fill:#FFF5EE;" width="88.82" height="0.724"/>
					</g>
					<g>
						
							<rect x="183.402" y="284.258" transform="matrix(0.0077 -1 1 0.0077 -58.8252 509.9579)" style="fill:#FFF5EE;" width="88.29" height="0.723"/>
					</g>
					<g>
						<polygon style="fill:#FFF5EE;" points="254.645,327.907 253.167,239.99 253.89,239.979 255.368,327.896       "/>
					</g>
					<g>
						<polygon style="fill:#FFF5EE;" points="334.489,327.471 328.28,240.01 329.001,239.959 335.413,328.272       "/>
					</g>
					<g>
						<rect x="302.667" y="240.231" style="fill:#FFF5EE;" width="0.723" height="88.533"/>
					</g>
					<g>
						<polygon style="fill:#FFF5EE;" points="277.794,328.772 275.577,240.239 276.301,240.222 278.517,328.755       "/>
					</g>
					<g>
						
							<rect x="355.491" y="240.368" transform="matrix(0.9975 -0.0701 0.0701 0.9975 -19.0612 25.6599)" style="fill:#FFF5EE;" width="0.722" height="87.766"/>
					</g>
				</g>
				<path style="fill:#FFF5EE;" d="M344.811,428.248h-156.46l8.41-68.27l-0.058-0.138l0.917-0.924l-0.086,0.711      c5.843,0.487,92.488,0.17,138.491-0.073l0.322-0.001L344.811,428.248z M189.168,427.525h154.825l-8.285-67.245      c-3.595,0.02-36.49,0.187-69.015,0.275c-55.598,0.147-66.874-0.022-69.241-0.28L189.168,427.525z"/>
			</g>
			<path style="fill:#FF899A;" d="M157.361,183.22l-7.019-50.608h30.66l6.033,50.978     C187.036,183.589,156.807,182.666,157.361,183.22z"/>
			<path style="fill:#FFA766;" d="M198.734,182.85l-8.127-74.619h39.156l2.894,74.619C232.657,182.85,198.365,182.51,198.734,182.85     z"/>
			<polygon style="fill:#8F8FEF;" points="246.017,183.22 245.648,91.239 278.894,91.239 280.741,182.679    "/>
			<path style="fill:#401A49;" d="M326.177,185.528H140c-0.681,0-1.271-0.474-1.415-1.14L116.42,81.941     c-0.168-0.782,0.327-1.551,1.108-1.72c0.794-0.166,1.554,0.326,1.721,1.107l21.92,101.308h185.008     c0.799,0,1.446,0.647,1.446,1.446S326.976,185.528,326.177,185.528z"/>
			<g>
				<path style="fill:#401A49;" d="M160.565,123.621c-1.533,0-3.066-0.029-4.598-0.086c-0.799-0.032-1.42-0.702-1.391-1.501      c0.029-0.798,0.679-1.356,1.501-1.391c35.104,1.338,70.564-13.07,94.802-38.528c0.555-0.575,1.47-0.599,2.046-0.05      c0.579,0.551,0.6,1.467,0.05,2.046C229.232,109.049,194.98,123.621,160.565,123.621z"/>
				<path style="fill:#401A49;" d="M247.373,105.739c-0.113,0-0.23-0.014-0.346-0.043c-0.778-0.191-1.25-0.976-1.059-1.752      l4.763-19.276l-19.609,7.189c-0.755,0.278-1.58-0.111-1.855-0.861s0.11-1.581,0.859-1.856l22.163-8.126      c0.5-0.183,1.064-0.076,1.465,0.282c0.398,0.356,0.566,0.904,0.438,1.424l-5.416,21.918      C248.615,105.298,248.023,105.739,247.373,105.739z"/>
			</g>
			<g>
				<path style="fill:#401A49;" d="M325.438,120.776c-0.181,0-0.364-0.068-0.503-0.204c-0.288-0.279-0.293-0.736-0.016-1.023      l25.614-26.351c0.251-0.261,0.652-0.292,0.943-0.081l32.476,23.51l31.333-34.248c0.275-0.293,0.731-0.312,1.022-0.045      c0.296,0.269,0.317,0.727,0.047,1.022l-31.768,34.724c-0.246,0.27-0.658,0.314-0.959,0.097l-32.491-23.522l-25.179,25.903      C325.815,120.702,325.627,120.776,325.438,120.776z"/>
				<path style="fill:#FFA766;" d="M327.901,120.298c0,2.108-1.709,3.817-3.817,3.817c-2.108,0-3.817-1.709-3.817-3.817      c0-2.108,1.709-3.817,3.817-3.817C326.192,116.481,327.901,118.19,327.901,120.298z"/>
				<path style="fill:#FFA766;" d="M354.006,94.194c0,2.108-1.709,3.817-3.817,3.817c-2.108,0-3.817-1.709-3.817-3.817      c0-2.108,1.709-3.817,3.817-3.817C352.297,90.377,354.006,92.086,354.006,94.194z"/>
				<path style="fill:#FFA766;" d="M387.129,117.713c0,2.108-1.709,3.817-3.817,3.817c-2.108,0-3.817-1.709-3.817-3.817      c0-2.108,1.709-3.817,3.817-3.817C385.42,113.895,387.129,115.604,387.129,117.713z"/>
				<path style="fill:#FFA766;" d="M419.267,83.358c0,2.108-1.709,3.817-3.817,3.817c-2.108,0-3.817-1.709-3.817-3.817      c0-2.108,1.709-3.817,3.817-3.817C417.558,79.541,419.267,81.25,419.267,83.358z"/>
			</g>
			<g>
				<polygon style="fill:#401A49;" points="346.864,150.158 346.372,146.156 416.558,146.156 415.819,150.343     "/>
				<polygon style="fill:#401A49;" points="352.226,157.916 351.789,153.914 413.972,153.914 413.317,158.1     "/>
				<polygon style="fill:#401A49;" points="371.774,166.289 371.491,162.287 411.879,162.287 411.453,166.474     "/>
			</g>
		</g>
		<g>
			<path style="fill:#FF899A;" d="M228.872,288.567c-0.26,1.591-0.608,3.328-1.042,5.18c-0.231,0.926-0.463,1.91-0.752,2.894     c0.029,0.029,0.029,0.058,0,0.058c-0.405,1.65-0.897,3.386-1.418,5.18c-1.186,4.225-2.633,8.739-4.138,13.34     c-1.476,4.456-3.009,8.971-4.514,13.311c-1.505,4.34-2.98,8.507-4.283,12.298c-0.087,0.26-0.174,0.492-0.232,0.724     c-1.071,3.067-1.997,5.874-2.778,8.275c-0.723,2.228-1.823,5.758-3.183,10.33c-3.848,12.877-9.954,33.885-16.32,56.021     c-1.273,4.427-2.546,8.912-3.819,13.368c0,0-30.95,18.939-54.336,13.37c-16.661-3.968-31.924-40.251-31.924-40.251     c2.749-7.64,4.919-14.034,6.134-18.115c4.34-14.642,7.089-28.502,8.247-42.999c0.029-0.232,0.029-0.492,0.058-0.724     c0.289-3.935,0.492-7.899,0.55-11.98c0.029-1.129,0.029-2.257,0.029-3.415c0-2.72,0.203-6.106,0.579-9.954     c0.029-0.347,0.058-0.695,0.116-1.071c0.376-3.762,0.897-7.928,1.562-12.298c0.666-4.312,1.447-8.826,2.286-13.369     c0.868-4.514,1.823-9.028,2.807-13.369c1.099-4.775,2.286-9.318,3.501-13.397c1.649-5.527,3.328-10.215,5.006-13.369     c1.418-2.72,2.778-4.311,4.08-4.427c0.492-0.058,0.955,0.058,1.331,0.29c0.26,0.116,0.492,0.318,0.665,0.55     c0.723,0.753,1.158,1.997,1.418,3.588c0.608,3.415,0.376,8.42-0.145,13.369c-0.579,5.122-1.476,10.186-2.083,13.368     c-0.347,1.794-0.608,3.009-0.695,3.299c0.087-0.174,0.318-0.608,0.666-1.273c0.058-0.145,0.116-0.289,0.203-0.434     c0.231-0.463,0.521-0.984,0.81-1.592c1.592-3.067,4.138-7.928,7.119-13.368c2.344-4.283,4.977-8.941,7.639-13.369     c1.186-1.968,2.373-3.906,3.53-5.729c0.232-0.347,0.463-0.695,0.665-1.042c0.405-0.578,0.781-1.157,1.158-1.736     c0.174-0.231,0.318-0.492,0.492-0.723c2.662-3.935,5.151-7.147,7.205-8.999c0.665-0.608,1.273-1.042,1.823-1.302     c0.173-0.116,0.376-0.202,0.521-0.26c0.174-0.058,0.347-0.116,0.463-0.116c0.174-0.029,0.318-0.058,0.463-0.029     c1.215,0.116,1.968,0.752,2.402,1.707c0.579,1.244,0.637,3.009,0.405,4.977c0,0.087,0,0.145-0.029,0.231     c-0.145,1.215-0.434,2.518-0.781,3.791c-0.058,0.232-0.116,0.492-0.174,0.723c-0.984,3.617-2.373,7.06-2.98,8.507     c-0.116,0.289-0.202,0.492-0.26,0.608c0.058-0.116,0.203-0.318,0.376-0.608c0.289-0.434,0.695-1.07,1.215-1.852     c0.868-1.331,2.055-3.067,3.443-4.919c0.232-0.347,0.463-0.694,0.724-1.042c0.174-0.231,0.376-0.463,0.55-0.695     c0.174-0.231,0.347-0.492,0.55-0.723c2.575-3.357,5.527-6.771,8.334-8.999c2.517-2.055,4.89-3.067,6.655-2.083     c0.087,0.058,0.174,0.116,0.26,0.174c0.174,0.174,0.318,0.405,0.434,0.637c0.145,0.347,0.26,0.781,0.318,1.273     c0.231,1.968-0.203,5.122-1.128,8.999c-0.058,0.232-0.116,0.463-0.174,0.723c-0.608,2.575-1.447,5.469-2.402,8.507     c-0.289,0.984-0.608,1.997-0.926,3.009c-0.231,0.666-0.434,1.215-0.578,1.678c-0.145,0.434-0.405,1.158-0.694,2.055     c-0.753,2.17-1.505,4.398-2.315,6.597c-0.521,1.418-1.042,2.836-1.562,4.254c-0.289,0.781-0.579,1.591-0.897,2.373     c-0.868,2.315-1.736,4.572-2.575,6.742c-0.984,2.489-1.91,4.832-2.778,6.974c-0.289,0.666-0.521,1.331-0.781,1.968     c-0.666,1.649-1.273,3.125-1.794,4.398c-1.187,2.893-1.968,4.717-2.083,4.977c0.087-0.116,0.318-0.463,0.694-1.042     c0,0,0.029-0.029,0.029-0.058c0.608-0.868,1.505-2.199,2.662-3.877c1.534-2.257,3.559-5.18,5.874-8.449     c0.232-0.376,0.521-0.753,0.781-1.129c0.868-1.215,1.765-2.488,2.691-3.791c3.067-4.312,6.453-8.912,9.838-13.34     c3.791-4.919,7.553-9.607,10.909-13.34c0.116-0.116,0.232-0.261,0.347-0.376c0.26-0.289,0.521-0.579,0.753-0.839     c3.906-4.196,7.147-6.916,8.999-6.916c1.939,0,1.939,3.154,0.781,8.131c-0.868,3.646-2.344,8.247-4.167,13.311     c-1.476,4.225-3.241,8.797-5.006,13.34c-0.521,1.302-1.042,2.633-1.563,3.935c-0.26,0.665-0.521,1.302-0.81,1.968     c-1.013,2.546-2.026,5.064-2.98,7.437c-2.083,5.18-3.964,9.838-5.267,13.369c-0.781,2.113-1.36,3.82-1.678,5.006     c-0.694,2.575-1.302,5.44-1.823,8.334c-0.897,4.832-1.563,9.694-1.967,13.311c-0.434,3.415-0.637,5.701-0.637,5.701     s1.215-2.199,3.241-5.701c1.997-3.443,4.775-8.16,7.9-13.34c0.752-1.215,1.505-2.46,2.286-3.704     c0.26-0.405,0.492-0.81,0.781-1.216c1.707-2.778,3.53-5.642,5.353-8.42c3.183-4.861,6.424-9.52,9.376-13.369     c4.572-5.903,8.507-9.867,10.764-9.694c0.058,0,0.116,0,0.174,0.029c0.174,0.029,0.347,0.087,0.521,0.203     C229.595,279.944,229.74,283.445,228.872,288.567z"/>
			<path style="fill:#FFF5EE;" d="M186.393,429.545c-1.071,3.733-2.142,7.437-3.183,11.141c-0.145,0.492-0.289,0.984-0.434,1.476     c-0.058,0.232-0.145,0.492-0.202,0.753c-3.588,12.587-7.173,25.243-10.067,35.458c-10.475-4.051-20.461-9.415-30.155-14.884     c-1.736-0.955-3.444-1.939-5.122-2.98c-0.781-0.434-1.562-0.897-2.315-1.389c-0.434-0.231-0.868-0.492-1.273-0.781     c-1.331-0.781-2.633-1.621-3.906-2.459c-1.91-1.215-3.82-2.488-5.672-3.791c-1.186-0.81-2.373-1.62-3.53-2.46     c-1.187-0.81-2.344-1.649-3.473-2.517c-1.157-0.868-2.315-1.736-3.443-2.604c-0.695-0.521-1.389-1.042-2.055-1.592     c-0.145-0.087-0.261-0.203-0.405-0.318c-1.042-0.81-2.054-1.649-3.067-2.459c-0.926-0.724-1.823-1.476-2.72-2.257     c-0.724-0.608-1.447-1.215-2.17-1.852c-1.187-0.984-2.373-2.026-3.53-3.096c-2.112-1.852-4.167-3.791-6.192-5.758     c-0.579-0.55-1.157-1.1-1.707-1.65c0,0,0,0,0-0.029c3.009-8.045,5.903-15.944,8.363-22.831     c19.503,10.417,40.424,18.114,62.011,22.831C170.16,427.259,178.262,428.619,186.393,429.545z"/>
			<path style="fill:#401A49;" d="M171.768,449.312c0,3.264-2.646,5.91-5.91,5.91c-3.264,0-5.911-2.646-5.911-5.91     c0-3.264,2.646-5.91,5.911-5.91C169.122,443.402,171.768,446.048,171.768,449.312z"/>
			<path style="fill:#401A49;" d="M126.578,299.944c-0.05,0-0.102-0.01-0.149-0.033c-0.183-0.083-0.262-0.296-0.181-0.478     c0.066-0.143,6.506-14.327,10.339-23.812c3.417-8.462,25.286-47.328,31.566-47.328c0.079,0,0.157,0.007,0.231,0.02     c1.027,0.174,1.821,0.744,2.355,1.693c2.227,3.948-0.629,13.737-2.452,18.361c-0.071,0.187-0.28,0.278-0.469,0.204     c-0.186-0.073-0.275-0.283-0.202-0.469c2.065-5.245,4.433-14.299,2.492-17.74c-0.427-0.761-1.032-1.197-1.844-1.336     c-0.052-0.009-0.107-0.013-0.165-0.013c-5.151,0-26.788,36.837-30.841,46.878c-3.838,9.502-10.286,23.7-10.349,23.841     C126.848,299.865,126.714,299.944,126.578,299.944z"/>
			<path style="fill:#401A49;" d="M142.647,296.065c-0.052,0-0.105-0.01-0.155-0.034c-0.181-0.085-0.257-0.301-0.173-0.482     c0.123-0.258,12.272-25.994,18.49-36.234c0.734-1.209,1.556-2.6,2.45-4.111c7.035-11.893,17.672-29.857,24.739-27.819     c0.776,0.224,1.37,0.735,1.774,1.516c2.224,4.323-2.086,16.59-4.158,22.487c-0.28,0.8-0.521,1.483-0.697,2.01     c-1.645,4.937-15.563,41.329-15.705,41.697c-0.071,0.185-0.283,0.276-0.466,0.208c-0.189-0.072-0.28-0.28-0.21-0.468     c0.141-0.367,14.054-36.742,15.694-41.666c0.175-0.531,0.417-1.216,0.699-2.021c2.038-5.801,6.28-17.87,4.197-21.917     c-0.312-0.605-0.747-0.983-1.328-1.152c-6.555-1.885-17.413,16.5-23.916,27.492c-0.896,1.513-1.719,2.907-2.455,4.117     c-6.199,10.209-18.333,35.909-18.453,36.169C142.911,295.989,142.783,296.065,142.647,296.065z"/>
		</g>
		<g>
			<path style="fill:#FF899A;" d="M420.952,430.442c-4.312,3.993-8.768,7.842-13.369,11.517c0,0-26.176,18.396-39.27,22.017     c-17.585,4.862-32.116-2.426-32.116-2.426c-1.794-6.25-3.559-12.5-5.324-18.635c-1.476-5.122-2.923-10.157-4.34-15.018     c-6.251-21.558-11.546-39.527-13.658-46.067c-1.823-5.672-4.572-13.426-7.437-21.76c-2.112-6.077-4.283-12.443-6.192-18.519     c-0.087-0.26-0.174-0.492-0.232-0.724c-1.389-4.427-2.633-8.681-3.617-12.529c-1.418-5.498-2.257-10.128-2.199-13.253     c0.058-2.431,0.637-3.877,1.968-4.138c1.447-0.26,3.646,1.331,6.25,4.109c0.405,0.434,0.81,0.868,1.244,1.36     c0.231,0.261,0.492,0.55,0.723,0.839c2.546,2.98,5.382,6.829,8.276,11.025c2.749,3.993,5.556,8.334,8.247,12.587     c0.145,0.231,0.289,0.492,0.434,0.724c4.369,7.002,8.363,13.716,11.083,18.403c2.228,3.907,3.617,6.366,3.617,6.366     s-0.232-2.575-0.695-6.395c-0.637-5.035-1.649-12.211-3.096-18.374c-0.058-0.26-0.116-0.492-0.174-0.724     c-0.145-0.636-0.29-1.244-0.463-1.852c-0.579-2.141-2.026-5.99-3.906-10.764c-1.534-3.906-3.386-8.478-5.295-13.253     c-1.765-4.34-3.559-8.854-5.238-13.253c-1.794-4.688-3.443-9.231-4.775-13.282c-1.881-5.729-3.096-10.504-3.038-13.282     c0.029-1.707,0.492-2.662,1.563-2.662c1.099,0,2.691,0.955,4.63,2.662c3.27,2.807,7.523,7.639,12.038,13.253     c1.823,2.315,3.733,4.775,5.643,7.263c0.289,0.405,0.608,0.839,0.897,1.244c1.215,1.562,2.373,3.154,3.559,4.746     c3.444,4.717,6.742,9.347,9.462,13.253c3.067,4.398,5.44,7.9,6.598,9.607c0,0,0,0.029,0.029,0.058     c0.318,0.434,0.521,0.752,0.636,0.926c-0.347-0.897-2.026-4.919-4.312-10.591c-0.752-1.852-1.563-3.906-2.402-6.077     c-0.926-2.373-1.852-4.803-2.749-7.176c-0.492-1.331-1.013-2.662-1.476-3.935c-1.128-3.096-2.257-6.25-3.328-9.346     c-1.592-4.659-3.039-9.231-4.138-13.253c-1.621-5.932-2.489-10.764-2.026-13.253c0.116-0.521,0.26-0.926,0.463-1.244     c0.145-0.174,0.318-0.347,0.492-0.434c1.65-0.926,3.82-0.087,6.163,1.678c3.038,2.344,6.337,6.25,9.144,9.954     c0.116,0.202,0.26,0.376,0.405,0.578c0.695,0.926,1.331,1.852,1.968,2.72c0.926,1.302,1.736,2.518,2.402,3.501l0.029,0.029     c0.463,0.752,0.868,1.389,1.157,1.852c0.145,0.231,0.261,0.405,0.376,0.55c-0.087-0.232-0.232-0.579-0.405-1.013     c-0.463-1.129-1.158-2.894-1.823-4.919c-0.81-2.373-1.562-5.092-1.881-7.523c-0.029-0.087-0.058-0.145-0.029-0.232     c-0.289-2.286-0.174-4.283,0.695-5.498c0.376-0.579,0.926-0.955,1.678-1.1c0.116-0.058,0.289-0.058,0.434-0.087h0.29     c0,0,0-0.029,0.029,0c0.029-0.029,0.058-0.029,0.087,0c0.087,0,0.203,0.029,0.318,0.087c0.058,0.029,0.116,0.029,0.203,0.058     c0.145,0.058,0.347,0.145,0.521,0.26c0.376,0.174,0.782,0.434,1.216,0.781c2.72,2.17,6.337,7.089,10.128,13.021     c0.029,0.058,0.087,0.116,0.116,0.203h0.029c0.174,0.318,0.376,0.608,0.579,0.926c2.402,3.877,4.919,8.131,7.292,12.298     c1.1,1.997,2.199,3.878,3.241,5.787v0.058c0.29,0.55,0.608,1.099,0.868,1.649c0,0,0,0.029,0.029,0.029     c0.839,1.533,1.621,2.951,2.344,4.311c0.26,0.492,0.492,0.955,0.723,1.418c0.116,0.174,0.203,0.347,0.289,0.521     c1.476,2.807,2.662,5.122,3.473,6.655c0.029,0.058,0.058,0.145,0.116,0.232c0.463,0.926,0.781,1.505,0.868,1.707     c-0.145-0.55-0.955-4.282-1.736-9.115c-0.318-2.054-0.666-4.311-0.926-6.626c-0.145-1.302-0.289-2.604-0.376-3.906     c-0.087-0.926-0.145-1.823-0.174-2.72c-0.318-6.8,0.376-12.414,3.704-12.124c0.405,0.029,0.839,0.232,1.273,0.579     c0.376,0.26,0.724,0.637,1.1,1.1c1.591,1.996,3.27,5.672,4.919,10.417c1.302,3.819,2.633,8.363,3.849,13.253     c1.07,4.196,2.112,8.681,3.067,13.224c0.897,4.369,1.736,8.854,2.46,13.195c0.781,4.456,1.418,8.826,1.939,12.877     c0.029,0.231,0.058,0.492,0.116,0.724c0.753,6.308,1.215,11.835,1.215,15.886c0,17.767,2.199,33.914,6.569,50.755     c0.232,0.926,0.492,1.881,0.752,2.807c0.492,1.852,1.013,3.704,1.562,5.556C417.306,419.852,418.926,424.684,420.952,430.442z"/>
			<path style="fill:#FFF5EE;" d="M407.583,441.959c-0.405,0.318-0.81,0.637-1.216,0.955     c-19.474,15.336-41.349,28.153-65.048,36.834c-1.649-5.816-3.415-12.238-5.122-18.199c23.815-2.691,47.224-9.028,69.216-18.635     C406.136,442.625,406.86,442.306,407.583,441.959z"/>
			<path style="fill:#401A49;" d="M395.996,331.958c-0.136,0-0.27-0.079-0.33-0.212c-0.063-0.142-6.514-14.34-10.349-23.841     c-4.056-10.04-25.695-46.878-30.846-46.878c-0.055,0-0.11,0.004-0.163,0.013c-0.812,0.139-1.417,0.575-1.847,1.335     c-1.941,3.444,0.43,12.498,2.497,17.742c0.073,0.186-0.016,0.396-0.202,0.469c-0.186,0.073-0.396-0.017-0.469-0.204     c-1.824-4.623-4.682-14.41-2.455-18.361c0.534-0.948,1.328-1.518,2.355-1.693c0.073-0.013,0.152-0.02,0.231-0.02     c6.27,0,28.15,38.865,31.569,47.327c3.831,9.486,10.273,23.67,10.339,23.812c0.081,0.182,0.003,0.396-0.181,0.478     C396.099,331.948,396.046,331.958,395.996,331.958z"/>
			<path style="fill:#401A49;" d="M379.925,328.079c-0.136,0-0.265-0.076-0.327-0.207c-0.121-0.259-12.251-25.96-18.451-36.169     c-0.739-1.217-1.567-2.617-2.468-4.14c-6.503-10.983-17.348-29.359-23.905-27.469c-0.582,0.169-1.014,0.54-1.323,1.132     c-1.913,3.659,1.703,14.378,3.645,20.137c0.474,1.408,0.886,2.625,1.129,3.464c1.577,5.463,15.668,41.655,15.812,42.021     c0.071,0.186-0.021,0.396-0.207,0.468c-0.181,0.071-0.393-0.018-0.469-0.206c-0.142-0.366-14.245-36.588-15.833-42.081     c-0.236-0.824-0.645-2.033-1.119-3.435c-2.114-6.271-5.654-16.77-3.6-20.702c0.401-0.765,0.993-1.267,1.763-1.491     c0.377-0.109,0.762-0.161,1.155-0.161c7.032,0,16.915,16.702,23.575,27.956c0.899,1.52,1.724,2.917,2.463,4.133     c6.217,10.241,18.364,35.976,18.487,36.234c0.084,0.181,0.008,0.397-0.173,0.482C380.03,328.069,379.977,328.079,379.925,328.079     z"/>
		</g>
	</g>
</g>















</svg>
