<?xml version="1.0" encoding="UTF-8"?>
<!-- Generator: Adobe Illustrator 25.2.1, SVG Export Plug-In . SVG Version: 6.00 Build 0)  -->
<svg xmlns="http://www.w3.org/2000/svg" xmlns:xlink="http://www.w3.org/1999/xlink" version="1.1" id="Capa_1" x="0px" y="0px" viewBox="0 0 512 512" style="enable-background:new 0 0 512 512;" xml:space="preserve" width="512" height="512">
<g>
	<path style="fill:#FFFFFF;" d="M263.466,504.522c-47.341,0-93.384-13.365-133.157-38.652   c-38.702-24.61-69.825-59.333-89.996-100.422c-16.824-34.188-25.358-70.996-25.358-109.39c0-16.671,1.656-33.246,4.932-49.468   C7.849,199.021,0,185.594,0,170.856v-21.93c0-23.25,18.918-42.168,42.168-42.168h22.596c17.083-22.733,37.707-42.198,61.401-57.929   c40.729-27.05,88.21-41.351,137.3-41.351c27.968,0,55.375,4.608,81.463,13.692c9.853,3.411,19.698,7.566,29.302,12.356   l43.106-1.915c0.208-0.009,0.416-0.014,0.625-0.014c3.505,0,6.891,1.311,9.487,3.686c2.752,2.516,4.39,6.024,4.555,9.748   l1.313,29.599C483.398,121.543,512,187.296,512,255.988c0,27.632-4.496,54.744-13.365,80.582   c-12.326,36.014-33.228,69.264-60.436,96.146C391.407,479.018,329.349,504.522,263.466,504.522z"/>
	<g>
		<path style="fill:#8F8FEF;" d="M498.742,255.989c0,26.613-4.428,52.194-12.604,76.02l-57.02,90.709    c-42.356,41.91-100.594,67.75-164.854,67.75c-92.418,0-172.374-53.483-210.536-131.213L29.809,256.059v-0.07    c0-81.595,41.7-153.469,104.928-195.45c0,0,45.564,5.407,93.448,5.407c26.917,0,112.918-31.504,112.918-31.504    C432.866,66.232,498.742,153.427,498.742,255.989z"/>
		<path style="fill:#F05D6A;" d="M115.34,303.569c0,30.923-25.067,55.966-55.967,55.966c-1.898,0-3.795-0.094-5.646-0.281    c-15.321-31.134-23.919-66.157-23.919-103.195c8.574-5.341,18.695-8.433,29.565-8.433    C90.273,247.626,115.34,272.669,115.34,303.569z"/>
		<path style="fill:#FFD2A7;" d="M486.138,332.009c-11.854,34.625-31.579,65.572-57.02,90.709    c-23.708-6.489-41.114-28.183-41.114-53.952c0-30.9,25.067-55.943,55.967-55.943C460.814,312.822,475.924,320.249,486.138,332.009    z"/>
		<path style="fill:#FF899A;" d="M341.104,34.443c-4.264,54.725-50.039,97.807-105.865,97.807    c-46.596,0-86.164-29.986-100.501-71.71c37.108-24.645,81.642-39.005,129.527-39.005    C291.181,21.534,317.021,26.056,341.104,34.443z"/>
		<g>
			<g>
				<path style="fill:#401A49;" d="M425.968,372.825H95.003V167.094c0-4.418,3.582-8,8-8h314.965c4.418,0,8,3.582,8,8V372.825z"/>
				<rect x="108.561" y="178.034" style="fill:#FFF5EE;" width="300.859" height="197.383"/>
				<g>
					<path style="fill:#401A49;" d="M82.613,394.818l-14.792-18.056c-1.628-1.987,0.74-4.325,4.379-4.325h378.371       c3.828,0,6.175,2.56,4.174,4.551l-17.927,17.829C436.819,394.818,83.447,395.327,82.613,394.818z"/>
					<path style="fill:#FFF5EE;" d="M441.298,391.291H81.259c-0.264,0-0.478-0.215-0.478-0.478s0.214-0.478,0.478-0.478h360.038       c0.264,0,0.478,0.215,0.478,0.478S441.562,391.291,441.298,391.291z"/>
				</g>
			</g>
			<g>
				<g>
					<rect x="120.522" y="190.599" style="fill:#FFFFFF;" width="273.343" height="173.452"/>
					<rect x="120.522" y="190.599" style="fill:#8F8FEF;" width="273.343" height="22.724"/>
				</g>
				<path style="fill:#F05D6A;" d="M363.563,202.757c0,2.533-2.053,4.586-4.586,4.586c-2.533,0-4.586-2.053-4.586-4.586      s2.053-4.586,4.586-4.586C361.51,198.171,363.563,200.224,363.563,202.757z"/>
				<path style="fill:#FF899A;" d="M342.629,202.757c0,2.533-2.053,4.586-4.586,4.586c-2.533,0-4.586-2.053-4.586-4.586      s2.053-4.586,4.586-4.586C340.576,198.171,342.629,200.224,342.629,202.757z"/>
				<path style="fill:#FFA766;" d="M384.498,202.757c0,2.533-2.053,4.586-4.586,4.586c-2.533,0-4.586-2.053-4.586-4.586      s2.053-4.586,4.586-4.586C382.445,198.171,384.498,200.224,384.498,202.757z"/>
				<path style="fill:#FFA766;" d="M376.417,249.505H136.978v-23.315h239.439V249.505z M137.563,248.919h238.268v-22.143H137.563      V248.919z"/>
				<path style="fill:#FFA766;" d="M376.417,355.174H136.58V258.09h239.837V355.174z M137.165,354.588h238.666v-95.912H137.165      V354.588z"/>
				<path style="fill:#FFA766;" d="M159.014,345.117l-0.419-0.407l31.661-32.465l0.198,0.116l26.907,15.829l37.138-41.929      l0.22,0.234c10.676,11.417,26.936,28.44,28.788,29.415c3.281-3.111,52.121-36.556,62.146-43.413l0.332,0.483      c-16.926,11.575-61.079,41.929-62.115,43.361c-0.017,0.07-0.111,0.154-0.23,0.18c-0.008,0.002-0.016,0.003-0.026,0.003      c-1.445,0.001-20.627-20.331-29.103-29.394l-37.031,41.81l-0.208-0.123l-26.917-15.835L159.014,345.117z M283.432,315.985      c-0.041,0.026-0.077,0.068-0.096,0.125C283.345,316.084,283.377,316.043,283.432,315.985z"/>
				<path style="fill:#8F8FEF;" d="M162.393,345.112c0,2.092-1.696,3.788-3.788,3.788c-2.092,0-3.788-1.696-3.788-3.788      c0-2.092,1.696-3.788,3.788-3.788C160.697,341.324,162.393,343.02,162.393,345.112z"/>
				<circle style="fill:#FF899A;" cx="254.305" cy="286.894" r="3.788"/>
				<path style="fill:#8F8FEF;" d="M348.81,273.336c0,2.092-1.696,3.788-3.788,3.788c-2.092,0-3.788-1.696-3.788-3.788      c0-2.092,1.696-3.788,3.788-3.788C347.113,269.548,348.81,271.244,348.81,273.336z"/>
				<g>
					<path style="fill:#FFA766;" d="M366.519,335.391h-10.197v-10.199h10.197V335.391z M356.649,335.062h9.542v-9.54h-9.542V335.062       z"/>
					<path style="fill:#FFA766;" d="M366.519,322.232h-10.197v-10.198h10.197V322.232z M356.649,321.903h9.542v-9.541h-9.542       V321.903z"/>
					<path style="fill:#FFA766;" d="M366.519,347.768h-10.197v-10.199h10.197V347.768z M356.649,347.439h9.542v-9.54h-9.542V347.439       z"/>
				</g>
			</g>
		</g>
		<g>
			<g>
				<g>
					<g>
						
							<rect x="203.323" y="47.656" transform="matrix(0.9844 0.1761 -0.1761 0.9844 20.6554 -42.4476)" style="fill:#FFF5EE;" width="92.38" height="95.019"/>
					</g>
					<g>
						<path style="fill:#401A49;" d="M261.347,63.656c0,3.162-2.564,5.726-5.726,5.726c-3.163,0-5.726-2.564-5.726-5.726        c0-3.163,2.564-5.726,5.726-5.726C258.783,57.93,261.347,60.494,261.347,63.656z"/>
					</g>
				</g>
				<g>
					<path style="fill:#401A49;" d="M218.624,79.588c-1.071-0.098-2.199-0.178-3.557-0.302c-0.746-0.069-1.034-0.849-0.972-1.517       c0.082-0.906,0.581-1.151,1.718-1.048l9.176,0.842c0.62,0.057,1.368,0.402,1.277,1.405c-0.069,0.746-0.645,1.32-1.29,1.272       c-0.243-0.021-0.464-0.112-0.718-0.135l-2.965-0.272L220.067,92.8c-0.032,0.368,0.016,0.709-0.021,1.123       c-0.062,0.666-0.318,1.419-1.526,1.309c-1.4-0.128-1.247-1.18-1.169-2.009L218.624,79.588z"/>
					<path style="fill:#401A49;" d="M234.885,82.098c4.324,0.398,6.845,3.9,6.479,7.888c-0.4,4.37-3.944,6.966-7.806,6.612       c-3.875-0.355-6.875-3.551-6.474-7.92C227.45,84.687,230.932,81.736,234.885,82.098z M233.774,94.124       c2.448,0.227,4.658-1.254,4.946-4.381c0.236-2.588-1.221-4.9-4.072-5.161c-2.839-0.261-4.672,1.75-4.907,4.338       C229.473,91.841,231.015,93.873,233.774,94.124z"/>
					<path style="fill:#401A49;" d="M260.389,84.436c1.794,0.165,3.473,1.039,4.365,2.455c0.073-0.794,0.268-3.038,0.49-5.834       l-0.979-0.089c-0.343-0.032-0.689,0.052-1.068,0.016c-0.552-0.05-1.135-0.636-1.055-1.51c0.073-0.794,0.586-1.199,1.206-1.142       c0.149,0.014,0.368,0.034,0.636,0.128c1.013,0.103,2.018,0.139,3.191,0.236c0.643,0.057,0.991,0.576,0.924,1.313       c-0.028,0.274-0.078,0.455-0.16,0.599c-0.343,2.995-1.082,10.775-1.226,12.352c-0.137,1.494-0.229,2.773-0.233,3.457       l0.217-0.108c0.338-0.156,0.638-0.277,0.988-0.281c0.524-0.009,1.155,0.419,1.073,1.327c-0.059,0.645-0.522,0.995-0.904,1.112       c-0.382,0.14-0.734,0.281-1.094,0.435c-0.542,0.229-1.075,0.48-1.446,0.446c-0.723-0.066-1.103-0.867-1.226-2.048       c-1.331,1.128-3.374,1.789-5.351,1.606c-3.981-0.364-6.294-3.8-5.925-7.836C253.194,86.909,256.432,84.074,260.389,84.436z        M259.159,96.453c2.022,0.185,4.319-0.972,4.992-3.091c0.114-1.254,0.124-1.473,0.179-2.082       c-0.281-2.265-1.917-4.141-4.091-4.34c-2.553-0.236-4.601,1.512-4.864,4.365C255.155,93.719,256.528,96.211,259.159,96.453z"/>
					<path style="fill:#401A49;" d="M278.637,86.11c4.328,0.396,6.845,3.898,6.479,7.886c-0.4,4.369-3.944,6.966-7.806,6.614       c-3.875-0.357-6.872-3.553-6.472-7.923C271.204,88.698,274.683,85.746,278.637,86.11z M277.525,98.137       c2.448,0.224,4.66-1.256,4.949-4.383c0.236-2.588-1.222-4.9-4.075-5.161c-2.837-0.261-4.669,1.75-4.905,4.337       C273.226,95.852,274.766,97.883,277.525,98.137z"/>
				</g>
			</g>
			<g>
				<g>
					<g>
						
							<rect x="328.532" y="47.656" transform="matrix(0.999 -0.0444 0.0444 0.999 -3.8547 16.7259)" style="fill:#FFF5EE;" width="92.38" height="95.019"/>
					</g>
					<g>
						<path style="fill:#401A49;" d="M382.166,60.221c0,3.162-2.563,5.726-5.726,5.726c-3.162,0-5.726-2.564-5.726-5.726        c0-3.162,2.564-5.726,5.726-5.726C379.602,54.495,382.166,57.058,382.166,60.221z"/>
					</g>
				</g>
				<g>
					<path style="fill:#401A49;" d="M343.566,98.059c-0.679-4.018-1.382-8.09-2.194-12.194c-0.224-0.288-0.442-0.686-0.487-0.961       c-0.112-0.65,0.121-1.212,0.986-1.359c0.432-0.073,0.872,0.03,1.361-0.053c1.059-0.181,2.078-0.529,3.16-0.712       c6.717-1.137,9.721,2.569,10.455,6.918c0.656,3.882-0.593,10.066-7.968,11.315c-1.139,0.192-2.322,0.124-3.528,0.327       c-0.924,0.158-1.359-0.204-1.505-1.068C343.728,99.578,343.717,98.961,343.566,98.059z M348.59,98.478       c5.646-0.956,6.07-5.797,5.742-7.719c-0.853-5.054-3.539-6.111-7.932-5.367c-0.581,0.098-1.755,0.355-2.443,0.517l2.228,12.763       C346.853,98.734,348.146,98.553,348.59,98.478z"/>
					<path style="fill:#401A49;" d="M365.963,83.473c4.28-0.723,7.611,2.018,8.282,5.969c0.73,4.326-2.029,7.74-5.854,8.387       c-3.837,0.65-7.554-1.67-8.286-5.996C359.434,87.881,362.046,84.136,365.963,83.473z M367.965,95.385       c2.425-0.41,4.182-2.407,3.66-5.502c-0.435-2.562-2.434-4.427-5.26-3.949c-2.812,0.476-4.065,2.892-3.631,5.454       C363.224,94.28,365.233,95.847,367.965,95.385z"/>
					<path style="fill:#401A49;" d="M379.632,93.857c-0.025-0.419-0.05-0.908-0.151-1.51c-0.201-1.185-0.382-2.194-0.595-3.306       c-0.016-0.103-0.048-0.215-0.956-5.038c-0.188,0.069-0.446,0.135-0.812,0.197c-0.547,0.094-1.251-0.128-1.402-1.03       c-0.14-0.819,0.268-1.32,0.872-1.423c0.24-0.039,0.483,0.012,0.732-0.032c0.307-0.05,0.625-0.114,0.927-0.201       c0.325-0.078,0.675-0.16,0.926-0.201c0.613-0.105,1.153,0.247,1.279,0.988c0.03,0.183,0.064,0.444,0.08,0.677       c0.881-1.167,2.283-2.356,4.253-2.688c3.848-0.652,6.264,1.59,7.01,5.994c0.224,1.332,0.124,3.022-0.192,4.399       c0.323-0.16,0.65-0.309,0.863-0.368c0.817-0.219,1.329,0.103,1.471,0.945c0.073,0.432,0.016,1.064-0.705,1.455l-1.181,0.492       c-1.434,0.723-1.624,0.917-2.141,0.981c-0.727,0.124-1.219-0.577-1.322-1.178c-0.08-0.478-0.046-1.034,0.227-1.503       c0.682-1.231,0.689-2.986,0.384-4.784c-0.348-2.059-1.56-4.386-4.134-3.951c-1.787,0.302-3.29,1.81-4.125,3.242       c0.103,0.682,0.211,1.377,0.327,2.073c0.165,1.18,0.352,2.354,0.556,3.551c0.057,0.341,0.103,0.698,0.206,1.086l0.293-0.142       c0.151-0.073,0.314-0.149,0.439-0.169c0.819-0.14,1.322,0.211,1.453,0.972c0.192,1.151-0.785,1.457-1.553,1.679       c-0.213,0.059-0.414,0.117-0.542,0.185c-0.467,0.222-0.778,0.389-1.041,0.432c-0.899,0.153-1.233-0.233-1.359-0.972       C379.671,94.433,379.644,94.133,379.632,93.857z"/>
					<path style="fill:#401A49;" d="M402.707,89.508c2.38-0.403,3.519-1.556,3.768-2.091c0.22-0.503,0.663-0.988,1.062-1.055       c0.753-0.128,1.279,0.286,1.405,1.036c0.048,0.284-0.044,0.78-0.535,1.402c-1.064,1.386-2.759,2.725-5.296,3.155       c-4.512,0.764-7.316-2.743-7.838-5.836c-0.759-4.489,1.835-7.913,5.898-8.602c2.926-0.494,5.477,0.95,6.465,3.462       c0.339,0.204,0.563,0.645,0.634,1.055c0.114,0.673-0.336,1.203-1,1.492c-2.933,1.293-5.905,2.345-8.977,3.626       C399.266,89.316,401.193,89.764,402.707,89.508z M405.393,81.992c-0.762-1.322-2.224-2.283-3.887-2.002       c-2.585,0.437-3.976,2.452-3.766,5.086C400.199,84.042,402.782,83.102,405.393,81.992z"/>
				</g>
			</g>
		</g>
		<g>
			<path style="fill:#FFA766;" d="M191.863,198.969H26.854c-6.6,0-12-5.4-12-12v-54.156c0-6.6,5.4-12,12-12h165.009     c6.6,0,12,5.4,12,12v54.156C203.863,193.569,198.463,198.969,191.863,198.969z"/>
			<g>
				<path style="fill:#FFFFFF;" d="M180.137,141.449H39.377c-0.877,0-1.595-0.718-1.595-1.595l0,0c0-0.877,0.718-1.595,1.595-1.595      h140.76c0.877,0,1.595,0.718,1.595,1.595l0,0C181.732,140.731,181.014,141.449,180.137,141.449z"/>
				<path style="fill:#FFFFFF;" d="M180.137,153.81H39.377c-0.877,0-1.595-0.718-1.595-1.595l0,0c0-0.877,0.718-1.595,1.595-1.595      h140.76c0.877,0,1.595,0.718,1.595,1.595l0,0C181.732,153.092,181.014,153.81,180.137,153.81z"/>
				<path style="fill:#FFFFFF;" d="M180.137,166.171H39.377c-0.877,0-1.595-0.718-1.595-1.595l0,0c0-0.877,0.718-1.595,1.595-1.595      h140.76c0.877,0,1.595,0.718,1.595,1.595l0,0C181.732,165.454,181.014,166.171,180.137,166.171z"/>
				<path style="fill:#FFFFFF;" d="M136.273,178.533H38.381c-0.33,0-0.599-0.27-0.599-0.599v-2.39c0-0.329,0.27-0.599,0.599-0.599      h97.892c0.33,0,0.599,0.27,0.599,0.599v2.391C136.872,178.263,136.603,178.533,136.273,178.533z"/>
			</g>
		</g>
		<g>
			<polygon style="fill:#FFA766;" points="118.928,273.324 67.502,273.324 67.502,193.187 68.673,193.187 68.673,272.153      118.928,272.153    "/>
			<path style="fill:#FFA766;" d="M124.112,272.838c0,3.799-3.08,6.879-6.879,6.879c-3.799,0-6.878-3.08-6.878-6.879     c0-3.799,3.079-6.879,6.878-6.879C121.033,265.959,124.112,269.039,124.112,272.838z"/>
		</g>
		<g>
			<g>
				<rect x="177.146" y="376.178" style="fill:#FF899A;" width="169.271" height="91.865"/>
				<polygon style="fill:#FF899A;" points="295.157,384.751 314.799,346.426 316.715,385.23     "/>
			</g>
			<g>
				<g>
					<g>
						<path style="fill:#401A49;" d="M253.142,418.515c-1.161-8.484-5.527-16.001-12.353-21.196        c-8.263-6.301-19.151-8.207-29.072-5.057c-0.166,0.055-0.276,0.249-0.221,0.442l6.577,20.781l2.819,8.926l-30.979-3.565        c-0.166,0-0.359,0.111-0.387,0.304c-1.271,11.164,3.482,22.329,12.408,29.155c5.637,4.311,12.38,6.577,19.372,6.577        c1.437,0,2.902-0.111,4.339-0.304c7.655-1.05,14.563-4.725,19.648-10.446c0.553-0.608,1.078-1.243,1.575-1.907        C252.037,435.427,254.275,426.998,253.142,418.515z M246.316,441.811c-0.414,0.553-0.856,1.105-1.326,1.63        c-5.002,5.721-11.828,9.396-19.427,10.446c-8.318,1.133-16.525-1.05-23.186-6.135c-8.677-6.605-13.32-17.355-12.187-28.188        l31.144,3.592c0.111,0,0.249-0.028,0.304-0.138c0.083-0.083,0.11-0.193,0.083-0.304l-2.763-8.733l-6.688-21.168        c2.985-0.912,6.052-1.354,9.092-1.354c6.798,0,13.486,2.211,19.013,6.411c6.66,5.085,10.944,12.436,12.076,20.754        C253.557,426.915,251.374,435.151,246.316,441.811z"/>
					</g>
				</g>
				<g>
					<path style="fill:#401A49;" d="M209.66,390.66l9.551,30.365l-31.748-3.789c0.653-5.502,2.764-10.908,6.399-15.621       C198.035,396.203,203.592,392.51,209.66,390.66z"/>
				</g>
			</g>
			<g>
				<rect x="264.496" y="398.008" style="fill:#401A49;" width="71.221" height="4.169"/>
				<rect x="264.496" y="414.336" style="fill:#401A49;" width="71.221" height="4.169"/>
				<rect x="264.496" y="423.717" style="fill:#401A49;" width="71.221" height="4.169"/>
				<rect x="264.496" y="432.75" style="fill:#401A49;" width="71.221" height="4.169"/>
				<rect x="264.496" y="441.088" style="fill:#401A49;" width="47.423" height="4.343"/>
			</g>
		</g>
		<g>
			<g>
				
					<ellipse transform="matrix(0.1607 -0.987 0.987 0.1607 145.7386 660.9417)" style="fill:#FFA766;" cx="461.507" cy="244.776" rx="32.448" ry="32.449"/>
				<g>
					<path style="fill:#FFFFFF;" d="M465.545,280.508c-17.971,0-32.591-14.62-32.591-32.592c0-17.971,14.62-32.593,32.591-32.593       c17.972,0,32.592,14.621,32.592,32.593C498.136,265.888,483.516,280.508,465.545,280.508z M465.545,215.909       c-17.648,0-32.006,14.358-32.006,32.007c0,17.648,14.358,32.006,32.006,32.006c17.648,0,32.006-14.358,32.006-32.006       C497.551,230.267,483.193,215.909,465.545,215.909z"/>
					<path style="fill:#FFFFFF;" d="M497.843,248.209h-64.398c-0.161,0-0.293-0.132-0.293-0.293c0-0.161,0.132-0.293,0.293-0.293       h64.398c0.161,0,0.293,0.132,0.293,0.293C498.136,248.077,498.005,248.209,497.843,248.209z"/>
					<path style="fill:#FFFFFF;" d="M465.993,280.358c-0.161,0-0.292-0.13-0.293-0.292l-0.299-64.299       c-0.001-0.161,0.129-0.293,0.292-0.294h0.001c0.161,0,0.292,0.13,0.293,0.292l0.299,64.299       c0.001,0.161-0.129,0.293-0.292,0.294H465.993z"/>
					<path style="fill:#FFFFFF;" d="M461.996,280.333c-0.039,0-0.078-0.008-0.114-0.027c-4.611-2.333-8.609-7.407-10.969-13.918       c-1.985-5.471-2.928-12.062-2.807-19.589c0.112-7.008,1.134-13.095,3.035-18.095c2.312-6.077,7.527-10.953,11.671-13.088       c0.122-0.061,0.276-0.015,0.341,0.11c0.064,0.124,0.015,0.277-0.11,0.341c-4.8,2.473-9.499,7.744-11.428,12.818       c-1.88,4.944-2.891,10.974-3.003,17.924c-0.12,7.464,0.815,13.994,2.777,19.408c2.316,6.39,6.224,11.361,10.722,13.639       c0.125,0.063,0.175,0.215,0.111,0.34C462.177,280.282,462.089,280.333,461.996,280.333z"/>
					<path style="fill:#FFFFFF;" d="M469.656,279.884c-0.077,0-0.153-0.032-0.206-0.096c-0.095-0.114-0.079-0.283,0.034-0.378       c13.944-11.594,13.488-27.883,11.932-39.128c-0.786-5.664-2.276-10.566-4.431-14.571c-2.483-4.614-5.951-8.111-9.762-9.845       c-0.135-0.061-0.194-0.22-0.133-0.355c0.061-0.136,0.224-0.198,0.355-0.133c3.918,1.782,7.474,5.361,10.011,10.079       c2.186,4.061,3.697,9.024,4.491,14.751c1.574,11.37,2.029,27.848-12.12,39.613       C469.777,279.865,469.716,279.884,469.656,279.884z"/>
					<path style="fill:#FFFFFF;" d="M433.246,247.909c-0.03,0-0.06-0.005-0.089-0.014c-0.154-0.05-0.239-0.215-0.19-0.368       c2.666-8.289,8.569-14.953,15.402-17.394c2.247-0.802,4.808-1.345,8.061-1.709c8.181-0.921,15.802-0.273,22.654,1.916       c6.466,2.066,14.705,7.555,18.433,16.768c0.061,0.15-0.012,0.32-0.161,0.381c-0.148,0.06-0.322-0.01-0.381-0.161       c-3.652-9.024-11.728-14.405-18.069-16.43c-6.774-2.165-14.315-2.799-22.409-1.893c-3.207,0.36-5.727,0.893-7.931,1.679       c-6.665,2.382-12.429,8.903-15.041,17.021C433.485,247.831,433.37,247.909,433.246,247.909z"/>
					<path style="fill:#FFFFFF;" d="M461.757,266.844c-2.634,0-5.17-0.284-7.599-0.852c-7.825-1.83-17.442-7.495-20.965-17.908       c-0.053-0.153,0.03-0.319,0.183-0.371c0.153-0.057,0.32,0.031,0.371,0.183c3.448,10.185,12.873,15.731,20.544,17.525       c7.733,1.809,16.578,0.681,26.29-3.353c7.611-3.162,13.755-8.262,16.855-13.994c0.077-0.141,0.253-0.196,0.397-0.118       c0.142,0.077,0.194,0.254,0.118,0.397c-3.162,5.848-9.412,11.044-17.146,14.255       C474.017,265.429,467.64,266.844,461.757,266.844z"/>
				</g>
			</g>
			<g>
				<path style="fill:#FFFFFF;" d="M456.057,159.015c-5.546-7.885-14.733-13.021-25.078-13.021      c-16.952,0-30.769,13.793-30.769,30.744c0,10.079,4.871,19.026,12.394,24.644c5.136,3.834,11.502,6.101,18.375,6.101      c16.952,0,30.745-13.793,30.745-30.745C461.724,170.131,459.626,164.006,456.057,159.015z M430.979,206.928      c-6.8,0-13.118-2.267-18.182-6.077c-7.306-5.522-12.033-14.275-12.033-24.114c0-16.662,13.552-30.214,30.214-30.214      c10.103,0,19.074,4.992,24.572,12.66c3.52,4.943,5.618,10.996,5.618,17.555C461.169,193.401,447.617,206.928,430.979,206.928z"/>
			</g>
			<g>
				<g>
					<path style="fill:#FFF5EE;" d="M453.881,308.803c-2.494,0-4.515-2.022-4.515-4.515c0-2.494,2.021-4.515,4.515-4.515       c2.493,0,4.515,2.021,4.515,4.515C458.396,306.782,456.374,308.803,453.881,308.803z"/>
				</g>
				<g>
					<path style="fill:#FFF5EE;" d="M453.881,323.579c-2.494,0-4.515-2.021-4.515-4.515c0-2.493,2.021-4.515,4.515-4.515       c2.493,0,4.515,2.021,4.515,4.515C458.396,321.558,456.374,323.579,453.881,323.579z"/>
				</g>
				<g>
					<path style="fill:#FFF5EE;" d="M453.881,323.579c-2.494,0-4.515-2.021-4.515-4.515c0-2.493,2.021-4.515,4.515-4.515       c2.493,0,4.515,2.021,4.515,4.515C458.396,321.558,456.374,323.579,453.881,323.579z"/>
				</g>
				<g>
					<path style="fill:#FFF5EE;" d="M453.881,338.355c-2.494,0-4.515-2.021-4.515-4.515c0-2.493,2.021-4.515,4.515-4.515       c2.493,0,4.515,2.022,4.515,4.515C458.396,336.334,456.374,338.355,453.881,338.355z"/>
				</g>
			</g>
			<g>
				<g>
					<circle style="fill:#FFF5EE;" cx="108.716" cy="411.903" r="4.515"/>
				</g>
				<g>
					<circle style="fill:#FFF5EE;" cx="123.492" cy="411.903" r="4.515"/>
				</g>
				<g>
					<circle style="fill:#FFF5EE;" cx="123.492" cy="411.903" r="4.515"/>
				</g>
				<g>
					<path style="fill:#FFF5EE;" d="M142.783,411.903c0,2.494-2.021,4.515-4.515,4.515c-2.493,0-4.515-2.021-4.515-4.515       c0-2.493,2.021-4.515,4.515-4.515C140.761,407.388,142.783,409.409,142.783,411.903z"/>
				</g>
			</g>
			<g>
				<g>
					<circle style="fill:#FFF5EE;" cx="140.616" cy="92.901" r="4.515"/>
				</g>
				<g>
					<circle style="fill:#FFF5EE;" cx="155.392" cy="92.901" r="4.515"/>
				</g>
				<g>
					<circle style="fill:#FFF5EE;" cx="155.392" cy="92.901" r="4.515"/>
				</g>
				<g>
					<circle style="fill:#FFF5EE;" cx="170.168" cy="92.901" r="4.515"/>
				</g>
			</g>
		</g>
	</g>
</g>















</svg>
